<?xml version="1.0" encoding="utf-8" standalone="no"?>
<!DOCTYPE svg PUBLIC "-//W3C//DTD SVG 1.1//EN"
  "http://www.w3.org/Graphics/SVG/1.1/DTD/svg11.dtd">
<!-- Created with matplotlib (http://matplotlib.org/) -->
<svg height="322pt" version="1.1" viewBox="0 0 324 322" width="324pt" xmlns="http://www.w3.org/2000/svg" xmlns:xlink="http://www.w3.org/1999/xlink">
 <defs>
  <style type="text/css">
*{stroke-linecap:butt;stroke-linejoin:round;stroke-miterlimit:100000;}
  </style>
 </defs>
 <g id="figure_1">
  <g id="patch_1">
   <path d="M 0 322.2 
L 324 322.2 
L 324 0 
L 0 0 
z
" style="fill:#ffffff;"/>
  </g>
  <g id="axes_1">
   <g id="patch_2">
    <path d="M 40.5 289.98 
L 291.6 289.98 
L 291.6 32.22 
L 40.5 32.22 
z
" style="fill:#ffffff;"/>
   </g>
   <g id="matplotlib.axis_1">
    <g id="xtick_1">
     <g id="line2d_1">
      <defs>
       <path d="M 0 0 
L 0 0 
" id="m98b20809e3" style="stroke:#262626;"/>
      </defs>
      <g>
       <use style="fill:#262626;stroke:#262626;" x="40.5" xlink:href="#m98b20809e3" y="289.98"/>
      </g>
     </g>
     <g id="line2d_2">
      <g>
       <use style="fill:#262626;stroke:#262626;" x="40.5" xlink:href="#m98b20809e3" y="32.22"/>
      </g>
     </g>
     <g id="text_1">
      <!-- 0.0 -->
      <defs>
       <path d="M 4.15625 35.296875 
Q 4.15625 48 6.765625 55.734375 
Q 9.375 63.484375 14.515625 67.671875 
Q 19.671875 71.875 27.484375 71.875 
Q 33.25 71.875 37.59375 69.546875 
Q 41.9375 67.234375 44.765625 62.859375 
Q 47.609375 58.5 49.21875 52.21875 
Q 50.828125 45.953125 50.828125 35.296875 
Q 50.828125 22.703125 48.234375 14.96875 
Q 45.65625 7.234375 40.5 3 
Q 35.359375 -1.21875 27.484375 -1.21875 
Q 17.140625 -1.21875 11.234375 6.203125 
Q 4.15625 15.140625 4.15625 35.296875 
M 13.1875 35.296875 
Q 13.1875 17.671875 17.3125 11.828125 
Q 21.4375 6 27.484375 6 
Q 33.546875 6 37.671875 11.859375 
Q 41.796875 17.71875 41.796875 35.296875 
Q 41.796875 52.984375 37.671875 58.78125 
Q 33.546875 64.59375 27.390625 64.59375 
Q 21.34375 64.59375 17.71875 59.46875 
Q 13.1875 52.9375 13.1875 35.296875 
" id="ArialMT-30"/>
       <path d="M 9.078125 0 
L 9.078125 10.015625 
L 19.09375 10.015625 
L 19.09375 0 
z
" id="ArialMT-2e"/>
      </defs>
      <g style="fill:#262626;" transform="translate(33.55 304.1378125)scale(0.1 -0.1)">
       <use xlink:href="#ArialMT-30"/>
       <use x="55.615234375" xlink:href="#ArialMT-2e"/>
       <use x="83.3984375" xlink:href="#ArialMT-30"/>
      </g>
     </g>
    </g>
    <g id="xtick_2">
     <g id="line2d_3">
      <g>
       <use style="fill:#262626;stroke:#262626;" x="90.72" xlink:href="#m98b20809e3" y="289.98"/>
      </g>
     </g>
     <g id="line2d_4">
      <g>
       <use style="fill:#262626;stroke:#262626;" x="90.72" xlink:href="#m98b20809e3" y="32.22"/>
      </g>
     </g>
     <g id="text_2">
      <!-- 0.2 -->
      <defs>
       <path d="M 50.34375 8.453125 
L 50.34375 0 
L 3.03125 0 
Q 2.9375 3.171875 4.046875 6.109375 
Q 5.859375 10.9375 9.828125 15.625 
Q 13.8125 20.3125 21.34375 26.46875 
Q 33.015625 36.03125 37.109375 41.625 
Q 41.21875 47.21875 41.21875 52.203125 
Q 41.21875 57.421875 37.46875 61 
Q 33.734375 64.59375 27.734375 64.59375 
Q 21.390625 64.59375 17.578125 60.78125 
Q 13.765625 56.984375 13.71875 50.25 
L 4.6875 51.171875 
Q 5.609375 61.28125 11.65625 66.578125 
Q 17.71875 71.875 27.9375 71.875 
Q 38.234375 71.875 44.234375 66.15625 
Q 50.25 60.453125 50.25 52 
Q 50.25 47.703125 48.484375 43.546875 
Q 46.734375 39.40625 42.65625 34.8125 
Q 38.578125 30.21875 29.109375 22.21875 
Q 21.1875 15.578125 18.9375 13.203125 
Q 16.703125 10.84375 15.234375 8.453125 
z
" id="ArialMT-32"/>
      </defs>
      <g style="fill:#262626;" transform="translate(83.77 304.1378125)scale(0.1 -0.1)">
       <use xlink:href="#ArialMT-30"/>
       <use x="55.615234375" xlink:href="#ArialMT-2e"/>
       <use x="83.3984375" xlink:href="#ArialMT-32"/>
      </g>
     </g>
    </g>
    <g id="xtick_3">
     <g id="line2d_5">
      <g>
       <use style="fill:#262626;stroke:#262626;" x="140.94" xlink:href="#m98b20809e3" y="289.98"/>
      </g>
     </g>
     <g id="line2d_6">
      <g>
       <use style="fill:#262626;stroke:#262626;" x="140.94" xlink:href="#m98b20809e3" y="32.22"/>
      </g>
     </g>
     <g id="text_3">
      <!-- 0.4 -->
      <defs>
       <path d="M 32.328125 0 
L 32.328125 17.140625 
L 1.265625 17.140625 
L 1.265625 25.203125 
L 33.9375 71.578125 
L 41.109375 71.578125 
L 41.109375 25.203125 
L 50.78125 25.203125 
L 50.78125 17.140625 
L 41.109375 17.140625 
L 41.109375 0 
z
M 32.328125 25.203125 
L 32.328125 57.46875 
L 9.90625 25.203125 
z
" id="ArialMT-34"/>
      </defs>
      <g style="fill:#262626;" transform="translate(133.99 304.1378125)scale(0.1 -0.1)">
       <use xlink:href="#ArialMT-30"/>
       <use x="55.615234375" xlink:href="#ArialMT-2e"/>
       <use x="83.3984375" xlink:href="#ArialMT-34"/>
      </g>
     </g>
    </g>
    <g id="xtick_4">
     <g id="line2d_7">
      <g>
       <use style="fill:#262626;stroke:#262626;" x="191.16" xlink:href="#m98b20809e3" y="289.98"/>
      </g>
     </g>
     <g id="line2d_8">
      <g>
       <use style="fill:#262626;stroke:#262626;" x="191.16" xlink:href="#m98b20809e3" y="32.22"/>
      </g>
     </g>
     <g id="text_4">
      <!-- 0.6 -->
      <defs>
       <path d="M 49.75 54.046875 
L 41.015625 53.375 
Q 39.84375 58.546875 37.703125 60.890625 
Q 34.125 64.65625 28.90625 64.65625 
Q 24.703125 64.65625 21.53125 62.3125 
Q 17.390625 59.28125 14.984375 53.46875 
Q 12.59375 47.65625 12.5 36.921875 
Q 15.671875 41.75 20.265625 44.09375 
Q 24.859375 46.4375 29.890625 46.4375 
Q 38.671875 46.4375 44.84375 39.96875 
Q 51.03125 33.5 51.03125 23.25 
Q 51.03125 16.5 48.125 10.71875 
Q 45.21875 4.9375 40.140625 1.859375 
Q 35.0625 -1.21875 28.609375 -1.21875 
Q 17.625 -1.21875 10.6875 6.859375 
Q 3.765625 14.9375 3.765625 33.5 
Q 3.765625 54.25 11.421875 63.671875 
Q 18.109375 71.875 29.4375 71.875 
Q 37.890625 71.875 43.28125 67.140625 
Q 48.6875 62.40625 49.75 54.046875 
M 13.875 23.1875 
Q 13.875 18.65625 15.796875 14.5 
Q 17.71875 10.359375 21.1875 8.171875 
Q 24.65625 6 28.46875 6 
Q 34.03125 6 38.03125 10.484375 
Q 42.046875 14.984375 42.046875 22.703125 
Q 42.046875 30.125 38.078125 34.390625 
Q 34.125 38.671875 28.125 38.671875 
Q 22.171875 38.671875 18.015625 34.390625 
Q 13.875 30.125 13.875 23.1875 
" id="ArialMT-36"/>
      </defs>
      <g style="fill:#262626;" transform="translate(184.21 304.1378125)scale(0.1 -0.1)">
       <use xlink:href="#ArialMT-30"/>
       <use x="55.615234375" xlink:href="#ArialMT-2e"/>
       <use x="83.3984375" xlink:href="#ArialMT-36"/>
      </g>
     </g>
    </g>
    <g id="xtick_5">
     <g id="line2d_9">
      <g>
       <use style="fill:#262626;stroke:#262626;" x="241.38" xlink:href="#m98b20809e3" y="289.98"/>
      </g>
     </g>
     <g id="line2d_10">
      <g>
       <use style="fill:#262626;stroke:#262626;" x="241.38" xlink:href="#m98b20809e3" y="32.22"/>
      </g>
     </g>
     <g id="text_5">
      <!-- 0.8 -->
      <defs>
       <path d="M 17.671875 38.8125 
Q 12.203125 40.828125 9.5625 44.53125 
Q 6.9375 48.25 6.9375 53.421875 
Q 6.9375 61.234375 12.546875 66.546875 
Q 18.171875 71.875 27.484375 71.875 
Q 36.859375 71.875 42.578125 66.421875 
Q 48.296875 60.984375 48.296875 53.171875 
Q 48.296875 48.1875 45.671875 44.5 
Q 43.0625 40.828125 37.75 38.8125 
Q 44.34375 36.671875 47.78125 31.875 
Q 51.21875 27.09375 51.21875 20.453125 
Q 51.21875 11.28125 44.71875 5.03125 
Q 38.234375 -1.21875 27.640625 -1.21875 
Q 17.046875 -1.21875 10.546875 5.046875 
Q 4.046875 11.328125 4.046875 20.703125 
Q 4.046875 27.6875 7.59375 32.390625 
Q 11.140625 37.109375 17.671875 38.8125 
M 15.921875 53.71875 
Q 15.921875 48.640625 19.1875 45.40625 
Q 22.46875 42.1875 27.6875 42.1875 
Q 32.765625 42.1875 36.015625 45.375 
Q 39.265625 48.578125 39.265625 53.21875 
Q 39.265625 58.0625 35.90625 61.359375 
Q 32.5625 64.65625 27.59375 64.65625 
Q 22.5625 64.65625 19.234375 61.421875 
Q 15.921875 58.203125 15.921875 53.71875 
M 13.09375 20.65625 
Q 13.09375 16.890625 14.875 13.375 
Q 16.65625 9.859375 20.171875 7.921875 
Q 23.6875 6 27.734375 6 
Q 34.03125 6 38.125 10.046875 
Q 42.234375 14.109375 42.234375 20.359375 
Q 42.234375 26.703125 38.015625 30.859375 
Q 33.796875 35.015625 27.4375 35.015625 
Q 21.234375 35.015625 17.15625 30.90625 
Q 13.09375 26.8125 13.09375 20.65625 
" id="ArialMT-38"/>
      </defs>
      <g style="fill:#262626;" transform="translate(234.43 304.1378125)scale(0.1 -0.1)">
       <use xlink:href="#ArialMT-30"/>
       <use x="55.615234375" xlink:href="#ArialMT-2e"/>
       <use x="83.3984375" xlink:href="#ArialMT-38"/>
      </g>
     </g>
    </g>
    <g id="xtick_6">
     <g id="line2d_11">
      <g>
       <use style="fill:#262626;stroke:#262626;" x="291.6" xlink:href="#m98b20809e3" y="289.98"/>
      </g>
     </g>
     <g id="line2d_12">
      <g>
       <use style="fill:#262626;stroke:#262626;" x="291.6" xlink:href="#m98b20809e3" y="32.22"/>
      </g>
     </g>
     <g id="text_6">
      <!-- 1.0 -->
      <defs>
       <path d="M 37.25 0 
L 28.46875 0 
L 28.46875 56 
Q 25.296875 52.984375 20.140625 49.953125 
Q 14.984375 46.921875 10.890625 45.40625 
L 10.890625 53.90625 
Q 18.265625 57.375 23.78125 62.296875 
Q 29.296875 67.234375 31.59375 71.875 
L 37.25 71.875 
z
" id="ArialMT-31"/>
      </defs>
      <g style="fill:#262626;" transform="translate(284.65 304.1378125)scale(0.1 -0.1)">
       <use xlink:href="#ArialMT-31"/>
       <use x="55.615234375" xlink:href="#ArialMT-2e"/>
       <use x="83.3984375" xlink:href="#ArialMT-30"/>
      </g>
     </g>
    </g>
    <g id="text_7">
     <!-- False Positive Rate -->
     <defs>
      <path d="M 40.4375 6.390625 
Q 35.546875 2.25 31.03125 0.53125 
Q 26.515625 -1.171875 21.34375 -1.171875 
Q 12.796875 -1.171875 8.203125 3 
Q 3.609375 7.171875 3.609375 13.671875 
Q 3.609375 17.484375 5.34375 20.625 
Q 7.078125 23.78125 9.890625 25.6875 
Q 12.703125 27.59375 16.21875 28.5625 
Q 18.796875 29.25 24.03125 29.890625 
Q 34.671875 31.15625 39.703125 32.90625 
Q 39.75 34.71875 39.75 35.203125 
Q 39.75 40.578125 37.25 42.78125 
Q 33.890625 45.75 27.25 45.75 
Q 21.046875 45.75 18.09375 43.578125 
Q 15.140625 41.40625 13.71875 35.890625 
L 5.125 37.0625 
Q 6.296875 42.578125 8.984375 45.96875 
Q 11.671875 49.359375 16.75 51.1875 
Q 21.828125 53.03125 28.515625 53.03125 
Q 35.15625 53.03125 39.296875 51.46875 
Q 43.453125 49.90625 45.40625 47.53125 
Q 47.359375 45.171875 48.140625 41.546875 
Q 48.578125 39.3125 48.578125 33.453125 
L 48.578125 21.734375 
Q 48.578125 9.46875 49.140625 6.21875 
Q 49.703125 2.984375 51.375 0 
L 42.1875 0 
Q 40.828125 2.734375 40.4375 6.390625 
M 39.703125 26.03125 
Q 34.90625 24.078125 25.34375 22.703125 
Q 19.921875 21.921875 17.671875 20.9375 
Q 15.4375 19.96875 14.203125 18.09375 
Q 12.984375 16.21875 12.984375 13.921875 
Q 12.984375 10.40625 15.640625 8.0625 
Q 18.3125 5.71875 23.4375 5.71875 
Q 28.515625 5.71875 32.46875 7.9375 
Q 36.421875 10.15625 38.28125 14.015625 
Q 39.703125 17 39.703125 22.796875 
z
" id="ArialMT-61"/>
      <path d="M 21 0 
L 1.265625 51.859375 
L 10.546875 51.859375 
L 21.6875 20.796875 
Q 23.484375 15.765625 25 10.359375 
Q 26.171875 14.453125 28.265625 20.21875 
L 39.796875 51.859375 
L 48.828125 51.859375 
L 29.203125 0 
z
" id="ArialMT-76"/>
      <path d="M 42.09375 16.703125 
L 51.171875 15.578125 
Q 49.03125 7.625 43.21875 3.21875 
Q 37.40625 -1.171875 28.375 -1.171875 
Q 17 -1.171875 10.328125 5.828125 
Q 3.65625 12.84375 3.65625 25.484375 
Q 3.65625 38.578125 10.390625 45.796875 
Q 17.140625 53.03125 27.875 53.03125 
Q 38.28125 53.03125 44.875 45.953125 
Q 51.46875 38.875 51.46875 26.03125 
Q 51.46875 25.25 51.421875 23.6875 
L 12.75 23.6875 
Q 13.234375 15.140625 17.578125 10.59375 
Q 21.921875 6.0625 28.421875 6.0625 
Q 33.25 6.0625 36.671875 8.59375 
Q 40.09375 11.140625 42.09375 16.703125 
M 13.234375 30.90625 
L 42.1875 30.90625 
Q 41.609375 37.453125 38.875 40.71875 
Q 34.671875 45.796875 27.984375 45.796875 
Q 21.921875 45.796875 17.796875 41.75 
Q 13.671875 37.703125 13.234375 30.90625 
" id="ArialMT-65"/>
      <path d="M 25.78125 7.859375 
L 27.046875 0.09375 
Q 23.34375 -0.6875 20.40625 -0.6875 
Q 15.625 -0.6875 12.984375 0.828125 
Q 10.359375 2.34375 9.28125 4.8125 
Q 8.203125 7.28125 8.203125 15.1875 
L 8.203125 45.015625 
L 1.765625 45.015625 
L 1.765625 51.859375 
L 8.203125 51.859375 
L 8.203125 64.703125 
L 16.9375 69.96875 
L 16.9375 51.859375 
L 25.78125 51.859375 
L 25.78125 45.015625 
L 16.9375 45.015625 
L 16.9375 14.703125 
Q 16.9375 10.9375 17.40625 9.859375 
Q 17.875 8.796875 18.921875 8.15625 
Q 19.96875 7.515625 21.921875 7.515625 
Q 23.390625 7.515625 25.78125 7.859375 
" id="ArialMT-74"/>
      <path d="M 7.71875 0 
L 7.71875 71.578125 
L 34.71875 71.578125 
Q 41.84375 71.578125 45.609375 70.90625 
Q 50.875 70.015625 54.4375 67.546875 
Q 58.015625 65.09375 60.1875 60.640625 
Q 62.359375 56.203125 62.359375 50.875 
Q 62.359375 41.75 56.546875 35.421875 
Q 50.734375 29.109375 35.546875 29.109375 
L 17.1875 29.109375 
L 17.1875 0 
z
M 17.1875 37.546875 
L 35.6875 37.546875 
Q 44.875 37.546875 48.734375 40.96875 
Q 52.59375 44.390625 52.59375 50.59375 
Q 52.59375 55.078125 50.3125 58.265625 
Q 48.046875 61.46875 44.34375 62.5 
Q 41.9375 63.140625 35.5 63.140625 
L 17.1875 63.140625 
z
" id="ArialMT-50"/>
      <path d="M 3.078125 15.484375 
L 11.765625 16.84375 
Q 12.5 11.625 15.84375 8.84375 
Q 19.1875 6.0625 25.203125 6.0625 
Q 31.25 6.0625 34.171875 8.515625 
Q 37.109375 10.984375 37.109375 14.3125 
Q 37.109375 17.28125 34.515625 19 
Q 32.71875 20.171875 25.53125 21.96875 
Q 15.875 24.421875 12.140625 26.203125 
Q 8.40625 27.984375 6.46875 31.125 
Q 4.546875 34.28125 4.546875 38.09375 
Q 4.546875 41.546875 6.125 44.5 
Q 7.71875 47.46875 10.453125 49.421875 
Q 12.5 50.921875 16.03125 51.96875 
Q 19.578125 53.03125 23.640625 53.03125 
Q 29.734375 53.03125 34.34375 51.265625 
Q 38.96875 49.515625 41.15625 46.5 
Q 43.359375 43.5 44.1875 38.484375 
L 35.59375 37.3125 
Q 35.015625 41.3125 32.203125 43.546875 
Q 29.390625 45.796875 24.265625 45.796875 
Q 18.21875 45.796875 15.625 43.796875 
Q 13.03125 41.796875 13.03125 39.109375 
Q 13.03125 37.40625 14.109375 36.03125 
Q 15.1875 34.625 17.484375 33.6875 
Q 18.796875 33.203125 25.25 31.453125 
Q 34.578125 28.953125 38.25 27.359375 
Q 41.9375 25.78125 44.03125 22.75 
Q 46.140625 19.734375 46.140625 15.234375 
Q 46.140625 10.84375 43.578125 6.953125 
Q 41.015625 3.078125 36.171875 0.953125 
Q 31.34375 -1.171875 25.25 -1.171875 
Q 15.140625 -1.171875 9.84375 3.03125 
Q 4.546875 7.234375 3.078125 15.484375 
" id="ArialMT-73"/>
      <path d="M 6.390625 0 
L 6.390625 71.578125 
L 15.1875 71.578125 
L 15.1875 0 
z
" id="ArialMT-6c"/>
      <path d="M 7.859375 0 
L 7.859375 71.578125 
L 39.59375 71.578125 
Q 49.171875 71.578125 54.140625 69.640625 
Q 59.125 67.71875 62.109375 62.828125 
Q 65.09375 57.953125 65.09375 52.046875 
Q 65.09375 44.4375 60.15625 39.203125 
Q 55.21875 33.984375 44.921875 32.5625 
Q 48.6875 30.765625 50.640625 29 
Q 54.78125 25.203125 58.5 19.484375 
L 70.953125 0 
L 59.03125 0 
L 49.5625 14.890625 
Q 45.40625 21.34375 42.71875 24.75 
Q 40.046875 28.171875 37.921875 29.53125 
Q 35.796875 30.90625 33.59375 31.453125 
Q 31.984375 31.78125 28.328125 31.78125 
L 17.328125 31.78125 
L 17.328125 0 
z
M 17.328125 39.984375 
L 37.703125 39.984375 
Q 44.1875 39.984375 47.84375 41.328125 
Q 51.515625 42.671875 53.421875 45.625 
Q 55.328125 48.578125 55.328125 52.046875 
Q 55.328125 57.125 51.640625 60.390625 
Q 47.953125 63.671875 39.984375 63.671875 
L 17.328125 63.671875 
z
" id="ArialMT-52"/>
      <path d="M 3.328125 25.921875 
Q 3.328125 40.328125 11.328125 47.265625 
Q 18.015625 53.03125 27.640625 53.03125 
Q 38.328125 53.03125 45.109375 46.015625 
Q 51.90625 39.015625 51.90625 26.65625 
Q 51.90625 16.65625 48.90625 10.90625 
Q 45.90625 5.171875 40.15625 2 
Q 34.421875 -1.171875 27.640625 -1.171875 
Q 16.75 -1.171875 10.03125 5.8125 
Q 3.328125 12.796875 3.328125 25.921875 
M 12.359375 25.921875 
Q 12.359375 15.96875 16.703125 11.015625 
Q 21.046875 6.0625 27.640625 6.0625 
Q 34.1875 6.0625 38.53125 11.03125 
Q 42.875 16.015625 42.875 26.21875 
Q 42.875 35.84375 38.5 40.796875 
Q 34.125 45.75 27.640625 45.75 
Q 21.046875 45.75 16.703125 40.8125 
Q 12.359375 35.890625 12.359375 25.921875 
" id="ArialMT-6f"/>
      <path d="M 8.203125 0 
L 8.203125 71.578125 
L 56.5 71.578125 
L 56.5 63.140625 
L 17.671875 63.140625 
L 17.671875 40.96875 
L 51.265625 40.96875 
L 51.265625 32.515625 
L 17.671875 32.515625 
L 17.671875 0 
z
" id="ArialMT-46"/>
      <path d="M 6.640625 61.46875 
L 6.640625 71.578125 
L 15.4375 71.578125 
L 15.4375 61.46875 
z
M 6.640625 0 
L 6.640625 51.859375 
L 15.4375 51.859375 
L 15.4375 0 
z
" id="ArialMT-69"/>
      <path id="ArialMT-20"/>
     </defs>
     <g style="fill:#262626;" transform="translate(105.749375 321.14625)scale(0.14 -0.14)">
      <use xlink:href="#ArialMT-46"/>
      <use x="61.083984375" xlink:href="#ArialMT-61"/>
      <use x="116.69921875" xlink:href="#ArialMT-6c"/>
      <use x="138.916015625" xlink:href="#ArialMT-73"/>
      <use x="188.916015625" xlink:href="#ArialMT-65"/>
      <use x="244.53125" xlink:href="#ArialMT-20"/>
      <use x="272.314453125" xlink:href="#ArialMT-50"/>
      <use x="339.013671875" xlink:href="#ArialMT-6f"/>
      <use x="394.62890625" xlink:href="#ArialMT-73"/>
      <use x="444.62890625" xlink:href="#ArialMT-69"/>
      <use x="466.845703125" xlink:href="#ArialMT-74"/>
      <use x="494.62890625" xlink:href="#ArialMT-69"/>
      <use x="516.845703125" xlink:href="#ArialMT-76"/>
      <use x="566.845703125" xlink:href="#ArialMT-65"/>
      <use x="622.4609375" xlink:href="#ArialMT-20"/>
      <use x="650.244140625" xlink:href="#ArialMT-52"/>
      <use x="722.4609375" xlink:href="#ArialMT-61"/>
      <use x="778.076171875" xlink:href="#ArialMT-74"/>
      <use x="805.859375" xlink:href="#ArialMT-65"/>
     </g>
    </g>
   </g>
   <g id="matplotlib.axis_2">
    <g id="ytick_1">
     <g id="line2d_13">
      <g>
       <use style="fill:#262626;stroke:#262626;" x="40.5" xlink:href="#m98b20809e3" y="289.98"/>
      </g>
     </g>
     <g id="line2d_14">
      <g>
       <use style="fill:#262626;stroke:#262626;" x="291.6" xlink:href="#m98b20809e3" y="289.98"/>
      </g>
     </g>
     <g id="text_8">
      <!-- 0.0 -->
      <g style="fill:#262626;" transform="translate(19.6 292.56515625)scale(0.1 -0.1)">
       <use xlink:href="#ArialMT-30"/>
       <use x="55.615234375" xlink:href="#ArialMT-2e"/>
       <use x="83.3984375" xlink:href="#ArialMT-30"/>
      </g>
     </g>
    </g>
    <g id="ytick_2">
     <g id="line2d_15">
      <g>
       <use style="fill:#262626;stroke:#262626;" x="40.5" xlink:href="#m98b20809e3" y="238.428"/>
      </g>
     </g>
     <g id="line2d_16">
      <g>
       <use style="fill:#262626;stroke:#262626;" x="291.6" xlink:href="#m98b20809e3" y="238.428"/>
      </g>
     </g>
     <g id="text_9">
      <!-- 0.2 -->
      <g style="fill:#262626;" transform="translate(19.6 241.01315625)scale(0.1 -0.1)">
       <use xlink:href="#ArialMT-30"/>
       <use x="55.615234375" xlink:href="#ArialMT-2e"/>
       <use x="83.3984375" xlink:href="#ArialMT-32"/>
      </g>
     </g>
    </g>
    <g id="ytick_3">
     <g id="line2d_17">
      <g>
       <use style="fill:#262626;stroke:#262626;" x="40.5" xlink:href="#m98b20809e3" y="186.876"/>
      </g>
     </g>
     <g id="line2d_18">
      <g>
       <use style="fill:#262626;stroke:#262626;" x="291.6" xlink:href="#m98b20809e3" y="186.876"/>
      </g>
     </g>
     <g id="text_10">
      <!-- 0.4 -->
      <g style="fill:#262626;" transform="translate(19.6 189.46115625)scale(0.1 -0.1)">
       <use xlink:href="#ArialMT-30"/>
       <use x="55.615234375" xlink:href="#ArialMT-2e"/>
       <use x="83.3984375" xlink:href="#ArialMT-34"/>
      </g>
     </g>
    </g>
    <g id="ytick_4">
     <g id="line2d_19">
      <g>
       <use style="fill:#262626;stroke:#262626;" x="40.5" xlink:href="#m98b20809e3" y="135.324"/>
      </g>
     </g>
     <g id="line2d_20">
      <g>
       <use style="fill:#262626;stroke:#262626;" x="291.6" xlink:href="#m98b20809e3" y="135.324"/>
      </g>
     </g>
     <g id="text_11">
      <!-- 0.6 -->
      <g style="fill:#262626;" transform="translate(19.6 137.90915625)scale(0.1 -0.1)">
       <use xlink:href="#ArialMT-30"/>
       <use x="55.615234375" xlink:href="#ArialMT-2e"/>
       <use x="83.3984375" xlink:href="#ArialMT-36"/>
      </g>
     </g>
    </g>
    <g id="ytick_5">
     <g id="line2d_21">
      <g>
       <use style="fill:#262626;stroke:#262626;" x="40.5" xlink:href="#m98b20809e3" y="83.772"/>
      </g>
     </g>
     <g id="line2d_22">
      <g>
       <use style="fill:#262626;stroke:#262626;" x="291.6" xlink:href="#m98b20809e3" y="83.772"/>
      </g>
     </g>
     <g id="text_12">
      <!-- 0.8 -->
      <g style="fill:#262626;" transform="translate(19.6 86.35715625)scale(0.1 -0.1)">
       <use xlink:href="#ArialMT-30"/>
       <use x="55.615234375" xlink:href="#ArialMT-2e"/>
       <use x="83.3984375" xlink:href="#ArialMT-38"/>
      </g>
     </g>
    </g>
    <g id="ytick_6">
     <g id="line2d_23">
      <g>
       <use style="fill:#262626;stroke:#262626;" x="40.5" xlink:href="#m98b20809e3" y="32.22"/>
      </g>
     </g>
     <g id="line2d_24">
      <g>
       <use style="fill:#262626;stroke:#262626;" x="291.6" xlink:href="#m98b20809e3" y="32.22"/>
      </g>
     </g>
     <g id="text_13">
      <!-- 1.0 -->
      <g style="fill:#262626;" transform="translate(19.6 34.80515625)scale(0.1 -0.1)">
       <use xlink:href="#ArialMT-31"/>
       <use x="55.615234375" xlink:href="#ArialMT-2e"/>
       <use x="83.3984375" xlink:href="#ArialMT-30"/>
      </g>
     </g>
    </g>
    <g id="text_14">
     <!-- True Positive Rate -->
     <defs>
      <path d="M 40.578125 0 
L 40.578125 7.625 
Q 34.515625 -1.171875 24.125 -1.171875 
Q 19.53125 -1.171875 15.546875 0.578125 
Q 11.578125 2.34375 9.640625 5 
Q 7.71875 7.671875 6.9375 11.53125 
Q 6.390625 14.109375 6.390625 19.734375 
L 6.390625 51.859375 
L 15.1875 51.859375 
L 15.1875 23.09375 
Q 15.1875 16.21875 15.71875 13.8125 
Q 16.546875 10.359375 19.234375 8.375 
Q 21.921875 6.390625 25.875 6.390625 
Q 29.828125 6.390625 33.296875 8.421875 
Q 36.765625 10.453125 38.203125 13.9375 
Q 39.65625 17.4375 39.65625 24.078125 
L 39.65625 51.859375 
L 48.4375 51.859375 
L 48.4375 0 
z
" id="ArialMT-75"/>
      <path d="M 6.5 0 
L 6.5 51.859375 
L 14.40625 51.859375 
L 14.40625 44 
Q 17.4375 49.515625 20 51.265625 
Q 22.5625 53.03125 25.640625 53.03125 
Q 30.078125 53.03125 34.671875 50.203125 
L 31.640625 42.046875 
Q 28.421875 43.953125 25.203125 43.953125 
Q 22.3125 43.953125 20.015625 42.21875 
Q 17.71875 40.484375 16.75 37.40625 
Q 15.28125 32.71875 15.28125 27.15625 
L 15.28125 0 
z
" id="ArialMT-72"/>
      <path d="M 25.921875 0 
L 25.921875 63.140625 
L 2.34375 63.140625 
L 2.34375 71.578125 
L 59.078125 71.578125 
L 59.078125 63.140625 
L 35.40625 63.140625 
L 35.40625 0 
z
" id="ArialMT-54"/>
     </defs>
     <g style="fill:#262626;" transform="translate(11.8175 218.6728125)rotate(-90.0)scale(0.14 -0.14)">
      <use xlink:href="#ArialMT-54"/>
      <use x="61.037109375" xlink:href="#ArialMT-72"/>
      <use x="94.337890625" xlink:href="#ArialMT-75"/>
      <use x="149.953125" xlink:href="#ArialMT-65"/>
      <use x="205.568359375" xlink:href="#ArialMT-20"/>
      <use x="233.3515625" xlink:href="#ArialMT-50"/>
      <use x="300.05078125" xlink:href="#ArialMT-6f"/>
      <use x="355.666015625" xlink:href="#ArialMT-73"/>
      <use x="405.666015625" xlink:href="#ArialMT-69"/>
      <use x="427.8828125" xlink:href="#ArialMT-74"/>
      <use x="455.666015625" xlink:href="#ArialMT-69"/>
      <use x="477.8828125" xlink:href="#ArialMT-76"/>
      <use x="527.8828125" xlink:href="#ArialMT-65"/>
      <use x="583.498046875" xlink:href="#ArialMT-20"/>
      <use x="611.28125" xlink:href="#ArialMT-52"/>
      <use x="683.498046875" xlink:href="#ArialMT-61"/>
      <use x="739.11328125" xlink:href="#ArialMT-74"/>
      <use x="766.896484375" xlink:href="#ArialMT-65"/>
     </g>
    </g>
   </g>
   <g id="PolyCollection_1">
    <defs>
     <path d="M 40.5 -32.22 
L 40.5 -32.22 
L 43.036364 -88.344289 
L 45.572727 -88.344289 
L 48.109091 -110.349291 
L 50.645455 -110.349291 
L 53.181818 -120.005204 
L 55.718182 -120.005204 
L 58.254545 -121.172035 
L 60.790909 -121.172035 
L 63.327273 -120.842334 
L 65.863636 -128.388301 
L 68.4 -128.388301 
L 70.936364 -139.973206 
L 73.472727 -139.973206 
L 76.009091 -138.745266 
L 78.545455 -138.745266 
L 81.081818 -138.745266 
L 83.618182 -138.745266 
L 86.154545 -138.745266 
L 88.690909 -147.580612 
L 91.227273 -147.580612 
L 93.763636 -152.752836 
L 96.3 -152.752836 
L 98.836364 -152.752836 
L 101.372727 -168.645122 
L 103.909091 -168.645122 
L 106.445455 -186.142258 
L 108.981818 -186.142258 
L 111.518182 -188.875982 
L 114.054545 -188.875982 
L 116.590909 -193.173986 
L 119.127273 -193.173986 
L 121.663636 -193.173986 
L 124.2 -205.718024 
L 126.736364 -205.718024 
L 129.272727 -208.047751 
L 131.809091 -208.047751 
L 134.345455 -208.047751 
L 136.881818 -208.047751 
L 139.418182 -208.047751 
L 141.954545 -208.047751 
L 144.490909 -208.047751 
L 147.027273 -226.440316 
L 149.563636 -226.440316 
L 152.1 -226.440316 
L 154.636364 -226.440316 
L 157.172727 -226.440316 
L 159.709091 -226.440316 
L 162.245455 -227.21469 
L 164.781818 -227.21469 
L 167.318182 -227.21469 
L 169.854545 -227.21469 
L 172.390909 -226.821308 
L 174.927273 -226.821308 
L 177.463636 -226.821308 
L 180 -226.821308 
L 182.536364 -234.97702 
L 185.072727 -235.206 
L 187.609091 -245.573333 
L 190.145455 -245.573333 
L 192.681818 -246.971232 
L 195.218182 -246.971232 
L 197.754545 -246.971232 
L 200.290909 -253.492283 
L 202.827273 -253.492283 
L 205.363636 -253.492283 
L 207.9 -253.492283 
L 210.436364 -253.492283 
L 212.972727 -253.492283 
L 215.509091 -253.492283 
L 218.045455 -253.492283 
L 220.581818 -253.492283 
L 223.118182 -253.492283 
L 225.654545 -253.492283 
L 228.190909 -253.492283 
L 230.727273 -253.492283 
L 233.263636 -253.492283 
L 235.8 -253.492283 
L 238.336364 -253.492283 
L 240.872727 -261.307488 
L 243.409091 -261.307488 
L 245.945455 -261.307488 
L 248.481818 -261.307488 
L 251.018182 -261.307488 
L 253.554545 -261.307488 
L 256.090909 -261.307488 
L 258.627273 -261.307488 
L 261.163636 -261.307488 
L 263.7 -267.426 
L 266.236364 -267.426 
L 268.772727 -267.426 
L 271.309091 -267.426 
L 273.845455 -267.426 
L 276.381818 -267.426 
L 278.918182 -267.426 
L 281.454545 -270.648 
L 283.990909 -270.648 
L 286.527273 -280.314 
L 289.063636 -280.314 
L 291.6 -289.98 
L 291.6 -289.98 
L 291.6 -289.98 
L 289.063636 -289.98 
L 286.527273 -289.98 
L 283.990909 -289.98 
L 281.454545 -289.98 
L 278.918182 -289.98 
L 276.381818 -289.98 
L 273.845455 -289.98 
L 271.309091 -289.98 
L 268.772727 -289.98 
L 266.236364 -289.98 
L 263.7 -289.98 
L 261.163636 -289.98 
L 258.627273 -289.98 
L 256.090909 -289.98 
L 253.554545 -289.98 
L 251.018182 -289.98 
L 248.481818 -289.98 
L 245.945455 -289.98 
L 243.409091 -289.98 
L 240.872727 -289.98 
L 238.336364 -289.98 
L 235.8 -289.98 
L 233.263636 -289.98 
L 230.727273 -289.98 
L 228.190909 -289.98 
L 225.654545 -289.98 
L 223.118182 -289.98 
L 220.581818 -289.98 
L 218.045455 -289.98 
L 215.509091 -289.98 
L 212.972727 -289.98 
L 210.436364 -289.98 
L 207.9 -289.98 
L 205.363636 -289.98 
L 202.827273 -289.98 
L 200.290909 -289.98 
L 197.754545 -289.98 
L 195.218182 -289.98 
L 192.681818 -289.98 
L 190.145455 -289.278667 
L 187.609091 -289.278667 
L 185.072727 -286.758 
L 182.536364 -280.54298 
L 180 -282.254692 
L 177.463636 -282.254692 
L 174.927273 -282.254692 
L 172.390909 -282.254692 
L 169.854545 -275.796369 
L 167.318182 -275.796369 
L 164.781818 -275.796369 
L 162.245455 -275.796369 
L 159.709091 -270.505802 
L 157.172727 -270.505802 
L 154.636364 -270.505802 
L 152.1 -270.505802 
L 149.563636 -270.505802 
L 147.027273 -270.505802 
L 144.490909 -276.010366 
L 141.954545 -276.010366 
L 139.418182 -276.010366 
L 136.881818 -276.010366 
L 134.345455 -276.010366 
L 131.809091 -276.010366 
L 129.272727 -276.010366 
L 126.736364 -271.896093 
L 124.2 -271.896093 
L 121.663636 -271.552132 
L 119.127273 -271.552132 
L 116.590909 -271.552132 
L 114.054545 -269.406135 
L 111.518182 -269.406135 
L 108.981818 -265.69586 
L 106.445455 -265.69586 
L 103.909091 -270.304996 
L 101.372727 -270.304996 
L 98.836364 -266.865282 
L 96.3 -266.865282 
L 93.763636 -266.865282 
L 91.227273 -253.463623 
L 88.690909 -253.463623 
L 86.154545 -249.410969 
L 83.618182 -249.410969 
L 81.081818 -249.410969 
L 78.545455 -249.410969 
L 76.009091 -249.410969 
L 73.472727 -241.739029 
L 70.936364 -241.739029 
L 68.4 -240.435935 
L 65.863636 -240.435935 
L 63.327273 -241.537901 
L 60.790909 -221.876201 
L 58.254545 -221.876201 
L 55.718182 -216.599032 
L 53.181818 -216.599032 
L 50.645455 -195.17212 
L 48.109091 -195.17212 
L 45.572727 -166.004182 
L 43.036364 -166.004182 
L 40.5 -32.22 
z
" id="m5fd1b4fc94" style="stroke:#808080;stroke-opacity:0.15;stroke-width:0.3;"/>
    </defs>
    <g clip-path="url(#p11780a636a)">
     <use style="fill:#808080;fill-opacity:0.15;stroke:#808080;stroke-opacity:0.15;stroke-width:0.3;" x="0.0" xlink:href="#m5fd1b4fc94" y="322.2"/>
    </g>
   </g>
   <g id="line2d_25">
    <path clip-path="url(#p11780a636a)" d="M 40.5 289.98 
L 291.6 32.22 
" style="fill:none;opacity:0.5;stroke:#000000;stroke-dasharray:6.000000,6.000000;stroke-dashoffset:0.0;"/>
   </g>
   <g id="line2d_26">
    <path clip-path="url(#p11780a636a)" d="M 40.5 289.98 
L 43.036364 195.025765 
L 45.572727 195.025765 
L 48.109091 169.439294 
L 50.645455 169.439294 
L 53.181818 153.897882 
L 55.718182 153.897882 
L 58.254545 150.675882 
L 60.790909 150.675882 
L 63.327273 141.009882 
L 65.863636 137.787882 
L 68.4 137.787882 
L 70.936364 131.343882 
L 73.472727 131.343882 
L 76.009091 128.121882 
L 78.545455 128.121882 
L 81.081818 128.121882 
L 83.618182 128.121882 
L 86.154545 128.121882 
L 88.690909 121.677882 
L 91.227273 121.677882 
L 93.763636 112.390941 
L 96.3 112.390941 
L 98.836364 112.390941 
L 101.372727 102.724941 
L 103.909091 102.724941 
L 106.445455 96.280941 
L 108.981818 96.280941 
L 111.518182 93.058941 
L 114.054545 93.058941 
L 116.590909 89.836941 
L 119.127273 89.836941 
L 121.663636 89.836941 
L 124.2 83.392941 
L 126.736364 83.392941 
L 129.272727 80.170941 
L 131.809091 80.170941 
L 134.345455 80.170941 
L 136.881818 80.170941 
L 139.418182 80.170941 
L 141.954545 80.170941 
L 144.490909 80.170941 
L 147.027273 73.726941 
L 149.563636 73.726941 
L 152.1 73.726941 
L 154.636364 73.726941 
L 157.172727 73.726941 
L 159.709091 73.726941 
L 162.245455 70.694471 
L 164.781818 70.694471 
L 167.318182 70.694471 
L 169.854545 70.694471 
L 172.390909 67.662 
L 174.927273 67.662 
L 177.463636 67.662 
L 180 67.662 
L 182.536364 64.44 
L 185.072727 61.218 
L 187.609091 54.774 
L 190.145455 54.774 
L 192.681818 51.552 
L 195.218182 51.552 
L 197.754545 51.552 
L 200.290909 48.33 
L 202.827273 48.33 
L 205.363636 48.33 
L 207.9 48.33 
L 210.436364 48.33 
L 212.972727 48.33 
L 215.509091 48.33 
L 218.045455 48.33 
L 220.581818 48.33 
L 223.118182 48.33 
L 225.654545 48.33 
L 228.190909 48.33 
L 230.727273 48.33 
L 233.263636 48.33 
L 235.8 48.33 
L 238.336364 48.33 
L 240.872727 45.108 
L 243.409091 45.108 
L 245.945455 45.108 
L 248.481818 45.108 
L 251.018182 45.108 
L 253.554545 45.108 
L 256.090909 45.108 
L 258.627273 45.108 
L 261.163636 45.108 
L 263.7 41.886 
L 266.236364 41.886 
L 268.772727 41.886 
L 271.309091 41.886 
L 273.845455 41.886 
L 276.381818 41.886 
L 278.918182 41.886 
L 281.454545 38.664 
L 283.990909 38.664 
L 286.527273 35.442 
L 289.063636 35.442 
L 291.6 32.22 
" style="fill:none;stroke:#92c6ff;stroke-linecap:round;stroke-width:3.0;"/>
   </g>
   <g id="line2d_27">
    <path clip-path="url(#p11780a636a)" d="M 40.5 281.091724 
L 40.5 236.650345 
L 45.522 236.650345 
L 45.522 218.873793 
L 50.544 218.873793 
L 50.544 192.208966 
L 55.566 192.208966 
L 55.566 183.32069 
L 75.654 183.32069 
L 75.654 165.544138 
L 80.676 165.544138 
L 80.676 156.655862 
L 95.742 156.655862 
L 95.742 138.87931 
L 100.764 138.87931 
L 100.764 129.991034 
L 115.83 129.991034 
L 115.83 121.102759 
L 125.874 121.102759 
L 125.874 112.214483 
L 140.94 112.214483 
L 140.94 94.437931 
L 161.028 94.437931 
L 161.028 85.549655 
L 176.094 85.549655 
L 176.094 76.661379 
L 181.116 76.661379 
L 181.116 41.108276 
L 231.336 41.108276 
L 231.336 32.22 
L 291.6 32.22 
" style="fill:none;stroke:#ff9f9a;stroke-linecap:round;stroke-width:3.0;"/>
   </g>
   <g id="patch_3">
    <path d="M 40.5 32.22 
L 291.6 32.22 
" style="fill:none;stroke:#cccccc;stroke-linecap:square;stroke-linejoin:miter;"/>
   </g>
   <g id="patch_4">
    <path d="M 291.6 289.98 
L 291.6 32.22 
" style="fill:none;stroke:#cccccc;stroke-linecap:square;stroke-linejoin:miter;"/>
   </g>
   <g id="patch_5">
    <path d="M 40.5 289.98 
L 291.6 289.98 
" style="fill:none;stroke:#cccccc;stroke-linecap:square;stroke-linejoin:miter;"/>
   </g>
   <g id="patch_6">
    <path d="M 40.5 289.98 
L 40.5 32.22 
" style="fill:none;stroke:#cccccc;stroke-linecap:square;stroke-linejoin:miter;"/>
   </g>
   <g id="legend_1">
    <g id="line2d_28">
     <path d="M 103.16 230.090625 
L 131.16 230.090625 
" style="fill:none;stroke:#92c6ff;stroke-linecap:round;stroke-width:3.0;"/>
    </g>
    <g id="line2d_29"/>
    <g id="text_15">
     <!-- cv AUC = 0.81 $\pm$ 0.10 -->
     <defs>
      <path d="M 40.4375 19 
L 49.078125 17.875 
Q 47.65625 8.9375 41.8125 3.875 
Q 35.984375 -1.171875 27.484375 -1.171875 
Q 16.84375 -1.171875 10.375 5.78125 
Q 3.90625 12.75 3.90625 25.734375 
Q 3.90625 34.125 6.6875 40.421875 
Q 9.46875 46.734375 15.15625 49.875 
Q 20.84375 53.03125 27.546875 53.03125 
Q 35.984375 53.03125 41.359375 48.75 
Q 46.734375 44.484375 48.25 36.625 
L 39.703125 35.296875 
Q 38.484375 40.53125 35.375 43.15625 
Q 32.28125 45.796875 27.875 45.796875 
Q 21.234375 45.796875 17.078125 41.03125 
Q 12.9375 36.28125 12.9375 25.984375 
Q 12.9375 15.53125 16.9375 10.796875 
Q 20.953125 6.0625 27.390625 6.0625 
Q 32.5625 6.0625 36.03125 9.234375 
Q 39.5 12.40625 40.4375 19 
" id="ArialMT-63"/>
      <path d="M 7.515625 0 
Q 6.6875 0 6.140625 0.578125 
Q 5.609375 1.171875 5.609375 2 
Q 5.609375 2.734375 6.140625 3.359375 
Q 6.6875 4 7.515625 4 
L 36.921875 4 
L 36.921875 31.296875 
L 7.515625 31.296875 
Q 6.6875 31.296875 6.140625 31.921875 
Q 5.609375 32.5625 5.609375 33.296875 
Q 5.609375 34.03125 6.140625 34.65625 
Q 6.6875 35.296875 7.515625 35.296875 
L 36.921875 35.296875 
L 36.921875 64.796875 
Q 36.921875 65.578125 37.5 66.09375 
Q 38.09375 66.609375 38.921875 66.609375 
Q 39.59375 66.609375 40.25 66.09375 
Q 40.921875 65.578125 40.921875 64.796875 
L 40.921875 35.296875 
L 70.3125 35.296875 
Q 71.046875 35.296875 71.578125 34.65625 
Q 72.125 34.03125 72.125 33.296875 
Q 72.125 32.5625 71.578125 31.921875 
Q 71.046875 31.296875 70.3125 31.296875 
L 40.921875 31.296875 
L 40.921875 4 
L 70.3125 4 
Q 71.046875 4 71.578125 3.359375 
Q 72.125 2.734375 72.125 2 
Q 72.125 1.171875 71.578125 0.578125 
Q 71.046875 0 70.3125 0 
z
" id="Cmsy10-a7"/>
      <path d="M -0.140625 0 
L 27.34375 71.578125 
L 37.546875 71.578125 
L 66.84375 0 
L 56.0625 0 
L 47.703125 21.6875 
L 17.78125 21.6875 
L 9.90625 0 
z
M 20.515625 29.390625 
L 44.78125 29.390625 
L 37.3125 49.21875 
Q 33.890625 58.25 32.234375 64.0625 
Q 30.859375 57.171875 28.375 50.390625 
z
" id="ArialMT-41"/>
      <path d="M 58.796875 25.09375 
L 68.265625 22.703125 
Q 65.28125 11.03125 57.546875 4.90625 
Q 49.8125 -1.21875 38.625 -1.21875 
Q 27.046875 -1.21875 19.796875 3.484375 
Q 12.546875 8.203125 8.765625 17.140625 
Q 4.984375 26.078125 4.984375 36.328125 
Q 4.984375 47.515625 9.25 55.828125 
Q 13.53125 64.15625 21.40625 68.46875 
Q 29.296875 72.796875 38.765625 72.796875 
Q 49.515625 72.796875 56.828125 67.328125 
Q 64.15625 61.859375 67.046875 51.953125 
L 57.71875 49.75 
Q 55.21875 57.5625 50.484375 61.125 
Q 45.75 64.703125 38.578125 64.703125 
Q 30.328125 64.703125 24.78125 60.734375 
Q 19.234375 56.78125 16.984375 50.109375 
Q 14.75 43.453125 14.75 36.375 
Q 14.75 27.25 17.40625 20.4375 
Q 20.0625 13.625 25.671875 10.25 
Q 31.296875 6.890625 37.84375 6.890625 
Q 45.796875 6.890625 51.3125 11.46875 
Q 56.84375 16.0625 58.796875 25.09375 
" id="ArialMT-43"/>
      <path d="M 52.828125 42.09375 
L 5.5625 42.09375 
L 5.5625 50.296875 
L 52.828125 50.296875 
z
M 52.828125 20.359375 
L 5.5625 20.359375 
L 5.5625 28.5625 
L 52.828125 28.5625 
z
" id="ArialMT-3d"/>
      <path d="M 54.6875 71.578125 
L 64.15625 71.578125 
L 64.15625 30.21875 
Q 64.15625 19.4375 61.71875 13.078125 
Q 59.28125 6.734375 52.90625 2.75 
Q 46.53125 -1.21875 36.1875 -1.21875 
Q 26.125 -1.21875 19.71875 2.25 
Q 13.328125 5.71875 10.59375 12.28125 
Q 7.859375 18.84375 7.859375 30.21875 
L 7.859375 71.578125 
L 17.328125 71.578125 
L 17.328125 30.28125 
Q 17.328125 20.953125 19.0625 16.53125 
Q 20.796875 12.109375 25.015625 9.71875 
Q 29.25 7.328125 35.359375 7.328125 
Q 45.796875 7.328125 50.234375 12.0625 
Q 54.6875 16.796875 54.6875 30.28125 
z
" id="ArialMT-55"/>
     </defs>
     <g style="fill:#262626;" transform="translate(142.36 234.990625)scale(0.14 -0.14)">
      <use transform="translate(0.0 0.203125)" xlink:href="#ArialMT-63"/>
      <use transform="translate(50.0 0.203125)" xlink:href="#ArialMT-76"/>
      <use transform="translate(100.0 0.203125)" xlink:href="#ArialMT-20"/>
      <use transform="translate(127.783203125 0.203125)" xlink:href="#ArialMT-41"/>
      <use transform="translate(194.482421875 0.203125)" xlink:href="#ArialMT-55"/>
      <use transform="translate(266.69921875 0.203125)" xlink:href="#ArialMT-43"/>
      <use transform="translate(338.916015625 0.203125)" xlink:href="#ArialMT-20"/>
      <use transform="translate(366.69921875 0.203125)" xlink:href="#ArialMT-3d"/>
      <use transform="translate(425.09765625 0.203125)" xlink:href="#ArialMT-20"/>
      <use transform="translate(452.880859375 0.203125)" xlink:href="#ArialMT-30"/>
      <use transform="translate(508.49609375 0.203125)" xlink:href="#ArialMT-2e"/>
      <use transform="translate(536.279296875 0.203125)" xlink:href="#ArialMT-38"/>
      <use transform="translate(591.89453125 0.203125)" xlink:href="#ArialMT-31"/>
      <use transform="translate(647.509765625 0.203125)" xlink:href="#ArialMT-20"/>
      <use transform="translate(675.29296875 0.203125)" xlink:href="#Cmsy10-a7"/>
      <use transform="translate(752.978515625 0.203125)" xlink:href="#ArialMT-20"/>
      <use transform="translate(780.76171875 0.203125)" xlink:href="#ArialMT-30"/>
      <use transform="translate(836.376953125 0.203125)" xlink:href="#ArialMT-2e"/>
      <use transform="translate(864.16015625 0.203125)" xlink:href="#ArialMT-31"/>
      <use transform="translate(919.775390625 0.203125)" xlink:href="#ArialMT-30"/>
     </g>
    </g>
    <g id="line2d_30">
     <path d="M 103.16 249.894062 
L 131.16 249.894062 
" style="fill:none;stroke:#ff9f9a;stroke-linecap:round;stroke-width:3.0;"/>
    </g>
    <g id="line2d_31"/>
    <g id="text_16">
     <!-- test AUC = 0.77 -->
     <defs>
      <path d="M 4.734375 62.203125 
L 4.734375 70.65625 
L 51.078125 70.65625 
L 51.078125 63.8125 
Q 44.234375 56.546875 37.515625 44.484375 
Q 30.8125 32.421875 27.15625 19.671875 
Q 24.515625 10.6875 23.78125 0 
L 14.75 0 
Q 14.890625 8.453125 18.0625 20.40625 
Q 21.234375 32.375 27.171875 43.484375 
Q 33.109375 54.59375 39.796875 62.203125 
z
" id="ArialMT-37"/>
     </defs>
     <g style="fill:#262626;" transform="translate(142.36 254.7940625)scale(0.14 -0.14)">
      <use xlink:href="#ArialMT-74"/>
      <use x="27.783203125" xlink:href="#ArialMT-65"/>
      <use x="83.3984375" xlink:href="#ArialMT-73"/>
      <use x="133.3984375" xlink:href="#ArialMT-74"/>
      <use x="161.181640625" xlink:href="#ArialMT-20"/>
      <use x="188.88671875" xlink:href="#ArialMT-41"/>
      <use x="255.5859375" xlink:href="#ArialMT-55"/>
      <use x="327.802734375" xlink:href="#ArialMT-43"/>
      <use x="400.01953125" xlink:href="#ArialMT-20"/>
      <use x="427.802734375" xlink:href="#ArialMT-3d"/>
      <use x="486.201171875" xlink:href="#ArialMT-20"/>
      <use x="513.984375" xlink:href="#ArialMT-30"/>
      <use x="569.599609375" xlink:href="#ArialMT-2e"/>
      <use x="597.3828125" xlink:href="#ArialMT-37"/>
      <use x="652.998046875" xlink:href="#ArialMT-37"/>
     </g>
    </g>
    <g id="patch_7">
     <path d="M 103.16 274.5975 
L 131.16 274.5975 
L 131.16 264.7975 
L 103.16 264.7975 
z
" style="fill:#808080;opacity:0.15;stroke:#808080;stroke-linejoin:miter;stroke-width:0.3;"/>
    </g>
    <g id="text_17">
     <!-- $\pm$ 1 std. dev. -->
     <defs>
      <path d="M 40.234375 0 
L 40.234375 6.546875 
Q 35.296875 -1.171875 25.734375 -1.171875 
Q 19.53125 -1.171875 14.328125 2.25 
Q 9.125 5.671875 6.265625 11.796875 
Q 3.421875 17.921875 3.421875 25.875 
Q 3.421875 33.640625 6 39.96875 
Q 8.59375 46.296875 13.765625 49.65625 
Q 18.953125 53.03125 25.34375 53.03125 
Q 30.03125 53.03125 33.6875 51.046875 
Q 37.359375 49.078125 39.65625 45.90625 
L 39.65625 71.578125 
L 48.390625 71.578125 
L 48.390625 0 
z
M 12.453125 25.875 
Q 12.453125 15.921875 16.640625 10.984375 
Q 20.84375 6.0625 26.5625 6.0625 
Q 32.328125 6.0625 36.34375 10.765625 
Q 40.375 15.484375 40.375 25.140625 
Q 40.375 35.796875 36.265625 40.765625 
Q 32.171875 45.75 26.171875 45.75 
Q 20.3125 45.75 16.375 40.96875 
Q 12.453125 36.1875 12.453125 25.875 
" id="ArialMT-64"/>
     </defs>
     <g style="fill:#262626;" transform="translate(142.36 274.5975)scale(0.14 -0.14)">
      <use transform="translate(0.0 0.125)" xlink:href="#Cmsy10-a7"/>
      <use transform="translate(77.685546875 0.125)" xlink:href="#ArialMT-20"/>
      <use transform="translate(105.46875 0.125)" xlink:href="#ArialMT-31"/>
      <use transform="translate(161.083984375 0.125)" xlink:href="#ArialMT-20"/>
      <use transform="translate(188.8671875 0.125)" xlink:href="#ArialMT-73"/>
      <use transform="translate(238.8671875 0.125)" xlink:href="#ArialMT-74"/>
      <use transform="translate(266.650390625 0.125)" xlink:href="#ArialMT-64"/>
      <use transform="translate(322.265625 0.125)" xlink:href="#ArialMT-2e"/>
      <use transform="translate(350.048828125 0.125)" xlink:href="#ArialMT-20"/>
      <use transform="translate(377.83203125 0.125)" xlink:href="#ArialMT-64"/>
      <use transform="translate(433.447265625 0.125)" xlink:href="#ArialMT-65"/>
      <use transform="translate(489.0625 0.125)" xlink:href="#ArialMT-76"/>
      <use transform="translate(539.0625 0.125)" xlink:href="#ArialMT-2e"/>
     </g>
    </g>
   </g>
  </g>
 </g>
 <defs>
  <clipPath id="p11780a636a">
   <rect height="257.76" width="251.1" x="40.5" y="32.22"/>
  </clipPath>
 </defs>
</svg>
