<?xml version="1.0" encoding="utf-8" standalone="no"?>
<!DOCTYPE svg PUBLIC "-//W3C//DTD SVG 1.1//EN"
  "http://www.w3.org/Graphics/SVG/1.1/DTD/svg11.dtd">
<!-- Created with matplotlib (http://matplotlib.org/) -->
<svg height="430pt" version="1.1" viewBox="0 0 1296 430" width="1296pt" xmlns="http://www.w3.org/2000/svg" xmlns:xlink="http://www.w3.org/1999/xlink">
 <defs>
  <style type="text/css">
*{stroke-linecap:butt;stroke-linejoin:round;stroke-miterlimit:100000;}
  </style>
 </defs>
 <g id="figure_1">
  <g id="patch_1">
   <path d="M 0 430.2 
L 1296 430.2 
L 1296 0 
L 0 0 
z
" style="fill:#ffffff;"/>
  </g>
  <g id="axes_1">
   <g id="patch_2">
    <path d="M 162 387.18 
L 457.411765 387.18 
L 457.411765 43.02 
L 162 43.02 
z
" style="fill:#ffffff;"/>
   </g>
   <g id="matplotlib.axis_1">
    <g id="xtick_1">
     <g id="line2d_1">
      <defs>
       <path d="M 0 0 
L 0 0 
" id="m0e00ccdc9d" style="stroke:#262626;"/>
      </defs>
      <g>
       <use style="fill:#262626;stroke:#262626;" x="162.0" xlink:href="#m0e00ccdc9d" y="387.18"/>
      </g>
     </g>
     <g id="line2d_2">
      <g>
       <use style="fill:#262626;stroke:#262626;" x="162.0" xlink:href="#m0e00ccdc9d" y="43.02"/>
      </g>
     </g>
     <g id="text_1">
      <!-- 0.0 -->
      <defs>
       <path d="M 4.15625 35.296875 
Q 4.15625 48 6.765625 55.734375 
Q 9.375 63.484375 14.515625 67.671875 
Q 19.671875 71.875 27.484375 71.875 
Q 33.25 71.875 37.59375 69.546875 
Q 41.9375 67.234375 44.765625 62.859375 
Q 47.609375 58.5 49.21875 52.21875 
Q 50.828125 45.953125 50.828125 35.296875 
Q 50.828125 22.703125 48.234375 14.96875 
Q 45.65625 7.234375 40.5 3 
Q 35.359375 -1.21875 27.484375 -1.21875 
Q 17.140625 -1.21875 11.234375 6.203125 
Q 4.15625 15.140625 4.15625 35.296875 
M 13.1875 35.296875 
Q 13.1875 17.671875 17.3125 11.828125 
Q 21.4375 6 27.484375 6 
Q 33.546875 6 37.671875 11.859375 
Q 41.796875 17.71875 41.796875 35.296875 
Q 41.796875 52.984375 37.671875 58.78125 
Q 33.546875 64.59375 27.390625 64.59375 
Q 21.34375 64.59375 17.71875 59.46875 
Q 13.1875 52.9375 13.1875 35.296875 
" id="ArialMT-30"/>
       <path d="M 9.078125 0 
L 9.078125 10.015625 
L 19.09375 10.015625 
L 19.09375 0 
z
" id="ArialMT-2e"/>
      </defs>
      <g style="fill:#262626;" transform="translate(155.05 401.3378125)scale(0.1 -0.1)">
       <use xlink:href="#ArialMT-30"/>
       <use x="55.615234375" xlink:href="#ArialMT-2e"/>
       <use x="83.3984375" xlink:href="#ArialMT-30"/>
      </g>
     </g>
    </g>
    <g id="xtick_2">
     <g id="line2d_3">
      <g>
       <use style="fill:#262626;stroke:#262626;" x="221.082352941" xlink:href="#m0e00ccdc9d" y="387.18"/>
      </g>
     </g>
     <g id="line2d_4">
      <g>
       <use style="fill:#262626;stroke:#262626;" x="221.082352941" xlink:href="#m0e00ccdc9d" y="43.02"/>
      </g>
     </g>
     <g id="text_2">
      <!-- 0.2 -->
      <defs>
       <path d="M 50.34375 8.453125 
L 50.34375 0 
L 3.03125 0 
Q 2.9375 3.171875 4.046875 6.109375 
Q 5.859375 10.9375 9.828125 15.625 
Q 13.8125 20.3125 21.34375 26.46875 
Q 33.015625 36.03125 37.109375 41.625 
Q 41.21875 47.21875 41.21875 52.203125 
Q 41.21875 57.421875 37.46875 61 
Q 33.734375 64.59375 27.734375 64.59375 
Q 21.390625 64.59375 17.578125 60.78125 
Q 13.765625 56.984375 13.71875 50.25 
L 4.6875 51.171875 
Q 5.609375 61.28125 11.65625 66.578125 
Q 17.71875 71.875 27.9375 71.875 
Q 38.234375 71.875 44.234375 66.15625 
Q 50.25 60.453125 50.25 52 
Q 50.25 47.703125 48.484375 43.546875 
Q 46.734375 39.40625 42.65625 34.8125 
Q 38.578125 30.21875 29.109375 22.21875 
Q 21.1875 15.578125 18.9375 13.203125 
Q 16.703125 10.84375 15.234375 8.453125 
z
" id="ArialMT-32"/>
      </defs>
      <g style="fill:#262626;" transform="translate(214.132352941 401.3378125)scale(0.1 -0.1)">
       <use xlink:href="#ArialMT-30"/>
       <use x="55.615234375" xlink:href="#ArialMT-2e"/>
       <use x="83.3984375" xlink:href="#ArialMT-32"/>
      </g>
     </g>
    </g>
    <g id="xtick_3">
     <g id="line2d_5">
      <g>
       <use style="fill:#262626;stroke:#262626;" x="280.164705882" xlink:href="#m0e00ccdc9d" y="387.18"/>
      </g>
     </g>
     <g id="line2d_6">
      <g>
       <use style="fill:#262626;stroke:#262626;" x="280.164705882" xlink:href="#m0e00ccdc9d" y="43.02"/>
      </g>
     </g>
     <g id="text_3">
      <!-- 0.4 -->
      <defs>
       <path d="M 32.328125 0 
L 32.328125 17.140625 
L 1.265625 17.140625 
L 1.265625 25.203125 
L 33.9375 71.578125 
L 41.109375 71.578125 
L 41.109375 25.203125 
L 50.78125 25.203125 
L 50.78125 17.140625 
L 41.109375 17.140625 
L 41.109375 0 
z
M 32.328125 25.203125 
L 32.328125 57.46875 
L 9.90625 25.203125 
z
" id="ArialMT-34"/>
      </defs>
      <g style="fill:#262626;" transform="translate(273.214705882 401.3378125)scale(0.1 -0.1)">
       <use xlink:href="#ArialMT-30"/>
       <use x="55.615234375" xlink:href="#ArialMT-2e"/>
       <use x="83.3984375" xlink:href="#ArialMT-34"/>
      </g>
     </g>
    </g>
    <g id="xtick_4">
     <g id="line2d_7">
      <g>
       <use style="fill:#262626;stroke:#262626;" x="339.247058824" xlink:href="#m0e00ccdc9d" y="387.18"/>
      </g>
     </g>
     <g id="line2d_8">
      <g>
       <use style="fill:#262626;stroke:#262626;" x="339.247058824" xlink:href="#m0e00ccdc9d" y="43.02"/>
      </g>
     </g>
     <g id="text_4">
      <!-- 0.6 -->
      <defs>
       <path d="M 49.75 54.046875 
L 41.015625 53.375 
Q 39.84375 58.546875 37.703125 60.890625 
Q 34.125 64.65625 28.90625 64.65625 
Q 24.703125 64.65625 21.53125 62.3125 
Q 17.390625 59.28125 14.984375 53.46875 
Q 12.59375 47.65625 12.5 36.921875 
Q 15.671875 41.75 20.265625 44.09375 
Q 24.859375 46.4375 29.890625 46.4375 
Q 38.671875 46.4375 44.84375 39.96875 
Q 51.03125 33.5 51.03125 23.25 
Q 51.03125 16.5 48.125 10.71875 
Q 45.21875 4.9375 40.140625 1.859375 
Q 35.0625 -1.21875 28.609375 -1.21875 
Q 17.625 -1.21875 10.6875 6.859375 
Q 3.765625 14.9375 3.765625 33.5 
Q 3.765625 54.25 11.421875 63.671875 
Q 18.109375 71.875 29.4375 71.875 
Q 37.890625 71.875 43.28125 67.140625 
Q 48.6875 62.40625 49.75 54.046875 
M 13.875 23.1875 
Q 13.875 18.65625 15.796875 14.5 
Q 17.71875 10.359375 21.1875 8.171875 
Q 24.65625 6 28.46875 6 
Q 34.03125 6 38.03125 10.484375 
Q 42.046875 14.984375 42.046875 22.703125 
Q 42.046875 30.125 38.078125 34.390625 
Q 34.125 38.671875 28.125 38.671875 
Q 22.171875 38.671875 18.015625 34.390625 
Q 13.875 30.125 13.875 23.1875 
" id="ArialMT-36"/>
      </defs>
      <g style="fill:#262626;" transform="translate(332.297058824 401.3378125)scale(0.1 -0.1)">
       <use xlink:href="#ArialMT-30"/>
       <use x="55.615234375" xlink:href="#ArialMT-2e"/>
       <use x="83.3984375" xlink:href="#ArialMT-36"/>
      </g>
     </g>
    </g>
    <g id="xtick_5">
     <g id="line2d_9">
      <g>
       <use style="fill:#262626;stroke:#262626;" x="398.329411765" xlink:href="#m0e00ccdc9d" y="387.18"/>
      </g>
     </g>
     <g id="line2d_10">
      <g>
       <use style="fill:#262626;stroke:#262626;" x="398.329411765" xlink:href="#m0e00ccdc9d" y="43.02"/>
      </g>
     </g>
     <g id="text_5">
      <!-- 0.8 -->
      <defs>
       <path d="M 17.671875 38.8125 
Q 12.203125 40.828125 9.5625 44.53125 
Q 6.9375 48.25 6.9375 53.421875 
Q 6.9375 61.234375 12.546875 66.546875 
Q 18.171875 71.875 27.484375 71.875 
Q 36.859375 71.875 42.578125 66.421875 
Q 48.296875 60.984375 48.296875 53.171875 
Q 48.296875 48.1875 45.671875 44.5 
Q 43.0625 40.828125 37.75 38.8125 
Q 44.34375 36.671875 47.78125 31.875 
Q 51.21875 27.09375 51.21875 20.453125 
Q 51.21875 11.28125 44.71875 5.03125 
Q 38.234375 -1.21875 27.640625 -1.21875 
Q 17.046875 -1.21875 10.546875 5.046875 
Q 4.046875 11.328125 4.046875 20.703125 
Q 4.046875 27.6875 7.59375 32.390625 
Q 11.140625 37.109375 17.671875 38.8125 
M 15.921875 53.71875 
Q 15.921875 48.640625 19.1875 45.40625 
Q 22.46875 42.1875 27.6875 42.1875 
Q 32.765625 42.1875 36.015625 45.375 
Q 39.265625 48.578125 39.265625 53.21875 
Q 39.265625 58.0625 35.90625 61.359375 
Q 32.5625 64.65625 27.59375 64.65625 
Q 22.5625 64.65625 19.234375 61.421875 
Q 15.921875 58.203125 15.921875 53.71875 
M 13.09375 20.65625 
Q 13.09375 16.890625 14.875 13.375 
Q 16.65625 9.859375 20.171875 7.921875 
Q 23.6875 6 27.734375 6 
Q 34.03125 6 38.125 10.046875 
Q 42.234375 14.109375 42.234375 20.359375 
Q 42.234375 26.703125 38.015625 30.859375 
Q 33.796875 35.015625 27.4375 35.015625 
Q 21.234375 35.015625 17.15625 30.90625 
Q 13.09375 26.8125 13.09375 20.65625 
" id="ArialMT-38"/>
      </defs>
      <g style="fill:#262626;" transform="translate(391.379411765 401.3378125)scale(0.1 -0.1)">
       <use xlink:href="#ArialMT-30"/>
       <use x="55.615234375" xlink:href="#ArialMT-2e"/>
       <use x="83.3984375" xlink:href="#ArialMT-38"/>
      </g>
     </g>
    </g>
    <g id="xtick_6">
     <g id="line2d_11">
      <g>
       <use style="fill:#262626;stroke:#262626;" x="457.411764706" xlink:href="#m0e00ccdc9d" y="387.18"/>
      </g>
     </g>
     <g id="line2d_12">
      <g>
       <use style="fill:#262626;stroke:#262626;" x="457.411764706" xlink:href="#m0e00ccdc9d" y="43.02"/>
      </g>
     </g>
     <g id="text_6">
      <!-- 1.0 -->
      <defs>
       <path d="M 37.25 0 
L 28.46875 0 
L 28.46875 56 
Q 25.296875 52.984375 20.140625 49.953125 
Q 14.984375 46.921875 10.890625 45.40625 
L 10.890625 53.90625 
Q 18.265625 57.375 23.78125 62.296875 
Q 29.296875 67.234375 31.59375 71.875 
L 37.25 71.875 
z
" id="ArialMT-31"/>
      </defs>
      <g style="fill:#262626;" transform="translate(450.461764706 401.3378125)scale(0.1 -0.1)">
       <use xlink:href="#ArialMT-31"/>
       <use x="55.615234375" xlink:href="#ArialMT-2e"/>
       <use x="83.3984375" xlink:href="#ArialMT-30"/>
      </g>
     </g>
    </g>
    <g id="text_7">
     <!-- False Positive Rate -->
     <defs>
      <path d="M 40.4375 6.390625 
Q 35.546875 2.25 31.03125 0.53125 
Q 26.515625 -1.171875 21.34375 -1.171875 
Q 12.796875 -1.171875 8.203125 3 
Q 3.609375 7.171875 3.609375 13.671875 
Q 3.609375 17.484375 5.34375 20.625 
Q 7.078125 23.78125 9.890625 25.6875 
Q 12.703125 27.59375 16.21875 28.5625 
Q 18.796875 29.25 24.03125 29.890625 
Q 34.671875 31.15625 39.703125 32.90625 
Q 39.75 34.71875 39.75 35.203125 
Q 39.75 40.578125 37.25 42.78125 
Q 33.890625 45.75 27.25 45.75 
Q 21.046875 45.75 18.09375 43.578125 
Q 15.140625 41.40625 13.71875 35.890625 
L 5.125 37.0625 
Q 6.296875 42.578125 8.984375 45.96875 
Q 11.671875 49.359375 16.75 51.1875 
Q 21.828125 53.03125 28.515625 53.03125 
Q 35.15625 53.03125 39.296875 51.46875 
Q 43.453125 49.90625 45.40625 47.53125 
Q 47.359375 45.171875 48.140625 41.546875 
Q 48.578125 39.3125 48.578125 33.453125 
L 48.578125 21.734375 
Q 48.578125 9.46875 49.140625 6.21875 
Q 49.703125 2.984375 51.375 0 
L 42.1875 0 
Q 40.828125 2.734375 40.4375 6.390625 
M 39.703125 26.03125 
Q 34.90625 24.078125 25.34375 22.703125 
Q 19.921875 21.921875 17.671875 20.9375 
Q 15.4375 19.96875 14.203125 18.09375 
Q 12.984375 16.21875 12.984375 13.921875 
Q 12.984375 10.40625 15.640625 8.0625 
Q 18.3125 5.71875 23.4375 5.71875 
Q 28.515625 5.71875 32.46875 7.9375 
Q 36.421875 10.15625 38.28125 14.015625 
Q 39.703125 17 39.703125 22.796875 
z
" id="ArialMT-61"/>
      <path d="M 21 0 
L 1.265625 51.859375 
L 10.546875 51.859375 
L 21.6875 20.796875 
Q 23.484375 15.765625 25 10.359375 
Q 26.171875 14.453125 28.265625 20.21875 
L 39.796875 51.859375 
L 48.828125 51.859375 
L 29.203125 0 
z
" id="ArialMT-76"/>
      <path d="M 42.09375 16.703125 
L 51.171875 15.578125 
Q 49.03125 7.625 43.21875 3.21875 
Q 37.40625 -1.171875 28.375 -1.171875 
Q 17 -1.171875 10.328125 5.828125 
Q 3.65625 12.84375 3.65625 25.484375 
Q 3.65625 38.578125 10.390625 45.796875 
Q 17.140625 53.03125 27.875 53.03125 
Q 38.28125 53.03125 44.875 45.953125 
Q 51.46875 38.875 51.46875 26.03125 
Q 51.46875 25.25 51.421875 23.6875 
L 12.75 23.6875 
Q 13.234375 15.140625 17.578125 10.59375 
Q 21.921875 6.0625 28.421875 6.0625 
Q 33.25 6.0625 36.671875 8.59375 
Q 40.09375 11.140625 42.09375 16.703125 
M 13.234375 30.90625 
L 42.1875 30.90625 
Q 41.609375 37.453125 38.875 40.71875 
Q 34.671875 45.796875 27.984375 45.796875 
Q 21.921875 45.796875 17.796875 41.75 
Q 13.671875 37.703125 13.234375 30.90625 
" id="ArialMT-65"/>
      <path d="M 25.78125 7.859375 
L 27.046875 0.09375 
Q 23.34375 -0.6875 20.40625 -0.6875 
Q 15.625 -0.6875 12.984375 0.828125 
Q 10.359375 2.34375 9.28125 4.8125 
Q 8.203125 7.28125 8.203125 15.1875 
L 8.203125 45.015625 
L 1.765625 45.015625 
L 1.765625 51.859375 
L 8.203125 51.859375 
L 8.203125 64.703125 
L 16.9375 69.96875 
L 16.9375 51.859375 
L 25.78125 51.859375 
L 25.78125 45.015625 
L 16.9375 45.015625 
L 16.9375 14.703125 
Q 16.9375 10.9375 17.40625 9.859375 
Q 17.875 8.796875 18.921875 8.15625 
Q 19.96875 7.515625 21.921875 7.515625 
Q 23.390625 7.515625 25.78125 7.859375 
" id="ArialMT-74"/>
      <path d="M 7.71875 0 
L 7.71875 71.578125 
L 34.71875 71.578125 
Q 41.84375 71.578125 45.609375 70.90625 
Q 50.875 70.015625 54.4375 67.546875 
Q 58.015625 65.09375 60.1875 60.640625 
Q 62.359375 56.203125 62.359375 50.875 
Q 62.359375 41.75 56.546875 35.421875 
Q 50.734375 29.109375 35.546875 29.109375 
L 17.1875 29.109375 
L 17.1875 0 
z
M 17.1875 37.546875 
L 35.6875 37.546875 
Q 44.875 37.546875 48.734375 40.96875 
Q 52.59375 44.390625 52.59375 50.59375 
Q 52.59375 55.078125 50.3125 58.265625 
Q 48.046875 61.46875 44.34375 62.5 
Q 41.9375 63.140625 35.5 63.140625 
L 17.1875 63.140625 
z
" id="ArialMT-50"/>
      <path d="M 3.078125 15.484375 
L 11.765625 16.84375 
Q 12.5 11.625 15.84375 8.84375 
Q 19.1875 6.0625 25.203125 6.0625 
Q 31.25 6.0625 34.171875 8.515625 
Q 37.109375 10.984375 37.109375 14.3125 
Q 37.109375 17.28125 34.515625 19 
Q 32.71875 20.171875 25.53125 21.96875 
Q 15.875 24.421875 12.140625 26.203125 
Q 8.40625 27.984375 6.46875 31.125 
Q 4.546875 34.28125 4.546875 38.09375 
Q 4.546875 41.546875 6.125 44.5 
Q 7.71875 47.46875 10.453125 49.421875 
Q 12.5 50.921875 16.03125 51.96875 
Q 19.578125 53.03125 23.640625 53.03125 
Q 29.734375 53.03125 34.34375 51.265625 
Q 38.96875 49.515625 41.15625 46.5 
Q 43.359375 43.5 44.1875 38.484375 
L 35.59375 37.3125 
Q 35.015625 41.3125 32.203125 43.546875 
Q 29.390625 45.796875 24.265625 45.796875 
Q 18.21875 45.796875 15.625 43.796875 
Q 13.03125 41.796875 13.03125 39.109375 
Q 13.03125 37.40625 14.109375 36.03125 
Q 15.1875 34.625 17.484375 33.6875 
Q 18.796875 33.203125 25.25 31.453125 
Q 34.578125 28.953125 38.25 27.359375 
Q 41.9375 25.78125 44.03125 22.75 
Q 46.140625 19.734375 46.140625 15.234375 
Q 46.140625 10.84375 43.578125 6.953125 
Q 41.015625 3.078125 36.171875 0.953125 
Q 31.34375 -1.171875 25.25 -1.171875 
Q 15.140625 -1.171875 9.84375 3.03125 
Q 4.546875 7.234375 3.078125 15.484375 
" id="ArialMT-73"/>
      <path d="M 6.390625 0 
L 6.390625 71.578125 
L 15.1875 71.578125 
L 15.1875 0 
z
" id="ArialMT-6c"/>
      <path d="M 7.859375 0 
L 7.859375 71.578125 
L 39.59375 71.578125 
Q 49.171875 71.578125 54.140625 69.640625 
Q 59.125 67.71875 62.109375 62.828125 
Q 65.09375 57.953125 65.09375 52.046875 
Q 65.09375 44.4375 60.15625 39.203125 
Q 55.21875 33.984375 44.921875 32.5625 
Q 48.6875 30.765625 50.640625 29 
Q 54.78125 25.203125 58.5 19.484375 
L 70.953125 0 
L 59.03125 0 
L 49.5625 14.890625 
Q 45.40625 21.34375 42.71875 24.75 
Q 40.046875 28.171875 37.921875 29.53125 
Q 35.796875 30.90625 33.59375 31.453125 
Q 31.984375 31.78125 28.328125 31.78125 
L 17.328125 31.78125 
L 17.328125 0 
z
M 17.328125 39.984375 
L 37.703125 39.984375 
Q 44.1875 39.984375 47.84375 41.328125 
Q 51.515625 42.671875 53.421875 45.625 
Q 55.328125 48.578125 55.328125 52.046875 
Q 55.328125 57.125 51.640625 60.390625 
Q 47.953125 63.671875 39.984375 63.671875 
L 17.328125 63.671875 
z
" id="ArialMT-52"/>
      <path d="M 3.328125 25.921875 
Q 3.328125 40.328125 11.328125 47.265625 
Q 18.015625 53.03125 27.640625 53.03125 
Q 38.328125 53.03125 45.109375 46.015625 
Q 51.90625 39.015625 51.90625 26.65625 
Q 51.90625 16.65625 48.90625 10.90625 
Q 45.90625 5.171875 40.15625 2 
Q 34.421875 -1.171875 27.640625 -1.171875 
Q 16.75 -1.171875 10.03125 5.8125 
Q 3.328125 12.796875 3.328125 25.921875 
M 12.359375 25.921875 
Q 12.359375 15.96875 16.703125 11.015625 
Q 21.046875 6.0625 27.640625 6.0625 
Q 34.1875 6.0625 38.53125 11.03125 
Q 42.875 16.015625 42.875 26.21875 
Q 42.875 35.84375 38.5 40.796875 
Q 34.125 45.75 27.640625 45.75 
Q 21.046875 45.75 16.703125 40.8125 
Q 12.359375 35.890625 12.359375 25.921875 
" id="ArialMT-6f"/>
      <path d="M 8.203125 0 
L 8.203125 71.578125 
L 56.5 71.578125 
L 56.5 63.140625 
L 17.671875 63.140625 
L 17.671875 40.96875 
L 51.265625 40.96875 
L 51.265625 32.515625 
L 17.671875 32.515625 
L 17.671875 0 
z
" id="ArialMT-46"/>
      <path d="M 6.640625 61.46875 
L 6.640625 71.578125 
L 15.4375 71.578125 
L 15.4375 61.46875 
z
M 6.640625 0 
L 6.640625 51.859375 
L 15.4375 51.859375 
L 15.4375 0 
z
" id="ArialMT-69"/>
      <path id="ArialMT-20"/>
     </defs>
     <g style="fill:#262626;" transform="translate(240.790882353 419.7778125)scale(0.16 -0.16)">
      <use xlink:href="#ArialMT-46"/>
      <use x="61.083984375" xlink:href="#ArialMT-61"/>
      <use x="116.69921875" xlink:href="#ArialMT-6c"/>
      <use x="138.916015625" xlink:href="#ArialMT-73"/>
      <use x="188.916015625" xlink:href="#ArialMT-65"/>
      <use x="244.53125" xlink:href="#ArialMT-20"/>
      <use x="272.314453125" xlink:href="#ArialMT-50"/>
      <use x="339.013671875" xlink:href="#ArialMT-6f"/>
      <use x="394.62890625" xlink:href="#ArialMT-73"/>
      <use x="444.62890625" xlink:href="#ArialMT-69"/>
      <use x="466.845703125" xlink:href="#ArialMT-74"/>
      <use x="494.62890625" xlink:href="#ArialMT-69"/>
      <use x="516.845703125" xlink:href="#ArialMT-76"/>
      <use x="566.845703125" xlink:href="#ArialMT-65"/>
      <use x="622.4609375" xlink:href="#ArialMT-20"/>
      <use x="650.244140625" xlink:href="#ArialMT-52"/>
      <use x="722.4609375" xlink:href="#ArialMT-61"/>
      <use x="778.076171875" xlink:href="#ArialMT-74"/>
      <use x="805.859375" xlink:href="#ArialMT-65"/>
     </g>
    </g>
   </g>
   <g id="matplotlib.axis_2">
    <g id="ytick_1">
     <g id="line2d_13">
      <g>
       <use style="fill:#262626;stroke:#262626;" x="162.0" xlink:href="#m0e00ccdc9d" y="387.18"/>
      </g>
     </g>
     <g id="line2d_14">
      <g>
       <use style="fill:#262626;stroke:#262626;" x="457.411764706" xlink:href="#m0e00ccdc9d" y="387.18"/>
      </g>
     </g>
     <g id="text_8">
      <!-- 0.0 -->
      <g style="fill:#262626;" transform="translate(141.1 389.76515625)scale(0.1 -0.1)">
       <use xlink:href="#ArialMT-30"/>
       <use x="55.615234375" xlink:href="#ArialMT-2e"/>
       <use x="83.3984375" xlink:href="#ArialMT-30"/>
      </g>
     </g>
    </g>
    <g id="ytick_2">
     <g id="line2d_15">
      <g>
       <use style="fill:#262626;stroke:#262626;" x="162.0" xlink:href="#m0e00ccdc9d" y="318.348"/>
      </g>
     </g>
     <g id="line2d_16">
      <g>
       <use style="fill:#262626;stroke:#262626;" x="457.411764706" xlink:href="#m0e00ccdc9d" y="318.348"/>
      </g>
     </g>
     <g id="text_9">
      <!-- 0.2 -->
      <g style="fill:#262626;" transform="translate(141.1 320.93315625)scale(0.1 -0.1)">
       <use xlink:href="#ArialMT-30"/>
       <use x="55.615234375" xlink:href="#ArialMT-2e"/>
       <use x="83.3984375" xlink:href="#ArialMT-32"/>
      </g>
     </g>
    </g>
    <g id="ytick_3">
     <g id="line2d_17">
      <g>
       <use style="fill:#262626;stroke:#262626;" x="162.0" xlink:href="#m0e00ccdc9d" y="249.516"/>
      </g>
     </g>
     <g id="line2d_18">
      <g>
       <use style="fill:#262626;stroke:#262626;" x="457.411764706" xlink:href="#m0e00ccdc9d" y="249.516"/>
      </g>
     </g>
     <g id="text_10">
      <!-- 0.4 -->
      <g style="fill:#262626;" transform="translate(141.1 252.10115625)scale(0.1 -0.1)">
       <use xlink:href="#ArialMT-30"/>
       <use x="55.615234375" xlink:href="#ArialMT-2e"/>
       <use x="83.3984375" xlink:href="#ArialMT-34"/>
      </g>
     </g>
    </g>
    <g id="ytick_4">
     <g id="line2d_19">
      <g>
       <use style="fill:#262626;stroke:#262626;" x="162.0" xlink:href="#m0e00ccdc9d" y="180.684"/>
      </g>
     </g>
     <g id="line2d_20">
      <g>
       <use style="fill:#262626;stroke:#262626;" x="457.411764706" xlink:href="#m0e00ccdc9d" y="180.684"/>
      </g>
     </g>
     <g id="text_11">
      <!-- 0.6 -->
      <g style="fill:#262626;" transform="translate(141.1 183.26915625)scale(0.1 -0.1)">
       <use xlink:href="#ArialMT-30"/>
       <use x="55.615234375" xlink:href="#ArialMT-2e"/>
       <use x="83.3984375" xlink:href="#ArialMT-36"/>
      </g>
     </g>
    </g>
    <g id="ytick_5">
     <g id="line2d_21">
      <g>
       <use style="fill:#262626;stroke:#262626;" x="162.0" xlink:href="#m0e00ccdc9d" y="111.852"/>
      </g>
     </g>
     <g id="line2d_22">
      <g>
       <use style="fill:#262626;stroke:#262626;" x="457.411764706" xlink:href="#m0e00ccdc9d" y="111.852"/>
      </g>
     </g>
     <g id="text_12">
      <!-- 0.8 -->
      <g style="fill:#262626;" transform="translate(141.1 114.43715625)scale(0.1 -0.1)">
       <use xlink:href="#ArialMT-30"/>
       <use x="55.615234375" xlink:href="#ArialMT-2e"/>
       <use x="83.3984375" xlink:href="#ArialMT-38"/>
      </g>
     </g>
    </g>
    <g id="ytick_6">
     <g id="line2d_23">
      <g>
       <use style="fill:#262626;stroke:#262626;" x="162.0" xlink:href="#m0e00ccdc9d" y="43.02"/>
      </g>
     </g>
     <g id="line2d_24">
      <g>
       <use style="fill:#262626;stroke:#262626;" x="457.411764706" xlink:href="#m0e00ccdc9d" y="43.02"/>
      </g>
     </g>
     <g id="text_13">
      <!-- 1.0 -->
      <g style="fill:#262626;" transform="translate(141.1 45.60515625)scale(0.1 -0.1)">
       <use xlink:href="#ArialMT-31"/>
       <use x="55.615234375" xlink:href="#ArialMT-2e"/>
       <use x="83.3984375" xlink:href="#ArialMT-30"/>
      </g>
     </g>
    </g>
    <g id="text_14">
     <!-- True Positive Rate -->
     <defs>
      <path d="M 40.578125 0 
L 40.578125 7.625 
Q 34.515625 -1.171875 24.125 -1.171875 
Q 19.53125 -1.171875 15.546875 0.578125 
Q 11.578125 2.34375 9.640625 5 
Q 7.71875 7.671875 6.9375 11.53125 
Q 6.390625 14.109375 6.390625 19.734375 
L 6.390625 51.859375 
L 15.1875 51.859375 
L 15.1875 23.09375 
Q 15.1875 16.21875 15.71875 13.8125 
Q 16.546875 10.359375 19.234375 8.375 
Q 21.921875 6.390625 25.875 6.390625 
Q 29.828125 6.390625 33.296875 8.421875 
Q 36.765625 10.453125 38.203125 13.9375 
Q 39.65625 17.4375 39.65625 24.078125 
L 39.65625 51.859375 
L 48.4375 51.859375 
L 48.4375 0 
z
" id="ArialMT-75"/>
      <path d="M 6.5 0 
L 6.5 51.859375 
L 14.40625 51.859375 
L 14.40625 44 
Q 17.4375 49.515625 20 51.265625 
Q 22.5625 53.03125 25.640625 53.03125 
Q 30.078125 53.03125 34.671875 50.203125 
L 31.640625 42.046875 
Q 28.421875 43.953125 25.203125 43.953125 
Q 22.3125 43.953125 20.015625 42.21875 
Q 17.71875 40.484375 16.75 37.40625 
Q 15.28125 32.71875 15.28125 27.15625 
L 15.28125 0 
z
" id="ArialMT-72"/>
      <path d="M 25.921875 0 
L 25.921875 63.140625 
L 2.34375 63.140625 
L 2.34375 71.578125 
L 59.078125 71.578125 
L 59.078125 63.140625 
L 35.40625 63.140625 
L 35.40625 0 
z
" id="ArialMT-54"/>
     </defs>
     <g style="fill:#262626;" transform="translate(132.92 280.8975)rotate(-90.0)scale(0.16 -0.16)">
      <use xlink:href="#ArialMT-54"/>
      <use x="61.037109375" xlink:href="#ArialMT-72"/>
      <use x="94.337890625" xlink:href="#ArialMT-75"/>
      <use x="149.953125" xlink:href="#ArialMT-65"/>
      <use x="205.568359375" xlink:href="#ArialMT-20"/>
      <use x="233.3515625" xlink:href="#ArialMT-50"/>
      <use x="300.05078125" xlink:href="#ArialMT-6f"/>
      <use x="355.666015625" xlink:href="#ArialMT-73"/>
      <use x="405.666015625" xlink:href="#ArialMT-69"/>
      <use x="427.8828125" xlink:href="#ArialMT-74"/>
      <use x="455.666015625" xlink:href="#ArialMT-69"/>
      <use x="477.8828125" xlink:href="#ArialMT-76"/>
      <use x="527.8828125" xlink:href="#ArialMT-65"/>
      <use x="583.498046875" xlink:href="#ArialMT-20"/>
      <use x="611.28125" xlink:href="#ArialMT-52"/>
      <use x="683.498046875" xlink:href="#ArialMT-61"/>
      <use x="739.11328125" xlink:href="#ArialMT-74"/>
      <use x="766.896484375" xlink:href="#ArialMT-65"/>
     </g>
    </g>
   </g>
   <g id="PolyCollection_1">
    <defs>
     <path d="M 162 -43.02 
L 162 -43.02 
L 164.983957 -288.240688 
L 167.967914 -336.514325 
L 170.951872 -351.195789 
L 173.935829 -359.852386 
L 176.919786 -371.342649 
L 179.903743 -378.895589 
L 182.887701 -382.431254 
L 185.871658 -383.9535 
L 188.855615 -387.18 
L 191.839572 -387.18 
L 194.823529 -387.18 
L 197.807487 -387.18 
L 200.791444 -387.18 
L 203.775401 -387.18 
L 206.759358 -387.18 
L 209.743316 -387.18 
L 212.727273 -387.18 
L 215.71123 -387.18 
L 218.695187 -387.18 
L 221.679144 -387.18 
L 224.663102 -387.18 
L 227.647059 -387.18 
L 230.631016 -387.18 
L 233.614973 -387.18 
L 236.59893 -387.18 
L 239.582888 -387.18 
L 242.566845 -387.18 
L 245.550802 -387.18 
L 248.534759 -387.18 
L 251.518717 -387.18 
L 254.502674 -387.18 
L 257.486631 -387.18 
L 260.470588 -387.18 
L 263.454545 -387.18 
L 266.438503 -387.18 
L 269.42246 -387.18 
L 272.406417 -387.18 
L 275.390374 -387.18 
L 278.374332 -387.18 
L 281.358289 -387.18 
L 284.342246 -387.18 
L 287.326203 -387.18 
L 290.31016 -387.18 
L 293.294118 -387.18 
L 296.278075 -387.18 
L 299.262032 -387.18 
L 302.245989 -387.18 
L 305.229947 -387.18 
L 308.213904 -387.18 
L 311.197861 -387.18 
L 314.181818 -387.18 
L 317.165775 -387.18 
L 320.149733 -387.18 
L 323.13369 -387.18 
L 326.117647 -387.18 
L 329.101604 -387.18 
L 332.085561 -387.18 
L 335.069519 -387.18 
L 338.053476 -387.18 
L 341.037433 -387.18 
L 344.02139 -387.18 
L 347.005348 -387.18 
L 349.989305 -387.18 
L 352.973262 -387.18 
L 355.957219 -387.18 
L 358.941176 -387.18 
L 361.925134 -387.18 
L 364.909091 -387.18 
L 367.893048 -387.18 
L 370.877005 -387.18 
L 373.860963 -387.18 
L 376.84492 -387.18 
L 379.828877 -387.18 
L 382.812834 -387.18 
L 385.796791 -387.18 
L 388.780749 -387.18 
L 391.764706 -387.18 
L 394.748663 -387.18 
L 397.73262 -387.18 
L 400.716578 -387.18 
L 403.700535 -387.18 
L 406.684492 -387.18 
L 409.668449 -387.18 
L 412.652406 -387.18 
L 415.636364 -387.18 
L 418.620321 -387.18 
L 421.604278 -387.18 
L 424.588235 -387.18 
L 427.572193 -387.18 
L 430.55615 -387.18 
L 433.540107 -387.18 
L 436.524064 -387.18 
L 439.508021 -387.18 
L 442.491979 -387.18 
L 445.475936 -387.18 
L 448.459893 -387.18 
L 451.44385 -387.18 
L 454.427807 -387.18 
L 457.411765 -387.18 
L 457.411765 -387.18 
L 457.411765 -387.18 
L 454.427807 -387.18 
L 451.44385 -387.18 
L 448.459893 -387.18 
L 445.475936 -387.18 
L 442.491979 -387.18 
L 439.508021 -387.18 
L 436.524064 -387.18 
L 433.540107 -387.18 
L 430.55615 -387.18 
L 427.572193 -387.18 
L 424.588235 -387.18 
L 421.604278 -387.18 
L 418.620321 -387.18 
L 415.636364 -387.18 
L 412.652406 -387.18 
L 409.668449 -387.18 
L 406.684492 -387.18 
L 403.700535 -387.18 
L 400.716578 -387.18 
L 397.73262 -387.18 
L 394.748663 -387.18 
L 391.764706 -387.18 
L 388.780749 -387.18 
L 385.796791 -387.18 
L 382.812834 -387.18 
L 379.828877 -387.18 
L 376.84492 -387.18 
L 373.860963 -387.18 
L 370.877005 -387.18 
L 367.893048 -387.18 
L 364.909091 -387.18 
L 361.925134 -387.18 
L 358.941176 -387.18 
L 355.957219 -387.18 
L 352.973262 -387.18 
L 349.989305 -387.18 
L 347.005348 -387.18 
L 344.02139 -387.18 
L 341.037433 -387.18 
L 338.053476 -387.18 
L 335.069519 -387.18 
L 332.085561 -387.18 
L 329.101604 -387.18 
L 326.117647 -387.18 
L 323.13369 -387.18 
L 320.149733 -387.18 
L 317.165775 -387.18 
L 314.181818 -387.18 
L 311.197861 -387.18 
L 308.213904 -387.18 
L 305.229947 -387.18 
L 302.245989 -387.18 
L 299.262032 -387.18 
L 296.278075 -387.18 
L 293.294118 -387.18 
L 290.31016 -387.18 
L 287.326203 -387.18 
L 284.342246 -387.18 
L 281.358289 -387.18 
L 278.374332 -387.18 
L 275.390374 -387.18 
L 272.406417 -387.18 
L 269.42246 -387.18 
L 266.438503 -387.18 
L 263.454545 -387.18 
L 260.470588 -387.18 
L 257.486631 -387.18 
L 254.502674 -387.18 
L 251.518717 -387.18 
L 248.534759 -387.18 
L 245.550802 -387.18 
L 242.566845 -387.18 
L 239.582888 -387.18 
L 236.59893 -387.18 
L 233.614973 -387.18 
L 230.631016 -387.18 
L 227.647059 -387.18 
L 224.663102 -387.18 
L 221.679144 -387.18 
L 218.695187 -387.18 
L 215.71123 -387.18 
L 212.727273 -387.18 
L 209.743316 -387.18 
L 206.759358 -387.18 
L 203.775401 -387.18 
L 200.791444 -387.18 
L 197.807487 -387.18 
L 194.823529 -387.18 
L 191.839572 -387.18 
L 188.855615 -387.18 
L 185.871658 -387.18 
L 182.887701 -387.18 
L 179.903743 -386.926595 
L 176.919786 -385.941721 
L 173.935829 -382.507352 
L 170.951872 -376.305503 
L 167.967914 -354.949444 
L 164.983957 -337.23702 
L 162 -43.02 
z
" id="m6baa48a425" style="stroke:#808080;stroke-opacity:0.15;stroke-width:0.3;"/>
    </defs>
    <g clip-path="url(#p48165e6a6f)">
     <use style="fill:#808080;fill-opacity:0.15;stroke:#808080;stroke-opacity:0.15;stroke-width:0.3;" x="0.0" xlink:href="#m6baa48a425" y="430.2"/>
    </g>
   </g>
   <g id="line2d_25">
    <path clip-path="url(#p48165e6a6f)" d="M 162 387.18 
L 457.411765 43.02 
" style="fill:none;opacity:0.5;stroke:#000000;stroke-dasharray:6.000000,6.000000;stroke-dashoffset:0.0;"/>
   </g>
   <g id="line2d_26">
    <path clip-path="url(#p48165e6a6f)" d="M 162 387.18 
L 164.983957 117.461146 
L 167.967914 84.468115 
L 170.951872 66.449354 
L 173.935829 59.020131 
L 176.919786 51.557815 
L 179.903743 47.288908 
L 182.887701 45.154454 
L 185.871658 44.0955 
L 188.855615 43.02 
L 191.839572 43.02 
L 194.823529 43.02 
L 197.807487 43.02 
L 200.791444 43.02 
L 203.775401 43.02 
L 206.759358 43.02 
L 209.743316 43.02 
L 212.727273 43.02 
L 215.71123 43.02 
L 218.695187 43.02 
L 221.679144 43.02 
L 224.663102 43.02 
L 227.647059 43.02 
L 230.631016 43.02 
L 233.614973 43.02 
L 236.59893 43.02 
L 239.582888 43.02 
L 242.566845 43.02 
L 245.550802 43.02 
L 248.534759 43.02 
L 251.518717 43.02 
L 254.502674 43.02 
L 257.486631 43.02 
L 260.470588 43.02 
L 263.454545 43.02 
L 266.438503 43.02 
L 269.42246 43.02 
L 272.406417 43.02 
L 275.390374 43.02 
L 278.374332 43.02 
L 281.358289 43.02 
L 284.342246 43.02 
L 287.326203 43.02 
L 290.31016 43.02 
L 293.294118 43.02 
L 296.278075 43.02 
L 299.262032 43.02 
L 302.245989 43.02 
L 305.229947 43.02 
L 308.213904 43.02 
L 311.197861 43.02 
L 314.181818 43.02 
L 317.165775 43.02 
L 320.149733 43.02 
L 323.13369 43.02 
L 326.117647 43.02 
L 329.101604 43.02 
L 332.085561 43.02 
L 335.069519 43.02 
L 338.053476 43.02 
L 341.037433 43.02 
L 344.02139 43.02 
L 347.005348 43.02 
L 349.989305 43.02 
L 352.973262 43.02 
L 355.957219 43.02 
L 358.941176 43.02 
L 361.925134 43.02 
L 364.909091 43.02 
L 367.893048 43.02 
L 370.877005 43.02 
L 373.860963 43.02 
L 376.84492 43.02 
L 379.828877 43.02 
L 382.812834 43.02 
L 385.796791 43.02 
L 388.780749 43.02 
L 391.764706 43.02 
L 394.748663 43.02 
L 397.73262 43.02 
L 400.716578 43.02 
L 403.700535 43.02 
L 406.684492 43.02 
L 409.668449 43.02 
L 412.652406 43.02 
L 415.636364 43.02 
L 418.620321 43.02 
L 421.604278 43.02 
L 424.588235 43.02 
L 427.572193 43.02 
L 430.55615 43.02 
L 433.540107 43.02 
L 436.524064 43.02 
L 439.508021 43.02 
L 442.491979 43.02 
L 445.475936 43.02 
L 448.459893 43.02 
L 451.44385 43.02 
L 454.427807 43.02 
L 457.411765 43.02 
" style="fill:none;stroke:#92c6ff;stroke-linecap:round;stroke-width:3.0;"/>
   </g>
   <g id="patch_3">
    <path d="M 162 43.02 
L 457.411765 43.02 
" style="fill:none;stroke:#cccccc;stroke-linecap:square;stroke-linejoin:miter;"/>
   </g>
   <g id="patch_4">
    <path d="M 457.411765 387.18 
L 457.411765 43.02 
" style="fill:none;stroke:#cccccc;stroke-linecap:square;stroke-linejoin:miter;"/>
   </g>
   <g id="patch_5">
    <path d="M 162 387.18 
L 457.411765 387.18 
" style="fill:none;stroke:#cccccc;stroke-linecap:square;stroke-linejoin:miter;"/>
   </g>
   <g id="patch_6">
    <path d="M 162 387.18 
L 162 43.02 
" style="fill:none;stroke:#cccccc;stroke-linecap:square;stroke-linejoin:miter;"/>
   </g>
   <g id="text_15">
    <!-- Average AUC across cv Conventional CAD +GRAPH features n=523 -->
    <defs>
     <path d="M 40.4375 19 
L 49.078125 17.875 
Q 47.65625 8.9375 41.8125 3.875 
Q 35.984375 -1.171875 27.484375 -1.171875 
Q 16.84375 -1.171875 10.375 5.78125 
Q 3.90625 12.75 3.90625 25.734375 
Q 3.90625 34.125 6.6875 40.421875 
Q 9.46875 46.734375 15.15625 49.875 
Q 20.84375 53.03125 27.546875 53.03125 
Q 35.984375 53.03125 41.359375 48.75 
Q 46.734375 44.484375 48.25 36.625 
L 39.703125 35.296875 
Q 38.484375 40.53125 35.375 43.15625 
Q 32.28125 45.796875 27.875 45.796875 
Q 21.234375 45.796875 17.078125 41.03125 
Q 12.9375 36.28125 12.9375 25.984375 
Q 12.9375 15.53125 16.9375 10.796875 
Q 20.953125 6.0625 27.390625 6.0625 
Q 32.5625 6.0625 36.03125 9.234375 
Q 39.5 12.40625 40.4375 19 
" id="ArialMT-63"/>
     <path d="M 8.015625 0 
L 8.015625 71.578125 
L 17.484375 71.578125 
L 17.484375 42.1875 
L 54.6875 42.1875 
L 54.6875 71.578125 
L 64.15625 71.578125 
L 64.15625 0 
L 54.6875 0 
L 54.6875 33.734375 
L 17.484375 33.734375 
L 17.484375 0 
z
" id="ArialMT-48"/>
     <path d="M 4.984375 -4.296875 
L 13.53125 -5.5625 
Q 14.0625 -9.515625 16.5 -11.328125 
Q 19.78125 -13.765625 25.4375 -13.765625 
Q 31.546875 -13.765625 34.859375 -11.328125 
Q 38.1875 -8.890625 39.359375 -4.5 
Q 40.046875 -1.8125 39.984375 6.78125 
Q 34.234375 0 25.640625 0 
Q 14.9375 0 9.078125 7.71875 
Q 3.21875 15.4375 3.21875 26.21875 
Q 3.21875 33.640625 5.90625 39.90625 
Q 8.59375 46.1875 13.6875 49.609375 
Q 18.796875 53.03125 25.6875 53.03125 
Q 34.859375 53.03125 40.828125 45.609375 
L 40.828125 51.859375 
L 48.921875 51.859375 
L 48.921875 7.03125 
Q 48.921875 -5.078125 46.453125 -10.125 
Q 44 -15.1875 38.640625 -18.109375 
Q 33.296875 -21.046875 25.484375 -21.046875 
Q 16.21875 -21.046875 10.5 -16.875 
Q 4.78125 -12.703125 4.984375 -4.296875 
M 12.25 26.859375 
Q 12.25 16.65625 16.296875 11.96875 
Q 20.359375 7.28125 26.46875 7.28125 
Q 32.515625 7.28125 36.609375 11.9375 
Q 40.71875 16.609375 40.71875 26.5625 
Q 40.71875 36.078125 36.5 40.90625 
Q 32.28125 45.75 26.3125 45.75 
Q 20.453125 45.75 16.34375 40.984375 
Q 12.25 36.234375 12.25 26.859375 
" id="ArialMT-67"/>
     <path d="M 8.6875 0 
L 8.6875 45.015625 
L 0.921875 45.015625 
L 0.921875 51.859375 
L 8.6875 51.859375 
L 8.6875 57.375 
Q 8.6875 62.59375 9.625 65.140625 
Q 10.890625 68.5625 14.078125 70.671875 
Q 17.28125 72.796875 23.046875 72.796875 
Q 26.765625 72.796875 31.25 71.921875 
L 29.9375 64.265625 
Q 27.203125 64.75 24.75 64.75 
Q 20.75 64.75 19.09375 63.03125 
Q 17.4375 61.328125 17.4375 56.640625 
L 17.4375 51.859375 
L 27.546875 51.859375 
L 27.546875 45.015625 
L 17.4375 45.015625 
L 17.4375 0 
z
" id="ArialMT-66"/>
     <path d="M -0.140625 0 
L 27.34375 71.578125 
L 37.546875 71.578125 
L 66.84375 0 
L 56.0625 0 
L 47.703125 21.6875 
L 17.78125 21.6875 
L 9.90625 0 
z
M 20.515625 29.390625 
L 44.78125 29.390625 
L 37.3125 49.21875 
Q 33.890625 58.25 32.234375 64.0625 
Q 30.859375 57.171875 28.375 50.390625 
z
" id="ArialMT-41"/>
     <path d="M 58.796875 25.09375 
L 68.265625 22.703125 
Q 65.28125 11.03125 57.546875 4.90625 
Q 49.8125 -1.21875 38.625 -1.21875 
Q 27.046875 -1.21875 19.796875 3.484375 
Q 12.546875 8.203125 8.765625 17.140625 
Q 4.984375 26.078125 4.984375 36.328125 
Q 4.984375 47.515625 9.25 55.828125 
Q 13.53125 64.15625 21.40625 68.46875 
Q 29.296875 72.796875 38.765625 72.796875 
Q 49.515625 72.796875 56.828125 67.328125 
Q 64.15625 61.859375 67.046875 51.953125 
L 57.71875 49.75 
Q 55.21875 57.5625 50.484375 61.125 
Q 45.75 64.703125 38.578125 64.703125 
Q 30.328125 64.703125 24.78125 60.734375 
Q 19.234375 56.78125 16.984375 50.109375 
Q 14.75 43.453125 14.75 36.375 
Q 14.75 27.25 17.40625 20.4375 
Q 20.0625 13.625 25.671875 10.25 
Q 31.296875 6.890625 37.84375 6.890625 
Q 45.796875 6.890625 51.3125 11.46875 
Q 56.84375 16.0625 58.796875 25.09375 
" id="ArialMT-43"/>
     <path d="M 52.828125 42.09375 
L 5.5625 42.09375 
L 5.5625 50.296875 
L 52.828125 50.296875 
z
M 52.828125 20.359375 
L 5.5625 20.359375 
L 5.5625 28.5625 
L 52.828125 28.5625 
z
" id="ArialMT-3d"/>
     <path d="M 7.71875 0 
L 7.71875 71.578125 
L 32.375 71.578125 
Q 40.71875 71.578125 45.125 70.5625 
Q 51.265625 69.140625 55.609375 65.4375 
Q 61.28125 60.640625 64.078125 53.1875 
Q 66.890625 45.75 66.890625 36.1875 
Q 66.890625 28.03125 64.984375 21.734375 
Q 63.09375 15.4375 60.109375 11.296875 
Q 57.125 7.171875 53.578125 4.796875 
Q 50.046875 2.4375 45.046875 1.21875 
Q 40.046875 0 33.546875 0 
z
M 17.1875 8.453125 
L 32.46875 8.453125 
Q 39.546875 8.453125 43.578125 9.765625 
Q 47.609375 11.078125 50 13.484375 
Q 53.375 16.84375 55.25 22.53125 
Q 57.125 28.21875 57.125 36.328125 
Q 57.125 47.5625 53.4375 53.59375 
Q 49.75 59.625 44.484375 61.671875 
Q 40.671875 63.140625 32.234375 63.140625 
L 17.1875 63.140625 
z
" id="ArialMT-44"/>
     <path d="M 41.21875 28.078125 
L 41.21875 36.46875 
L 71.53125 36.53125 
L 71.53125 9.96875 
Q 64.546875 4.390625 57.125 1.578125 
Q 49.703125 -1.21875 41.890625 -1.21875 
Q 31.34375 -1.21875 22.71875 3.296875 
Q 14.109375 7.8125 9.71875 16.359375 
Q 5.328125 24.90625 5.328125 35.453125 
Q 5.328125 45.90625 9.6875 54.953125 
Q 14.0625 64.015625 22.265625 68.40625 
Q 30.46875 72.796875 41.15625 72.796875 
Q 48.921875 72.796875 55.1875 70.28125 
Q 61.46875 67.78125 65.03125 63.28125 
Q 68.609375 58.796875 70.453125 51.5625 
L 61.921875 49.21875 
Q 60.296875 54.6875 57.90625 57.8125 
Q 55.515625 60.9375 51.0625 62.8125 
Q 46.625 64.703125 41.21875 64.703125 
Q 34.71875 64.703125 29.984375 62.71875 
Q 25.25 60.75 22.34375 57.515625 
Q 19.4375 54.296875 17.828125 50.4375 
Q 15.09375 43.796875 15.09375 36.03125 
Q 15.09375 26.46875 18.390625 20.015625 
Q 21.6875 13.578125 27.984375 10.453125 
Q 34.28125 7.328125 41.359375 7.328125 
Q 47.515625 7.328125 53.375 9.6875 
Q 59.234375 12.0625 62.25 14.75 
L 62.25 28.078125 
z
" id="ArialMT-47"/>
     <path d="M 54.6875 71.578125 
L 64.15625 71.578125 
L 64.15625 30.21875 
Q 64.15625 19.4375 61.71875 13.078125 
Q 59.28125 6.734375 52.90625 2.75 
Q 46.53125 -1.21875 36.1875 -1.21875 
Q 26.125 -1.21875 19.71875 2.25 
Q 13.328125 5.71875 10.59375 12.28125 
Q 7.859375 18.84375 7.859375 30.21875 
L 7.859375 71.578125 
L 17.328125 71.578125 
L 17.328125 30.28125 
Q 17.328125 20.953125 19.0625 16.53125 
Q 20.796875 12.109375 25.015625 9.71875 
Q 29.25 7.328125 35.359375 7.328125 
Q 45.796875 7.328125 50.234375 12.0625 
Q 54.6875 16.796875 54.6875 30.28125 
z
" id="ArialMT-55"/>
     <path d="M 6.59375 0 
L 6.59375 51.859375 
L 14.5 51.859375 
L 14.5 44.484375 
Q 20.21875 53.03125 31 53.03125 
Q 35.6875 53.03125 39.625 51.34375 
Q 43.5625 49.65625 45.515625 46.921875 
Q 47.46875 44.1875 48.25 40.4375 
Q 48.734375 37.984375 48.734375 31.890625 
L 48.734375 0 
L 39.9375 0 
L 39.9375 31.546875 
Q 39.9375 36.921875 38.90625 39.578125 
Q 37.890625 42.234375 35.28125 43.8125 
Q 32.671875 45.40625 29.15625 45.40625 
Q 23.53125 45.40625 19.453125 41.84375 
Q 15.375 38.28125 15.375 28.328125 
L 15.375 0 
z
" id="ArialMT-6e"/>
     <path d="M 25.046875 11.578125 
L 25.046875 31.203125 
L 5.5625 31.203125 
L 5.5625 39.40625 
L 25.046875 39.40625 
L 25.046875 58.890625 
L 33.34375 58.890625 
L 33.34375 39.40625 
L 52.828125 39.40625 
L 52.828125 31.203125 
L 33.34375 31.203125 
L 33.34375 11.578125 
z
" id="ArialMT-2b"/>
     <path d="M 4.203125 18.890625 
L 12.984375 20.0625 
Q 14.5 12.59375 18.140625 9.296875 
Q 21.78125 6 27 6 
Q 33.203125 6 37.46875 10.296875 
Q 41.75 14.59375 41.75 20.953125 
Q 41.75 27 37.796875 30.921875 
Q 33.84375 34.859375 27.734375 34.859375 
Q 25.25 34.859375 21.53125 33.890625 
L 22.515625 41.609375 
Q 23.390625 41.5 23.921875 41.5 
Q 29.546875 41.5 34.03125 44.421875 
Q 38.53125 47.359375 38.53125 53.46875 
Q 38.53125 58.296875 35.25 61.46875 
Q 31.984375 64.65625 26.8125 64.65625 
Q 21.6875 64.65625 18.265625 61.421875 
Q 14.84375 58.203125 13.875 51.765625 
L 5.078125 53.328125 
Q 6.6875 62.15625 12.390625 67.015625 
Q 18.109375 71.875 26.609375 71.875 
Q 32.46875 71.875 37.390625 69.359375 
Q 42.328125 66.84375 44.9375 62.5 
Q 47.5625 58.15625 47.5625 53.265625 
Q 47.5625 48.640625 45.0625 44.828125 
Q 42.578125 41.015625 37.703125 38.765625 
Q 44.046875 37.3125 47.5625 32.6875 
Q 51.078125 28.078125 51.078125 21.140625 
Q 51.078125 11.765625 44.234375 5.25 
Q 37.40625 -1.265625 26.953125 -1.265625 
Q 17.53125 -1.265625 11.296875 4.34375 
Q 5.078125 9.96875 4.203125 18.890625 
" id="ArialMT-33"/>
     <path d="M 4.15625 18.75 
L 13.375 19.53125 
Q 14.40625 12.796875 18.140625 9.390625 
Q 21.875 6 27.15625 6 
Q 33.5 6 37.890625 10.78125 
Q 42.28125 15.578125 42.28125 23.484375 
Q 42.28125 31 38.0625 35.34375 
Q 33.84375 39.703125 27 39.703125 
Q 22.75 39.703125 19.328125 37.765625 
Q 15.921875 35.84375 13.96875 32.765625 
L 5.71875 33.84375 
L 12.640625 70.609375 
L 48.25 70.609375 
L 48.25 62.203125 
L 19.671875 62.203125 
L 15.828125 42.96875 
Q 22.265625 47.46875 29.34375 47.46875 
Q 38.71875 47.46875 45.15625 40.96875 
Q 51.609375 34.46875 51.609375 24.265625 
Q 51.609375 14.546875 45.953125 7.46875 
Q 39.0625 -1.21875 27.15625 -1.21875 
Q 17.390625 -1.21875 11.203125 4.25 
Q 5.03125 9.71875 4.15625 18.75 
" id="ArialMT-35"/>
    </defs>
    <g style="fill:#262626;" transform="translate(35.0919761029 38.02)scale(0.18 -0.18)">
     <use xlink:href="#ArialMT-41"/>
     <use x="66.68359375" xlink:href="#ArialMT-76"/>
     <use x="116.68359375" xlink:href="#ArialMT-65"/>
     <use x="172.298828125" xlink:href="#ArialMT-72"/>
     <use x="205.599609375" xlink:href="#ArialMT-61"/>
     <use x="261.21484375" xlink:href="#ArialMT-67"/>
     <use x="316.830078125" xlink:href="#ArialMT-65"/>
     <use x="372.4453125" xlink:href="#ArialMT-20"/>
     <use x="400.150390625" xlink:href="#ArialMT-41"/>
     <use x="466.849609375" xlink:href="#ArialMT-55"/>
     <use x="539.06640625" xlink:href="#ArialMT-43"/>
     <use x="611.283203125" xlink:href="#ArialMT-20"/>
     <use x="639.06640625" xlink:href="#ArialMT-61"/>
     <use x="694.681640625" xlink:href="#ArialMT-63"/>
     <use x="744.681640625" xlink:href="#ArialMT-72"/>
     <use x="777.982421875" xlink:href="#ArialMT-6f"/>
     <use x="833.59765625" xlink:href="#ArialMT-73"/>
     <use x="883.59765625" xlink:href="#ArialMT-73"/>
     <use x="933.59765625" xlink:href="#ArialMT-20"/>
     <use x="961.380859375" xlink:href="#ArialMT-63"/>
     <use x="1011.38085938" xlink:href="#ArialMT-76"/>
     <use x="1061.38085938" xlink:href="#ArialMT-20"/>
     <use x="1089.1640625" xlink:href="#ArialMT-43"/>
     <use x="1161.38085938" xlink:href="#ArialMT-6f"/>
     <use x="1216.99609375" xlink:href="#ArialMT-6e"/>
     <use x="1272.61132812" xlink:href="#ArialMT-76"/>
     <use x="1322.61132812" xlink:href="#ArialMT-65"/>
     <use x="1378.2265625" xlink:href="#ArialMT-6e"/>
     <use x="1433.84179688" xlink:href="#ArialMT-74"/>
     <use x="1461.625" xlink:href="#ArialMT-69"/>
     <use x="1483.84179688" xlink:href="#ArialMT-6f"/>
     <use x="1539.45703125" xlink:href="#ArialMT-6e"/>
     <use x="1595.07226562" xlink:href="#ArialMT-61"/>
     <use x="1650.6875" xlink:href="#ArialMT-6c"/>
     <use x="1672.90429688" xlink:href="#ArialMT-20"/>
     <use x="1700.6875" xlink:href="#ArialMT-43"/>
     <use x="1772.90429688" xlink:href="#ArialMT-41"/>
     <use x="1839.60351562" xlink:href="#ArialMT-44"/>
     <use x="1911.8203125" xlink:href="#ArialMT-20"/>
     <use x="1939.60351562" xlink:href="#ArialMT-2b"/>
     <use x="1998.00195312" xlink:href="#ArialMT-47"/>
     <use x="2075.78515625" xlink:href="#ArialMT-52"/>
     <use x="2148.00195312" xlink:href="#ArialMT-41"/>
     <use x="2214.70117188" xlink:href="#ArialMT-50"/>
     <use x="2281.40039062" xlink:href="#ArialMT-48"/>
     <use x="2353.6171875" xlink:href="#ArialMT-20"/>
     <use x="2381.40039062" xlink:href="#ArialMT-66"/>
     <use x="2409.18359375" xlink:href="#ArialMT-65"/>
     <use x="2464.79882812" xlink:href="#ArialMT-61"/>
     <use x="2520.4140625" xlink:href="#ArialMT-74"/>
     <use x="2548.19726562" xlink:href="#ArialMT-75"/>
     <use x="2603.8125" xlink:href="#ArialMT-72"/>
     <use x="2637.11328125" xlink:href="#ArialMT-65"/>
     <use x="2692.72851562" xlink:href="#ArialMT-73"/>
     <use x="2742.72851562" xlink:href="#ArialMT-20"/>
     <use x="2770.51171875" xlink:href="#ArialMT-6e"/>
     <use x="2826.12695312" xlink:href="#ArialMT-3d"/>
     <use x="2884.52539062" xlink:href="#ArialMT-35"/>
     <use x="2940.140625" xlink:href="#ArialMT-32"/>
     <use x="2995.75585938" xlink:href="#ArialMT-33"/>
    </g>
   </g>
   <g id="legend_1">
    <g id="line2d_27">
     <path d="M 190.531765 341.0275 
L 222.531765 341.0275 
" style="fill:none;stroke:#92c6ff;stroke-linecap:round;stroke-width:3.0;"/>
    </g>
    <g id="line2d_28"/>
    <g id="text_16">
     <!-- cv Train (AUC = 0.99 $\pm$ 0.00) -->
     <defs>
      <path d="M 5.46875 16.546875 
L 13.921875 17.328125 
Q 14.984375 11.375 18.015625 8.6875 
Q 21.046875 6 25.78125 6 
Q 29.828125 6 32.875 7.859375 
Q 35.9375 9.71875 37.890625 12.8125 
Q 39.84375 15.921875 41.15625 21.1875 
Q 42.484375 26.46875 42.484375 31.9375 
Q 42.484375 32.515625 42.4375 33.6875 
Q 39.796875 29.5 35.234375 26.875 
Q 30.671875 24.265625 25.34375 24.265625 
Q 16.453125 24.265625 10.296875 30.703125 
Q 4.15625 37.15625 4.15625 47.703125 
Q 4.15625 58.59375 10.578125 65.234375 
Q 17 71.875 26.65625 71.875 
Q 33.640625 71.875 39.421875 68.109375 
Q 45.21875 64.359375 48.21875 57.390625 
Q 51.21875 50.4375 51.21875 37.25 
Q 51.21875 23.53125 48.234375 15.40625 
Q 45.265625 7.28125 39.375 3.03125 
Q 33.5 -1.21875 25.59375 -1.21875 
Q 17.1875 -1.21875 11.859375 3.4375 
Q 6.546875 8.109375 5.46875 16.546875 
M 41.453125 48.140625 
Q 41.453125 55.71875 37.421875 60.15625 
Q 33.40625 64.59375 27.734375 64.59375 
Q 21.875 64.59375 17.53125 59.8125 
Q 13.1875 55.03125 13.1875 47.40625 
Q 13.1875 40.578125 17.3125 36.296875 
Q 21.4375 32.03125 27.484375 32.03125 
Q 33.59375 32.03125 37.515625 36.296875 
Q 41.453125 40.578125 41.453125 48.140625 
" id="ArialMT-39"/>
      <path d="M 7.515625 0 
Q 6.6875 0 6.140625 0.578125 
Q 5.609375 1.171875 5.609375 2 
Q 5.609375 2.734375 6.140625 3.359375 
Q 6.6875 4 7.515625 4 
L 36.921875 4 
L 36.921875 31.296875 
L 7.515625 31.296875 
Q 6.6875 31.296875 6.140625 31.921875 
Q 5.609375 32.5625 5.609375 33.296875 
Q 5.609375 34.03125 6.140625 34.65625 
Q 6.6875 35.296875 7.515625 35.296875 
L 36.921875 35.296875 
L 36.921875 64.796875 
Q 36.921875 65.578125 37.5 66.09375 
Q 38.09375 66.609375 38.921875 66.609375 
Q 39.59375 66.609375 40.25 66.09375 
Q 40.921875 65.578125 40.921875 64.796875 
L 40.921875 35.296875 
L 70.3125 35.296875 
Q 71.046875 35.296875 71.578125 34.65625 
Q 72.125 34.03125 72.125 33.296875 
Q 72.125 32.5625 71.578125 31.921875 
Q 71.046875 31.296875 70.3125 31.296875 
L 40.921875 31.296875 
L 40.921875 4 
L 70.3125 4 
Q 71.046875 4 71.578125 3.359375 
Q 72.125 2.734375 72.125 2 
Q 72.125 1.171875 71.578125 0.578125 
Q 71.046875 0 70.3125 0 
z
" id="Cmsy10-a7"/>
      <path d="M 12.359375 -21.046875 
L 6.0625 -21.046875 
Q 20.65625 2.390625 20.65625 25.875 
Q 20.65625 35.0625 18.5625 44.09375 
Q 16.890625 51.421875 13.921875 58.15625 
Q 12.015625 62.546875 6.0625 72.796875 
L 12.359375 72.796875 
Q 21.53125 60.546875 25.921875 48.1875 
Q 29.6875 37.546875 29.6875 25.921875 
Q 29.6875 12.75 24.625 0.4375 
Q 19.578125 -11.859375 12.359375 -21.046875 
" id="ArialMT-29"/>
      <path d="M 23.390625 -21.046875 
Q 16.109375 -11.859375 11.078125 0.4375 
Q 6.0625 12.75 6.0625 25.921875 
Q 6.0625 37.546875 9.8125 48.1875 
Q 14.203125 60.546875 23.390625 72.796875 
L 29.6875 72.796875 
Q 23.78125 62.640625 21.875 58.296875 
Q 18.890625 51.5625 17.1875 44.234375 
Q 15.09375 35.109375 15.09375 25.875 
Q 15.09375 2.390625 29.6875 -21.046875 
z
" id="ArialMT-28"/>
     </defs>
     <g style="fill:#262626;" transform="translate(235.331764706 346.6275)scale(0.16 -0.16)">
      <use transform="translate(0.0 0.203125)" xlink:href="#ArialMT-63"/>
      <use transform="translate(50.0 0.203125)" xlink:href="#ArialMT-76"/>
      <use transform="translate(100.0 0.203125)" xlink:href="#ArialMT-20"/>
      <use transform="translate(127.783203125 0.203125)" xlink:href="#ArialMT-54"/>
      <use transform="translate(188.8671875 0.203125)" xlink:href="#ArialMT-72"/>
      <use transform="translate(222.16796875 0.203125)" xlink:href="#ArialMT-61"/>
      <use transform="translate(277.783203125 0.203125)" xlink:href="#ArialMT-69"/>
      <use transform="translate(300.0 0.203125)" xlink:href="#ArialMT-6e"/>
      <use transform="translate(355.615234375 0.203125)" xlink:href="#ArialMT-20"/>
      <use transform="translate(383.3984375 0.203125)" xlink:href="#ArialMT-28"/>
      <use transform="translate(416.69921875 0.203125)" xlink:href="#ArialMT-41"/>
      <use transform="translate(483.3984375 0.203125)" xlink:href="#ArialMT-55"/>
      <use transform="translate(555.615234375 0.203125)" xlink:href="#ArialMT-43"/>
      <use transform="translate(627.83203125 0.203125)" xlink:href="#ArialMT-20"/>
      <use transform="translate(655.615234375 0.203125)" xlink:href="#ArialMT-3d"/>
      <use transform="translate(714.013671875 0.203125)" xlink:href="#ArialMT-20"/>
      <use transform="translate(741.796875 0.203125)" xlink:href="#ArialMT-30"/>
      <use transform="translate(797.412109375 0.203125)" xlink:href="#ArialMT-2e"/>
      <use transform="translate(825.1953125 0.203125)" xlink:href="#ArialMT-39"/>
      <use transform="translate(880.810546875 0.203125)" xlink:href="#ArialMT-39"/>
      <use transform="translate(936.42578125 0.203125)" xlink:href="#ArialMT-20"/>
      <use transform="translate(964.208984375 0.203125)" xlink:href="#Cmsy10-a7"/>
      <use transform="translate(1041.89453125 0.203125)" xlink:href="#ArialMT-20"/>
      <use transform="translate(1069.67773438 0.203125)" xlink:href="#ArialMT-30"/>
      <use transform="translate(1125.29296875 0.203125)" xlink:href="#ArialMT-2e"/>
      <use transform="translate(1153.07617188 0.203125)" xlink:href="#ArialMT-30"/>
      <use transform="translate(1208.69140625 0.203125)" xlink:href="#ArialMT-30"/>
      <use transform="translate(1264.30664062 0.203125)" xlink:href="#ArialMT-29"/>
     </g>
    </g>
    <g id="patch_7">
     <path d="M 190.531765 369.6 
L 222.531765 369.6 
L 222.531765 358.4 
L 190.531765 358.4 
z
" style="fill:#808080;opacity:0.15;stroke:#808080;stroke-linejoin:miter;stroke-width:0.3;"/>
    </g>
    <g id="text_17">
     <!-- $\pm$ 1 std. dev. -->
     <defs>
      <path d="M 40.234375 0 
L 40.234375 6.546875 
Q 35.296875 -1.171875 25.734375 -1.171875 
Q 19.53125 -1.171875 14.328125 2.25 
Q 9.125 5.671875 6.265625 11.796875 
Q 3.421875 17.921875 3.421875 25.875 
Q 3.421875 33.640625 6 39.96875 
Q 8.59375 46.296875 13.765625 49.65625 
Q 18.953125 53.03125 25.34375 53.03125 
Q 30.03125 53.03125 33.6875 51.046875 
Q 37.359375 49.078125 39.65625 45.90625 
L 39.65625 71.578125 
L 48.390625 71.578125 
L 48.390625 0 
z
M 12.453125 25.875 
Q 12.453125 15.921875 16.640625 10.984375 
Q 20.84375 6.0625 26.5625 6.0625 
Q 32.328125 6.0625 36.34375 10.765625 
Q 40.375 15.484375 40.375 25.140625 
Q 40.375 35.796875 36.265625 40.765625 
Q 32.171875 45.75 26.171875 45.75 
Q 20.3125 45.75 16.375 40.96875 
Q 12.453125 36.1875 12.453125 25.875 
" id="ArialMT-64"/>
     </defs>
     <g style="fill:#262626;" transform="translate(235.331764706 369.6)scale(0.16 -0.16)">
      <use transform="translate(0.0 0.125)" xlink:href="#Cmsy10-a7"/>
      <use transform="translate(77.685546875 0.125)" xlink:href="#ArialMT-20"/>
      <use transform="translate(105.46875 0.125)" xlink:href="#ArialMT-31"/>
      <use transform="translate(161.083984375 0.125)" xlink:href="#ArialMT-20"/>
      <use transform="translate(188.8671875 0.125)" xlink:href="#ArialMT-73"/>
      <use transform="translate(238.8671875 0.125)" xlink:href="#ArialMT-74"/>
      <use transform="translate(266.650390625 0.125)" xlink:href="#ArialMT-64"/>
      <use transform="translate(322.265625 0.125)" xlink:href="#ArialMT-2e"/>
      <use transform="translate(350.048828125 0.125)" xlink:href="#ArialMT-20"/>
      <use transform="translate(377.83203125 0.125)" xlink:href="#ArialMT-64"/>
      <use transform="translate(433.447265625 0.125)" xlink:href="#ArialMT-65"/>
      <use transform="translate(489.0625 0.125)" xlink:href="#ArialMT-76"/>
      <use transform="translate(539.0625 0.125)" xlink:href="#ArialMT-2e"/>
     </g>
    </g>
   </g>
  </g>
  <g id="axes_2">
   <g id="patch_8">
    <path d="M 516.494118 387.18 
L 811.905882 387.18 
L 811.905882 43.02 
L 516.494118 43.02 
z
" style="fill:#ffffff;"/>
   </g>
   <g id="matplotlib.axis_3">
    <g id="xtick_7">
     <g id="line2d_29">
      <g>
       <use style="fill:#262626;stroke:#262626;" x="516.494117647" xlink:href="#m0e00ccdc9d" y="387.18"/>
      </g>
     </g>
     <g id="line2d_30">
      <g>
       <use style="fill:#262626;stroke:#262626;" x="516.494117647" xlink:href="#m0e00ccdc9d" y="43.02"/>
      </g>
     </g>
     <g id="text_18">
      <!-- 0.0 -->
      <g style="fill:#262626;" transform="translate(509.544117647 401.3378125)scale(0.1 -0.1)">
       <use xlink:href="#ArialMT-30"/>
       <use x="55.615234375" xlink:href="#ArialMT-2e"/>
       <use x="83.3984375" xlink:href="#ArialMT-30"/>
      </g>
     </g>
    </g>
    <g id="xtick_8">
     <g id="line2d_31">
      <g>
       <use style="fill:#262626;stroke:#262626;" x="575.576470588" xlink:href="#m0e00ccdc9d" y="387.18"/>
      </g>
     </g>
     <g id="line2d_32">
      <g>
       <use style="fill:#262626;stroke:#262626;" x="575.576470588" xlink:href="#m0e00ccdc9d" y="43.02"/>
      </g>
     </g>
     <g id="text_19">
      <!-- 0.2 -->
      <g style="fill:#262626;" transform="translate(568.626470588 401.3378125)scale(0.1 -0.1)">
       <use xlink:href="#ArialMT-30"/>
       <use x="55.615234375" xlink:href="#ArialMT-2e"/>
       <use x="83.3984375" xlink:href="#ArialMT-32"/>
      </g>
     </g>
    </g>
    <g id="xtick_9">
     <g id="line2d_33">
      <g>
       <use style="fill:#262626;stroke:#262626;" x="634.658823529" xlink:href="#m0e00ccdc9d" y="387.18"/>
      </g>
     </g>
     <g id="line2d_34">
      <g>
       <use style="fill:#262626;stroke:#262626;" x="634.658823529" xlink:href="#m0e00ccdc9d" y="43.02"/>
      </g>
     </g>
     <g id="text_20">
      <!-- 0.4 -->
      <g style="fill:#262626;" transform="translate(627.708823529 401.3378125)scale(0.1 -0.1)">
       <use xlink:href="#ArialMT-30"/>
       <use x="55.615234375" xlink:href="#ArialMT-2e"/>
       <use x="83.3984375" xlink:href="#ArialMT-34"/>
      </g>
     </g>
    </g>
    <g id="xtick_10">
     <g id="line2d_35">
      <g>
       <use style="fill:#262626;stroke:#262626;" x="693.741176471" xlink:href="#m0e00ccdc9d" y="387.18"/>
      </g>
     </g>
     <g id="line2d_36">
      <g>
       <use style="fill:#262626;stroke:#262626;" x="693.741176471" xlink:href="#m0e00ccdc9d" y="43.02"/>
      </g>
     </g>
     <g id="text_21">
      <!-- 0.6 -->
      <g style="fill:#262626;" transform="translate(686.791176471 401.3378125)scale(0.1 -0.1)">
       <use xlink:href="#ArialMT-30"/>
       <use x="55.615234375" xlink:href="#ArialMT-2e"/>
       <use x="83.3984375" xlink:href="#ArialMT-36"/>
      </g>
     </g>
    </g>
    <g id="xtick_11">
     <g id="line2d_37">
      <g>
       <use style="fill:#262626;stroke:#262626;" x="752.823529412" xlink:href="#m0e00ccdc9d" y="387.18"/>
      </g>
     </g>
     <g id="line2d_38">
      <g>
       <use style="fill:#262626;stroke:#262626;" x="752.823529412" xlink:href="#m0e00ccdc9d" y="43.02"/>
      </g>
     </g>
     <g id="text_22">
      <!-- 0.8 -->
      <g style="fill:#262626;" transform="translate(745.873529412 401.3378125)scale(0.1 -0.1)">
       <use xlink:href="#ArialMT-30"/>
       <use x="55.615234375" xlink:href="#ArialMT-2e"/>
       <use x="83.3984375" xlink:href="#ArialMT-38"/>
      </g>
     </g>
    </g>
    <g id="xtick_12">
     <g id="line2d_39">
      <g>
       <use style="fill:#262626;stroke:#262626;" x="811.905882353" xlink:href="#m0e00ccdc9d" y="387.18"/>
      </g>
     </g>
     <g id="line2d_40">
      <g>
       <use style="fill:#262626;stroke:#262626;" x="811.905882353" xlink:href="#m0e00ccdc9d" y="43.02"/>
      </g>
     </g>
     <g id="text_23">
      <!-- 1.0 -->
      <g style="fill:#262626;" transform="translate(804.955882353 401.3378125)scale(0.1 -0.1)">
       <use xlink:href="#ArialMT-31"/>
       <use x="55.615234375" xlink:href="#ArialMT-2e"/>
       <use x="83.3984375" xlink:href="#ArialMT-30"/>
      </g>
     </g>
    </g>
    <g id="text_24">
     <!-- False Positive Rate -->
     <g style="fill:#262626;" transform="translate(595.285 419.7778125)scale(0.16 -0.16)">
      <use xlink:href="#ArialMT-46"/>
      <use x="61.083984375" xlink:href="#ArialMT-61"/>
      <use x="116.69921875" xlink:href="#ArialMT-6c"/>
      <use x="138.916015625" xlink:href="#ArialMT-73"/>
      <use x="188.916015625" xlink:href="#ArialMT-65"/>
      <use x="244.53125" xlink:href="#ArialMT-20"/>
      <use x="272.314453125" xlink:href="#ArialMT-50"/>
      <use x="339.013671875" xlink:href="#ArialMT-6f"/>
      <use x="394.62890625" xlink:href="#ArialMT-73"/>
      <use x="444.62890625" xlink:href="#ArialMT-69"/>
      <use x="466.845703125" xlink:href="#ArialMT-74"/>
      <use x="494.62890625" xlink:href="#ArialMT-69"/>
      <use x="516.845703125" xlink:href="#ArialMT-76"/>
      <use x="566.845703125" xlink:href="#ArialMT-65"/>
      <use x="622.4609375" xlink:href="#ArialMT-20"/>
      <use x="650.244140625" xlink:href="#ArialMT-52"/>
      <use x="722.4609375" xlink:href="#ArialMT-61"/>
      <use x="778.076171875" xlink:href="#ArialMT-74"/>
      <use x="805.859375" xlink:href="#ArialMT-65"/>
     </g>
    </g>
   </g>
   <g id="matplotlib.axis_4">
    <g id="ytick_7">
     <g id="line2d_41">
      <g>
       <use style="fill:#262626;stroke:#262626;" x="516.494117647" xlink:href="#m0e00ccdc9d" y="387.18"/>
      </g>
     </g>
     <g id="line2d_42">
      <g>
       <use style="fill:#262626;stroke:#262626;" x="811.905882353" xlink:href="#m0e00ccdc9d" y="387.18"/>
      </g>
     </g>
     <g id="text_25">
      <!-- 0.0 -->
      <g style="fill:#262626;" transform="translate(495.594117647 389.76515625)scale(0.1 -0.1)">
       <use xlink:href="#ArialMT-30"/>
       <use x="55.615234375" xlink:href="#ArialMT-2e"/>
       <use x="83.3984375" xlink:href="#ArialMT-30"/>
      </g>
     </g>
    </g>
    <g id="ytick_8">
     <g id="line2d_43">
      <g>
       <use style="fill:#262626;stroke:#262626;" x="516.494117647" xlink:href="#m0e00ccdc9d" y="318.348"/>
      </g>
     </g>
     <g id="line2d_44">
      <g>
       <use style="fill:#262626;stroke:#262626;" x="811.905882353" xlink:href="#m0e00ccdc9d" y="318.348"/>
      </g>
     </g>
     <g id="text_26">
      <!-- 0.2 -->
      <g style="fill:#262626;" transform="translate(495.594117647 320.93315625)scale(0.1 -0.1)">
       <use xlink:href="#ArialMT-30"/>
       <use x="55.615234375" xlink:href="#ArialMT-2e"/>
       <use x="83.3984375" xlink:href="#ArialMT-32"/>
      </g>
     </g>
    </g>
    <g id="ytick_9">
     <g id="line2d_45">
      <g>
       <use style="fill:#262626;stroke:#262626;" x="516.494117647" xlink:href="#m0e00ccdc9d" y="249.516"/>
      </g>
     </g>
     <g id="line2d_46">
      <g>
       <use style="fill:#262626;stroke:#262626;" x="811.905882353" xlink:href="#m0e00ccdc9d" y="249.516"/>
      </g>
     </g>
     <g id="text_27">
      <!-- 0.4 -->
      <g style="fill:#262626;" transform="translate(495.594117647 252.10115625)scale(0.1 -0.1)">
       <use xlink:href="#ArialMT-30"/>
       <use x="55.615234375" xlink:href="#ArialMT-2e"/>
       <use x="83.3984375" xlink:href="#ArialMT-34"/>
      </g>
     </g>
    </g>
    <g id="ytick_10">
     <g id="line2d_47">
      <g>
       <use style="fill:#262626;stroke:#262626;" x="516.494117647" xlink:href="#m0e00ccdc9d" y="180.684"/>
      </g>
     </g>
     <g id="line2d_48">
      <g>
       <use style="fill:#262626;stroke:#262626;" x="811.905882353" xlink:href="#m0e00ccdc9d" y="180.684"/>
      </g>
     </g>
     <g id="text_28">
      <!-- 0.6 -->
      <g style="fill:#262626;" transform="translate(495.594117647 183.26915625)scale(0.1 -0.1)">
       <use xlink:href="#ArialMT-30"/>
       <use x="55.615234375" xlink:href="#ArialMT-2e"/>
       <use x="83.3984375" xlink:href="#ArialMT-36"/>
      </g>
     </g>
    </g>
    <g id="ytick_11">
     <g id="line2d_49">
      <g>
       <use style="fill:#262626;stroke:#262626;" x="516.494117647" xlink:href="#m0e00ccdc9d" y="111.852"/>
      </g>
     </g>
     <g id="line2d_50">
      <g>
       <use style="fill:#262626;stroke:#262626;" x="811.905882353" xlink:href="#m0e00ccdc9d" y="111.852"/>
      </g>
     </g>
     <g id="text_29">
      <!-- 0.8 -->
      <g style="fill:#262626;" transform="translate(495.594117647 114.43715625)scale(0.1 -0.1)">
       <use xlink:href="#ArialMT-30"/>
       <use x="55.615234375" xlink:href="#ArialMT-2e"/>
       <use x="83.3984375" xlink:href="#ArialMT-38"/>
      </g>
     </g>
    </g>
    <g id="ytick_12">
     <g id="line2d_51">
      <g>
       <use style="fill:#262626;stroke:#262626;" x="516.494117647" xlink:href="#m0e00ccdc9d" y="43.02"/>
      </g>
     </g>
     <g id="line2d_52">
      <g>
       <use style="fill:#262626;stroke:#262626;" x="811.905882353" xlink:href="#m0e00ccdc9d" y="43.02"/>
      </g>
     </g>
     <g id="text_30">
      <!-- 1.0 -->
      <g style="fill:#262626;" transform="translate(495.594117647 45.60515625)scale(0.1 -0.1)">
       <use xlink:href="#ArialMT-31"/>
       <use x="55.615234375" xlink:href="#ArialMT-2e"/>
       <use x="83.3984375" xlink:href="#ArialMT-30"/>
      </g>
     </g>
    </g>
    <g id="text_31">
     <!-- True Positive Rate -->
     <g style="fill:#262626;" transform="translate(487.414117647 280.8975)rotate(-90.0)scale(0.16 -0.16)">
      <use xlink:href="#ArialMT-54"/>
      <use x="61.037109375" xlink:href="#ArialMT-72"/>
      <use x="94.337890625" xlink:href="#ArialMT-75"/>
      <use x="149.953125" xlink:href="#ArialMT-65"/>
      <use x="205.568359375" xlink:href="#ArialMT-20"/>
      <use x="233.3515625" xlink:href="#ArialMT-50"/>
      <use x="300.05078125" xlink:href="#ArialMT-6f"/>
      <use x="355.666015625" xlink:href="#ArialMT-73"/>
      <use x="405.666015625" xlink:href="#ArialMT-69"/>
      <use x="427.8828125" xlink:href="#ArialMT-74"/>
      <use x="455.666015625" xlink:href="#ArialMT-69"/>
      <use x="477.8828125" xlink:href="#ArialMT-76"/>
      <use x="527.8828125" xlink:href="#ArialMT-65"/>
      <use x="583.498046875" xlink:href="#ArialMT-20"/>
      <use x="611.28125" xlink:href="#ArialMT-52"/>
      <use x="683.498046875" xlink:href="#ArialMT-61"/>
      <use x="739.11328125" xlink:href="#ArialMT-74"/>
      <use x="766.896484375" xlink:href="#ArialMT-65"/>
     </g>
    </g>
   </g>
   <g id="PolyCollection_2">
    <defs>
     <path d="M 516.494118 -43.02 
L 516.494118 -43.02 
L 519.478075 -51.608575 
L 522.462032 -51.608575 
L 525.445989 -80.456761 
L 528.429947 -80.456761 
L 531.413904 -89.943557 
L 534.397861 -89.943557 
L 537.381818 -111.100416 
L 540.365775 -111.100416 
L 543.349733 -111.100416 
L 546.33369 -124.033915 
L 549.317647 -124.033915 
L 552.301604 -150.282835 
L 555.285561 -150.282835 
L 558.269519 -150.282835 
L 561.253476 -150.282835 
L 564.237433 -150.282835 
L 567.22139 -153.265999 
L 570.205348 -155.198706 
L 573.189305 -163.404054 
L 576.173262 -163.404054 
L 579.157219 -177.176625 
L 582.141176 -177.176625 
L 585.125134 -180.679019 
L 588.109091 -180.904335 
L 591.093048 -180.904335 
L 594.077005 -180.904335 
L 597.060963 -185.002445 
L 600.04492 -185.002445 
L 603.028877 -185.002445 
L 606.012834 -187.649756 
L 608.996791 -187.649756 
L 611.980749 -187.649756 
L 614.964706 -187.649756 
L 617.948663 -187.649756 
L 620.93262 -216.511308 
L 623.916578 -218.049407 
L 626.900535 -224.141816 
L 629.884492 -224.141816 
L 632.868449 -227.682543 
L 635.852406 -227.682543 
L 638.836364 -227.682543 
L 641.820321 -227.682543 
L 644.804278 -227.682543 
L 647.788235 -227.682543 
L 650.772193 -228.508122 
L 653.75615 -228.508122 
L 656.740107 -228.508122 
L 659.724064 -228.508122 
L 662.708021 -228.508122 
L 665.691979 -228.508122 
L 668.675936 -228.146034 
L 671.659893 -228.146034 
L 674.64385 -226.880548 
L 677.627807 -230.317751 
L 680.611765 -230.317751 
L 683.595722 -261.289699 
L 686.579679 -261.289699 
L 689.563636 -269.50938 
L 692.547594 -269.50938 
L 695.531551 -286.26063 
L 698.515508 -293.356635 
L 701.499465 -293.356635 
L 704.483422 -310.840309 
L 707.46738 -310.840309 
L 710.451337 -320.114726 
L 713.435294 -320.114726 
L 716.419251 -328.566393 
L 719.403209 -340.487995 
L 722.387166 -340.487995 
L 725.371123 -342.106976 
L 728.35508 -342.106976 
L 731.339037 -353.87539 
L 734.322995 -353.87539 
L 737.306952 -363.736295 
L 740.290909 -363.736295 
L 743.274866 -363.736295 
L 746.258824 -363.736295 
L 749.242781 -363.736295 
L 752.226738 -374.274 
L 755.210695 -374.274 
L 758.194652 -374.274 
L 761.17861 -374.274 
L 764.162567 -374.274 
L 767.146524 -374.274 
L 770.130481 -374.274 
L 773.114439 -387.18 
L 776.098396 -387.18 
L 779.082353 -387.18 
L 782.06631 -387.18 
L 785.050267 -387.18 
L 788.034225 -387.18 
L 791.018182 -387.18 
L 794.002139 -387.18 
L 796.986096 -387.18 
L 799.970053 -387.18 
L 802.954011 -387.18 
L 805.937968 -387.18 
L 808.921925 -387.18 
L 811.905882 -387.18 
L 811.905882 -387.18 
L 811.905882 -387.18 
L 808.921925 -387.18 
L 805.937968 -387.18 
L 802.954011 -387.18 
L 799.970053 -387.18 
L 796.986096 -387.18 
L 794.002139 -387.18 
L 791.018182 -387.18 
L 788.034225 -387.18 
L 785.050267 -387.18 
L 782.06631 -387.18 
L 779.082353 -387.18 
L 776.098396 -387.18 
L 773.114439 -387.18 
L 770.130481 -387.18 
L 767.146524 -387.18 
L 764.162567 -387.18 
L 761.17861 -387.18 
L 758.194652 -387.18 
L 755.210695 -387.18 
L 752.226738 -387.18 
L 749.242781 -384.811705 
L 746.258824 -384.811705 
L 743.274866 -384.811705 
L 740.290909 -384.811705 
L 737.306952 -384.811705 
L 734.322995 -386.06861 
L 731.339037 -386.06861 
L 728.35508 -387.18 
L 725.371123 -387.18 
L 722.387166 -382.754122 
L 719.403209 -382.754122 
L 716.419251 -378.47996 
L 713.435294 -361.119627 
L 710.451337 -361.119627 
L 707.46738 -361.790044 
L 704.483422 -361.790044 
L 701.499465 -362.065718 
L 698.515508 -362.065718 
L 695.531551 -343.85584 
L 692.547594 -343.39909 
L 689.563636 -343.39909 
L 686.579679 -343.014771 
L 683.595722 -343.014771 
L 680.611765 -348.174719 
L 677.627807 -348.174719 
L 674.64385 -343.51404 
L 671.659893 -333.644555 
L 668.675936 -333.644555 
L 665.691979 -324.678466 
L 662.708021 -324.678466 
L 659.724064 -324.678466 
L 656.740107 -324.678466 
L 653.75615 -324.678466 
L 650.772193 -324.678466 
L 647.788235 -316.900045 
L 644.804278 -316.900045 
L 641.820321 -316.900045 
L 638.836364 -316.900045 
L 635.852406 -316.900045 
L 632.868449 -316.900045 
L 629.884492 -312.34289 
L 626.900535 -312.34289 
L 623.916578 -309.831299 
L 620.93262 -302.765398 
L 617.948663 -305.81495 
L 614.964706 -305.81495 
L 611.980749 -305.81495 
L 608.996791 -305.81495 
L 606.012834 -305.81495 
L 603.028877 -274.552379 
L 600.04492 -274.552379 
L 597.060963 -274.552379 
L 594.077005 -253.344606 
L 591.093048 -253.344606 
L 588.109091 -253.344606 
L 585.125134 -244.965922 
L 582.141176 -240.370434 
L 579.157219 -240.370434 
L 576.173262 -229.34324 
L 573.189305 -229.34324 
L 570.205348 -220.340589 
L 567.22139 -196.461295 
L 564.237433 -182.236459 
L 561.253476 -182.236459 
L 558.269519 -182.236459 
L 555.285561 -182.236459 
L 552.301604 -182.236459 
L 549.317647 -165.971497 
L 546.33369 -165.971497 
L 543.349733 -161.696995 
L 540.365775 -161.696995 
L 537.381818 -161.696995 
L 534.397861 -157.041855 
L 531.413904 -157.041855 
L 528.429947 -140.716651 
L 525.445989 -140.716651 
L 522.462032 -93.141072 
L 519.478075 -93.141072 
L 516.494118 -43.02 
z
" id="mb860f16e2f" style="stroke:#808080;stroke-opacity:0.15;stroke-width:0.3;"/>
    </defs>
    <g clip-path="url(#pb04976e95c)">
     <use style="fill:#808080;fill-opacity:0.15;stroke:#808080;stroke-opacity:0.15;stroke-width:0.3;" x="0.0" xlink:href="#mb860f16e2f" y="430.2"/>
    </g>
   </g>
   <g id="line2d_53">
    <path clip-path="url(#pb04976e95c)" d="M 516.494118 387.18 
L 811.905882 43.02 
" style="fill:none;opacity:0.5;stroke:#000000;stroke-dasharray:6.000000,6.000000;stroke-dashoffset:0.0;"/>
   </g>
   <g id="line2d_54">
    <path clip-path="url(#pb04976e95c)" d="M 516.494118 387.18 
L 519.478075 357.825176 
L 522.462032 357.825176 
L 525.445989 319.613294 
L 528.429947 319.613294 
L 531.413904 306.707294 
L 534.397861 306.707294 
L 537.381818 293.801294 
L 540.365775 293.801294 
L 543.349733 293.801294 
L 546.33369 285.197294 
L 549.317647 285.197294 
L 552.301604 263.940353 
L 555.285561 263.940353 
L 558.269519 263.940353 
L 561.253476 263.940353 
L 564.237433 263.940353 
L 567.22139 255.336353 
L 570.205348 242.430353 
L 573.189305 233.826353 
L 576.173262 233.826353 
L 579.157219 221.426471 
L 582.141176 221.426471 
L 585.125134 217.377529 
L 588.109091 213.075529 
L 591.093048 213.075529 
L 594.077005 213.075529 
L 597.060963 200.422588 
L 600.04492 200.422588 
L 603.028877 200.422588 
L 606.012834 183.467647 
L 608.996791 183.467647 
L 611.980749 183.467647 
L 614.964706 183.467647 
L 617.948663 183.467647 
L 620.93262 170.561647 
L 623.916578 166.259647 
L 626.900535 161.957647 
L 629.884492 161.957647 
L 632.868449 157.908706 
L 635.852406 157.908706 
L 638.836364 157.908706 
L 641.820321 157.908706 
L 644.804278 157.908706 
L 647.788235 157.908706 
L 650.772193 153.606706 
L 653.75615 153.606706 
L 656.740107 153.606706 
L 659.724064 153.606706 
L 662.708021 153.606706 
L 665.691979 153.606706 
L 668.675936 149.304706 
L 671.659893 149.304706 
L 674.64385 145.002706 
L 677.627807 140.953765 
L 680.611765 140.953765 
L 683.595722 128.047765 
L 686.579679 128.047765 
L 689.563636 123.745765 
L 692.547594 123.745765 
L 695.531551 115.141765 
L 698.515508 102.488824 
L 701.499465 102.488824 
L 704.483422 93.884824 
L 707.46738 93.884824 
L 710.451337 89.582824 
L 713.435294 89.582824 
L 716.419251 76.676824 
L 719.403209 68.578941 
L 722.387166 68.578941 
L 725.371123 64.53 
L 728.35508 64.53 
L 731.339037 60.228 
L 734.322995 60.228 
L 737.306952 55.926 
L 740.290909 55.926 
L 743.274866 55.926 
L 746.258824 55.926 
L 749.242781 55.926 
L 752.226738 47.322 
L 755.210695 47.322 
L 758.194652 47.322 
L 761.17861 47.322 
L 764.162567 47.322 
L 767.146524 47.322 
L 770.130481 47.322 
L 773.114439 43.02 
L 776.098396 43.02 
L 779.082353 43.02 
L 782.06631 43.02 
L 785.050267 43.02 
L 788.034225 43.02 
L 791.018182 43.02 
L 794.002139 43.02 
L 796.986096 43.02 
L 799.970053 43.02 
L 802.954011 43.02 
L 805.937968 43.02 
L 808.921925 43.02 
L 811.905882 43.02 
" style="fill:none;stroke:#97f0aa;stroke-linecap:round;stroke-width:3.0;"/>
   </g>
   <g id="patch_9">
    <path d="M 516.494118 43.02 
L 811.905882 43.02 
" style="fill:none;stroke:#cccccc;stroke-linecap:square;stroke-linejoin:miter;"/>
   </g>
   <g id="patch_10">
    <path d="M 811.905882 387.18 
L 811.905882 43.02 
" style="fill:none;stroke:#cccccc;stroke-linecap:square;stroke-linejoin:miter;"/>
   </g>
   <g id="patch_11">
    <path d="M 516.494118 387.18 
L 811.905882 387.18 
" style="fill:none;stroke:#cccccc;stroke-linecap:square;stroke-linejoin:miter;"/>
   </g>
   <g id="patch_12">
    <path d="M 516.494118 387.18 
L 516.494118 43.02 
" style="fill:none;stroke:#cccccc;stroke-linecap:square;stroke-linejoin:miter;"/>
   </g>
   <g id="legend_2">
    <g id="line2d_55">
     <path d="M 558.305882 341.0275 
L 590.305882 341.0275 
" style="fill:none;stroke:#97f0aa;stroke-linecap:round;stroke-width:3.0;"/>
    </g>
    <g id="line2d_56"/>
    <g id="text_32">
     <!-- cv Val (AUC = 0.69 $\pm$ 0.06) -->
     <defs>
      <path d="M 28.171875 0 
L 0.4375 71.578125 
L 10.6875 71.578125 
L 29.296875 19.578125 
Q 31.546875 13.328125 33.0625 7.859375 
Q 34.71875 13.71875 36.921875 19.578125 
L 56.25 71.578125 
L 65.921875 71.578125 
L 37.890625 0 
z
" id="ArialMT-56"/>
     </defs>
     <g style="fill:#262626;" transform="translate(603.105882353 346.6275)scale(0.16 -0.16)">
      <use transform="translate(0.0 0.203125)" xlink:href="#ArialMT-63"/>
      <use transform="translate(50.0 0.203125)" xlink:href="#ArialMT-76"/>
      <use transform="translate(100.0 0.203125)" xlink:href="#ArialMT-20"/>
      <use transform="translate(127.783203125 0.203125)" xlink:href="#ArialMT-56"/>
      <use transform="translate(194.482421875 0.203125)" xlink:href="#ArialMT-61"/>
      <use transform="translate(250.09765625 0.203125)" xlink:href="#ArialMT-6c"/>
      <use transform="translate(272.314453125 0.203125)" xlink:href="#ArialMT-20"/>
      <use transform="translate(300.09765625 0.203125)" xlink:href="#ArialMT-28"/>
      <use transform="translate(333.3984375 0.203125)" xlink:href="#ArialMT-41"/>
      <use transform="translate(400.09765625 0.203125)" xlink:href="#ArialMT-55"/>
      <use transform="translate(472.314453125 0.203125)" xlink:href="#ArialMT-43"/>
      <use transform="translate(544.53125 0.203125)" xlink:href="#ArialMT-20"/>
      <use transform="translate(572.314453125 0.203125)" xlink:href="#ArialMT-3d"/>
      <use transform="translate(630.712890625 0.203125)" xlink:href="#ArialMT-20"/>
      <use transform="translate(658.49609375 0.203125)" xlink:href="#ArialMT-30"/>
      <use transform="translate(714.111328125 0.203125)" xlink:href="#ArialMT-2e"/>
      <use transform="translate(741.89453125 0.203125)" xlink:href="#ArialMT-36"/>
      <use transform="translate(797.509765625 0.203125)" xlink:href="#ArialMT-39"/>
      <use transform="translate(853.125 0.203125)" xlink:href="#ArialMT-20"/>
      <use transform="translate(880.908203125 0.203125)" xlink:href="#Cmsy10-a7"/>
      <use transform="translate(958.59375 0.203125)" xlink:href="#ArialMT-20"/>
      <use transform="translate(986.376953125 0.203125)" xlink:href="#ArialMT-30"/>
      <use transform="translate(1041.9921875 0.203125)" xlink:href="#ArialMT-2e"/>
      <use transform="translate(1069.77539062 0.203125)" xlink:href="#ArialMT-30"/>
      <use transform="translate(1125.390625 0.203125)" xlink:href="#ArialMT-36"/>
      <use transform="translate(1181.00585938 0.203125)" xlink:href="#ArialMT-29"/>
     </g>
    </g>
    <g id="patch_13">
     <path d="M 558.305882 369.6 
L 590.305882 369.6 
L 590.305882 358.4 
L 558.305882 358.4 
z
" style="fill:#808080;opacity:0.15;stroke:#808080;stroke-linejoin:miter;stroke-width:0.3;"/>
    </g>
    <g id="text_33">
     <!-- $\pm$ 1 std. dev. -->
     <g style="fill:#262626;" transform="translate(603.105882353 369.6)scale(0.16 -0.16)">
      <use transform="translate(0.0 0.125)" xlink:href="#Cmsy10-a7"/>
      <use transform="translate(77.685546875 0.125)" xlink:href="#ArialMT-20"/>
      <use transform="translate(105.46875 0.125)" xlink:href="#ArialMT-31"/>
      <use transform="translate(161.083984375 0.125)" xlink:href="#ArialMT-20"/>
      <use transform="translate(188.8671875 0.125)" xlink:href="#ArialMT-73"/>
      <use transform="translate(238.8671875 0.125)" xlink:href="#ArialMT-74"/>
      <use transform="translate(266.650390625 0.125)" xlink:href="#ArialMT-64"/>
      <use transform="translate(322.265625 0.125)" xlink:href="#ArialMT-2e"/>
      <use transform="translate(350.048828125 0.125)" xlink:href="#ArialMT-20"/>
      <use transform="translate(377.83203125 0.125)" xlink:href="#ArialMT-64"/>
      <use transform="translate(433.447265625 0.125)" xlink:href="#ArialMT-65"/>
      <use transform="translate(489.0625 0.125)" xlink:href="#ArialMT-76"/>
      <use transform="translate(539.0625 0.125)" xlink:href="#ArialMT-2e"/>
     </g>
    </g>
   </g>
  </g>
  <g id="axes_3">
   <g id="patch_14">
    <path d="M 870.988235 387.18 
L 1166.4 387.18 
L 1166.4 43.02 
L 870.988235 43.02 
z
" style="fill:#ffffff;"/>
   </g>
   <g id="matplotlib.axis_5">
    <g id="xtick_13">
     <g id="line2d_57">
      <g>
       <use style="fill:#262626;stroke:#262626;" x="870.988235294" xlink:href="#m0e00ccdc9d" y="387.18"/>
      </g>
     </g>
     <g id="line2d_58">
      <g>
       <use style="fill:#262626;stroke:#262626;" x="870.988235294" xlink:href="#m0e00ccdc9d" y="43.02"/>
      </g>
     </g>
     <g id="text_34">
      <!-- 0.0 -->
      <g style="fill:#262626;" transform="translate(864.038235294 401.3378125)scale(0.1 -0.1)">
       <use xlink:href="#ArialMT-30"/>
       <use x="55.615234375" xlink:href="#ArialMT-2e"/>
       <use x="83.3984375" xlink:href="#ArialMT-30"/>
      </g>
     </g>
    </g>
    <g id="xtick_14">
     <g id="line2d_59">
      <g>
       <use style="fill:#262626;stroke:#262626;" x="930.070588235" xlink:href="#m0e00ccdc9d" y="387.18"/>
      </g>
     </g>
     <g id="line2d_60">
      <g>
       <use style="fill:#262626;stroke:#262626;" x="930.070588235" xlink:href="#m0e00ccdc9d" y="43.02"/>
      </g>
     </g>
     <g id="text_35">
      <!-- 0.2 -->
      <g style="fill:#262626;" transform="translate(923.120588235 401.3378125)scale(0.1 -0.1)">
       <use xlink:href="#ArialMT-30"/>
       <use x="55.615234375" xlink:href="#ArialMT-2e"/>
       <use x="83.3984375" xlink:href="#ArialMT-32"/>
      </g>
     </g>
    </g>
    <g id="xtick_15">
     <g id="line2d_61">
      <g>
       <use style="fill:#262626;stroke:#262626;" x="989.152941176" xlink:href="#m0e00ccdc9d" y="387.18"/>
      </g>
     </g>
     <g id="line2d_62">
      <g>
       <use style="fill:#262626;stroke:#262626;" x="989.152941176" xlink:href="#m0e00ccdc9d" y="43.02"/>
      </g>
     </g>
     <g id="text_36">
      <!-- 0.4 -->
      <g style="fill:#262626;" transform="translate(982.202941176 401.3378125)scale(0.1 -0.1)">
       <use xlink:href="#ArialMT-30"/>
       <use x="55.615234375" xlink:href="#ArialMT-2e"/>
       <use x="83.3984375" xlink:href="#ArialMT-34"/>
      </g>
     </g>
    </g>
    <g id="xtick_16">
     <g id="line2d_63">
      <g>
       <use style="fill:#262626;stroke:#262626;" x="1048.23529412" xlink:href="#m0e00ccdc9d" y="387.18"/>
      </g>
     </g>
     <g id="line2d_64">
      <g>
       <use style="fill:#262626;stroke:#262626;" x="1048.23529412" xlink:href="#m0e00ccdc9d" y="43.02"/>
      </g>
     </g>
     <g id="text_37">
      <!-- 0.6 -->
      <g style="fill:#262626;" transform="translate(1041.28529412 401.3378125)scale(0.1 -0.1)">
       <use xlink:href="#ArialMT-30"/>
       <use x="55.615234375" xlink:href="#ArialMT-2e"/>
       <use x="83.3984375" xlink:href="#ArialMT-36"/>
      </g>
     </g>
    </g>
    <g id="xtick_17">
     <g id="line2d_65">
      <g>
       <use style="fill:#262626;stroke:#262626;" x="1107.31764706" xlink:href="#m0e00ccdc9d" y="387.18"/>
      </g>
     </g>
     <g id="line2d_66">
      <g>
       <use style="fill:#262626;stroke:#262626;" x="1107.31764706" xlink:href="#m0e00ccdc9d" y="43.02"/>
      </g>
     </g>
     <g id="text_38">
      <!-- 0.8 -->
      <g style="fill:#262626;" transform="translate(1100.36764706 401.3378125)scale(0.1 -0.1)">
       <use xlink:href="#ArialMT-30"/>
       <use x="55.615234375" xlink:href="#ArialMT-2e"/>
       <use x="83.3984375" xlink:href="#ArialMT-38"/>
      </g>
     </g>
    </g>
    <g id="xtick_18">
     <g id="line2d_67">
      <g>
       <use style="fill:#262626;stroke:#262626;" x="1166.4" xlink:href="#m0e00ccdc9d" y="387.18"/>
      </g>
     </g>
     <g id="line2d_68">
      <g>
       <use style="fill:#262626;stroke:#262626;" x="1166.4" xlink:href="#m0e00ccdc9d" y="43.02"/>
      </g>
     </g>
     <g id="text_39">
      <!-- 1.0 -->
      <g style="fill:#262626;" transform="translate(1159.45 401.3378125)scale(0.1 -0.1)">
       <use xlink:href="#ArialMT-31"/>
       <use x="55.615234375" xlink:href="#ArialMT-2e"/>
       <use x="83.3984375" xlink:href="#ArialMT-30"/>
      </g>
     </g>
    </g>
    <g id="text_40">
     <!-- False Positive Rate -->
     <g style="fill:#262626;" transform="translate(949.779117647 419.7778125)scale(0.16 -0.16)">
      <use xlink:href="#ArialMT-46"/>
      <use x="61.083984375" xlink:href="#ArialMT-61"/>
      <use x="116.69921875" xlink:href="#ArialMT-6c"/>
      <use x="138.916015625" xlink:href="#ArialMT-73"/>
      <use x="188.916015625" xlink:href="#ArialMT-65"/>
      <use x="244.53125" xlink:href="#ArialMT-20"/>
      <use x="272.314453125" xlink:href="#ArialMT-50"/>
      <use x="339.013671875" xlink:href="#ArialMT-6f"/>
      <use x="394.62890625" xlink:href="#ArialMT-73"/>
      <use x="444.62890625" xlink:href="#ArialMT-69"/>
      <use x="466.845703125" xlink:href="#ArialMT-74"/>
      <use x="494.62890625" xlink:href="#ArialMT-69"/>
      <use x="516.845703125" xlink:href="#ArialMT-76"/>
      <use x="566.845703125" xlink:href="#ArialMT-65"/>
      <use x="622.4609375" xlink:href="#ArialMT-20"/>
      <use x="650.244140625" xlink:href="#ArialMT-52"/>
      <use x="722.4609375" xlink:href="#ArialMT-61"/>
      <use x="778.076171875" xlink:href="#ArialMT-74"/>
      <use x="805.859375" xlink:href="#ArialMT-65"/>
     </g>
    </g>
   </g>
   <g id="matplotlib.axis_6">
    <g id="ytick_13">
     <g id="line2d_69">
      <g>
       <use style="fill:#262626;stroke:#262626;" x="870.988235294" xlink:href="#m0e00ccdc9d" y="387.18"/>
      </g>
     </g>
     <g id="line2d_70">
      <g>
       <use style="fill:#262626;stroke:#262626;" x="1166.4" xlink:href="#m0e00ccdc9d" y="387.18"/>
      </g>
     </g>
     <g id="text_41">
      <!-- 0.0 -->
      <g style="fill:#262626;" transform="translate(850.088235294 389.76515625)scale(0.1 -0.1)">
       <use xlink:href="#ArialMT-30"/>
       <use x="55.615234375" xlink:href="#ArialMT-2e"/>
       <use x="83.3984375" xlink:href="#ArialMT-30"/>
      </g>
     </g>
    </g>
    <g id="ytick_14">
     <g id="line2d_71">
      <g>
       <use style="fill:#262626;stroke:#262626;" x="870.988235294" xlink:href="#m0e00ccdc9d" y="318.348"/>
      </g>
     </g>
     <g id="line2d_72">
      <g>
       <use style="fill:#262626;stroke:#262626;" x="1166.4" xlink:href="#m0e00ccdc9d" y="318.348"/>
      </g>
     </g>
     <g id="text_42">
      <!-- 0.2 -->
      <g style="fill:#262626;" transform="translate(850.088235294 320.93315625)scale(0.1 -0.1)">
       <use xlink:href="#ArialMT-30"/>
       <use x="55.615234375" xlink:href="#ArialMT-2e"/>
       <use x="83.3984375" xlink:href="#ArialMT-32"/>
      </g>
     </g>
    </g>
    <g id="ytick_15">
     <g id="line2d_73">
      <g>
       <use style="fill:#262626;stroke:#262626;" x="870.988235294" xlink:href="#m0e00ccdc9d" y="249.516"/>
      </g>
     </g>
     <g id="line2d_74">
      <g>
       <use style="fill:#262626;stroke:#262626;" x="1166.4" xlink:href="#m0e00ccdc9d" y="249.516"/>
      </g>
     </g>
     <g id="text_43">
      <!-- 0.4 -->
      <g style="fill:#262626;" transform="translate(850.088235294 252.10115625)scale(0.1 -0.1)">
       <use xlink:href="#ArialMT-30"/>
       <use x="55.615234375" xlink:href="#ArialMT-2e"/>
       <use x="83.3984375" xlink:href="#ArialMT-34"/>
      </g>
     </g>
    </g>
    <g id="ytick_16">
     <g id="line2d_75">
      <g>
       <use style="fill:#262626;stroke:#262626;" x="870.988235294" xlink:href="#m0e00ccdc9d" y="180.684"/>
      </g>
     </g>
     <g id="line2d_76">
      <g>
       <use style="fill:#262626;stroke:#262626;" x="1166.4" xlink:href="#m0e00ccdc9d" y="180.684"/>
      </g>
     </g>
     <g id="text_44">
      <!-- 0.6 -->
      <g style="fill:#262626;" transform="translate(850.088235294 183.26915625)scale(0.1 -0.1)">
       <use xlink:href="#ArialMT-30"/>
       <use x="55.615234375" xlink:href="#ArialMT-2e"/>
       <use x="83.3984375" xlink:href="#ArialMT-36"/>
      </g>
     </g>
    </g>
    <g id="ytick_17">
     <g id="line2d_77">
      <g>
       <use style="fill:#262626;stroke:#262626;" x="870.988235294" xlink:href="#m0e00ccdc9d" y="111.852"/>
      </g>
     </g>
     <g id="line2d_78">
      <g>
       <use style="fill:#262626;stroke:#262626;" x="1166.4" xlink:href="#m0e00ccdc9d" y="111.852"/>
      </g>
     </g>
     <g id="text_45">
      <!-- 0.8 -->
      <g style="fill:#262626;" transform="translate(850.088235294 114.43715625)scale(0.1 -0.1)">
       <use xlink:href="#ArialMT-30"/>
       <use x="55.615234375" xlink:href="#ArialMT-2e"/>
       <use x="83.3984375" xlink:href="#ArialMT-38"/>
      </g>
     </g>
    </g>
    <g id="ytick_18">
     <g id="line2d_79">
      <g>
       <use style="fill:#262626;stroke:#262626;" x="870.988235294" xlink:href="#m0e00ccdc9d" y="43.02"/>
      </g>
     </g>
     <g id="line2d_80">
      <g>
       <use style="fill:#262626;stroke:#262626;" x="1166.4" xlink:href="#m0e00ccdc9d" y="43.02"/>
      </g>
     </g>
     <g id="text_46">
      <!-- 1.0 -->
      <g style="fill:#262626;" transform="translate(850.088235294 45.60515625)scale(0.1 -0.1)">
       <use xlink:href="#ArialMT-31"/>
       <use x="55.615234375" xlink:href="#ArialMT-2e"/>
       <use x="83.3984375" xlink:href="#ArialMT-30"/>
      </g>
     </g>
    </g>
    <g id="text_47">
     <!-- True Positive Rate -->
     <g style="fill:#262626;" transform="translate(841.908235294 280.8975)rotate(-90.0)scale(0.16 -0.16)">
      <use xlink:href="#ArialMT-54"/>
      <use x="61.037109375" xlink:href="#ArialMT-72"/>
      <use x="94.337890625" xlink:href="#ArialMT-75"/>
      <use x="149.953125" xlink:href="#ArialMT-65"/>
      <use x="205.568359375" xlink:href="#ArialMT-20"/>
      <use x="233.3515625" xlink:href="#ArialMT-50"/>
      <use x="300.05078125" xlink:href="#ArialMT-6f"/>
      <use x="355.666015625" xlink:href="#ArialMT-73"/>
      <use x="405.666015625" xlink:href="#ArialMT-69"/>
      <use x="427.8828125" xlink:href="#ArialMT-74"/>
      <use x="455.666015625" xlink:href="#ArialMT-69"/>
      <use x="477.8828125" xlink:href="#ArialMT-76"/>
      <use x="527.8828125" xlink:href="#ArialMT-65"/>
      <use x="583.498046875" xlink:href="#ArialMT-20"/>
      <use x="611.28125" xlink:href="#ArialMT-52"/>
      <use x="683.498046875" xlink:href="#ArialMT-61"/>
      <use x="739.11328125" xlink:href="#ArialMT-74"/>
      <use x="766.896484375" xlink:href="#ArialMT-65"/>
     </g>
    </g>
   </g>
   <g id="line2d_81">
    <path clip-path="url(#p9be9f25343)" d="M 870.988235 387.18 
L 1166.4 43.02 
" style="fill:none;opacity:0.5;stroke:#000000;stroke-dasharray:6.000000,6.000000;stroke-dashoffset:0.0;"/>
   </g>
   <g id="line2d_82">
    <path clip-path="url(#p9be9f25343)" d="M 870.988235 375.312414 
L 870.988235 339.709655 
L 888.712941 339.709655 
L 888.712941 304.106897 
L 912.345882 304.106897 
L 912.345882 268.504138 
L 924.162353 268.504138 
L 924.162353 256.636552 
L 930.070588 256.636552 
L 930.070588 244.768966 
L 935.978824 244.768966 
L 935.978824 197.298621 
L 941.887059 197.298621 
L 941.887059 185.431034 
L 947.795294 185.431034 
L 947.795294 173.563448 
L 983.244706 173.563448 
L 983.244706 161.695862 
L 989.152941 161.695862 
L 989.152941 149.828276 
L 995.061176 149.828276 
L 995.061176 126.093103 
L 1024.602353 126.093103 
L 1024.602353 114.225517 
L 1036.418824 114.225517 
L 1036.418824 102.357931 
L 1077.776471 102.357931 
L 1077.776471 78.622759 
L 1125.042353 78.622759 
L 1125.042353 66.755172 
L 1136.858824 66.755172 
L 1136.858824 54.887586 
L 1142.767059 54.887586 
L 1142.767059 43.02 
L 1166.4 43.02 
" style="fill:none;stroke:#ff9f9a;stroke-linecap:round;stroke-width:3.0;"/>
   </g>
   <g id="patch_15">
    <path d="M 870.988235 43.02 
L 1166.4 43.02 
" style="fill:none;stroke:#cccccc;stroke-linecap:square;stroke-linejoin:miter;"/>
   </g>
   <g id="patch_16">
    <path d="M 1166.4 387.18 
L 1166.4 43.02 
" style="fill:none;stroke:#cccccc;stroke-linecap:square;stroke-linejoin:miter;"/>
   </g>
   <g id="patch_17">
    <path d="M 870.988235 387.18 
L 1166.4 387.18 
" style="fill:none;stroke:#cccccc;stroke-linecap:square;stroke-linejoin:miter;"/>
   </g>
   <g id="patch_18">
    <path d="M 870.988235 387.18 
L 870.988235 43.02 
" style="fill:none;stroke:#cccccc;stroke-linecap:square;stroke-linejoin:miter;"/>
   </g>
   <g id="legend_3">
    <g id="line2d_83">
     <path d="M 977.8575 363.8125 
L 1009.8575 363.8125 
" style="fill:none;stroke:#ff9f9a;stroke-linecap:round;stroke-width:3.0;"/>
    </g>
    <g id="line2d_84"/>
    <g id="text_48">
     <!-- Test (AUC = 0.68) -->
     <g style="fill:#262626;" transform="translate(1022.6575 369.4125)scale(0.16 -0.16)">
      <use xlink:href="#ArialMT-54"/>
      <use x="60.912109375" xlink:href="#ArialMT-65"/>
      <use x="116.52734375" xlink:href="#ArialMT-73"/>
      <use x="166.52734375" xlink:href="#ArialMT-74"/>
      <use x="194.310546875" xlink:href="#ArialMT-20"/>
      <use x="222.09375" xlink:href="#ArialMT-28"/>
      <use x="255.39453125" xlink:href="#ArialMT-41"/>
      <use x="322.09375" xlink:href="#ArialMT-55"/>
      <use x="394.310546875" xlink:href="#ArialMT-43"/>
      <use x="466.52734375" xlink:href="#ArialMT-20"/>
      <use x="494.310546875" xlink:href="#ArialMT-3d"/>
      <use x="552.708984375" xlink:href="#ArialMT-20"/>
      <use x="580.4921875" xlink:href="#ArialMT-30"/>
      <use x="636.107421875" xlink:href="#ArialMT-2e"/>
      <use x="663.890625" xlink:href="#ArialMT-36"/>
      <use x="719.505859375" xlink:href="#ArialMT-38"/>
      <use x="775.12109375" xlink:href="#ArialMT-29"/>
     </g>
    </g>
   </g>
  </g>
 </g>
 <defs>
  <clipPath id="pb04976e95c">
   <rect height="344.16" width="295.411764706" x="516.494117647" y="43.02"/>
  </clipPath>
  <clipPath id="p9be9f25343">
   <rect height="344.16" width="295.411764706" x="870.988235294" y="43.02"/>
  </clipPath>
  <clipPath id="p48165e6a6f">
   <rect height="344.16" width="295.411764706" x="162.0" y="43.02"/>
  </clipPath>
 </defs>
</svg>
