<?xml version="1.0" encoding="utf-8" standalone="no"?>
<!DOCTYPE svg PUBLIC "-//W3C//DTD SVG 1.1//EN"
  "http://www.w3.org/Graphics/SVG/1.1/DTD/svg11.dtd">
<!-- Created with matplotlib (http://matplotlib.org/) -->
<svg height="574pt" version="1.1" viewBox="0 0 576 574" width="576pt" xmlns="http://www.w3.org/2000/svg" xmlns:xlink="http://www.w3.org/1999/xlink">
 <defs>
  <style type="text/css">
*{stroke-linecap:butt;stroke-linejoin:round;stroke-miterlimit:100000;}
  </style>
 </defs>
 <g id="figure_1">
  <g id="patch_1">
   <path d="M 0 574.2 
L 576 574.2 
L 576 0 
L 0 0 
z
" style="fill:#ffffff;"/>
  </g>
  <g id="axes_1">
   <g id="patch_2">
    <path d="M 72 516.78 
L 518.4 516.78 
L 518.4 57.42 
L 72 57.42 
z
" style="fill:#ffffff;"/>
   </g>
   <g id="matplotlib.axis_1">
    <g id="xtick_1">
     <g id="line2d_1">
      <path clip-path="url(#p49d0aea71e)" d="M 72 516.78 
L 72 57.42 
" style="fill:none;stroke:#cccccc;stroke-linecap:round;"/>
     </g>
     <g id="line2d_2">
      <defs>
       <path d="M 0 0 
L 0 0 
" id="mdb7486174a" style="stroke:#262626;"/>
      </defs>
      <g>
       <use style="fill:#262626;stroke:#262626;" x="72.0" xlink:href="#mdb7486174a" y="516.78"/>
      </g>
     </g>
     <g id="line2d_3">
      <g>
       <use style="fill:#262626;stroke:#262626;" x="72.0" xlink:href="#mdb7486174a" y="57.42"/>
      </g>
     </g>
     <g id="text_1">
      <!-- 0.0 -->
      <defs>
       <path d="M 4.15625 35.296875 
Q 4.15625 48 6.765625 55.734375 
Q 9.375 63.484375 14.515625 67.671875 
Q 19.671875 71.875 27.484375 71.875 
Q 33.25 71.875 37.59375 69.546875 
Q 41.9375 67.234375 44.765625 62.859375 
Q 47.609375 58.5 49.21875 52.21875 
Q 50.828125 45.953125 50.828125 35.296875 
Q 50.828125 22.703125 48.234375 14.96875 
Q 45.65625 7.234375 40.5 3 
Q 35.359375 -1.21875 27.484375 -1.21875 
Q 17.140625 -1.21875 11.234375 6.203125 
Q 4.15625 15.140625 4.15625 35.296875 
M 13.1875 35.296875 
Q 13.1875 17.671875 17.3125 11.828125 
Q 21.4375 6 27.484375 6 
Q 33.546875 6 37.671875 11.859375 
Q 41.796875 17.71875 41.796875 35.296875 
Q 41.796875 52.984375 37.671875 58.78125 
Q 33.546875 64.59375 27.390625 64.59375 
Q 21.34375 64.59375 17.71875 59.46875 
Q 13.1875 52.9375 13.1875 35.296875 
" id="ArialMT-30"/>
       <path d="M 9.078125 0 
L 9.078125 10.015625 
L 19.09375 10.015625 
L 19.09375 0 
z
" id="ArialMT-2e"/>
      </defs>
      <g style="fill:#262626;" transform="translate(65.05 530.9378125)scale(0.1 -0.1)">
       <use xlink:href="#ArialMT-30"/>
       <use x="55.615234375" xlink:href="#ArialMT-2e"/>
       <use x="83.3984375" xlink:href="#ArialMT-30"/>
      </g>
     </g>
    </g>
    <g id="xtick_2">
     <g id="line2d_4">
      <path clip-path="url(#p49d0aea71e)" d="M 161.28 516.78 
L 161.28 57.42 
" style="fill:none;stroke:#cccccc;stroke-linecap:round;"/>
     </g>
     <g id="line2d_5">
      <g>
       <use style="fill:#262626;stroke:#262626;" x="161.28" xlink:href="#mdb7486174a" y="516.78"/>
      </g>
     </g>
     <g id="line2d_6">
      <g>
       <use style="fill:#262626;stroke:#262626;" x="161.28" xlink:href="#mdb7486174a" y="57.42"/>
      </g>
     </g>
     <g id="text_2">
      <!-- 0.2 -->
      <defs>
       <path d="M 50.34375 8.453125 
L 50.34375 0 
L 3.03125 0 
Q 2.9375 3.171875 4.046875 6.109375 
Q 5.859375 10.9375 9.828125 15.625 
Q 13.8125 20.3125 21.34375 26.46875 
Q 33.015625 36.03125 37.109375 41.625 
Q 41.21875 47.21875 41.21875 52.203125 
Q 41.21875 57.421875 37.46875 61 
Q 33.734375 64.59375 27.734375 64.59375 
Q 21.390625 64.59375 17.578125 60.78125 
Q 13.765625 56.984375 13.71875 50.25 
L 4.6875 51.171875 
Q 5.609375 61.28125 11.65625 66.578125 
Q 17.71875 71.875 27.9375 71.875 
Q 38.234375 71.875 44.234375 66.15625 
Q 50.25 60.453125 50.25 52 
Q 50.25 47.703125 48.484375 43.546875 
Q 46.734375 39.40625 42.65625 34.8125 
Q 38.578125 30.21875 29.109375 22.21875 
Q 21.1875 15.578125 18.9375 13.203125 
Q 16.703125 10.84375 15.234375 8.453125 
z
" id="ArialMT-32"/>
      </defs>
      <g style="fill:#262626;" transform="translate(154.33 530.9378125)scale(0.1 -0.1)">
       <use xlink:href="#ArialMT-30"/>
       <use x="55.615234375" xlink:href="#ArialMT-2e"/>
       <use x="83.3984375" xlink:href="#ArialMT-32"/>
      </g>
     </g>
    </g>
    <g id="xtick_3">
     <g id="line2d_7">
      <path clip-path="url(#p49d0aea71e)" d="M 250.56 516.78 
L 250.56 57.42 
" style="fill:none;stroke:#cccccc;stroke-linecap:round;"/>
     </g>
     <g id="line2d_8">
      <g>
       <use style="fill:#262626;stroke:#262626;" x="250.56" xlink:href="#mdb7486174a" y="516.78"/>
      </g>
     </g>
     <g id="line2d_9">
      <g>
       <use style="fill:#262626;stroke:#262626;" x="250.56" xlink:href="#mdb7486174a" y="57.42"/>
      </g>
     </g>
     <g id="text_3">
      <!-- 0.4 -->
      <defs>
       <path d="M 32.328125 0 
L 32.328125 17.140625 
L 1.265625 17.140625 
L 1.265625 25.203125 
L 33.9375 71.578125 
L 41.109375 71.578125 
L 41.109375 25.203125 
L 50.78125 25.203125 
L 50.78125 17.140625 
L 41.109375 17.140625 
L 41.109375 0 
z
M 32.328125 25.203125 
L 32.328125 57.46875 
L 9.90625 25.203125 
z
" id="ArialMT-34"/>
      </defs>
      <g style="fill:#262626;" transform="translate(243.61 530.9378125)scale(0.1 -0.1)">
       <use xlink:href="#ArialMT-30"/>
       <use x="55.615234375" xlink:href="#ArialMT-2e"/>
       <use x="83.3984375" xlink:href="#ArialMT-34"/>
      </g>
     </g>
    </g>
    <g id="xtick_4">
     <g id="line2d_10">
      <path clip-path="url(#p49d0aea71e)" d="M 339.84 516.78 
L 339.84 57.42 
" style="fill:none;stroke:#cccccc;stroke-linecap:round;"/>
     </g>
     <g id="line2d_11">
      <g>
       <use style="fill:#262626;stroke:#262626;" x="339.84" xlink:href="#mdb7486174a" y="516.78"/>
      </g>
     </g>
     <g id="line2d_12">
      <g>
       <use style="fill:#262626;stroke:#262626;" x="339.84" xlink:href="#mdb7486174a" y="57.42"/>
      </g>
     </g>
     <g id="text_4">
      <!-- 0.6 -->
      <defs>
       <path d="M 49.75 54.046875 
L 41.015625 53.375 
Q 39.84375 58.546875 37.703125 60.890625 
Q 34.125 64.65625 28.90625 64.65625 
Q 24.703125 64.65625 21.53125 62.3125 
Q 17.390625 59.28125 14.984375 53.46875 
Q 12.59375 47.65625 12.5 36.921875 
Q 15.671875 41.75 20.265625 44.09375 
Q 24.859375 46.4375 29.890625 46.4375 
Q 38.671875 46.4375 44.84375 39.96875 
Q 51.03125 33.5 51.03125 23.25 
Q 51.03125 16.5 48.125 10.71875 
Q 45.21875 4.9375 40.140625 1.859375 
Q 35.0625 -1.21875 28.609375 -1.21875 
Q 17.625 -1.21875 10.6875 6.859375 
Q 3.765625 14.9375 3.765625 33.5 
Q 3.765625 54.25 11.421875 63.671875 
Q 18.109375 71.875 29.4375 71.875 
Q 37.890625 71.875 43.28125 67.140625 
Q 48.6875 62.40625 49.75 54.046875 
M 13.875 23.1875 
Q 13.875 18.65625 15.796875 14.5 
Q 17.71875 10.359375 21.1875 8.171875 
Q 24.65625 6 28.46875 6 
Q 34.03125 6 38.03125 10.484375 
Q 42.046875 14.984375 42.046875 22.703125 
Q 42.046875 30.125 38.078125 34.390625 
Q 34.125 38.671875 28.125 38.671875 
Q 22.171875 38.671875 18.015625 34.390625 
Q 13.875 30.125 13.875 23.1875 
" id="ArialMT-36"/>
      </defs>
      <g style="fill:#262626;" transform="translate(332.89 530.9378125)scale(0.1 -0.1)">
       <use xlink:href="#ArialMT-30"/>
       <use x="55.615234375" xlink:href="#ArialMT-2e"/>
       <use x="83.3984375" xlink:href="#ArialMT-36"/>
      </g>
     </g>
    </g>
    <g id="xtick_5">
     <g id="line2d_13">
      <path clip-path="url(#p49d0aea71e)" d="M 429.12 516.78 
L 429.12 57.42 
" style="fill:none;stroke:#cccccc;stroke-linecap:round;"/>
     </g>
     <g id="line2d_14">
      <g>
       <use style="fill:#262626;stroke:#262626;" x="429.12" xlink:href="#mdb7486174a" y="516.78"/>
      </g>
     </g>
     <g id="line2d_15">
      <g>
       <use style="fill:#262626;stroke:#262626;" x="429.12" xlink:href="#mdb7486174a" y="57.42"/>
      </g>
     </g>
     <g id="text_5">
      <!-- 0.8 -->
      <defs>
       <path d="M 17.671875 38.8125 
Q 12.203125 40.828125 9.5625 44.53125 
Q 6.9375 48.25 6.9375 53.421875 
Q 6.9375 61.234375 12.546875 66.546875 
Q 18.171875 71.875 27.484375 71.875 
Q 36.859375 71.875 42.578125 66.421875 
Q 48.296875 60.984375 48.296875 53.171875 
Q 48.296875 48.1875 45.671875 44.5 
Q 43.0625 40.828125 37.75 38.8125 
Q 44.34375 36.671875 47.78125 31.875 
Q 51.21875 27.09375 51.21875 20.453125 
Q 51.21875 11.28125 44.71875 5.03125 
Q 38.234375 -1.21875 27.640625 -1.21875 
Q 17.046875 -1.21875 10.546875 5.046875 
Q 4.046875 11.328125 4.046875 20.703125 
Q 4.046875 27.6875 7.59375 32.390625 
Q 11.140625 37.109375 17.671875 38.8125 
M 15.921875 53.71875 
Q 15.921875 48.640625 19.1875 45.40625 
Q 22.46875 42.1875 27.6875 42.1875 
Q 32.765625 42.1875 36.015625 45.375 
Q 39.265625 48.578125 39.265625 53.21875 
Q 39.265625 58.0625 35.90625 61.359375 
Q 32.5625 64.65625 27.59375 64.65625 
Q 22.5625 64.65625 19.234375 61.421875 
Q 15.921875 58.203125 15.921875 53.71875 
M 13.09375 20.65625 
Q 13.09375 16.890625 14.875 13.375 
Q 16.65625 9.859375 20.171875 7.921875 
Q 23.6875 6 27.734375 6 
Q 34.03125 6 38.125 10.046875 
Q 42.234375 14.109375 42.234375 20.359375 
Q 42.234375 26.703125 38.015625 30.859375 
Q 33.796875 35.015625 27.4375 35.015625 
Q 21.234375 35.015625 17.15625 30.90625 
Q 13.09375 26.8125 13.09375 20.65625 
" id="ArialMT-38"/>
      </defs>
      <g style="fill:#262626;" transform="translate(422.17 530.9378125)scale(0.1 -0.1)">
       <use xlink:href="#ArialMT-30"/>
       <use x="55.615234375" xlink:href="#ArialMT-2e"/>
       <use x="83.3984375" xlink:href="#ArialMT-38"/>
      </g>
     </g>
    </g>
    <g id="xtick_6">
     <g id="line2d_16">
      <path clip-path="url(#p49d0aea71e)" d="M 518.4 516.78 
L 518.4 57.42 
" style="fill:none;stroke:#cccccc;stroke-linecap:round;"/>
     </g>
     <g id="line2d_17">
      <g>
       <use style="fill:#262626;stroke:#262626;" x="518.4" xlink:href="#mdb7486174a" y="516.78"/>
      </g>
     </g>
     <g id="line2d_18">
      <g>
       <use style="fill:#262626;stroke:#262626;" x="518.4" xlink:href="#mdb7486174a" y="57.42"/>
      </g>
     </g>
     <g id="text_6">
      <!-- 1.0 -->
      <defs>
       <path d="M 37.25 0 
L 28.46875 0 
L 28.46875 56 
Q 25.296875 52.984375 20.140625 49.953125 
Q 14.984375 46.921875 10.890625 45.40625 
L 10.890625 53.90625 
Q 18.265625 57.375 23.78125 62.296875 
Q 29.296875 67.234375 31.59375 71.875 
L 37.25 71.875 
z
" id="ArialMT-31"/>
      </defs>
      <g style="fill:#262626;" transform="translate(511.45 530.9378125)scale(0.1 -0.1)">
       <use xlink:href="#ArialMT-31"/>
       <use x="55.615234375" xlink:href="#ArialMT-2e"/>
       <use x="83.3984375" xlink:href="#ArialMT-30"/>
      </g>
     </g>
    </g>
    <g id="text_7">
     <!-- False Positive Rate -->
     <defs>
      <path d="M 40.4375 6.390625 
Q 35.546875 2.25 31.03125 0.53125 
Q 26.515625 -1.171875 21.34375 -1.171875 
Q 12.796875 -1.171875 8.203125 3 
Q 3.609375 7.171875 3.609375 13.671875 
Q 3.609375 17.484375 5.34375 20.625 
Q 7.078125 23.78125 9.890625 25.6875 
Q 12.703125 27.59375 16.21875 28.5625 
Q 18.796875 29.25 24.03125 29.890625 
Q 34.671875 31.15625 39.703125 32.90625 
Q 39.75 34.71875 39.75 35.203125 
Q 39.75 40.578125 37.25 42.78125 
Q 33.890625 45.75 27.25 45.75 
Q 21.046875 45.75 18.09375 43.578125 
Q 15.140625 41.40625 13.71875 35.890625 
L 5.125 37.0625 
Q 6.296875 42.578125 8.984375 45.96875 
Q 11.671875 49.359375 16.75 51.1875 
Q 21.828125 53.03125 28.515625 53.03125 
Q 35.15625 53.03125 39.296875 51.46875 
Q 43.453125 49.90625 45.40625 47.53125 
Q 47.359375 45.171875 48.140625 41.546875 
Q 48.578125 39.3125 48.578125 33.453125 
L 48.578125 21.734375 
Q 48.578125 9.46875 49.140625 6.21875 
Q 49.703125 2.984375 51.375 0 
L 42.1875 0 
Q 40.828125 2.734375 40.4375 6.390625 
M 39.703125 26.03125 
Q 34.90625 24.078125 25.34375 22.703125 
Q 19.921875 21.921875 17.671875 20.9375 
Q 15.4375 19.96875 14.203125 18.09375 
Q 12.984375 16.21875 12.984375 13.921875 
Q 12.984375 10.40625 15.640625 8.0625 
Q 18.3125 5.71875 23.4375 5.71875 
Q 28.515625 5.71875 32.46875 7.9375 
Q 36.421875 10.15625 38.28125 14.015625 
Q 39.703125 17 39.703125 22.796875 
z
" id="ArialMT-61"/>
      <path d="M 21 0 
L 1.265625 51.859375 
L 10.546875 51.859375 
L 21.6875 20.796875 
Q 23.484375 15.765625 25 10.359375 
Q 26.171875 14.453125 28.265625 20.21875 
L 39.796875 51.859375 
L 48.828125 51.859375 
L 29.203125 0 
z
" id="ArialMT-76"/>
      <path d="M 42.09375 16.703125 
L 51.171875 15.578125 
Q 49.03125 7.625 43.21875 3.21875 
Q 37.40625 -1.171875 28.375 -1.171875 
Q 17 -1.171875 10.328125 5.828125 
Q 3.65625 12.84375 3.65625 25.484375 
Q 3.65625 38.578125 10.390625 45.796875 
Q 17.140625 53.03125 27.875 53.03125 
Q 38.28125 53.03125 44.875 45.953125 
Q 51.46875 38.875 51.46875 26.03125 
Q 51.46875 25.25 51.421875 23.6875 
L 12.75 23.6875 
Q 13.234375 15.140625 17.578125 10.59375 
Q 21.921875 6.0625 28.421875 6.0625 
Q 33.25 6.0625 36.671875 8.59375 
Q 40.09375 11.140625 42.09375 16.703125 
M 13.234375 30.90625 
L 42.1875 30.90625 
Q 41.609375 37.453125 38.875 40.71875 
Q 34.671875 45.796875 27.984375 45.796875 
Q 21.921875 45.796875 17.796875 41.75 
Q 13.671875 37.703125 13.234375 30.90625 
" id="ArialMT-65"/>
      <path d="M 25.78125 7.859375 
L 27.046875 0.09375 
Q 23.34375 -0.6875 20.40625 -0.6875 
Q 15.625 -0.6875 12.984375 0.828125 
Q 10.359375 2.34375 9.28125 4.8125 
Q 8.203125 7.28125 8.203125 15.1875 
L 8.203125 45.015625 
L 1.765625 45.015625 
L 1.765625 51.859375 
L 8.203125 51.859375 
L 8.203125 64.703125 
L 16.9375 69.96875 
L 16.9375 51.859375 
L 25.78125 51.859375 
L 25.78125 45.015625 
L 16.9375 45.015625 
L 16.9375 14.703125 
Q 16.9375 10.9375 17.40625 9.859375 
Q 17.875 8.796875 18.921875 8.15625 
Q 19.96875 7.515625 21.921875 7.515625 
Q 23.390625 7.515625 25.78125 7.859375 
" id="ArialMT-74"/>
      <path d="M 7.71875 0 
L 7.71875 71.578125 
L 34.71875 71.578125 
Q 41.84375 71.578125 45.609375 70.90625 
Q 50.875 70.015625 54.4375 67.546875 
Q 58.015625 65.09375 60.1875 60.640625 
Q 62.359375 56.203125 62.359375 50.875 
Q 62.359375 41.75 56.546875 35.421875 
Q 50.734375 29.109375 35.546875 29.109375 
L 17.1875 29.109375 
L 17.1875 0 
z
M 17.1875 37.546875 
L 35.6875 37.546875 
Q 44.875 37.546875 48.734375 40.96875 
Q 52.59375 44.390625 52.59375 50.59375 
Q 52.59375 55.078125 50.3125 58.265625 
Q 48.046875 61.46875 44.34375 62.5 
Q 41.9375 63.140625 35.5 63.140625 
L 17.1875 63.140625 
z
" id="ArialMT-50"/>
      <path d="M 3.078125 15.484375 
L 11.765625 16.84375 
Q 12.5 11.625 15.84375 8.84375 
Q 19.1875 6.0625 25.203125 6.0625 
Q 31.25 6.0625 34.171875 8.515625 
Q 37.109375 10.984375 37.109375 14.3125 
Q 37.109375 17.28125 34.515625 19 
Q 32.71875 20.171875 25.53125 21.96875 
Q 15.875 24.421875 12.140625 26.203125 
Q 8.40625 27.984375 6.46875 31.125 
Q 4.546875 34.28125 4.546875 38.09375 
Q 4.546875 41.546875 6.125 44.5 
Q 7.71875 47.46875 10.453125 49.421875 
Q 12.5 50.921875 16.03125 51.96875 
Q 19.578125 53.03125 23.640625 53.03125 
Q 29.734375 53.03125 34.34375 51.265625 
Q 38.96875 49.515625 41.15625 46.5 
Q 43.359375 43.5 44.1875 38.484375 
L 35.59375 37.3125 
Q 35.015625 41.3125 32.203125 43.546875 
Q 29.390625 45.796875 24.265625 45.796875 
Q 18.21875 45.796875 15.625 43.796875 
Q 13.03125 41.796875 13.03125 39.109375 
Q 13.03125 37.40625 14.109375 36.03125 
Q 15.1875 34.625 17.484375 33.6875 
Q 18.796875 33.203125 25.25 31.453125 
Q 34.578125 28.953125 38.25 27.359375 
Q 41.9375 25.78125 44.03125 22.75 
Q 46.140625 19.734375 46.140625 15.234375 
Q 46.140625 10.84375 43.578125 6.953125 
Q 41.015625 3.078125 36.171875 0.953125 
Q 31.34375 -1.171875 25.25 -1.171875 
Q 15.140625 -1.171875 9.84375 3.03125 
Q 4.546875 7.234375 3.078125 15.484375 
" id="ArialMT-73"/>
      <path d="M 6.390625 0 
L 6.390625 71.578125 
L 15.1875 71.578125 
L 15.1875 0 
z
" id="ArialMT-6c"/>
      <path d="M 7.859375 0 
L 7.859375 71.578125 
L 39.59375 71.578125 
Q 49.171875 71.578125 54.140625 69.640625 
Q 59.125 67.71875 62.109375 62.828125 
Q 65.09375 57.953125 65.09375 52.046875 
Q 65.09375 44.4375 60.15625 39.203125 
Q 55.21875 33.984375 44.921875 32.5625 
Q 48.6875 30.765625 50.640625 29 
Q 54.78125 25.203125 58.5 19.484375 
L 70.953125 0 
L 59.03125 0 
L 49.5625 14.890625 
Q 45.40625 21.34375 42.71875 24.75 
Q 40.046875 28.171875 37.921875 29.53125 
Q 35.796875 30.90625 33.59375 31.453125 
Q 31.984375 31.78125 28.328125 31.78125 
L 17.328125 31.78125 
L 17.328125 0 
z
M 17.328125 39.984375 
L 37.703125 39.984375 
Q 44.1875 39.984375 47.84375 41.328125 
Q 51.515625 42.671875 53.421875 45.625 
Q 55.328125 48.578125 55.328125 52.046875 
Q 55.328125 57.125 51.640625 60.390625 
Q 47.953125 63.671875 39.984375 63.671875 
L 17.328125 63.671875 
z
" id="ArialMT-52"/>
      <path d="M 3.328125 25.921875 
Q 3.328125 40.328125 11.328125 47.265625 
Q 18.015625 53.03125 27.640625 53.03125 
Q 38.328125 53.03125 45.109375 46.015625 
Q 51.90625 39.015625 51.90625 26.65625 
Q 51.90625 16.65625 48.90625 10.90625 
Q 45.90625 5.171875 40.15625 2 
Q 34.421875 -1.171875 27.640625 -1.171875 
Q 16.75 -1.171875 10.03125 5.8125 
Q 3.328125 12.796875 3.328125 25.921875 
M 12.359375 25.921875 
Q 12.359375 15.96875 16.703125 11.015625 
Q 21.046875 6.0625 27.640625 6.0625 
Q 34.1875 6.0625 38.53125 11.03125 
Q 42.875 16.015625 42.875 26.21875 
Q 42.875 35.84375 38.5 40.796875 
Q 34.125 45.75 27.640625 45.75 
Q 21.046875 45.75 16.703125 40.8125 
Q 12.359375 35.890625 12.359375 25.921875 
" id="ArialMT-6f"/>
      <path d="M 8.203125 0 
L 8.203125 71.578125 
L 56.5 71.578125 
L 56.5 63.140625 
L 17.671875 63.140625 
L 17.671875 40.96875 
L 51.265625 40.96875 
L 51.265625 32.515625 
L 17.671875 32.515625 
L 17.671875 0 
z
" id="ArialMT-46"/>
      <path d="M 6.640625 61.46875 
L 6.640625 71.578125 
L 15.4375 71.578125 
L 15.4375 61.46875 
z
M 6.640625 0 
L 6.640625 51.859375 
L 15.4375 51.859375 
L 15.4375 0 
z
" id="ArialMT-69"/>
      <path id="ArialMT-20"/>
     </defs>
     <g style="fill:#262626;" transform="translate(217.670625 550.809375)scale(0.18 -0.18)">
      <use xlink:href="#ArialMT-46"/>
      <use x="61.083984375" xlink:href="#ArialMT-61"/>
      <use x="116.69921875" xlink:href="#ArialMT-6c"/>
      <use x="138.916015625" xlink:href="#ArialMT-73"/>
      <use x="188.916015625" xlink:href="#ArialMT-65"/>
      <use x="244.53125" xlink:href="#ArialMT-20"/>
      <use x="272.314453125" xlink:href="#ArialMT-50"/>
      <use x="339.013671875" xlink:href="#ArialMT-6f"/>
      <use x="394.62890625" xlink:href="#ArialMT-73"/>
      <use x="444.62890625" xlink:href="#ArialMT-69"/>
      <use x="466.845703125" xlink:href="#ArialMT-74"/>
      <use x="494.62890625" xlink:href="#ArialMT-69"/>
      <use x="516.845703125" xlink:href="#ArialMT-76"/>
      <use x="566.845703125" xlink:href="#ArialMT-65"/>
      <use x="622.4609375" xlink:href="#ArialMT-20"/>
      <use x="650.244140625" xlink:href="#ArialMT-52"/>
      <use x="722.4609375" xlink:href="#ArialMT-61"/>
      <use x="778.076171875" xlink:href="#ArialMT-74"/>
      <use x="805.859375" xlink:href="#ArialMT-65"/>
     </g>
    </g>
   </g>
   <g id="matplotlib.axis_2">
    <g id="ytick_1">
     <g id="line2d_19">
      <path clip-path="url(#p49d0aea71e)" d="M 72 516.78 
L 518.4 516.78 
" style="fill:none;stroke:#cccccc;stroke-linecap:round;"/>
     </g>
     <g id="line2d_20">
      <g>
       <use style="fill:#262626;stroke:#262626;" x="72.0" xlink:href="#mdb7486174a" y="516.78"/>
      </g>
     </g>
     <g id="line2d_21">
      <g>
       <use style="fill:#262626;stroke:#262626;" x="518.4" xlink:href="#mdb7486174a" y="516.78"/>
      </g>
     </g>
     <g id="text_8">
      <!-- 0.0 -->
      <g style="fill:#262626;" transform="translate(51.1 519.36515625)scale(0.1 -0.1)">
       <use xlink:href="#ArialMT-30"/>
       <use x="55.615234375" xlink:href="#ArialMT-2e"/>
       <use x="83.3984375" xlink:href="#ArialMT-30"/>
      </g>
     </g>
    </g>
    <g id="ytick_2">
     <g id="line2d_22">
      <path clip-path="url(#p49d0aea71e)" d="M 72 424.908 
L 518.4 424.908 
" style="fill:none;stroke:#cccccc;stroke-linecap:round;"/>
     </g>
     <g id="line2d_23">
      <g>
       <use style="fill:#262626;stroke:#262626;" x="72.0" xlink:href="#mdb7486174a" y="424.908"/>
      </g>
     </g>
     <g id="line2d_24">
      <g>
       <use style="fill:#262626;stroke:#262626;" x="518.4" xlink:href="#mdb7486174a" y="424.908"/>
      </g>
     </g>
     <g id="text_9">
      <!-- 0.2 -->
      <g style="fill:#262626;" transform="translate(51.1 427.49315625)scale(0.1 -0.1)">
       <use xlink:href="#ArialMT-30"/>
       <use x="55.615234375" xlink:href="#ArialMT-2e"/>
       <use x="83.3984375" xlink:href="#ArialMT-32"/>
      </g>
     </g>
    </g>
    <g id="ytick_3">
     <g id="line2d_25">
      <path clip-path="url(#p49d0aea71e)" d="M 72 333.036 
L 518.4 333.036 
" style="fill:none;stroke:#cccccc;stroke-linecap:round;"/>
     </g>
     <g id="line2d_26">
      <g>
       <use style="fill:#262626;stroke:#262626;" x="72.0" xlink:href="#mdb7486174a" y="333.036"/>
      </g>
     </g>
     <g id="line2d_27">
      <g>
       <use style="fill:#262626;stroke:#262626;" x="518.4" xlink:href="#mdb7486174a" y="333.036"/>
      </g>
     </g>
     <g id="text_10">
      <!-- 0.4 -->
      <g style="fill:#262626;" transform="translate(51.1 335.62115625)scale(0.1 -0.1)">
       <use xlink:href="#ArialMT-30"/>
       <use x="55.615234375" xlink:href="#ArialMT-2e"/>
       <use x="83.3984375" xlink:href="#ArialMT-34"/>
      </g>
     </g>
    </g>
    <g id="ytick_4">
     <g id="line2d_28">
      <path clip-path="url(#p49d0aea71e)" d="M 72 241.164 
L 518.4 241.164 
" style="fill:none;stroke:#cccccc;stroke-linecap:round;"/>
     </g>
     <g id="line2d_29">
      <g>
       <use style="fill:#262626;stroke:#262626;" x="72.0" xlink:href="#mdb7486174a" y="241.164"/>
      </g>
     </g>
     <g id="line2d_30">
      <g>
       <use style="fill:#262626;stroke:#262626;" x="518.4" xlink:href="#mdb7486174a" y="241.164"/>
      </g>
     </g>
     <g id="text_11">
      <!-- 0.6 -->
      <g style="fill:#262626;" transform="translate(51.1 243.74915625)scale(0.1 -0.1)">
       <use xlink:href="#ArialMT-30"/>
       <use x="55.615234375" xlink:href="#ArialMT-2e"/>
       <use x="83.3984375" xlink:href="#ArialMT-36"/>
      </g>
     </g>
    </g>
    <g id="ytick_5">
     <g id="line2d_31">
      <path clip-path="url(#p49d0aea71e)" d="M 72 149.292 
L 518.4 149.292 
" style="fill:none;stroke:#cccccc;stroke-linecap:round;"/>
     </g>
     <g id="line2d_32">
      <g>
       <use style="fill:#262626;stroke:#262626;" x="72.0" xlink:href="#mdb7486174a" y="149.292"/>
      </g>
     </g>
     <g id="line2d_33">
      <g>
       <use style="fill:#262626;stroke:#262626;" x="518.4" xlink:href="#mdb7486174a" y="149.292"/>
      </g>
     </g>
     <g id="text_12">
      <!-- 0.8 -->
      <g style="fill:#262626;" transform="translate(51.1 151.87715625)scale(0.1 -0.1)">
       <use xlink:href="#ArialMT-30"/>
       <use x="55.615234375" xlink:href="#ArialMT-2e"/>
       <use x="83.3984375" xlink:href="#ArialMT-38"/>
      </g>
     </g>
    </g>
    <g id="ytick_6">
     <g id="line2d_34">
      <path clip-path="url(#p49d0aea71e)" d="M 72 57.42 
L 518.4 57.42 
" style="fill:none;stroke:#cccccc;stroke-linecap:round;"/>
     </g>
     <g id="line2d_35">
      <g>
       <use style="fill:#262626;stroke:#262626;" x="72.0" xlink:href="#mdb7486174a" y="57.42"/>
      </g>
     </g>
     <g id="line2d_36">
      <g>
       <use style="fill:#262626;stroke:#262626;" x="518.4" xlink:href="#mdb7486174a" y="57.42"/>
      </g>
     </g>
     <g id="text_13">
      <!-- 1.0 -->
      <g style="fill:#262626;" transform="translate(51.1 60.00515625)scale(0.1 -0.1)">
       <use xlink:href="#ArialMT-31"/>
       <use x="55.615234375" xlink:href="#ArialMT-2e"/>
       <use x="83.3984375" xlink:href="#ArialMT-30"/>
      </g>
     </g>
    </g>
    <g id="text_14">
     <!-- True Positive Rate -->
     <defs>
      <path d="M 40.578125 0 
L 40.578125 7.625 
Q 34.515625 -1.171875 24.125 -1.171875 
Q 19.53125 -1.171875 15.546875 0.578125 
Q 11.578125 2.34375 9.640625 5 
Q 7.71875 7.671875 6.9375 11.53125 
Q 6.390625 14.109375 6.390625 19.734375 
L 6.390625 51.859375 
L 15.1875 51.859375 
L 15.1875 23.09375 
Q 15.1875 16.21875 15.71875 13.8125 
Q 16.546875 10.359375 19.234375 8.375 
Q 21.921875 6.390625 25.875 6.390625 
Q 29.828125 6.390625 33.296875 8.421875 
Q 36.765625 10.453125 38.203125 13.9375 
Q 39.65625 17.4375 39.65625 24.078125 
L 39.65625 51.859375 
L 48.4375 51.859375 
L 48.4375 0 
z
" id="ArialMT-75"/>
      <path d="M 6.5 0 
L 6.5 51.859375 
L 14.40625 51.859375 
L 14.40625 44 
Q 17.4375 49.515625 20 51.265625 
Q 22.5625 53.03125 25.640625 53.03125 
Q 30.078125 53.03125 34.671875 50.203125 
L 31.640625 42.046875 
Q 28.421875 43.953125 25.203125 43.953125 
Q 22.3125 43.953125 20.015625 42.21875 
Q 17.71875 40.484375 16.75 37.40625 
Q 15.28125 32.71875 15.28125 27.15625 
L 15.28125 0 
z
" id="ArialMT-72"/>
      <path d="M 25.921875 0 
L 25.921875 63.140625 
L 2.34375 63.140625 
L 2.34375 71.578125 
L 59.078125 71.578125 
L 59.078125 63.140625 
L 35.40625 63.140625 
L 35.40625 0 
z
" id="ArialMT-54"/>
     </defs>
     <g style="fill:#262626;" transform="translate(42.5225 361.1221875)rotate(-90.0)scale(0.18 -0.18)">
      <use xlink:href="#ArialMT-54"/>
      <use x="61.037109375" xlink:href="#ArialMT-72"/>
      <use x="94.337890625" xlink:href="#ArialMT-75"/>
      <use x="149.953125" xlink:href="#ArialMT-65"/>
      <use x="205.568359375" xlink:href="#ArialMT-20"/>
      <use x="233.3515625" xlink:href="#ArialMT-50"/>
      <use x="300.05078125" xlink:href="#ArialMT-6f"/>
      <use x="355.666015625" xlink:href="#ArialMT-73"/>
      <use x="405.666015625" xlink:href="#ArialMT-69"/>
      <use x="427.8828125" xlink:href="#ArialMT-74"/>
      <use x="455.666015625" xlink:href="#ArialMT-69"/>
      <use x="477.8828125" xlink:href="#ArialMT-76"/>
      <use x="527.8828125" xlink:href="#ArialMT-65"/>
      <use x="583.498046875" xlink:href="#ArialMT-20"/>
      <use x="611.28125" xlink:href="#ArialMT-52"/>
      <use x="683.498046875" xlink:href="#ArialMT-61"/>
      <use x="739.11328125" xlink:href="#ArialMT-74"/>
      <use x="766.896484375" xlink:href="#ArialMT-65"/>
     </g>
    </g>
   </g>
   <g id="line2d_37">
    <path clip-path="url(#p49d0aea71e)" d="M 72 516.78 
L 518.4 57.42 
" style="fill:none;opacity:0.8;stroke:#001c7f;stroke-dasharray:6.000000,6.000000;stroke-dashoffset:0.0;"/>
   </g>
   <g id="line2d_38">
    <path clip-path="url(#p49d0aea71e)" d="M 72 516.78 
L 76.509091 347.559882 
L 81.018182 347.559882 
L 85.527273 301.961647 
L 90.036364 301.961647 
L 94.545455 274.264941 
L 99.054545 274.264941 
L 103.563636 268.522941 
L 108.072727 268.522941 
L 112.581818 251.296941 
L 117.090909 245.554941 
L 121.6 245.554941 
L 126.109091 234.070941 
L 130.618182 234.070941 
L 135.127273 228.328941 
L 139.636364 228.328941 
L 144.145455 228.328941 
L 148.654545 228.328941 
L 153.163636 228.328941 
L 157.672727 216.844941 
L 162.181818 216.844941 
L 166.690909 200.294471 
L 171.2 200.294471 
L 175.709091 200.294471 
L 180.218182 183.068471 
L 184.727273 183.068471 
L 189.236364 171.584471 
L 193.745455 171.584471 
L 198.254545 165.842471 
L 202.763636 165.842471 
L 207.272727 160.100471 
L 211.781818 160.100471 
L 216.290909 160.100471 
L 220.8 148.616471 
L 225.309091 148.616471 
L 229.818182 142.874471 
L 234.327273 142.874471 
L 238.836364 142.874471 
L 243.345455 142.874471 
L 247.854545 142.874471 
L 252.363636 142.874471 
L 256.872727 142.874471 
L 261.381818 131.390471 
L 265.890909 131.390471 
L 270.4 131.390471 
L 274.909091 131.390471 
L 279.418182 131.390471 
L 283.927273 131.390471 
L 288.436364 125.986235 
L 292.945455 125.986235 
L 297.454545 125.986235 
L 301.963636 125.986235 
L 306.472727 120.582 
L 310.981818 120.582 
L 315.490909 120.582 
L 320 120.582 
L 324.509091 114.84 
L 329.018182 109.098 
L 333.527273 97.614 
L 338.036364 97.614 
L 342.545455 91.872 
L 347.054545 91.872 
L 351.563636 91.872 
L 356.072727 86.13 
L 360.581818 86.13 
L 365.090909 86.13 
L 369.6 86.13 
L 374.109091 86.13 
L 378.618182 86.13 
L 383.127273 86.13 
L 387.636364 86.13 
L 392.145455 86.13 
L 396.654545 86.13 
L 401.163636 86.13 
L 405.672727 86.13 
L 410.181818 86.13 
L 414.690909 86.13 
L 419.2 86.13 
L 423.709091 86.13 
L 428.218182 80.388 
L 432.727273 80.388 
L 437.236364 80.388 
L 441.745455 80.388 
L 446.254545 80.388 
L 450.763636 80.388 
L 455.272727 80.388 
L 459.781818 80.388 
L 464.290909 80.388 
L 468.8 74.646 
L 473.309091 74.646 
L 477.818182 74.646 
L 482.327273 74.646 
L 486.836364 74.646 
L 491.345455 74.646 
L 495.854545 74.646 
L 500.363636 68.904 
L 504.872727 68.904 
L 509.381818 63.162 
L 513.890909 63.162 
L 518.4 57.42 
" style="fill:none;stroke:#001c7f;stroke-linecap:round;stroke-width:3.0;"/>
   </g>
   <g id="line2d_39">
    <path clip-path="url(#p49d0aea71e)" d="M 72 500.94 
L 72 421.74 
L 80.928 421.74 
L 80.928 390.06 
L 89.856 390.06 
L 89.856 342.54 
L 98.784 342.54 
L 98.784 326.7 
L 134.496 326.7 
L 134.496 295.02 
L 143.424 295.02 
L 143.424 279.18 
L 161.28 279.18 
L 161.28 247.5 
L 170.208 247.5 
L 170.208 231.66 
L 196.992 231.66 
L 196.992 215.82 
L 214.848 215.82 
L 214.848 199.98 
L 241.632 199.98 
L 241.632 168.3 
L 277.344 168.3 
L 277.344 152.46 
L 304.128 152.46 
L 304.128 136.62 
L 313.056 136.62 
L 313.056 73.26 
L 402.336 73.26 
L 402.336 57.42 
L 518.4 57.42 
" style="fill:none;stroke:#017517;stroke-linecap:round;stroke-width:3.0;"/>
   </g>
   <g id="line2d_40">
    <path clip-path="url(#p49d0aea71e)" d="M 72 516.78 
L 76.509091 472.195059 
L 81.018182 472.195059 
L 85.527273 409.370824 
L 90.036364 409.370824 
L 94.545455 392.482588 
L 99.054545 392.482588 
L 103.563636 380.998588 
L 108.072727 380.998588 
L 112.581818 380.998588 
L 117.090909 369.514588 
L 121.6 369.514588 
L 126.109091 358.030588 
L 130.618182 358.030588 
L 135.127273 346.021176 
L 139.636364 343.619294 
L 144.145455 336.075882 
L 148.654545 336.075882 
L 153.163636 318.849882 
L 157.672727 318.849882 
L 162.181818 318.849882 
L 166.690909 313.445647 
L 171.2 313.445647 
L 175.709091 313.445647 
L 180.218182 296.219647 
L 184.727273 290.815412 
L 189.236364 283.391412 
L 193.745455 280.897412 
L 198.254545 267.847412 
L 202.763636 267.847412 
L 207.272727 267.847412 
L 211.781818 267.847412 
L 216.290909 267.847412 
L 220.8 267.847412 
L 225.309091 267.847412 
L 229.818182 262.105412 
L 234.327273 262.105412 
L 238.836364 250.621412 
L 243.345455 250.621412 
L 247.854545 250.621412 
L 252.363636 233.395412 
L 256.872727 227.653412 
L 261.381818 227.653412 
L 265.890909 227.015412 
L 270.4 212.979412 
L 274.909091 210.427412 
L 279.418182 210.427412 
L 283.927273 208.049412 
L 288.436364 200.151176 
L 292.945455 197.657176 
L 297.454545 195.163176 
L 301.963636 193.539176 
L 306.472727 188.134941 
L 310.981818 170.908941 
L 315.490909 165.504706 
L 320 165.504706 
L 324.509091 154.020706 
L 329.018182 142.874471 
L 333.527273 142.874471 
L 338.036364 141.598471 
L 342.545455 132.608471 
L 347.054545 125.706471 
L 351.563636 120.718471 
L 356.072727 119.906471 
L 360.581818 119.906471 
L 365.090909 119.906471 
L 369.6 119.906471 
L 374.109091 119.906471 
L 378.618182 114.502235 
L 383.127273 114.502235 
L 387.636364 114.502235 
L 392.145455 114.502235 
L 396.654545 114.502235 
L 401.163636 114.502235 
L 405.672727 114.502235 
L 410.181818 114.502235 
L 414.690909 97.276235 
L 419.2 96.000235 
L 423.709091 93.448235 
L 428.218182 86.13 
L 432.727273 86.13 
L 437.236364 80.388 
L 441.745455 80.388 
L 446.254545 80.388 
L 450.763636 80.388 
L 455.272727 80.388 
L 459.781818 68.904 
L 464.290909 68.904 
L 468.8 61.886 
L 473.309091 59.392 
L 477.818182 57.42 
L 482.327273 57.42 
L 486.836364 57.42 
L 491.345455 57.42 
L 495.854545 57.42 
L 500.363636 57.42 
L 504.872727 57.42 
L 509.381818 57.42 
L 513.890909 57.42 
L 518.4 57.42 
" style="fill:none;opacity:0.8;stroke:#001c7f;stroke-dasharray:6.000000,6.000000;stroke-dashoffset:0.0;stroke-width:3.0;"/>
   </g>
   <g id="line2d_41">
    <path clip-path="url(#p49d0aea71e)" d="M 72 500.94 
L 72 453.42 
L 80.928 453.42 
L 80.928 437.58 
L 98.784 437.58 
L 107.712 421.74 
L 107.712 405.9 
L 125.568 374.22 
L 152.352 374.22 
L 152.352 326.7 
L 161.28 326.7 
L 161.28 310.86 
L 170.208 310.86 
L 170.208 279.18 
L 179.136 279.18 
L 179.136 263.34 
L 196.992 263.34 
L 205.92 247.5 
L 214.848 247.5 
L 232.704 247.5 
L 250.56 247.5 
L 250.56 231.66 
L 259.488 231.66 
L 268.416 215.82 
L 277.344 215.82 
L 286.272 199.98 
L 286.272 168.3 
L 295.2 168.3 
L 295.2 152.46 
L 313.056 152.46 
L 313.056 136.62 
L 330.912 136.62 
L 402.336 136.62 
L 411.264 136.62 
L 420.192 120.78 
L 455.904 120.78 
L 473.76 89.1 
L 473.76 57.42 
L 518.4 57.42 
" style="fill:none;opacity:0.8;stroke:#017517;stroke-dasharray:6.000000,6.000000;stroke-dashoffset:0.0;stroke-width:3.0;"/>
   </g>
   <g id="patch_3">
    <path d="M 72 57.42 
L 518.4 57.42 
" style="fill:none;stroke:#cccccc;stroke-linecap:square;stroke-linejoin:miter;"/>
   </g>
   <g id="patch_4">
    <path d="M 518.4 516.78 
L 518.4 57.42 
" style="fill:none;stroke:#cccccc;stroke-linecap:square;stroke-linejoin:miter;"/>
   </g>
   <g id="patch_5">
    <path d="M 72 516.78 
L 518.4 516.78 
" style="fill:none;stroke:#cccccc;stroke-linecap:square;stroke-linejoin:miter;"/>
   </g>
   <g id="patch_6">
    <path d="M 72 516.78 
L 72 57.42 
" style="fill:none;stroke:#cccccc;stroke-linecap:square;stroke-linejoin:miter;"/>
   </g>
   <g id="text_15">
    <!-- ROC LD DEC optimized space=377, all features=264 - Unsupervised DEC + cv MLP classifier -->
    <defs>
     <path d="M 40.4375 19 
L 49.078125 17.875 
Q 47.65625 8.9375 41.8125 3.875 
Q 35.984375 -1.171875 27.484375 -1.171875 
Q 16.84375 -1.171875 10.375 5.78125 
Q 3.90625 12.75 3.90625 25.734375 
Q 3.90625 34.125 6.6875 40.421875 
Q 9.46875 46.734375 15.15625 49.875 
Q 20.84375 53.03125 27.546875 53.03125 
Q 35.984375 53.03125 41.359375 48.75 
Q 46.734375 44.484375 48.25 36.625 
L 39.703125 35.296875 
Q 38.484375 40.53125 35.375 43.15625 
Q 32.28125 45.796875 27.875 45.796875 
Q 21.234375 45.796875 17.078125 41.03125 
Q 12.9375 36.28125 12.9375 25.984375 
Q 12.9375 15.53125 16.9375 10.796875 
Q 20.953125 6.0625 27.390625 6.0625 
Q 32.5625 6.0625 36.03125 9.234375 
Q 39.5 12.40625 40.4375 19 
" id="ArialMT-63"/>
     <path d="M 4.734375 62.203125 
L 4.734375 70.65625 
L 51.078125 70.65625 
L 51.078125 63.8125 
Q 44.234375 56.546875 37.515625 44.484375 
Q 30.8125 32.421875 27.15625 19.671875 
Q 24.515625 10.6875 23.78125 0 
L 14.75 0 
Q 14.890625 8.453125 18.0625 20.40625 
Q 21.234375 32.375 27.171875 43.484375 
Q 33.109375 54.59375 39.796875 62.203125 
z
" id="ArialMT-37"/>
     <path d="M 8.6875 0 
L 8.6875 45.015625 
L 0.921875 45.015625 
L 0.921875 51.859375 
L 8.6875 51.859375 
L 8.6875 57.375 
Q 8.6875 62.59375 9.625 65.140625 
Q 10.890625 68.5625 14.078125 70.671875 
Q 17.28125 72.796875 23.046875 72.796875 
Q 26.765625 72.796875 31.25 71.921875 
L 29.9375 64.265625 
Q 27.203125 64.75 24.75 64.75 
Q 20.75 64.75 19.09375 63.03125 
Q 17.4375 61.328125 17.4375 56.640625 
L 17.4375 51.859375 
L 27.546875 51.859375 
L 27.546875 45.015625 
L 17.4375 45.015625 
L 17.4375 0 
z
" id="ArialMT-66"/>
     <path d="M 52.828125 42.09375 
L 5.5625 42.09375 
L 5.5625 50.296875 
L 52.828125 50.296875 
z
M 52.828125 20.359375 
L 5.5625 20.359375 
L 5.5625 28.5625 
L 52.828125 28.5625 
z
" id="ArialMT-3d"/>
     <path d="M 40.234375 0 
L 40.234375 6.546875 
Q 35.296875 -1.171875 25.734375 -1.171875 
Q 19.53125 -1.171875 14.328125 2.25 
Q 9.125 5.671875 6.265625 11.796875 
Q 3.421875 17.921875 3.421875 25.875 
Q 3.421875 33.640625 6 39.96875 
Q 8.59375 46.296875 13.765625 49.65625 
Q 18.953125 53.03125 25.34375 53.03125 
Q 30.03125 53.03125 33.6875 51.046875 
Q 37.359375 49.078125 39.65625 45.90625 
L 39.65625 71.578125 
L 48.390625 71.578125 
L 48.390625 0 
z
M 12.453125 25.875 
Q 12.453125 15.921875 16.640625 10.984375 
Q 20.84375 6.0625 26.5625 6.0625 
Q 32.328125 6.0625 36.34375 10.765625 
Q 40.375 15.484375 40.375 25.140625 
Q 40.375 35.796875 36.265625 40.765625 
Q 32.171875 45.75 26.171875 45.75 
Q 20.3125 45.75 16.375 40.96875 
Q 12.453125 36.1875 12.453125 25.875 
" id="ArialMT-64"/>
     <path d="M 7.90625 0 
L 7.90625 71.578125 
L 59.671875 71.578125 
L 59.671875 63.140625 
L 17.390625 63.140625 
L 17.390625 41.21875 
L 56.984375 41.21875 
L 56.984375 32.8125 
L 17.390625 32.8125 
L 17.390625 8.453125 
L 61.328125 8.453125 
L 61.328125 0 
z
" id="ArialMT-45"/>
     <path d="M 58.796875 25.09375 
L 68.265625 22.703125 
Q 65.28125 11.03125 57.546875 4.90625 
Q 49.8125 -1.21875 38.625 -1.21875 
Q 27.046875 -1.21875 19.796875 3.484375 
Q 12.546875 8.203125 8.765625 17.140625 
Q 4.984375 26.078125 4.984375 36.328125 
Q 4.984375 47.515625 9.25 55.828125 
Q 13.53125 64.15625 21.40625 68.46875 
Q 29.296875 72.796875 38.765625 72.796875 
Q 49.515625 72.796875 56.828125 67.328125 
Q 64.15625 61.859375 67.046875 51.953125 
L 57.71875 49.75 
Q 55.21875 57.5625 50.484375 61.125 
Q 45.75 64.703125 38.578125 64.703125 
Q 30.328125 64.703125 24.78125 60.734375 
Q 19.234375 56.78125 16.984375 50.109375 
Q 14.75 43.453125 14.75 36.375 
Q 14.75 27.25 17.40625 20.4375 
Q 20.0625 13.625 25.671875 10.25 
Q 31.296875 6.890625 37.84375 6.890625 
Q 45.796875 6.890625 51.3125 11.46875 
Q 56.84375 16.0625 58.796875 25.09375 
" id="ArialMT-43"/>
     <path d="M 3.171875 21.484375 
L 3.171875 30.328125 
L 30.171875 30.328125 
L 30.171875 21.484375 
z
" id="ArialMT-2d"/>
     <path d="M 6.59375 -19.875 
L 6.59375 51.859375 
L 14.59375 51.859375 
L 14.59375 45.125 
Q 17.4375 49.078125 21 51.046875 
Q 24.5625 53.03125 29.640625 53.03125 
Q 36.28125 53.03125 41.359375 49.609375 
Q 46.4375 46.1875 49.015625 39.953125 
Q 51.609375 33.734375 51.609375 26.3125 
Q 51.609375 18.359375 48.75 11.984375 
Q 45.90625 5.609375 40.453125 2.21875 
Q 35.015625 -1.171875 29 -1.171875 
Q 24.609375 -1.171875 21.109375 0.6875 
Q 17.625 2.546875 15.375 5.375 
L 15.375 -19.875 
z
M 14.546875 25.640625 
Q 14.546875 15.625 18.59375 10.84375 
Q 22.65625 6.0625 28.421875 6.0625 
Q 34.28125 6.0625 38.453125 11.015625 
Q 42.625 15.96875 42.625 26.375 
Q 42.625 36.28125 38.546875 41.203125 
Q 34.46875 46.140625 28.8125 46.140625 
Q 23.1875 46.140625 18.859375 40.890625 
Q 14.546875 35.640625 14.546875 25.640625 
" id="ArialMT-70"/>
     <path d="M 7.71875 0 
L 7.71875 71.578125 
L 32.375 71.578125 
Q 40.71875 71.578125 45.125 70.5625 
Q 51.265625 69.140625 55.609375 65.4375 
Q 61.28125 60.640625 64.078125 53.1875 
Q 66.890625 45.75 66.890625 36.1875 
Q 66.890625 28.03125 64.984375 21.734375 
Q 63.09375 15.4375 60.109375 11.296875 
Q 57.125 7.171875 53.578125 4.796875 
Q 50.046875 2.4375 45.046875 1.21875 
Q 40.046875 0 33.546875 0 
z
M 17.1875 8.453125 
L 32.46875 8.453125 
Q 39.546875 8.453125 43.578125 9.765625 
Q 47.609375 11.078125 50 13.484375 
Q 53.375 16.84375 55.25 22.53125 
Q 57.125 28.21875 57.125 36.328125 
Q 57.125 47.5625 53.4375 53.59375 
Q 49.75 59.625 44.484375 61.671875 
Q 40.671875 63.140625 32.234375 63.140625 
L 17.1875 63.140625 
z
" id="ArialMT-44"/>
     <path d="M 7.421875 0 
L 7.421875 71.578125 
L 21.6875 71.578125 
L 38.625 20.90625 
Q 40.96875 13.8125 42.046875 10.296875 
Q 43.265625 14.203125 45.84375 21.78125 
L 62.984375 71.578125 
L 75.734375 71.578125 
L 75.734375 0 
L 66.609375 0 
L 66.609375 59.90625 
L 45.796875 0 
L 37.25 0 
L 16.546875 60.9375 
L 16.546875 0 
z
" id="ArialMT-4d"/>
     <path d="M 54.6875 71.578125 
L 64.15625 71.578125 
L 64.15625 30.21875 
Q 64.15625 19.4375 61.71875 13.078125 
Q 59.28125 6.734375 52.90625 2.75 
Q 46.53125 -1.21875 36.1875 -1.21875 
Q 26.125 -1.21875 19.71875 2.25 
Q 13.328125 5.71875 10.59375 12.28125 
Q 7.859375 18.84375 7.859375 30.21875 
L 7.859375 71.578125 
L 17.328125 71.578125 
L 17.328125 30.28125 
Q 17.328125 20.953125 19.0625 16.53125 
Q 20.796875 12.109375 25.015625 9.71875 
Q 29.25 7.328125 35.359375 7.328125 
Q 45.796875 7.328125 50.234375 12.0625 
Q 54.6875 16.796875 54.6875 30.28125 
z
" id="ArialMT-55"/>
     <path d="M 25.046875 11.578125 
L 25.046875 31.203125 
L 5.5625 31.203125 
L 5.5625 39.40625 
L 25.046875 39.40625 
L 25.046875 58.890625 
L 33.34375 58.890625 
L 33.34375 39.40625 
L 52.828125 39.40625 
L 52.828125 31.203125 
L 33.34375 31.203125 
L 33.34375 11.578125 
z
" id="ArialMT-2b"/>
     <path d="M 6.59375 0 
L 6.59375 51.859375 
L 14.5 51.859375 
L 14.5 44.484375 
Q 20.21875 53.03125 31 53.03125 
Q 35.6875 53.03125 39.625 51.34375 
Q 43.5625 49.65625 45.515625 46.921875 
Q 47.46875 44.1875 48.25 40.4375 
Q 48.734375 37.984375 48.734375 31.890625 
L 48.734375 0 
L 39.9375 0 
L 39.9375 31.546875 
Q 39.9375 36.921875 38.90625 39.578125 
Q 37.890625 42.234375 35.28125 43.8125 
Q 32.671875 45.40625 29.15625 45.40625 
Q 23.53125 45.40625 19.453125 41.84375 
Q 15.375 38.28125 15.375 28.328125 
L 15.375 0 
z
" id="ArialMT-6e"/>
     <path d="M 6.59375 0 
L 6.59375 51.859375 
L 14.453125 51.859375 
L 14.453125 44.578125 
Q 16.890625 48.390625 20.9375 50.703125 
Q 25 53.03125 30.171875 53.03125 
Q 35.9375 53.03125 39.625 50.640625 
Q 43.3125 48.25 44.828125 43.953125 
Q 50.984375 53.03125 60.84375 53.03125 
Q 68.5625 53.03125 72.703125 48.75 
Q 76.859375 44.484375 76.859375 35.59375 
L 76.859375 0 
L 68.109375 0 
L 68.109375 32.671875 
Q 68.109375 37.9375 67.25 40.25 
Q 66.40625 42.578125 64.15625 43.984375 
Q 61.921875 45.40625 58.890625 45.40625 
Q 53.421875 45.40625 49.796875 41.765625 
Q 46.1875 38.140625 46.1875 30.125 
L 46.1875 0 
L 37.40625 0 
L 37.40625 33.6875 
Q 37.40625 39.546875 35.25 42.46875 
Q 33.109375 45.40625 28.21875 45.40625 
Q 24.515625 45.40625 21.359375 43.453125 
Q 18.21875 41.5 16.796875 37.734375 
Q 15.375 33.984375 15.375 26.90625 
L 15.375 0 
z
" id="ArialMT-6d"/>
     <path d="M 7.328125 0 
L 7.328125 71.578125 
L 16.796875 71.578125 
L 16.796875 8.453125 
L 52.046875 8.453125 
L 52.046875 0 
z
" id="ArialMT-4c"/>
     <path d="M 4.203125 18.890625 
L 12.984375 20.0625 
Q 14.5 12.59375 18.140625 9.296875 
Q 21.78125 6 27 6 
Q 33.203125 6 37.46875 10.296875 
Q 41.75 14.59375 41.75 20.953125 
Q 41.75 27 37.796875 30.921875 
Q 33.84375 34.859375 27.734375 34.859375 
Q 25.25 34.859375 21.53125 33.890625 
L 22.515625 41.609375 
Q 23.390625 41.5 23.921875 41.5 
Q 29.546875 41.5 34.03125 44.421875 
Q 38.53125 47.359375 38.53125 53.46875 
Q 38.53125 58.296875 35.25 61.46875 
Q 31.984375 64.65625 26.8125 64.65625 
Q 21.6875 64.65625 18.265625 61.421875 
Q 14.84375 58.203125 13.875 51.765625 
L 5.078125 53.328125 
Q 6.6875 62.15625 12.390625 67.015625 
Q 18.109375 71.875 26.609375 71.875 
Q 32.46875 71.875 37.390625 69.359375 
Q 42.328125 66.84375 44.9375 62.5 
Q 47.5625 58.15625 47.5625 53.265625 
Q 47.5625 48.640625 45.0625 44.828125 
Q 42.578125 41.015625 37.703125 38.765625 
Q 44.046875 37.3125 47.5625 32.6875 
Q 51.078125 28.078125 51.078125 21.140625 
Q 51.078125 11.765625 44.234375 5.25 
Q 37.40625 -1.265625 26.953125 -1.265625 
Q 17.53125 -1.265625 11.296875 4.34375 
Q 5.078125 9.96875 4.203125 18.890625 
" id="ArialMT-33"/>
     <path d="M 8.890625 0 
L 8.890625 10.015625 
L 18.890625 10.015625 
L 18.890625 0 
Q 18.890625 -5.515625 16.9375 -8.90625 
Q 14.984375 -12.3125 10.75 -14.15625 
L 8.296875 -10.40625 
Q 11.078125 -9.1875 12.390625 -6.8125 
Q 13.71875 -4.4375 13.875 0 
z
" id="ArialMT-2c"/>
     <path d="M 1.953125 0 
L 1.953125 7.125 
L 34.96875 45.015625 
Q 29.34375 44.734375 25.046875 44.734375 
L 3.90625 44.734375 
L 3.90625 51.859375 
L 46.296875 51.859375 
L 46.296875 46.046875 
L 18.21875 13.140625 
L 12.796875 7.125 
Q 18.703125 7.5625 23.875 7.5625 
L 47.859375 7.5625 
L 47.859375 0 
z
" id="ArialMT-7a"/>
     <path d="M 4.828125 34.859375 
Q 4.828125 52.6875 14.390625 62.765625 
Q 23.96875 72.859375 39.109375 72.859375 
Q 49.03125 72.859375 56.984375 68.109375 
Q 64.9375 63.375 69.109375 54.90625 
Q 73.296875 46.4375 73.296875 35.6875 
Q 73.296875 24.8125 68.890625 16.21875 
Q 64.5 7.625 56.4375 3.203125 
Q 48.390625 -1.21875 39.0625 -1.21875 
Q 28.953125 -1.21875 20.984375 3.65625 
Q 13.03125 8.546875 8.921875 16.984375 
Q 4.828125 25.4375 4.828125 34.859375 
M 14.59375 34.71875 
Q 14.59375 21.78125 21.546875 14.328125 
Q 28.515625 6.890625 39.015625 6.890625 
Q 49.703125 6.890625 56.609375 14.40625 
Q 63.53125 21.921875 63.53125 35.75 
Q 63.53125 44.484375 60.578125 51 
Q 57.625 57.515625 51.921875 61.109375 
Q 46.234375 64.703125 39.15625 64.703125 
Q 29.109375 64.703125 21.84375 57.78125 
Q 14.59375 50.875 14.59375 34.71875 
" id="ArialMT-4f"/>
    </defs>
    <g style="fill:#262626;" transform="translate(-79.695 52.42)scale(0.18 -0.18)">
     <use xlink:href="#ArialMT-52"/>
     <use x="72.216796875" xlink:href="#ArialMT-4f"/>
     <use x="150.0" xlink:href="#ArialMT-43"/>
     <use x="222.216796875" xlink:href="#ArialMT-20"/>
     <use x="250.0" xlink:href="#ArialMT-4c"/>
     <use x="305.615234375" xlink:href="#ArialMT-44"/>
     <use x="377.83203125" xlink:href="#ArialMT-20"/>
     <use x="405.615234375" xlink:href="#ArialMT-44"/>
     <use x="477.83203125" xlink:href="#ArialMT-45"/>
     <use x="544.53125" xlink:href="#ArialMT-43"/>
     <use x="616.748046875" xlink:href="#ArialMT-20"/>
     <use x="644.53125" xlink:href="#ArialMT-6f"/>
     <use x="700.146484375" xlink:href="#ArialMT-70"/>
     <use x="755.76171875" xlink:href="#ArialMT-74"/>
     <use x="783.544921875" xlink:href="#ArialMT-69"/>
     <use x="805.76171875" xlink:href="#ArialMT-6d"/>
     <use x="889.0625" xlink:href="#ArialMT-69"/>
     <use x="911.279296875" xlink:href="#ArialMT-7a"/>
     <use x="961.279296875" xlink:href="#ArialMT-65"/>
     <use x="1016.89453125" xlink:href="#ArialMT-64"/>
     <use x="1072.50976562" xlink:href="#ArialMT-20"/>
     <use x="1100.29296875" xlink:href="#ArialMT-73"/>
     <use x="1150.29296875" xlink:href="#ArialMT-70"/>
     <use x="1205.90820312" xlink:href="#ArialMT-61"/>
     <use x="1261.5234375" xlink:href="#ArialMT-63"/>
     <use x="1311.5234375" xlink:href="#ArialMT-65"/>
     <use x="1367.13867188" xlink:href="#ArialMT-3d"/>
     <use x="1425.53710938" xlink:href="#ArialMT-33"/>
     <use x="1481.15234375" xlink:href="#ArialMT-37"/>
     <use x="1536.76757812" xlink:href="#ArialMT-37"/>
     <use x="1592.3828125" xlink:href="#ArialMT-2c"/>
     <use x="1620.16601562" xlink:href="#ArialMT-20"/>
     <use x="1647.94921875" xlink:href="#ArialMT-61"/>
     <use x="1703.56445312" xlink:href="#ArialMT-6c"/>
     <use x="1725.78125" xlink:href="#ArialMT-6c"/>
     <use x="1747.99804688" xlink:href="#ArialMT-20"/>
     <use x="1775.78125" xlink:href="#ArialMT-66"/>
     <use x="1803.56445312" xlink:href="#ArialMT-65"/>
     <use x="1859.1796875" xlink:href="#ArialMT-61"/>
     <use x="1914.79492188" xlink:href="#ArialMT-74"/>
     <use x="1942.578125" xlink:href="#ArialMT-75"/>
     <use x="1998.19335938" xlink:href="#ArialMT-72"/>
     <use x="2031.49414062" xlink:href="#ArialMT-65"/>
     <use x="2087.109375" xlink:href="#ArialMT-73"/>
     <use x="2137.109375" xlink:href="#ArialMT-3d"/>
     <use x="2195.5078125" xlink:href="#ArialMT-32"/>
     <use x="2251.12304688" xlink:href="#ArialMT-36"/>
     <use x="2306.73828125" xlink:href="#ArialMT-34"/>
     <use x="2362.35351562" xlink:href="#ArialMT-20"/>
     <use x="2390.13671875" xlink:href="#ArialMT-2d"/>
     <use x="2423.4375" xlink:href="#ArialMT-20"/>
     <use x="2451.22070312" xlink:href="#ArialMT-55"/>
     <use x="2523.4375" xlink:href="#ArialMT-6e"/>
     <use x="2579.05273438" xlink:href="#ArialMT-73"/>
     <use x="2629.05273438" xlink:href="#ArialMT-75"/>
     <use x="2684.66796875" xlink:href="#ArialMT-70"/>
     <use x="2740.28320312" xlink:href="#ArialMT-65"/>
     <use x="2795.8984375" xlink:href="#ArialMT-72"/>
     <use x="2829.19921875" xlink:href="#ArialMT-76"/>
     <use x="2879.19921875" xlink:href="#ArialMT-69"/>
     <use x="2901.41601562" xlink:href="#ArialMT-73"/>
     <use x="2951.41601562" xlink:href="#ArialMT-65"/>
     <use x="3007.03125" xlink:href="#ArialMT-64"/>
     <use x="3062.64648438" xlink:href="#ArialMT-20"/>
     <use x="3090.4296875" xlink:href="#ArialMT-44"/>
     <use x="3162.64648438" xlink:href="#ArialMT-45"/>
     <use x="3229.34570312" xlink:href="#ArialMT-43"/>
     <use x="3301.5625" xlink:href="#ArialMT-20"/>
     <use x="3329.34570312" xlink:href="#ArialMT-2b"/>
     <use x="3387.74414062" xlink:href="#ArialMT-20"/>
     <use x="3415.52734375" xlink:href="#ArialMT-63"/>
     <use x="3465.52734375" xlink:href="#ArialMT-76"/>
     <use x="3515.52734375" xlink:href="#ArialMT-20"/>
     <use x="3543.31054688" xlink:href="#ArialMT-4d"/>
     <use x="3626.61132812" xlink:href="#ArialMT-4c"/>
     <use x="3682.2265625" xlink:href="#ArialMT-50"/>
     <use x="3748.91015625" xlink:href="#ArialMT-20"/>
     <use x="3776.69335938" xlink:href="#ArialMT-63"/>
     <use x="3826.69335938" xlink:href="#ArialMT-6c"/>
     <use x="3848.91015625" xlink:href="#ArialMT-61"/>
     <use x="3904.52539062" xlink:href="#ArialMT-73"/>
     <use x="3954.52539062" xlink:href="#ArialMT-73"/>
     <use x="4004.52539062" xlink:href="#ArialMT-69"/>
     <use x="4026.7421875" xlink:href="#ArialMT-66"/>
     <use x="4054.52539062" xlink:href="#ArialMT-69"/>
     <use x="4076.7421875" xlink:href="#ArialMT-65"/>
     <use x="4132.35742188" xlink:href="#ArialMT-72"/>
    </g>
   </g>
   <g id="legend_1">
    <g id="line2d_42">
     <path d="M 175.14 412.43625 
L 211.14 412.43625 
" style="fill:none;stroke:#001c7f;stroke-linecap:round;stroke-width:3.0;"/>
    </g>
    <g id="line2d_43"/>
    <g id="text_16">
     <!-- DEC cv Train (AUC = 0.81 $\pm$ 0.10) -->
     <defs>
      <path d="M -0.140625 0 
L 27.34375 71.578125 
L 37.546875 71.578125 
L 66.84375 0 
L 56.0625 0 
L 47.703125 21.6875 
L 17.78125 21.6875 
L 9.90625 0 
z
M 20.515625 29.390625 
L 44.78125 29.390625 
L 37.3125 49.21875 
Q 33.890625 58.25 32.234375 64.0625 
Q 30.859375 57.171875 28.375 50.390625 
z
" id="ArialMT-41"/>
      <path d="M 7.515625 0 
Q 6.6875 0 6.140625 0.578125 
Q 5.609375 1.171875 5.609375 2 
Q 5.609375 2.734375 6.140625 3.359375 
Q 6.6875 4 7.515625 4 
L 36.921875 4 
L 36.921875 31.296875 
L 7.515625 31.296875 
Q 6.6875 31.296875 6.140625 31.921875 
Q 5.609375 32.5625 5.609375 33.296875 
Q 5.609375 34.03125 6.140625 34.65625 
Q 6.6875 35.296875 7.515625 35.296875 
L 36.921875 35.296875 
L 36.921875 64.796875 
Q 36.921875 65.578125 37.5 66.09375 
Q 38.09375 66.609375 38.921875 66.609375 
Q 39.59375 66.609375 40.25 66.09375 
Q 40.921875 65.578125 40.921875 64.796875 
L 40.921875 35.296875 
L 70.3125 35.296875 
Q 71.046875 35.296875 71.578125 34.65625 
Q 72.125 34.03125 72.125 33.296875 
Q 72.125 32.5625 71.578125 31.921875 
Q 71.046875 31.296875 70.3125 31.296875 
L 40.921875 31.296875 
L 40.921875 4 
L 70.3125 4 
Q 71.046875 4 71.578125 3.359375 
Q 72.125 2.734375 72.125 2 
Q 72.125 1.171875 71.578125 0.578125 
Q 71.046875 0 70.3125 0 
z
" id="Cmsy10-a7"/>
      <path d="M 12.359375 -21.046875 
L 6.0625 -21.046875 
Q 20.65625 2.390625 20.65625 25.875 
Q 20.65625 35.0625 18.5625 44.09375 
Q 16.890625 51.421875 13.921875 58.15625 
Q 12.015625 62.546875 6.0625 72.796875 
L 12.359375 72.796875 
Q 21.53125 60.546875 25.921875 48.1875 
Q 29.6875 37.546875 29.6875 25.921875 
Q 29.6875 12.75 24.625 0.4375 
Q 19.578125 -11.859375 12.359375 -21.046875 
" id="ArialMT-29"/>
      <path d="M 23.390625 -21.046875 
Q 16.109375 -11.859375 11.078125 0.4375 
Q 6.0625 12.75 6.0625 25.921875 
Q 6.0625 37.546875 9.8125 48.1875 
Q 14.203125 60.546875 23.390625 72.796875 
L 29.6875 72.796875 
Q 23.78125 62.640625 21.875 58.296875 
Q 18.890625 51.5625 17.1875 44.234375 
Q 15.09375 35.109375 15.09375 25.875 
Q 15.09375 2.390625 29.6875 -21.046875 
z
" id="ArialMT-28"/>
     </defs>
     <g style="fill:#262626;" transform="translate(225.54 418.73625)scale(0.18 -0.18)">
      <use transform="translate(0.0 0.203125)" xlink:href="#ArialMT-44"/>
      <use transform="translate(72.216796875 0.203125)" xlink:href="#ArialMT-45"/>
      <use transform="translate(138.916015625 0.203125)" xlink:href="#ArialMT-43"/>
      <use transform="translate(211.1328125 0.203125)" xlink:href="#ArialMT-20"/>
      <use transform="translate(238.916015625 0.203125)" xlink:href="#ArialMT-63"/>
      <use transform="translate(288.916015625 0.203125)" xlink:href="#ArialMT-76"/>
      <use transform="translate(338.916015625 0.203125)" xlink:href="#ArialMT-20"/>
      <use transform="translate(366.69921875 0.203125)" xlink:href="#ArialMT-54"/>
      <use transform="translate(427.783203125 0.203125)" xlink:href="#ArialMT-72"/>
      <use transform="translate(461.083984375 0.203125)" xlink:href="#ArialMT-61"/>
      <use transform="translate(516.69921875 0.203125)" xlink:href="#ArialMT-69"/>
      <use transform="translate(538.916015625 0.203125)" xlink:href="#ArialMT-6e"/>
      <use transform="translate(594.53125 0.203125)" xlink:href="#ArialMT-20"/>
      <use transform="translate(622.314453125 0.203125)" xlink:href="#ArialMT-28"/>
      <use transform="translate(655.615234375 0.203125)" xlink:href="#ArialMT-41"/>
      <use transform="translate(722.314453125 0.203125)" xlink:href="#ArialMT-55"/>
      <use transform="translate(794.53125 0.203125)" xlink:href="#ArialMT-43"/>
      <use transform="translate(866.748046875 0.203125)" xlink:href="#ArialMT-20"/>
      <use transform="translate(894.53125 0.203125)" xlink:href="#ArialMT-3d"/>
      <use transform="translate(952.9296875 0.203125)" xlink:href="#ArialMT-20"/>
      <use transform="translate(980.712890625 0.203125)" xlink:href="#ArialMT-30"/>
      <use transform="translate(1036.328125 0.203125)" xlink:href="#ArialMT-2e"/>
      <use transform="translate(1064.11132812 0.203125)" xlink:href="#ArialMT-38"/>
      <use transform="translate(1119.7265625 0.203125)" xlink:href="#ArialMT-31"/>
      <use transform="translate(1175.34179688 0.203125)" xlink:href="#ArialMT-20"/>
      <use transform="translate(1203.125 0.203125)" xlink:href="#Cmsy10-a7"/>
      <use transform="translate(1280.81054688 0.203125)" xlink:href="#ArialMT-20"/>
      <use transform="translate(1308.59375 0.203125)" xlink:href="#ArialMT-30"/>
      <use transform="translate(1364.20898438 0.203125)" xlink:href="#ArialMT-2e"/>
      <use transform="translate(1391.9921875 0.203125)" xlink:href="#ArialMT-31"/>
      <use transform="translate(1447.60742188 0.203125)" xlink:href="#ArialMT-30"/>
      <use transform="translate(1503.22265625 0.203125)" xlink:href="#ArialMT-29"/>
     </g>
    </g>
    <g id="line2d_44">
     <path d="M 175.14 438.499687 
L 211.14 438.499687 
" style="fill:none;stroke:#017517;stroke-linecap:round;stroke-width:3.0;"/>
    </g>
    <g id="line2d_45"/>
    <g id="text_17">
     <!-- DEC Test (AUC = 0.78) -->
     <g style="fill:#262626;" transform="translate(225.54 444.7996875)scale(0.18 -0.18)">
      <use xlink:href="#ArialMT-44"/>
      <use x="72.216796875" xlink:href="#ArialMT-45"/>
      <use x="138.916015625" xlink:href="#ArialMT-43"/>
      <use x="211.1328125" xlink:href="#ArialMT-20"/>
      <use x="238.900390625" xlink:href="#ArialMT-54"/>
      <use x="299.8125" xlink:href="#ArialMT-65"/>
      <use x="355.427734375" xlink:href="#ArialMT-73"/>
      <use x="405.427734375" xlink:href="#ArialMT-74"/>
      <use x="433.2109375" xlink:href="#ArialMT-20"/>
      <use x="460.994140625" xlink:href="#ArialMT-28"/>
      <use x="494.294921875" xlink:href="#ArialMT-41"/>
      <use x="560.994140625" xlink:href="#ArialMT-55"/>
      <use x="633.2109375" xlink:href="#ArialMT-43"/>
      <use x="705.427734375" xlink:href="#ArialMT-20"/>
      <use x="733.2109375" xlink:href="#ArialMT-3d"/>
      <use x="791.609375" xlink:href="#ArialMT-20"/>
      <use x="819.392578125" xlink:href="#ArialMT-30"/>
      <use x="875.0078125" xlink:href="#ArialMT-2e"/>
      <use x="902.791015625" xlink:href="#ArialMT-37"/>
      <use x="958.40625" xlink:href="#ArialMT-38"/>
      <use x="1014.02148438" xlink:href="#ArialMT-29"/>
     </g>
    </g>
    <g id="line2d_46">
     <path d="M 175.14 464.428125 
L 211.14 464.428125 
" style="fill:none;opacity:0.8;stroke:#001c7f;stroke-dasharray:6.000000,6.000000;stroke-dashoffset:0.0;stroke-width:3.0;"/>
    </g>
    <g id="line2d_47"/>
    <g id="text_18">
     <!-- HD cv Train (AUC = 0.68 $\pm$ 0.06) -->
     <defs>
      <path d="M 8.015625 0 
L 8.015625 71.578125 
L 17.484375 71.578125 
L 17.484375 42.1875 
L 54.6875 42.1875 
L 54.6875 71.578125 
L 64.15625 71.578125 
L 64.15625 0 
L 54.6875 0 
L 54.6875 33.734375 
L 17.484375 33.734375 
L 17.484375 0 
z
" id="ArialMT-48"/>
     </defs>
     <g style="fill:#262626;" transform="translate(225.54 470.728125)scale(0.18 -0.18)">
      <use transform="translate(0.0 0.203125)" xlink:href="#ArialMT-48"/>
      <use transform="translate(72.216796875 0.203125)" xlink:href="#ArialMT-44"/>
      <use transform="translate(144.43359375 0.203125)" xlink:href="#ArialMT-20"/>
      <use transform="translate(172.216796875 0.203125)" xlink:href="#ArialMT-63"/>
      <use transform="translate(222.216796875 0.203125)" xlink:href="#ArialMT-76"/>
      <use transform="translate(272.216796875 0.203125)" xlink:href="#ArialMT-20"/>
      <use transform="translate(300.0 0.203125)" xlink:href="#ArialMT-54"/>
      <use transform="translate(361.083984375 0.203125)" xlink:href="#ArialMT-72"/>
      <use transform="translate(394.384765625 0.203125)" xlink:href="#ArialMT-61"/>
      <use transform="translate(450.0 0.203125)" xlink:href="#ArialMT-69"/>
      <use transform="translate(472.216796875 0.203125)" xlink:href="#ArialMT-6e"/>
      <use transform="translate(527.83203125 0.203125)" xlink:href="#ArialMT-20"/>
      <use transform="translate(555.615234375 0.203125)" xlink:href="#ArialMT-28"/>
      <use transform="translate(588.916015625 0.203125)" xlink:href="#ArialMT-41"/>
      <use transform="translate(655.615234375 0.203125)" xlink:href="#ArialMT-55"/>
      <use transform="translate(727.83203125 0.203125)" xlink:href="#ArialMT-43"/>
      <use transform="translate(800.048828125 0.203125)" xlink:href="#ArialMT-20"/>
      <use transform="translate(827.83203125 0.203125)" xlink:href="#ArialMT-3d"/>
      <use transform="translate(886.23046875 0.203125)" xlink:href="#ArialMT-20"/>
      <use transform="translate(914.013671875 0.203125)" xlink:href="#ArialMT-30"/>
      <use transform="translate(969.62890625 0.203125)" xlink:href="#ArialMT-2e"/>
      <use transform="translate(997.412109375 0.203125)" xlink:href="#ArialMT-36"/>
      <use transform="translate(1053.02734375 0.203125)" xlink:href="#ArialMT-38"/>
      <use transform="translate(1108.64257812 0.203125)" xlink:href="#ArialMT-20"/>
      <use transform="translate(1136.42578125 0.203125)" xlink:href="#Cmsy10-a7"/>
      <use transform="translate(1214.11132812 0.203125)" xlink:href="#ArialMT-20"/>
      <use transform="translate(1241.89453125 0.203125)" xlink:href="#ArialMT-30"/>
      <use transform="translate(1297.50976562 0.203125)" xlink:href="#ArialMT-2e"/>
      <use transform="translate(1325.29296875 0.203125)" xlink:href="#ArialMT-30"/>
      <use transform="translate(1380.90820312 0.203125)" xlink:href="#ArialMT-36"/>
      <use transform="translate(1436.5234375 0.203125)" xlink:href="#ArialMT-29"/>
     </g>
    </g>
    <g id="line2d_48">
     <path d="M 175.14 490.491562 
L 211.14 490.491562 
" style="fill:none;opacity:0.8;stroke:#017517;stroke-dasharray:6.000000,6.000000;stroke-dashoffset:0.0;stroke-width:3.0;"/>
    </g>
    <g id="line2d_49"/>
    <g id="text_19">
     <!-- HD Test (AUC = 0.67) -->
     <g style="fill:#262626;" transform="translate(225.54 496.7915625)scale(0.18 -0.18)">
      <use xlink:href="#ArialMT-48"/>
      <use x="72.216796875" xlink:href="#ArialMT-44"/>
      <use x="144.43359375" xlink:href="#ArialMT-20"/>
      <use x="172.201171875" xlink:href="#ArialMT-54"/>
      <use x="233.11328125" xlink:href="#ArialMT-65"/>
      <use x="288.728515625" xlink:href="#ArialMT-73"/>
      <use x="338.728515625" xlink:href="#ArialMT-74"/>
      <use x="366.51171875" xlink:href="#ArialMT-20"/>
      <use x="394.294921875" xlink:href="#ArialMT-28"/>
      <use x="427.595703125" xlink:href="#ArialMT-41"/>
      <use x="494.294921875" xlink:href="#ArialMT-55"/>
      <use x="566.51171875" xlink:href="#ArialMT-43"/>
      <use x="638.728515625" xlink:href="#ArialMT-20"/>
      <use x="666.51171875" xlink:href="#ArialMT-3d"/>
      <use x="724.91015625" xlink:href="#ArialMT-20"/>
      <use x="752.693359375" xlink:href="#ArialMT-30"/>
      <use x="808.30859375" xlink:href="#ArialMT-2e"/>
      <use x="836.091796875" xlink:href="#ArialMT-36"/>
      <use x="891.70703125" xlink:href="#ArialMT-37"/>
      <use x="947.322265625" xlink:href="#ArialMT-29"/>
     </g>
    </g>
   </g>
  </g>
 </g>
 <defs>
  <clipPath id="p49d0aea71e">
   <rect height="459.36" width="446.4" x="72.0" y="57.42"/>
  </clipPath>
 </defs>
</svg>
