<?xml version="1.0" encoding="utf-8" standalone="no"?>
<!DOCTYPE svg PUBLIC "-//W3C//DTD SVG 1.1//EN"
  "http://www.w3.org/Graphics/SVG/1.1/DTD/svg11.dtd">
<!-- Created with matplotlib (http://matplotlib.org/) -->
<svg height="430pt" version="1.1" viewBox="0 0 1296 430" width="1296pt" xmlns="http://www.w3.org/2000/svg" xmlns:xlink="http://www.w3.org/1999/xlink">
 <defs>
  <style type="text/css">
*{stroke-linecap:butt;stroke-linejoin:round;stroke-miterlimit:100000;}
  </style>
 </defs>
 <g id="figure_1">
  <g id="patch_1">
   <path d="M 0 430.2 
L 1296 430.2 
L 1296 0 
L 0 0 
z
" style="fill:#ffffff;"/>
  </g>
  <g id="axes_1">
   <g id="patch_2">
    <path d="M 162 387.18 
L 457.411765 387.18 
L 457.411765 43.02 
L 162 43.02 
z
" style="fill:#eaeaf2;"/>
   </g>
   <g id="matplotlib.axis_1">
    <g id="xtick_1">
     <g id="line2d_1">
      <defs>
       <path d="M 0 0 
L 0 0 
" id="m4968470c1d" style="stroke:#262626;"/>
      </defs>
      <g>
       <use style="fill:#262626;stroke:#262626;" x="162.0" xlink:href="#m4968470c1d" y="387.18"/>
      </g>
     </g>
     <g id="line2d_2">
      <g>
       <use style="fill:#262626;stroke:#262626;" x="162.0" xlink:href="#m4968470c1d" y="43.02"/>
      </g>
     </g>
     <g id="text_1">
      <!-- 0.0 -->
      <defs>
       <path d="M 4.15625 35.296875 
Q 4.15625 48 6.765625 55.734375 
Q 9.375 63.484375 14.515625 67.671875 
Q 19.671875 71.875 27.484375 71.875 
Q 33.25 71.875 37.59375 69.546875 
Q 41.9375 67.234375 44.765625 62.859375 
Q 47.609375 58.5 49.21875 52.21875 
Q 50.828125 45.953125 50.828125 35.296875 
Q 50.828125 22.703125 48.234375 14.96875 
Q 45.65625 7.234375 40.5 3 
Q 35.359375 -1.21875 27.484375 -1.21875 
Q 17.140625 -1.21875 11.234375 6.203125 
Q 4.15625 15.140625 4.15625 35.296875 
M 13.1875 35.296875 
Q 13.1875 17.671875 17.3125 11.828125 
Q 21.4375 6 27.484375 6 
Q 33.546875 6 37.671875 11.859375 
Q 41.796875 17.71875 41.796875 35.296875 
Q 41.796875 52.984375 37.671875 58.78125 
Q 33.546875 64.59375 27.390625 64.59375 
Q 21.34375 64.59375 17.71875 59.46875 
Q 13.1875 52.9375 13.1875 35.296875 
" id="ArialMT-30"/>
       <path d="M 9.078125 0 
L 9.078125 10.015625 
L 19.09375 10.015625 
L 19.09375 0 
z
" id="ArialMT-2e"/>
      </defs>
      <g style="fill:#262626;" transform="translate(155.05 401.3378125)scale(0.1 -0.1)">
       <use xlink:href="#ArialMT-30"/>
       <use x="55.615234375" xlink:href="#ArialMT-2e"/>
       <use x="83.3984375" xlink:href="#ArialMT-30"/>
      </g>
     </g>
    </g>
    <g id="xtick_2">
     <g id="line2d_3">
      <g>
       <use style="fill:#262626;stroke:#262626;" x="221.082352941" xlink:href="#m4968470c1d" y="387.18"/>
      </g>
     </g>
     <g id="line2d_4">
      <g>
       <use style="fill:#262626;stroke:#262626;" x="221.082352941" xlink:href="#m4968470c1d" y="43.02"/>
      </g>
     </g>
     <g id="text_2">
      <!-- 0.2 -->
      <defs>
       <path d="M 50.34375 8.453125 
L 50.34375 0 
L 3.03125 0 
Q 2.9375 3.171875 4.046875 6.109375 
Q 5.859375 10.9375 9.828125 15.625 
Q 13.8125 20.3125 21.34375 26.46875 
Q 33.015625 36.03125 37.109375 41.625 
Q 41.21875 47.21875 41.21875 52.203125 
Q 41.21875 57.421875 37.46875 61 
Q 33.734375 64.59375 27.734375 64.59375 
Q 21.390625 64.59375 17.578125 60.78125 
Q 13.765625 56.984375 13.71875 50.25 
L 4.6875 51.171875 
Q 5.609375 61.28125 11.65625 66.578125 
Q 17.71875 71.875 27.9375 71.875 
Q 38.234375 71.875 44.234375 66.15625 
Q 50.25 60.453125 50.25 52 
Q 50.25 47.703125 48.484375 43.546875 
Q 46.734375 39.40625 42.65625 34.8125 
Q 38.578125 30.21875 29.109375 22.21875 
Q 21.1875 15.578125 18.9375 13.203125 
Q 16.703125 10.84375 15.234375 8.453125 
z
" id="ArialMT-32"/>
      </defs>
      <g style="fill:#262626;" transform="translate(214.132352941 401.3378125)scale(0.1 -0.1)">
       <use xlink:href="#ArialMT-30"/>
       <use x="55.615234375" xlink:href="#ArialMT-2e"/>
       <use x="83.3984375" xlink:href="#ArialMT-32"/>
      </g>
     </g>
    </g>
    <g id="xtick_3">
     <g id="line2d_5">
      <g>
       <use style="fill:#262626;stroke:#262626;" x="280.164705882" xlink:href="#m4968470c1d" y="387.18"/>
      </g>
     </g>
     <g id="line2d_6">
      <g>
       <use style="fill:#262626;stroke:#262626;" x="280.164705882" xlink:href="#m4968470c1d" y="43.02"/>
      </g>
     </g>
     <g id="text_3">
      <!-- 0.4 -->
      <defs>
       <path d="M 32.328125 0 
L 32.328125 17.140625 
L 1.265625 17.140625 
L 1.265625 25.203125 
L 33.9375 71.578125 
L 41.109375 71.578125 
L 41.109375 25.203125 
L 50.78125 25.203125 
L 50.78125 17.140625 
L 41.109375 17.140625 
L 41.109375 0 
z
M 32.328125 25.203125 
L 32.328125 57.46875 
L 9.90625 25.203125 
z
" id="ArialMT-34"/>
      </defs>
      <g style="fill:#262626;" transform="translate(273.214705882 401.3378125)scale(0.1 -0.1)">
       <use xlink:href="#ArialMT-30"/>
       <use x="55.615234375" xlink:href="#ArialMT-2e"/>
       <use x="83.3984375" xlink:href="#ArialMT-34"/>
      </g>
     </g>
    </g>
    <g id="xtick_4">
     <g id="line2d_7">
      <g>
       <use style="fill:#262626;stroke:#262626;" x="339.247058824" xlink:href="#m4968470c1d" y="387.18"/>
      </g>
     </g>
     <g id="line2d_8">
      <g>
       <use style="fill:#262626;stroke:#262626;" x="339.247058824" xlink:href="#m4968470c1d" y="43.02"/>
      </g>
     </g>
     <g id="text_4">
      <!-- 0.6 -->
      <defs>
       <path d="M 49.75 54.046875 
L 41.015625 53.375 
Q 39.84375 58.546875 37.703125 60.890625 
Q 34.125 64.65625 28.90625 64.65625 
Q 24.703125 64.65625 21.53125 62.3125 
Q 17.390625 59.28125 14.984375 53.46875 
Q 12.59375 47.65625 12.5 36.921875 
Q 15.671875 41.75 20.265625 44.09375 
Q 24.859375 46.4375 29.890625 46.4375 
Q 38.671875 46.4375 44.84375 39.96875 
Q 51.03125 33.5 51.03125 23.25 
Q 51.03125 16.5 48.125 10.71875 
Q 45.21875 4.9375 40.140625 1.859375 
Q 35.0625 -1.21875 28.609375 -1.21875 
Q 17.625 -1.21875 10.6875 6.859375 
Q 3.765625 14.9375 3.765625 33.5 
Q 3.765625 54.25 11.421875 63.671875 
Q 18.109375 71.875 29.4375 71.875 
Q 37.890625 71.875 43.28125 67.140625 
Q 48.6875 62.40625 49.75 54.046875 
M 13.875 23.1875 
Q 13.875 18.65625 15.796875 14.5 
Q 17.71875 10.359375 21.1875 8.171875 
Q 24.65625 6 28.46875 6 
Q 34.03125 6 38.03125 10.484375 
Q 42.046875 14.984375 42.046875 22.703125 
Q 42.046875 30.125 38.078125 34.390625 
Q 34.125 38.671875 28.125 38.671875 
Q 22.171875 38.671875 18.015625 34.390625 
Q 13.875 30.125 13.875 23.1875 
" id="ArialMT-36"/>
      </defs>
      <g style="fill:#262626;" transform="translate(332.297058824 401.3378125)scale(0.1 -0.1)">
       <use xlink:href="#ArialMT-30"/>
       <use x="55.615234375" xlink:href="#ArialMT-2e"/>
       <use x="83.3984375" xlink:href="#ArialMT-36"/>
      </g>
     </g>
    </g>
    <g id="xtick_5">
     <g id="line2d_9">
      <g>
       <use style="fill:#262626;stroke:#262626;" x="398.329411765" xlink:href="#m4968470c1d" y="387.18"/>
      </g>
     </g>
     <g id="line2d_10">
      <g>
       <use style="fill:#262626;stroke:#262626;" x="398.329411765" xlink:href="#m4968470c1d" y="43.02"/>
      </g>
     </g>
     <g id="text_5">
      <!-- 0.8 -->
      <defs>
       <path d="M 17.671875 38.8125 
Q 12.203125 40.828125 9.5625 44.53125 
Q 6.9375 48.25 6.9375 53.421875 
Q 6.9375 61.234375 12.546875 66.546875 
Q 18.171875 71.875 27.484375 71.875 
Q 36.859375 71.875 42.578125 66.421875 
Q 48.296875 60.984375 48.296875 53.171875 
Q 48.296875 48.1875 45.671875 44.5 
Q 43.0625 40.828125 37.75 38.8125 
Q 44.34375 36.671875 47.78125 31.875 
Q 51.21875 27.09375 51.21875 20.453125 
Q 51.21875 11.28125 44.71875 5.03125 
Q 38.234375 -1.21875 27.640625 -1.21875 
Q 17.046875 -1.21875 10.546875 5.046875 
Q 4.046875 11.328125 4.046875 20.703125 
Q 4.046875 27.6875 7.59375 32.390625 
Q 11.140625 37.109375 17.671875 38.8125 
M 15.921875 53.71875 
Q 15.921875 48.640625 19.1875 45.40625 
Q 22.46875 42.1875 27.6875 42.1875 
Q 32.765625 42.1875 36.015625 45.375 
Q 39.265625 48.578125 39.265625 53.21875 
Q 39.265625 58.0625 35.90625 61.359375 
Q 32.5625 64.65625 27.59375 64.65625 
Q 22.5625 64.65625 19.234375 61.421875 
Q 15.921875 58.203125 15.921875 53.71875 
M 13.09375 20.65625 
Q 13.09375 16.890625 14.875 13.375 
Q 16.65625 9.859375 20.171875 7.921875 
Q 23.6875 6 27.734375 6 
Q 34.03125 6 38.125 10.046875 
Q 42.234375 14.109375 42.234375 20.359375 
Q 42.234375 26.703125 38.015625 30.859375 
Q 33.796875 35.015625 27.4375 35.015625 
Q 21.234375 35.015625 17.15625 30.90625 
Q 13.09375 26.8125 13.09375 20.65625 
" id="ArialMT-38"/>
      </defs>
      <g style="fill:#262626;" transform="translate(391.379411765 401.3378125)scale(0.1 -0.1)">
       <use xlink:href="#ArialMT-30"/>
       <use x="55.615234375" xlink:href="#ArialMT-2e"/>
       <use x="83.3984375" xlink:href="#ArialMT-38"/>
      </g>
     </g>
    </g>
    <g id="xtick_6">
     <g id="line2d_11">
      <g>
       <use style="fill:#262626;stroke:#262626;" x="457.411764706" xlink:href="#m4968470c1d" y="387.18"/>
      </g>
     </g>
     <g id="line2d_12">
      <g>
       <use style="fill:#262626;stroke:#262626;" x="457.411764706" xlink:href="#m4968470c1d" y="43.02"/>
      </g>
     </g>
     <g id="text_6">
      <!-- 1.0 -->
      <defs>
       <path d="M 37.25 0 
L 28.46875 0 
L 28.46875 56 
Q 25.296875 52.984375 20.140625 49.953125 
Q 14.984375 46.921875 10.890625 45.40625 
L 10.890625 53.90625 
Q 18.265625 57.375 23.78125 62.296875 
Q 29.296875 67.234375 31.59375 71.875 
L 37.25 71.875 
z
" id="ArialMT-31"/>
      </defs>
      <g style="fill:#262626;" transform="translate(450.461764706 401.3378125)scale(0.1 -0.1)">
       <use xlink:href="#ArialMT-31"/>
       <use x="55.615234375" xlink:href="#ArialMT-2e"/>
       <use x="83.3984375" xlink:href="#ArialMT-30"/>
      </g>
     </g>
    </g>
    <g id="text_7">
     <!-- False Positive Rate -->
     <defs>
      <path d="M 40.4375 6.390625 
Q 35.546875 2.25 31.03125 0.53125 
Q 26.515625 -1.171875 21.34375 -1.171875 
Q 12.796875 -1.171875 8.203125 3 
Q 3.609375 7.171875 3.609375 13.671875 
Q 3.609375 17.484375 5.34375 20.625 
Q 7.078125 23.78125 9.890625 25.6875 
Q 12.703125 27.59375 16.21875 28.5625 
Q 18.796875 29.25 24.03125 29.890625 
Q 34.671875 31.15625 39.703125 32.90625 
Q 39.75 34.71875 39.75 35.203125 
Q 39.75 40.578125 37.25 42.78125 
Q 33.890625 45.75 27.25 45.75 
Q 21.046875 45.75 18.09375 43.578125 
Q 15.140625 41.40625 13.71875 35.890625 
L 5.125 37.0625 
Q 6.296875 42.578125 8.984375 45.96875 
Q 11.671875 49.359375 16.75 51.1875 
Q 21.828125 53.03125 28.515625 53.03125 
Q 35.15625 53.03125 39.296875 51.46875 
Q 43.453125 49.90625 45.40625 47.53125 
Q 47.359375 45.171875 48.140625 41.546875 
Q 48.578125 39.3125 48.578125 33.453125 
L 48.578125 21.734375 
Q 48.578125 9.46875 49.140625 6.21875 
Q 49.703125 2.984375 51.375 0 
L 42.1875 0 
Q 40.828125 2.734375 40.4375 6.390625 
M 39.703125 26.03125 
Q 34.90625 24.078125 25.34375 22.703125 
Q 19.921875 21.921875 17.671875 20.9375 
Q 15.4375 19.96875 14.203125 18.09375 
Q 12.984375 16.21875 12.984375 13.921875 
Q 12.984375 10.40625 15.640625 8.0625 
Q 18.3125 5.71875 23.4375 5.71875 
Q 28.515625 5.71875 32.46875 7.9375 
Q 36.421875 10.15625 38.28125 14.015625 
Q 39.703125 17 39.703125 22.796875 
z
" id="ArialMT-61"/>
      <path d="M 21 0 
L 1.265625 51.859375 
L 10.546875 51.859375 
L 21.6875 20.796875 
Q 23.484375 15.765625 25 10.359375 
Q 26.171875 14.453125 28.265625 20.21875 
L 39.796875 51.859375 
L 48.828125 51.859375 
L 29.203125 0 
z
" id="ArialMT-76"/>
      <path d="M 42.09375 16.703125 
L 51.171875 15.578125 
Q 49.03125 7.625 43.21875 3.21875 
Q 37.40625 -1.171875 28.375 -1.171875 
Q 17 -1.171875 10.328125 5.828125 
Q 3.65625 12.84375 3.65625 25.484375 
Q 3.65625 38.578125 10.390625 45.796875 
Q 17.140625 53.03125 27.875 53.03125 
Q 38.28125 53.03125 44.875 45.953125 
Q 51.46875 38.875 51.46875 26.03125 
Q 51.46875 25.25 51.421875 23.6875 
L 12.75 23.6875 
Q 13.234375 15.140625 17.578125 10.59375 
Q 21.921875 6.0625 28.421875 6.0625 
Q 33.25 6.0625 36.671875 8.59375 
Q 40.09375 11.140625 42.09375 16.703125 
M 13.234375 30.90625 
L 42.1875 30.90625 
Q 41.609375 37.453125 38.875 40.71875 
Q 34.671875 45.796875 27.984375 45.796875 
Q 21.921875 45.796875 17.796875 41.75 
Q 13.671875 37.703125 13.234375 30.90625 
" id="ArialMT-65"/>
      <path d="M 25.78125 7.859375 
L 27.046875 0.09375 
Q 23.34375 -0.6875 20.40625 -0.6875 
Q 15.625 -0.6875 12.984375 0.828125 
Q 10.359375 2.34375 9.28125 4.8125 
Q 8.203125 7.28125 8.203125 15.1875 
L 8.203125 45.015625 
L 1.765625 45.015625 
L 1.765625 51.859375 
L 8.203125 51.859375 
L 8.203125 64.703125 
L 16.9375 69.96875 
L 16.9375 51.859375 
L 25.78125 51.859375 
L 25.78125 45.015625 
L 16.9375 45.015625 
L 16.9375 14.703125 
Q 16.9375 10.9375 17.40625 9.859375 
Q 17.875 8.796875 18.921875 8.15625 
Q 19.96875 7.515625 21.921875 7.515625 
Q 23.390625 7.515625 25.78125 7.859375 
" id="ArialMT-74"/>
      <path d="M 7.71875 0 
L 7.71875 71.578125 
L 34.71875 71.578125 
Q 41.84375 71.578125 45.609375 70.90625 
Q 50.875 70.015625 54.4375 67.546875 
Q 58.015625 65.09375 60.1875 60.640625 
Q 62.359375 56.203125 62.359375 50.875 
Q 62.359375 41.75 56.546875 35.421875 
Q 50.734375 29.109375 35.546875 29.109375 
L 17.1875 29.109375 
L 17.1875 0 
z
M 17.1875 37.546875 
L 35.6875 37.546875 
Q 44.875 37.546875 48.734375 40.96875 
Q 52.59375 44.390625 52.59375 50.59375 
Q 52.59375 55.078125 50.3125 58.265625 
Q 48.046875 61.46875 44.34375 62.5 
Q 41.9375 63.140625 35.5 63.140625 
L 17.1875 63.140625 
z
" id="ArialMT-50"/>
      <path d="M 3.078125 15.484375 
L 11.765625 16.84375 
Q 12.5 11.625 15.84375 8.84375 
Q 19.1875 6.0625 25.203125 6.0625 
Q 31.25 6.0625 34.171875 8.515625 
Q 37.109375 10.984375 37.109375 14.3125 
Q 37.109375 17.28125 34.515625 19 
Q 32.71875 20.171875 25.53125 21.96875 
Q 15.875 24.421875 12.140625 26.203125 
Q 8.40625 27.984375 6.46875 31.125 
Q 4.546875 34.28125 4.546875 38.09375 
Q 4.546875 41.546875 6.125 44.5 
Q 7.71875 47.46875 10.453125 49.421875 
Q 12.5 50.921875 16.03125 51.96875 
Q 19.578125 53.03125 23.640625 53.03125 
Q 29.734375 53.03125 34.34375 51.265625 
Q 38.96875 49.515625 41.15625 46.5 
Q 43.359375 43.5 44.1875 38.484375 
L 35.59375 37.3125 
Q 35.015625 41.3125 32.203125 43.546875 
Q 29.390625 45.796875 24.265625 45.796875 
Q 18.21875 45.796875 15.625 43.796875 
Q 13.03125 41.796875 13.03125 39.109375 
Q 13.03125 37.40625 14.109375 36.03125 
Q 15.1875 34.625 17.484375 33.6875 
Q 18.796875 33.203125 25.25 31.453125 
Q 34.578125 28.953125 38.25 27.359375 
Q 41.9375 25.78125 44.03125 22.75 
Q 46.140625 19.734375 46.140625 15.234375 
Q 46.140625 10.84375 43.578125 6.953125 
Q 41.015625 3.078125 36.171875 0.953125 
Q 31.34375 -1.171875 25.25 -1.171875 
Q 15.140625 -1.171875 9.84375 3.03125 
Q 4.546875 7.234375 3.078125 15.484375 
" id="ArialMT-73"/>
      <path d="M 6.390625 0 
L 6.390625 71.578125 
L 15.1875 71.578125 
L 15.1875 0 
z
" id="ArialMT-6c"/>
      <path d="M 7.859375 0 
L 7.859375 71.578125 
L 39.59375 71.578125 
Q 49.171875 71.578125 54.140625 69.640625 
Q 59.125 67.71875 62.109375 62.828125 
Q 65.09375 57.953125 65.09375 52.046875 
Q 65.09375 44.4375 60.15625 39.203125 
Q 55.21875 33.984375 44.921875 32.5625 
Q 48.6875 30.765625 50.640625 29 
Q 54.78125 25.203125 58.5 19.484375 
L 70.953125 0 
L 59.03125 0 
L 49.5625 14.890625 
Q 45.40625 21.34375 42.71875 24.75 
Q 40.046875 28.171875 37.921875 29.53125 
Q 35.796875 30.90625 33.59375 31.453125 
Q 31.984375 31.78125 28.328125 31.78125 
L 17.328125 31.78125 
L 17.328125 0 
z
M 17.328125 39.984375 
L 37.703125 39.984375 
Q 44.1875 39.984375 47.84375 41.328125 
Q 51.515625 42.671875 53.421875 45.625 
Q 55.328125 48.578125 55.328125 52.046875 
Q 55.328125 57.125 51.640625 60.390625 
Q 47.953125 63.671875 39.984375 63.671875 
L 17.328125 63.671875 
z
" id="ArialMT-52"/>
      <path d="M 3.328125 25.921875 
Q 3.328125 40.328125 11.328125 47.265625 
Q 18.015625 53.03125 27.640625 53.03125 
Q 38.328125 53.03125 45.109375 46.015625 
Q 51.90625 39.015625 51.90625 26.65625 
Q 51.90625 16.65625 48.90625 10.90625 
Q 45.90625 5.171875 40.15625 2 
Q 34.421875 -1.171875 27.640625 -1.171875 
Q 16.75 -1.171875 10.03125 5.8125 
Q 3.328125 12.796875 3.328125 25.921875 
M 12.359375 25.921875 
Q 12.359375 15.96875 16.703125 11.015625 
Q 21.046875 6.0625 27.640625 6.0625 
Q 34.1875 6.0625 38.53125 11.03125 
Q 42.875 16.015625 42.875 26.21875 
Q 42.875 35.84375 38.5 40.796875 
Q 34.125 45.75 27.640625 45.75 
Q 21.046875 45.75 16.703125 40.8125 
Q 12.359375 35.890625 12.359375 25.921875 
" id="ArialMT-6f"/>
      <path d="M 8.203125 0 
L 8.203125 71.578125 
L 56.5 71.578125 
L 56.5 63.140625 
L 17.671875 63.140625 
L 17.671875 40.96875 
L 51.265625 40.96875 
L 51.265625 32.515625 
L 17.671875 32.515625 
L 17.671875 0 
z
" id="ArialMT-46"/>
      <path d="M 6.640625 61.46875 
L 6.640625 71.578125 
L 15.4375 71.578125 
L 15.4375 61.46875 
z
M 6.640625 0 
L 6.640625 51.859375 
L 15.4375 51.859375 
L 15.4375 0 
z
" id="ArialMT-69"/>
      <path id="ArialMT-20"/>
     </defs>
     <g style="fill:#262626;" transform="translate(240.790882353 419.7778125)scale(0.16 -0.16)">
      <use xlink:href="#ArialMT-46"/>
      <use x="61.083984375" xlink:href="#ArialMT-61"/>
      <use x="116.69921875" xlink:href="#ArialMT-6c"/>
      <use x="138.916015625" xlink:href="#ArialMT-73"/>
      <use x="188.916015625" xlink:href="#ArialMT-65"/>
      <use x="244.53125" xlink:href="#ArialMT-20"/>
      <use x="272.314453125" xlink:href="#ArialMT-50"/>
      <use x="339.013671875" xlink:href="#ArialMT-6f"/>
      <use x="394.62890625" xlink:href="#ArialMT-73"/>
      <use x="444.62890625" xlink:href="#ArialMT-69"/>
      <use x="466.845703125" xlink:href="#ArialMT-74"/>
      <use x="494.62890625" xlink:href="#ArialMT-69"/>
      <use x="516.845703125" xlink:href="#ArialMT-76"/>
      <use x="566.845703125" xlink:href="#ArialMT-65"/>
      <use x="622.4609375" xlink:href="#ArialMT-20"/>
      <use x="650.244140625" xlink:href="#ArialMT-52"/>
      <use x="722.4609375" xlink:href="#ArialMT-61"/>
      <use x="778.076171875" xlink:href="#ArialMT-74"/>
      <use x="805.859375" xlink:href="#ArialMT-65"/>
     </g>
    </g>
   </g>
   <g id="matplotlib.axis_2">
    <g id="ytick_1">
     <g id="line2d_13">
      <g>
       <use style="fill:#262626;stroke:#262626;" x="162.0" xlink:href="#m4968470c1d" y="387.18"/>
      </g>
     </g>
     <g id="line2d_14">
      <g>
       <use style="fill:#262626;stroke:#262626;" x="457.411764706" xlink:href="#m4968470c1d" y="387.18"/>
      </g>
     </g>
     <g id="text_8">
      <!-- 0.0 -->
      <g style="fill:#262626;" transform="translate(141.1 389.76515625)scale(0.1 -0.1)">
       <use xlink:href="#ArialMT-30"/>
       <use x="55.615234375" xlink:href="#ArialMT-2e"/>
       <use x="83.3984375" xlink:href="#ArialMT-30"/>
      </g>
     </g>
    </g>
    <g id="ytick_2">
     <g id="line2d_15">
      <g>
       <use style="fill:#262626;stroke:#262626;" x="162.0" xlink:href="#m4968470c1d" y="318.348"/>
      </g>
     </g>
     <g id="line2d_16">
      <g>
       <use style="fill:#262626;stroke:#262626;" x="457.411764706" xlink:href="#m4968470c1d" y="318.348"/>
      </g>
     </g>
     <g id="text_9">
      <!-- 0.2 -->
      <g style="fill:#262626;" transform="translate(141.1 320.93315625)scale(0.1 -0.1)">
       <use xlink:href="#ArialMT-30"/>
       <use x="55.615234375" xlink:href="#ArialMT-2e"/>
       <use x="83.3984375" xlink:href="#ArialMT-32"/>
      </g>
     </g>
    </g>
    <g id="ytick_3">
     <g id="line2d_17">
      <g>
       <use style="fill:#262626;stroke:#262626;" x="162.0" xlink:href="#m4968470c1d" y="249.516"/>
      </g>
     </g>
     <g id="line2d_18">
      <g>
       <use style="fill:#262626;stroke:#262626;" x="457.411764706" xlink:href="#m4968470c1d" y="249.516"/>
      </g>
     </g>
     <g id="text_10">
      <!-- 0.4 -->
      <g style="fill:#262626;" transform="translate(141.1 252.10115625)scale(0.1 -0.1)">
       <use xlink:href="#ArialMT-30"/>
       <use x="55.615234375" xlink:href="#ArialMT-2e"/>
       <use x="83.3984375" xlink:href="#ArialMT-34"/>
      </g>
     </g>
    </g>
    <g id="ytick_4">
     <g id="line2d_19">
      <g>
       <use style="fill:#262626;stroke:#262626;" x="162.0" xlink:href="#m4968470c1d" y="180.684"/>
      </g>
     </g>
     <g id="line2d_20">
      <g>
       <use style="fill:#262626;stroke:#262626;" x="457.411764706" xlink:href="#m4968470c1d" y="180.684"/>
      </g>
     </g>
     <g id="text_11">
      <!-- 0.6 -->
      <g style="fill:#262626;" transform="translate(141.1 183.26915625)scale(0.1 -0.1)">
       <use xlink:href="#ArialMT-30"/>
       <use x="55.615234375" xlink:href="#ArialMT-2e"/>
       <use x="83.3984375" xlink:href="#ArialMT-36"/>
      </g>
     </g>
    </g>
    <g id="ytick_5">
     <g id="line2d_21">
      <g>
       <use style="fill:#262626;stroke:#262626;" x="162.0" xlink:href="#m4968470c1d" y="111.852"/>
      </g>
     </g>
     <g id="line2d_22">
      <g>
       <use style="fill:#262626;stroke:#262626;" x="457.411764706" xlink:href="#m4968470c1d" y="111.852"/>
      </g>
     </g>
     <g id="text_12">
      <!-- 0.8 -->
      <g style="fill:#262626;" transform="translate(141.1 114.43715625)scale(0.1 -0.1)">
       <use xlink:href="#ArialMT-30"/>
       <use x="55.615234375" xlink:href="#ArialMT-2e"/>
       <use x="83.3984375" xlink:href="#ArialMT-38"/>
      </g>
     </g>
    </g>
    <g id="ytick_6">
     <g id="line2d_23">
      <g>
       <use style="fill:#262626;stroke:#262626;" x="162.0" xlink:href="#m4968470c1d" y="43.02"/>
      </g>
     </g>
     <g id="line2d_24">
      <g>
       <use style="fill:#262626;stroke:#262626;" x="457.411764706" xlink:href="#m4968470c1d" y="43.02"/>
      </g>
     </g>
     <g id="text_13">
      <!-- 1.0 -->
      <g style="fill:#262626;" transform="translate(141.1 45.60515625)scale(0.1 -0.1)">
       <use xlink:href="#ArialMT-31"/>
       <use x="55.615234375" xlink:href="#ArialMT-2e"/>
       <use x="83.3984375" xlink:href="#ArialMT-30"/>
      </g>
     </g>
    </g>
    <g id="text_14">
     <!-- True Positive Rate -->
     <defs>
      <path d="M 40.578125 0 
L 40.578125 7.625 
Q 34.515625 -1.171875 24.125 -1.171875 
Q 19.53125 -1.171875 15.546875 0.578125 
Q 11.578125 2.34375 9.640625 5 
Q 7.71875 7.671875 6.9375 11.53125 
Q 6.390625 14.109375 6.390625 19.734375 
L 6.390625 51.859375 
L 15.1875 51.859375 
L 15.1875 23.09375 
Q 15.1875 16.21875 15.71875 13.8125 
Q 16.546875 10.359375 19.234375 8.375 
Q 21.921875 6.390625 25.875 6.390625 
Q 29.828125 6.390625 33.296875 8.421875 
Q 36.765625 10.453125 38.203125 13.9375 
Q 39.65625 17.4375 39.65625 24.078125 
L 39.65625 51.859375 
L 48.4375 51.859375 
L 48.4375 0 
z
" id="ArialMT-75"/>
      <path d="M 6.5 0 
L 6.5 51.859375 
L 14.40625 51.859375 
L 14.40625 44 
Q 17.4375 49.515625 20 51.265625 
Q 22.5625 53.03125 25.640625 53.03125 
Q 30.078125 53.03125 34.671875 50.203125 
L 31.640625 42.046875 
Q 28.421875 43.953125 25.203125 43.953125 
Q 22.3125 43.953125 20.015625 42.21875 
Q 17.71875 40.484375 16.75 37.40625 
Q 15.28125 32.71875 15.28125 27.15625 
L 15.28125 0 
z
" id="ArialMT-72"/>
      <path d="M 25.921875 0 
L 25.921875 63.140625 
L 2.34375 63.140625 
L 2.34375 71.578125 
L 59.078125 71.578125 
L 59.078125 63.140625 
L 35.40625 63.140625 
L 35.40625 0 
z
" id="ArialMT-54"/>
     </defs>
     <g style="fill:#262626;" transform="translate(132.92 280.8975)rotate(-90.0)scale(0.16 -0.16)">
      <use xlink:href="#ArialMT-54"/>
      <use x="61.037109375" xlink:href="#ArialMT-72"/>
      <use x="94.337890625" xlink:href="#ArialMT-75"/>
      <use x="149.953125" xlink:href="#ArialMT-65"/>
      <use x="205.568359375" xlink:href="#ArialMT-20"/>
      <use x="233.3515625" xlink:href="#ArialMT-50"/>
      <use x="300.05078125" xlink:href="#ArialMT-6f"/>
      <use x="355.666015625" xlink:href="#ArialMT-73"/>
      <use x="405.666015625" xlink:href="#ArialMT-69"/>
      <use x="427.8828125" xlink:href="#ArialMT-74"/>
      <use x="455.666015625" xlink:href="#ArialMT-69"/>
      <use x="477.8828125" xlink:href="#ArialMT-76"/>
      <use x="527.8828125" xlink:href="#ArialMT-65"/>
      <use x="583.498046875" xlink:href="#ArialMT-20"/>
      <use x="611.28125" xlink:href="#ArialMT-52"/>
      <use x="683.498046875" xlink:href="#ArialMT-61"/>
      <use x="739.11328125" xlink:href="#ArialMT-74"/>
      <use x="766.896484375" xlink:href="#ArialMT-65"/>
     </g>
    </g>
   </g>
   <g id="PolyCollection_1">
    <defs>
     <path d="M 162 -102.504444 
L 162 -102.504444 
L 164.983957 -140.847208 
L 167.967914 -147.412178 
L 170.951872 -145.650502 
L 173.935829 -157.433534 
L 176.919786 -162.741626 
L 179.903743 -164.919101 
L 182.887701 -190.352655 
L 185.871658 -209.787006 
L 188.855615 -222.618457 
L 191.839572 -223.521701 
L 194.823529 -234.324825 
L 197.807487 -242.510934 
L 200.791444 -250.027413 
L 203.775401 -248.512367 
L 206.759358 -247.163809 
L 209.743316 -247.163809 
L 212.727273 -247.163809 
L 215.71123 -245.221309 
L 218.695187 -245.221309 
L 221.679144 -249.663795 
L 224.663102 -256.302276 
L 227.647059 -265.018412 
L 230.631016 -265.811439 
L 233.614973 -265.758318 
L 236.59893 -269.119448 
L 239.582888 -269.211199 
L 242.566845 -277.077086 
L 245.550802 -281.325975 
L 248.534759 -281.325975 
L 251.518717 -280.256747 
L 254.502674 -281.151986 
L 257.486631 -280.048864 
L 260.470588 -284.948604 
L 263.454545 -289.834329 
L 266.438503 -290.128245 
L 269.42246 -293.798939 
L 272.406417 -300.922581 
L 275.390374 -302.700418 
L 278.374332 -312.020179 
L 281.358289 -312.020179 
L 284.342246 -312.020179 
L 287.326203 -312.020179 
L 290.31016 -313.714032 
L 293.294118 -309.459639 
L 296.278075 -318.572096 
L 299.262032 -318.572096 
L 302.245989 -323.826638 
L 305.229947 -326.195293 
L 308.213904 -326.950622 
L 311.197861 -329.062267 
L 314.181818 -329.842024 
L 317.165775 -330.217824 
L 320.149733 -335.473552 
L 323.13369 -336.623033 
L 326.117647 -340.186537 
L 329.101604 -340.186537 
L 332.085561 -339.997481 
L 335.069519 -341.617696 
L 338.053476 -345.866585 
L 341.037433 -344.45252 
L 344.02139 -345.340987 
L 347.005348 -350.645466 
L 349.989305 -351.140754 
L 352.973262 -351.140754 
L 355.957219 -351.140754 
L 358.941176 -350.946201 
L 361.925134 -350.946201 
L 364.909091 -350.946201 
L 367.893048 -349.387092 
L 370.877005 -349.326381 
L 373.860963 -360.678043 
L 376.84492 -360.678043 
L 379.828877 -360.678043 
L 382.812834 -361.105325 
L 385.796791 -361.105325 
L 388.780749 -359.67411 
L 391.764706 -359.67411 
L 394.748663 -358.116802 
L 397.73262 -364.764474 
L 400.716578 -369.013363 
L 403.700535 -369.013363 
L 406.684492 -369.013363 
L 409.668449 -370.479391 
L 412.652406 -373.487257 
L 415.636364 -373.487257 
L 418.620321 -373.487257 
L 421.604278 -373.487257 
L 424.588235 -373.487257 
L 427.572193 -373.487257 
L 430.55615 -374.429378 
L 433.540107 -374.429378 
L 436.524064 -374.421146 
L 439.508021 -379.582242 
L 442.491979 -378.695296 
L 445.475936 -382.944185 
L 448.459893 -382.944185 
L 451.44385 -385.062092 
L 454.427807 -387.18 
L 457.411765 -387.18 
L 457.411765 -387.18 
L 457.411765 -387.18 
L 454.427807 -387.18 
L 451.44385 -387.18 
L 448.459893 -387.18 
L 445.475936 -387.18 
L 442.491979 -387.166926 
L 439.508021 -386.279981 
L 436.524064 -382.943299 
L 433.540107 -382.935067 
L 430.55615 -382.935067 
L 427.572193 -383.877188 
L 424.588235 -383.877188 
L 421.604278 -383.877188 
L 418.620321 -383.877188 
L 415.636364 -383.877188 
L 412.652406 -383.877188 
L 409.668449 -378.387276 
L 406.684492 -379.853304 
L 403.700535 -379.853304 
L 400.716578 -379.853304 
L 397.73262 -375.604415 
L 394.748663 -373.754309 
L 391.764706 -372.197001 
L 388.780749 -372.197001 
L 385.796791 -370.765786 
L 382.812834 -370.765786 
L 379.828877 -371.193068 
L 376.84492 -371.193068 
L 373.860963 -371.193068 
L 370.877005 -365.549174 
L 367.893048 -365.488464 
L 364.909091 -363.929355 
L 361.925134 -363.929355 
L 358.941176 -363.929355 
L 355.957219 -363.734801 
L 352.973262 -363.734801 
L 349.989305 -363.734801 
L 347.005348 -364.23009 
L 344.02139 -361.036791 
L 341.037433 -361.925258 
L 338.053476 -360.511193 
L 335.069519 -356.262304 
L 332.085561 -357.882519 
L 329.101604 -357.693463 
L 326.117647 -357.693463 
L 323.13369 -352.759189 
L 320.149733 -353.90867 
L 317.165775 -350.666621 
L 314.181818 -342.544643 
L 311.197861 -343.324399 
L 308.213904 -345.436045 
L 305.229947 -346.191373 
L 302.245989 -340.062251 
L 299.262032 -336.819015 
L 296.278075 -336.819015 
L 293.294118 -328.935917 
L 290.31016 -324.681524 
L 287.326203 -326.375376 
L 284.342246 -326.375376 
L 281.358289 -326.375376 
L 278.374332 -326.375376 
L 275.390374 -318.699582 
L 272.406417 -320.477419 
L 269.42246 -319.103283 
L 266.438503 -314.276199 
L 263.454545 -314.570115 
L 260.470588 -310.958063 
L 257.486631 -307.360024 
L 254.502674 -306.256902 
L 251.518717 -307.152142 
L 248.534759 -306.082914 
L 245.550802 -306.082914 
L 242.566845 -301.834025 
L 239.582888 -301.202134 
L 236.59893 -301.293885 
L 233.614973 -296.157237 
L 230.631016 -296.104117 
L 227.647059 -296.897144 
L 224.663102 -288.617724 
L 221.679144 -286.758427 
L 218.695187 -282.703136 
L 215.71123 -282.703136 
L 212.727273 -280.760635 
L 209.743316 -280.760635 
L 206.759358 -280.760635 
L 203.775401 -279.412078 
L 200.791444 -277.897031 
L 197.807487 -276.915732 
L 194.823529 -268.106286 
L 191.839572 -261.913855 
L 188.855615 -262.817099 
L 185.871658 -258.652994 
L 182.887701 -244.096234 
L 179.903743 -227.040899 
L 176.919786 -220.720596 
L 173.935829 -209.033133 
L 170.951872 -178.327275 
L 167.967914 -168.067822 
L 164.983957 -166.135015 
L 162 -102.504444 
z
" id="m74e6772ff7" style="stroke:#808080;stroke-opacity:0.2;stroke-width:0.3;"/>
    </defs>
    <g clip-path="url(#p6ecd9ba6a1)">
     <use style="fill:#808080;fill-opacity:0.2;stroke:#808080;stroke-opacity:0.2;stroke-width:0.3;" x="0.0" xlink:href="#m74e6772ff7" y="430.2"/>
    </g>
   </g>
   <g id="line2d_25">
    <path clip-path="url(#p6ecd9ba6a1)" d="M 162 387.18 
L 457.411765 43.02 
" style="fill:none;opacity:0.5;stroke:#000000;stroke-dasharray:6.000000,6.000000;stroke-dashoffset:0.0;"/>
   </g>
   <g id="line2d_26">
    <path clip-path="url(#p6ecd9ba6a1)" d="M 162 382.931111 
L 162 327.695556 
L 163.361345 327.695556 
L 163.361345 293.704444 
L 164.722689 293.704444 
L 164.722689 276.708889 
L 167.445378 276.708889 
L 167.445378 272.46 
L 168.806723 272.46 
L 168.806723 268.211111 
L 172.890756 268.211111 
L 172.890756 246.966667 
L 174.252101 246.966667 
L 174.252101 242.717778 
L 175.613445 242.717778 
L 175.613445 238.468889 
L 176.97479 238.468889 
L 176.97479 234.22 
L 181.058824 234.22 
L 181.058824 225.722222 
L 182.420168 225.722222 
L 182.420168 212.975556 
L 183.781513 212.975556 
L 183.781513 195.98 
L 186.504202 195.98 
L 186.504202 187.482222 
L 191.94958 187.482222 
L 191.94958 183.233333 
L 193.310924 183.233333 
L 193.310924 178.984444 
L 196.033613 178.984444 
L 196.033613 170.486667 
L 200.117647 170.486667 
L 200.117647 166.237778 
L 220.537815 166.237778 
L 220.537815 161.988889 
L 221.89916 161.988889 
L 221.89916 157.74 
L 227.344538 157.74 
L 227.344538 149.242222 
L 234.151261 149.242222 
L 234.151261 144.993333 
L 240.957983 144.993333 
L 240.957983 140.744444 
L 245.042017 140.744444 
L 245.042017 136.495556 
L 260.016807 136.495556 
L 260.016807 132.246667 
L 262.739496 132.246667 
L 262.739496 127.997778 
L 268.184874 127.997778 
L 268.184874 123.748889 
L 272.268908 123.748889 
L 272.268908 119.5 
L 277.714286 119.5 
L 277.714286 111.002222 
L 295.411765 111.002222 
L 295.411765 102.504444 
L 299.495798 102.504444 
L 299.495798 98.255556 
L 304.941176 98.255556 
L 304.941176 94.006667 
L 314.470588 94.006667 
L 314.470588 89.757778 
L 317.193277 89.757778 
L 317.193277 85.508889 
L 324 85.508889 
L 324 81.26 
L 336.252101 81.26 
L 336.252101 77.011111 
L 345.781513 77.011111 
L 345.781513 72.762222 
L 373.008403 72.762222 
L 373.008403 64.264444 
L 394.789916 64.264444 
L 394.789916 60.015556 
L 398.87395 60.015556 
L 398.87395 55.766667 
L 412.487395 55.766667 
L 412.487395 51.517778 
L 438.352941 51.517778 
L 438.352941 47.268889 
L 443.798319 47.268889 
L 443.798319 43.02 
L 457.411765 43.02 
" style="fill:none;stroke:#92c6ff;stroke-linecap:round;stroke-width:3.0;"/>
   </g>
   <g id="patch_3">
    <path d="M 162 43.02 
L 457.411765 43.02 
" style="fill:none;"/>
   </g>
   <g id="patch_4">
    <path d="M 457.411765 387.18 
L 457.411765 43.02 
" style="fill:none;"/>
   </g>
   <g id="patch_5">
    <path d="M 162 387.18 
L 457.411765 387.18 
" style="fill:none;"/>
   </g>
   <g id="patch_6">
    <path d="M 162 387.18 
L 162 43.02 
" style="fill:none;"/>
   </g>
   <g id="text_15">
    <!-- DEC+MLP features n=264 -->
    <defs>
     <path d="M 8.6875 0 
L 8.6875 45.015625 
L 0.921875 45.015625 
L 0.921875 51.859375 
L 8.6875 51.859375 
L 8.6875 57.375 
Q 8.6875 62.59375 9.625 65.140625 
Q 10.890625 68.5625 14.078125 70.671875 
Q 17.28125 72.796875 23.046875 72.796875 
Q 26.765625 72.796875 31.25 71.921875 
L 29.9375 64.265625 
Q 27.203125 64.75 24.75 64.75 
Q 20.75 64.75 19.09375 63.03125 
Q 17.4375 61.328125 17.4375 56.640625 
L 17.4375 51.859375 
L 27.546875 51.859375 
L 27.546875 45.015625 
L 17.4375 45.015625 
L 17.4375 0 
z
" id="ArialMT-66"/>
     <path d="M 52.828125 42.09375 
L 5.5625 42.09375 
L 5.5625 50.296875 
L 52.828125 50.296875 
z
M 52.828125 20.359375 
L 5.5625 20.359375 
L 5.5625 28.5625 
L 52.828125 28.5625 
z
" id="ArialMT-3d"/>
     <path d="M 58.796875 25.09375 
L 68.265625 22.703125 
Q 65.28125 11.03125 57.546875 4.90625 
Q 49.8125 -1.21875 38.625 -1.21875 
Q 27.046875 -1.21875 19.796875 3.484375 
Q 12.546875 8.203125 8.765625 17.140625 
Q 4.984375 26.078125 4.984375 36.328125 
Q 4.984375 47.515625 9.25 55.828125 
Q 13.53125 64.15625 21.40625 68.46875 
Q 29.296875 72.796875 38.765625 72.796875 
Q 49.515625 72.796875 56.828125 67.328125 
Q 64.15625 61.859375 67.046875 51.953125 
L 57.71875 49.75 
Q 55.21875 57.5625 50.484375 61.125 
Q 45.75 64.703125 38.578125 64.703125 
Q 30.328125 64.703125 24.78125 60.734375 
Q 19.234375 56.78125 16.984375 50.109375 
Q 14.75 43.453125 14.75 36.375 
Q 14.75 27.25 17.40625 20.4375 
Q 20.0625 13.625 25.671875 10.25 
Q 31.296875 6.890625 37.84375 6.890625 
Q 45.796875 6.890625 51.3125 11.46875 
Q 56.84375 16.0625 58.796875 25.09375 
" id="ArialMT-43"/>
     <path d="M 7.90625 0 
L 7.90625 71.578125 
L 59.671875 71.578125 
L 59.671875 63.140625 
L 17.390625 63.140625 
L 17.390625 41.21875 
L 56.984375 41.21875 
L 56.984375 32.8125 
L 17.390625 32.8125 
L 17.390625 8.453125 
L 61.328125 8.453125 
L 61.328125 0 
z
" id="ArialMT-45"/>
     <path d="M 7.71875 0 
L 7.71875 71.578125 
L 32.375 71.578125 
Q 40.71875 71.578125 45.125 70.5625 
Q 51.265625 69.140625 55.609375 65.4375 
Q 61.28125 60.640625 64.078125 53.1875 
Q 66.890625 45.75 66.890625 36.1875 
Q 66.890625 28.03125 64.984375 21.734375 
Q 63.09375 15.4375 60.109375 11.296875 
Q 57.125 7.171875 53.578125 4.796875 
Q 50.046875 2.4375 45.046875 1.21875 
Q 40.046875 0 33.546875 0 
z
M 17.1875 8.453125 
L 32.46875 8.453125 
Q 39.546875 8.453125 43.578125 9.765625 
Q 47.609375 11.078125 50 13.484375 
Q 53.375 16.84375 55.25 22.53125 
Q 57.125 28.21875 57.125 36.328125 
Q 57.125 47.5625 53.4375 53.59375 
Q 49.75 59.625 44.484375 61.671875 
Q 40.671875 63.140625 32.234375 63.140625 
L 17.1875 63.140625 
z
" id="ArialMT-44"/>
     <path d="M 25.046875 11.578125 
L 25.046875 31.203125 
L 5.5625 31.203125 
L 5.5625 39.40625 
L 25.046875 39.40625 
L 25.046875 58.890625 
L 33.34375 58.890625 
L 33.34375 39.40625 
L 52.828125 39.40625 
L 52.828125 31.203125 
L 33.34375 31.203125 
L 33.34375 11.578125 
z
" id="ArialMT-2b"/>
     <path d="M 6.59375 0 
L 6.59375 51.859375 
L 14.5 51.859375 
L 14.5 44.484375 
Q 20.21875 53.03125 31 53.03125 
Q 35.6875 53.03125 39.625 51.34375 
Q 43.5625 49.65625 45.515625 46.921875 
Q 47.46875 44.1875 48.25 40.4375 
Q 48.734375 37.984375 48.734375 31.890625 
L 48.734375 0 
L 39.9375 0 
L 39.9375 31.546875 
Q 39.9375 36.921875 38.90625 39.578125 
Q 37.890625 42.234375 35.28125 43.8125 
Q 32.671875 45.40625 29.15625 45.40625 
Q 23.53125 45.40625 19.453125 41.84375 
Q 15.375 38.28125 15.375 28.328125 
L 15.375 0 
z
" id="ArialMT-6e"/>
     <path d="M 7.328125 0 
L 7.328125 71.578125 
L 16.796875 71.578125 
L 16.796875 8.453125 
L 52.046875 8.453125 
L 52.046875 0 
z
" id="ArialMT-4c"/>
     <path d="M 7.421875 0 
L 7.421875 71.578125 
L 21.6875 71.578125 
L 38.625 20.90625 
Q 40.96875 13.8125 42.046875 10.296875 
Q 43.265625 14.203125 45.84375 21.78125 
L 62.984375 71.578125 
L 75.734375 71.578125 
L 75.734375 0 
L 66.609375 0 
L 66.609375 59.90625 
L 45.796875 0 
L 37.25 0 
L 16.546875 60.9375 
L 16.546875 0 
z
" id="ArialMT-4d"/>
    </defs>
    <g style="fill:#262626;" transform="translate(204.149944853 38.02)scale(0.18 -0.18)">
     <use xlink:href="#ArialMT-44"/>
     <use x="72.216796875" xlink:href="#ArialMT-45"/>
     <use x="138.916015625" xlink:href="#ArialMT-43"/>
     <use x="211.1328125" xlink:href="#ArialMT-2b"/>
     <use x="269.53125" xlink:href="#ArialMT-4d"/>
     <use x="352.83203125" xlink:href="#ArialMT-4c"/>
     <use x="408.447265625" xlink:href="#ArialMT-50"/>
     <use x="475.130859375" xlink:href="#ArialMT-20"/>
     <use x="502.9140625" xlink:href="#ArialMT-66"/>
     <use x="530.697265625" xlink:href="#ArialMT-65"/>
     <use x="586.3125" xlink:href="#ArialMT-61"/>
     <use x="641.927734375" xlink:href="#ArialMT-74"/>
     <use x="669.7109375" xlink:href="#ArialMT-75"/>
     <use x="725.326171875" xlink:href="#ArialMT-72"/>
     <use x="758.626953125" xlink:href="#ArialMT-65"/>
     <use x="814.2421875" xlink:href="#ArialMT-73"/>
     <use x="864.2421875" xlink:href="#ArialMT-20"/>
     <use x="892.025390625" xlink:href="#ArialMT-6e"/>
     <use x="947.640625" xlink:href="#ArialMT-3d"/>
     <use x="1006.0390625" xlink:href="#ArialMT-32"/>
     <use x="1061.65429688" xlink:href="#ArialMT-36"/>
     <use x="1117.26953125" xlink:href="#ArialMT-34"/>
    </g>
   </g>
   <g id="legend_1">
    <g id="line2d_27">
     <path d="M 190.531765 341.0275 
L 222.531765 341.0275 
" style="fill:none;stroke:#92c6ff;stroke-linecap:round;stroke-width:3.0;"/>
    </g>
    <g id="line2d_28"/>
    <g id="text_16">
     <!-- cv Train (AUC = 0.80 $\pm$ 0.03) -->
     <defs>
      <path d="M 40.4375 19 
L 49.078125 17.875 
Q 47.65625 8.9375 41.8125 3.875 
Q 35.984375 -1.171875 27.484375 -1.171875 
Q 16.84375 -1.171875 10.375 5.78125 
Q 3.90625 12.75 3.90625 25.734375 
Q 3.90625 34.125 6.6875 40.421875 
Q 9.46875 46.734375 15.15625 49.875 
Q 20.84375 53.03125 27.546875 53.03125 
Q 35.984375 53.03125 41.359375 48.75 
Q 46.734375 44.484375 48.25 36.625 
L 39.703125 35.296875 
Q 38.484375 40.53125 35.375 43.15625 
Q 32.28125 45.796875 27.875 45.796875 
Q 21.234375 45.796875 17.078125 41.03125 
Q 12.9375 36.28125 12.9375 25.984375 
Q 12.9375 15.53125 16.9375 10.796875 
Q 20.953125 6.0625 27.390625 6.0625 
Q 32.5625 6.0625 36.03125 9.234375 
Q 39.5 12.40625 40.4375 19 
" id="ArialMT-63"/>
      <path d="M 7.515625 0 
Q 6.6875 0 6.140625 0.578125 
Q 5.609375 1.171875 5.609375 2 
Q 5.609375 2.734375 6.140625 3.359375 
Q 6.6875 4 7.515625 4 
L 36.921875 4 
L 36.921875 31.296875 
L 7.515625 31.296875 
Q 6.6875 31.296875 6.140625 31.921875 
Q 5.609375 32.5625 5.609375 33.296875 
Q 5.609375 34.03125 6.140625 34.65625 
Q 6.6875 35.296875 7.515625 35.296875 
L 36.921875 35.296875 
L 36.921875 64.796875 
Q 36.921875 65.578125 37.5 66.09375 
Q 38.09375 66.609375 38.921875 66.609375 
Q 39.59375 66.609375 40.25 66.09375 
Q 40.921875 65.578125 40.921875 64.796875 
L 40.921875 35.296875 
L 70.3125 35.296875 
Q 71.046875 35.296875 71.578125 34.65625 
Q 72.125 34.03125 72.125 33.296875 
Q 72.125 32.5625 71.578125 31.921875 
Q 71.046875 31.296875 70.3125 31.296875 
L 40.921875 31.296875 
L 40.921875 4 
L 70.3125 4 
Q 71.046875 4 71.578125 3.359375 
Q 72.125 2.734375 72.125 2 
Q 72.125 1.171875 71.578125 0.578125 
Q 71.046875 0 70.3125 0 
z
" id="Cmsy10-a7"/>
      <path d="M -0.140625 0 
L 27.34375 71.578125 
L 37.546875 71.578125 
L 66.84375 0 
L 56.0625 0 
L 47.703125 21.6875 
L 17.78125 21.6875 
L 9.90625 0 
z
M 20.515625 29.390625 
L 44.78125 29.390625 
L 37.3125 49.21875 
Q 33.890625 58.25 32.234375 64.0625 
Q 30.859375 57.171875 28.375 50.390625 
z
" id="ArialMT-41"/>
      <path d="M 54.6875 71.578125 
L 64.15625 71.578125 
L 64.15625 30.21875 
Q 64.15625 19.4375 61.71875 13.078125 
Q 59.28125 6.734375 52.90625 2.75 
Q 46.53125 -1.21875 36.1875 -1.21875 
Q 26.125 -1.21875 19.71875 2.25 
Q 13.328125 5.71875 10.59375 12.28125 
Q 7.859375 18.84375 7.859375 30.21875 
L 7.859375 71.578125 
L 17.328125 71.578125 
L 17.328125 30.28125 
Q 17.328125 20.953125 19.0625 16.53125 
Q 20.796875 12.109375 25.015625 9.71875 
Q 29.25 7.328125 35.359375 7.328125 
Q 45.796875 7.328125 50.234375 12.0625 
Q 54.6875 16.796875 54.6875 30.28125 
z
" id="ArialMT-55"/>
      <path d="M 12.359375 -21.046875 
L 6.0625 -21.046875 
Q 20.65625 2.390625 20.65625 25.875 
Q 20.65625 35.0625 18.5625 44.09375 
Q 16.890625 51.421875 13.921875 58.15625 
Q 12.015625 62.546875 6.0625 72.796875 
L 12.359375 72.796875 
Q 21.53125 60.546875 25.921875 48.1875 
Q 29.6875 37.546875 29.6875 25.921875 
Q 29.6875 12.75 24.625 0.4375 
Q 19.578125 -11.859375 12.359375 -21.046875 
" id="ArialMT-29"/>
      <path d="M 23.390625 -21.046875 
Q 16.109375 -11.859375 11.078125 0.4375 
Q 6.0625 12.75 6.0625 25.921875 
Q 6.0625 37.546875 9.8125 48.1875 
Q 14.203125 60.546875 23.390625 72.796875 
L 29.6875 72.796875 
Q 23.78125 62.640625 21.875 58.296875 
Q 18.890625 51.5625 17.1875 44.234375 
Q 15.09375 35.109375 15.09375 25.875 
Q 15.09375 2.390625 29.6875 -21.046875 
z
" id="ArialMT-28"/>
      <path d="M 4.203125 18.890625 
L 12.984375 20.0625 
Q 14.5 12.59375 18.140625 9.296875 
Q 21.78125 6 27 6 
Q 33.203125 6 37.46875 10.296875 
Q 41.75 14.59375 41.75 20.953125 
Q 41.75 27 37.796875 30.921875 
Q 33.84375 34.859375 27.734375 34.859375 
Q 25.25 34.859375 21.53125 33.890625 
L 22.515625 41.609375 
Q 23.390625 41.5 23.921875 41.5 
Q 29.546875 41.5 34.03125 44.421875 
Q 38.53125 47.359375 38.53125 53.46875 
Q 38.53125 58.296875 35.25 61.46875 
Q 31.984375 64.65625 26.8125 64.65625 
Q 21.6875 64.65625 18.265625 61.421875 
Q 14.84375 58.203125 13.875 51.765625 
L 5.078125 53.328125 
Q 6.6875 62.15625 12.390625 67.015625 
Q 18.109375 71.875 26.609375 71.875 
Q 32.46875 71.875 37.390625 69.359375 
Q 42.328125 66.84375 44.9375 62.5 
Q 47.5625 58.15625 47.5625 53.265625 
Q 47.5625 48.640625 45.0625 44.828125 
Q 42.578125 41.015625 37.703125 38.765625 
Q 44.046875 37.3125 47.5625 32.6875 
Q 51.078125 28.078125 51.078125 21.140625 
Q 51.078125 11.765625 44.234375 5.25 
Q 37.40625 -1.265625 26.953125 -1.265625 
Q 17.53125 -1.265625 11.296875 4.34375 
Q 5.078125 9.96875 4.203125 18.890625 
" id="ArialMT-33"/>
     </defs>
     <g style="fill:#262626;" transform="translate(235.331764706 346.6275)scale(0.16 -0.16)">
      <use transform="translate(0.0 0.203125)" xlink:href="#ArialMT-63"/>
      <use transform="translate(50.0 0.203125)" xlink:href="#ArialMT-76"/>
      <use transform="translate(100.0 0.203125)" xlink:href="#ArialMT-20"/>
      <use transform="translate(127.783203125 0.203125)" xlink:href="#ArialMT-54"/>
      <use transform="translate(188.8671875 0.203125)" xlink:href="#ArialMT-72"/>
      <use transform="translate(222.16796875 0.203125)" xlink:href="#ArialMT-61"/>
      <use transform="translate(277.783203125 0.203125)" xlink:href="#ArialMT-69"/>
      <use transform="translate(300.0 0.203125)" xlink:href="#ArialMT-6e"/>
      <use transform="translate(355.615234375 0.203125)" xlink:href="#ArialMT-20"/>
      <use transform="translate(383.3984375 0.203125)" xlink:href="#ArialMT-28"/>
      <use transform="translate(416.69921875 0.203125)" xlink:href="#ArialMT-41"/>
      <use transform="translate(483.3984375 0.203125)" xlink:href="#ArialMT-55"/>
      <use transform="translate(555.615234375 0.203125)" xlink:href="#ArialMT-43"/>
      <use transform="translate(627.83203125 0.203125)" xlink:href="#ArialMT-20"/>
      <use transform="translate(655.615234375 0.203125)" xlink:href="#ArialMT-3d"/>
      <use transform="translate(714.013671875 0.203125)" xlink:href="#ArialMT-20"/>
      <use transform="translate(741.796875 0.203125)" xlink:href="#ArialMT-30"/>
      <use transform="translate(797.412109375 0.203125)" xlink:href="#ArialMT-2e"/>
      <use transform="translate(825.1953125 0.203125)" xlink:href="#ArialMT-38"/>
      <use transform="translate(880.810546875 0.203125)" xlink:href="#ArialMT-30"/>
      <use transform="translate(936.42578125 0.203125)" xlink:href="#ArialMT-20"/>
      <use transform="translate(964.208984375 0.203125)" xlink:href="#Cmsy10-a7"/>
      <use transform="translate(1041.89453125 0.203125)" xlink:href="#ArialMT-20"/>
      <use transform="translate(1069.67773438 0.203125)" xlink:href="#ArialMT-30"/>
      <use transform="translate(1125.29296875 0.203125)" xlink:href="#ArialMT-2e"/>
      <use transform="translate(1153.07617188 0.203125)" xlink:href="#ArialMT-30"/>
      <use transform="translate(1208.69140625 0.203125)" xlink:href="#ArialMT-33"/>
      <use transform="translate(1264.30664062 0.203125)" xlink:href="#ArialMT-29"/>
     </g>
    </g>
    <g id="patch_7">
     <path d="M 190.531765 369.6 
L 222.531765 369.6 
L 222.531765 358.4 
L 190.531765 358.4 
z
" style="fill:#808080;opacity:0.2;stroke:#808080;stroke-linejoin:miter;stroke-width:0.3;"/>
    </g>
    <g id="text_17">
     <!-- $\pm$ 1 std. dev. -->
     <defs>
      <path d="M 40.234375 0 
L 40.234375 6.546875 
Q 35.296875 -1.171875 25.734375 -1.171875 
Q 19.53125 -1.171875 14.328125 2.25 
Q 9.125 5.671875 6.265625 11.796875 
Q 3.421875 17.921875 3.421875 25.875 
Q 3.421875 33.640625 6 39.96875 
Q 8.59375 46.296875 13.765625 49.65625 
Q 18.953125 53.03125 25.34375 53.03125 
Q 30.03125 53.03125 33.6875 51.046875 
Q 37.359375 49.078125 39.65625 45.90625 
L 39.65625 71.578125 
L 48.390625 71.578125 
L 48.390625 0 
z
M 12.453125 25.875 
Q 12.453125 15.921875 16.640625 10.984375 
Q 20.84375 6.0625 26.5625 6.0625 
Q 32.328125 6.0625 36.34375 10.765625 
Q 40.375 15.484375 40.375 25.140625 
Q 40.375 35.796875 36.265625 40.765625 
Q 32.171875 45.75 26.171875 45.75 
Q 20.3125 45.75 16.375 40.96875 
Q 12.453125 36.1875 12.453125 25.875 
" id="ArialMT-64"/>
     </defs>
     <g style="fill:#262626;" transform="translate(235.331764706 369.6)scale(0.16 -0.16)">
      <use transform="translate(0.0 0.125)" xlink:href="#Cmsy10-a7"/>
      <use transform="translate(77.685546875 0.125)" xlink:href="#ArialMT-20"/>
      <use transform="translate(105.46875 0.125)" xlink:href="#ArialMT-31"/>
      <use transform="translate(161.083984375 0.125)" xlink:href="#ArialMT-20"/>
      <use transform="translate(188.8671875 0.125)" xlink:href="#ArialMT-73"/>
      <use transform="translate(238.8671875 0.125)" xlink:href="#ArialMT-74"/>
      <use transform="translate(266.650390625 0.125)" xlink:href="#ArialMT-64"/>
      <use transform="translate(322.265625 0.125)" xlink:href="#ArialMT-2e"/>
      <use transform="translate(350.048828125 0.125)" xlink:href="#ArialMT-20"/>
      <use transform="translate(377.83203125 0.125)" xlink:href="#ArialMT-64"/>
      <use transform="translate(433.447265625 0.125)" xlink:href="#ArialMT-65"/>
      <use transform="translate(489.0625 0.125)" xlink:href="#ArialMT-76"/>
      <use transform="translate(539.0625 0.125)" xlink:href="#ArialMT-2e"/>
     </g>
    </g>
   </g>
  </g>
  <g id="axes_2">
   <g id="patch_8">
    <path d="M 516.494118 387.18 
L 811.905882 387.18 
L 811.905882 43.02 
L 516.494118 43.02 
z
" style="fill:#eaeaf2;"/>
   </g>
   <g id="matplotlib.axis_3">
    <g id="xtick_7">
     <g id="line2d_29">
      <g>
       <use style="fill:#262626;stroke:#262626;" x="516.494117647" xlink:href="#m4968470c1d" y="387.18"/>
      </g>
     </g>
     <g id="line2d_30">
      <g>
       <use style="fill:#262626;stroke:#262626;" x="516.494117647" xlink:href="#m4968470c1d" y="43.02"/>
      </g>
     </g>
     <g id="text_18">
      <!-- 0.0 -->
      <g style="fill:#262626;" transform="translate(509.544117647 401.3378125)scale(0.1 -0.1)">
       <use xlink:href="#ArialMT-30"/>
       <use x="55.615234375" xlink:href="#ArialMT-2e"/>
       <use x="83.3984375" xlink:href="#ArialMT-30"/>
      </g>
     </g>
    </g>
    <g id="xtick_8">
     <g id="line2d_31">
      <g>
       <use style="fill:#262626;stroke:#262626;" x="575.576470588" xlink:href="#m4968470c1d" y="387.18"/>
      </g>
     </g>
     <g id="line2d_32">
      <g>
       <use style="fill:#262626;stroke:#262626;" x="575.576470588" xlink:href="#m4968470c1d" y="43.02"/>
      </g>
     </g>
     <g id="text_19">
      <!-- 0.2 -->
      <g style="fill:#262626;" transform="translate(568.626470588 401.3378125)scale(0.1 -0.1)">
       <use xlink:href="#ArialMT-30"/>
       <use x="55.615234375" xlink:href="#ArialMT-2e"/>
       <use x="83.3984375" xlink:href="#ArialMT-32"/>
      </g>
     </g>
    </g>
    <g id="xtick_9">
     <g id="line2d_33">
      <g>
       <use style="fill:#262626;stroke:#262626;" x="634.658823529" xlink:href="#m4968470c1d" y="387.18"/>
      </g>
     </g>
     <g id="line2d_34">
      <g>
       <use style="fill:#262626;stroke:#262626;" x="634.658823529" xlink:href="#m4968470c1d" y="43.02"/>
      </g>
     </g>
     <g id="text_20">
      <!-- 0.4 -->
      <g style="fill:#262626;" transform="translate(627.708823529 401.3378125)scale(0.1 -0.1)">
       <use xlink:href="#ArialMT-30"/>
       <use x="55.615234375" xlink:href="#ArialMT-2e"/>
       <use x="83.3984375" xlink:href="#ArialMT-34"/>
      </g>
     </g>
    </g>
    <g id="xtick_10">
     <g id="line2d_35">
      <g>
       <use style="fill:#262626;stroke:#262626;" x="693.741176471" xlink:href="#m4968470c1d" y="387.18"/>
      </g>
     </g>
     <g id="line2d_36">
      <g>
       <use style="fill:#262626;stroke:#262626;" x="693.741176471" xlink:href="#m4968470c1d" y="43.02"/>
      </g>
     </g>
     <g id="text_21">
      <!-- 0.6 -->
      <g style="fill:#262626;" transform="translate(686.791176471 401.3378125)scale(0.1 -0.1)">
       <use xlink:href="#ArialMT-30"/>
       <use x="55.615234375" xlink:href="#ArialMT-2e"/>
       <use x="83.3984375" xlink:href="#ArialMT-36"/>
      </g>
     </g>
    </g>
    <g id="xtick_11">
     <g id="line2d_37">
      <g>
       <use style="fill:#262626;stroke:#262626;" x="752.823529412" xlink:href="#m4968470c1d" y="387.18"/>
      </g>
     </g>
     <g id="line2d_38">
      <g>
       <use style="fill:#262626;stroke:#262626;" x="752.823529412" xlink:href="#m4968470c1d" y="43.02"/>
      </g>
     </g>
     <g id="text_22">
      <!-- 0.8 -->
      <g style="fill:#262626;" transform="translate(745.873529412 401.3378125)scale(0.1 -0.1)">
       <use xlink:href="#ArialMT-30"/>
       <use x="55.615234375" xlink:href="#ArialMT-2e"/>
       <use x="83.3984375" xlink:href="#ArialMT-38"/>
      </g>
     </g>
    </g>
    <g id="xtick_12">
     <g id="line2d_39">
      <g>
       <use style="fill:#262626;stroke:#262626;" x="811.905882353" xlink:href="#m4968470c1d" y="387.18"/>
      </g>
     </g>
     <g id="line2d_40">
      <g>
       <use style="fill:#262626;stroke:#262626;" x="811.905882353" xlink:href="#m4968470c1d" y="43.02"/>
      </g>
     </g>
     <g id="text_23">
      <!-- 1.0 -->
      <g style="fill:#262626;" transform="translate(804.955882353 401.3378125)scale(0.1 -0.1)">
       <use xlink:href="#ArialMT-31"/>
       <use x="55.615234375" xlink:href="#ArialMT-2e"/>
       <use x="83.3984375" xlink:href="#ArialMT-30"/>
      </g>
     </g>
    </g>
    <g id="text_24">
     <!-- False Positive Rate -->
     <g style="fill:#262626;" transform="translate(595.285 419.7778125)scale(0.16 -0.16)">
      <use xlink:href="#ArialMT-46"/>
      <use x="61.083984375" xlink:href="#ArialMT-61"/>
      <use x="116.69921875" xlink:href="#ArialMT-6c"/>
      <use x="138.916015625" xlink:href="#ArialMT-73"/>
      <use x="188.916015625" xlink:href="#ArialMT-65"/>
      <use x="244.53125" xlink:href="#ArialMT-20"/>
      <use x="272.314453125" xlink:href="#ArialMT-50"/>
      <use x="339.013671875" xlink:href="#ArialMT-6f"/>
      <use x="394.62890625" xlink:href="#ArialMT-73"/>
      <use x="444.62890625" xlink:href="#ArialMT-69"/>
      <use x="466.845703125" xlink:href="#ArialMT-74"/>
      <use x="494.62890625" xlink:href="#ArialMT-69"/>
      <use x="516.845703125" xlink:href="#ArialMT-76"/>
      <use x="566.845703125" xlink:href="#ArialMT-65"/>
      <use x="622.4609375" xlink:href="#ArialMT-20"/>
      <use x="650.244140625" xlink:href="#ArialMT-52"/>
      <use x="722.4609375" xlink:href="#ArialMT-61"/>
      <use x="778.076171875" xlink:href="#ArialMT-74"/>
      <use x="805.859375" xlink:href="#ArialMT-65"/>
     </g>
    </g>
   </g>
   <g id="matplotlib.axis_4">
    <g id="ytick_7">
     <g id="line2d_41">
      <g>
       <use style="fill:#262626;stroke:#262626;" x="516.494117647" xlink:href="#m4968470c1d" y="387.18"/>
      </g>
     </g>
     <g id="line2d_42">
      <g>
       <use style="fill:#262626;stroke:#262626;" x="811.905882353" xlink:href="#m4968470c1d" y="387.18"/>
      </g>
     </g>
     <g id="text_25">
      <!-- 0.0 -->
      <g style="fill:#262626;" transform="translate(495.594117647 389.76515625)scale(0.1 -0.1)">
       <use xlink:href="#ArialMT-30"/>
       <use x="55.615234375" xlink:href="#ArialMT-2e"/>
       <use x="83.3984375" xlink:href="#ArialMT-30"/>
      </g>
     </g>
    </g>
    <g id="ytick_8">
     <g id="line2d_43">
      <g>
       <use style="fill:#262626;stroke:#262626;" x="516.494117647" xlink:href="#m4968470c1d" y="318.348"/>
      </g>
     </g>
     <g id="line2d_44">
      <g>
       <use style="fill:#262626;stroke:#262626;" x="811.905882353" xlink:href="#m4968470c1d" y="318.348"/>
      </g>
     </g>
     <g id="text_26">
      <!-- 0.2 -->
      <g style="fill:#262626;" transform="translate(495.594117647 320.93315625)scale(0.1 -0.1)">
       <use xlink:href="#ArialMT-30"/>
       <use x="55.615234375" xlink:href="#ArialMT-2e"/>
       <use x="83.3984375" xlink:href="#ArialMT-32"/>
      </g>
     </g>
    </g>
    <g id="ytick_9">
     <g id="line2d_45">
      <g>
       <use style="fill:#262626;stroke:#262626;" x="516.494117647" xlink:href="#m4968470c1d" y="249.516"/>
      </g>
     </g>
     <g id="line2d_46">
      <g>
       <use style="fill:#262626;stroke:#262626;" x="811.905882353" xlink:href="#m4968470c1d" y="249.516"/>
      </g>
     </g>
     <g id="text_27">
      <!-- 0.4 -->
      <g style="fill:#262626;" transform="translate(495.594117647 252.10115625)scale(0.1 -0.1)">
       <use xlink:href="#ArialMT-30"/>
       <use x="55.615234375" xlink:href="#ArialMT-2e"/>
       <use x="83.3984375" xlink:href="#ArialMT-34"/>
      </g>
     </g>
    </g>
    <g id="ytick_10">
     <g id="line2d_47">
      <g>
       <use style="fill:#262626;stroke:#262626;" x="516.494117647" xlink:href="#m4968470c1d" y="180.684"/>
      </g>
     </g>
     <g id="line2d_48">
      <g>
       <use style="fill:#262626;stroke:#262626;" x="811.905882353" xlink:href="#m4968470c1d" y="180.684"/>
      </g>
     </g>
     <g id="text_28">
      <!-- 0.6 -->
      <g style="fill:#262626;" transform="translate(495.594117647 183.26915625)scale(0.1 -0.1)">
       <use xlink:href="#ArialMT-30"/>
       <use x="55.615234375" xlink:href="#ArialMT-2e"/>
       <use x="83.3984375" xlink:href="#ArialMT-36"/>
      </g>
     </g>
    </g>
    <g id="ytick_11">
     <g id="line2d_49">
      <g>
       <use style="fill:#262626;stroke:#262626;" x="516.494117647" xlink:href="#m4968470c1d" y="111.852"/>
      </g>
     </g>
     <g id="line2d_50">
      <g>
       <use style="fill:#262626;stroke:#262626;" x="811.905882353" xlink:href="#m4968470c1d" y="111.852"/>
      </g>
     </g>
     <g id="text_29">
      <!-- 0.8 -->
      <g style="fill:#262626;" transform="translate(495.594117647 114.43715625)scale(0.1 -0.1)">
       <use xlink:href="#ArialMT-30"/>
       <use x="55.615234375" xlink:href="#ArialMT-2e"/>
       <use x="83.3984375" xlink:href="#ArialMT-38"/>
      </g>
     </g>
    </g>
    <g id="ytick_12">
     <g id="line2d_51">
      <g>
       <use style="fill:#262626;stroke:#262626;" x="516.494117647" xlink:href="#m4968470c1d" y="43.02"/>
      </g>
     </g>
     <g id="line2d_52">
      <g>
       <use style="fill:#262626;stroke:#262626;" x="811.905882353" xlink:href="#m4968470c1d" y="43.02"/>
      </g>
     </g>
     <g id="text_30">
      <!-- 1.0 -->
      <g style="fill:#262626;" transform="translate(495.594117647 45.60515625)scale(0.1 -0.1)">
       <use xlink:href="#ArialMT-31"/>
       <use x="55.615234375" xlink:href="#ArialMT-2e"/>
       <use x="83.3984375" xlink:href="#ArialMT-30"/>
      </g>
     </g>
    </g>
    <g id="text_31">
     <!-- True Positive Rate -->
     <g style="fill:#262626;" transform="translate(487.414117647 280.8975)rotate(-90.0)scale(0.16 -0.16)">
      <use xlink:href="#ArialMT-54"/>
      <use x="61.037109375" xlink:href="#ArialMT-72"/>
      <use x="94.337890625" xlink:href="#ArialMT-75"/>
      <use x="149.953125" xlink:href="#ArialMT-65"/>
      <use x="205.568359375" xlink:href="#ArialMT-20"/>
      <use x="233.3515625" xlink:href="#ArialMT-50"/>
      <use x="300.05078125" xlink:href="#ArialMT-6f"/>
      <use x="355.666015625" xlink:href="#ArialMT-73"/>
      <use x="405.666015625" xlink:href="#ArialMT-69"/>
      <use x="427.8828125" xlink:href="#ArialMT-74"/>
      <use x="455.666015625" xlink:href="#ArialMT-69"/>
      <use x="477.8828125" xlink:href="#ArialMT-76"/>
      <use x="527.8828125" xlink:href="#ArialMT-65"/>
      <use x="583.498046875" xlink:href="#ArialMT-20"/>
      <use x="611.28125" xlink:href="#ArialMT-52"/>
      <use x="683.498046875" xlink:href="#ArialMT-61"/>
      <use x="739.11328125" xlink:href="#ArialMT-74"/>
      <use x="766.896484375" xlink:href="#ArialMT-65"/>
     </g>
    </g>
   </g>
   <g id="PolyCollection_2">
    <defs>
     <path d="M 516.494118 -102.504444 
L 516.494118 -102.504444 
L 519.478075 -101.64554 
L 522.462032 -105.894429 
L 525.445989 -105.361358 
L 528.429947 -126.605802 
L 531.413904 -127.245287 
L 534.397861 -131.494176 
L 537.381818 -149.994568 
L 540.365775 -166.990124 
L 543.349733 -162.141687 
L 546.33369 -167.915028 
L 549.317647 -176.412806 
L 552.301604 -191.774697 
L 555.285561 -196.023586 
L 558.269519 -190.082046 
L 561.253476 -190.082046 
L 564.237433 -190.082046 
L 567.22139 -190.082046 
L 570.205348 -190.082046 
L 573.189305 -193.274961 
L 576.173262 -197.52385 
L 579.157219 -196.278786 
L 582.141176 -204.776564 
L 585.125134 -204.776564 
L 588.109091 -213.089873 
L 591.093048 -217.338762 
L 594.077005 -232.09686 
L 597.060963 -236.345749 
L 600.04492 -239.942694 
L 603.028877 -239.942694 
L 606.012834 -241.379369 
L 608.996791 -241.379369 
L 611.980749 -241.379369 
L 614.964706 -253.773002 
L 617.948663 -258.021891 
L 620.93262 -256.830532 
L 623.916578 -261.079421 
L 626.900535 -265.32831 
L 629.884492 -265.32831 
L 632.868449 -273.826088 
L 635.852406 -273.826088 
L 638.836364 -273.826088 
L 641.820321 -289.779758 
L 644.804278 -289.779758 
L 647.788235 -289.779758 
L 650.772193 -298.277535 
L 653.75615 -298.277535 
L 656.740107 -302.526424 
L 659.724064 -303.760313 
L 662.708021 -303.760313 
L 665.691979 -303.760313 
L 668.675936 -303.760313 
L 671.659893 -303.435019 
L 674.64385 -307.683908 
L 677.627807 -307.683908 
L 680.611765 -311.932797 
L 683.595722 -318.520266 
L 686.579679 -314.524 
L 689.563636 -319.762416 
L 692.547594 -324.011305 
L 695.531551 -321.575774 
L 698.515508 -321.575774 
L 701.499465 -325.824663 
L 704.483422 -330.229541 
L 707.46738 -330.229541 
L 710.451337 -330.229541 
L 713.435294 -330.229541 
L 716.419251 -330.229541 
L 719.403209 -330.229541 
L 722.387166 -330.229541 
L 725.371123 -330.229541 
L 728.35508 -338.727319 
L 731.339037 -338.727319 
L 734.322995 -338.727319 
L 737.306952 -338.727319 
L 740.290909 -338.727319 
L 743.274866 -338.727319 
L 746.258824 -338.727319 
L 749.242781 -338.727319 
L 752.226738 -349.109035 
L 755.210695 -353.357924 
L 758.194652 -353.357924 
L 761.17861 -353.357924 
L 764.162567 -353.357924 
L 767.146524 -357.606812 
L 770.130481 -357.606812 
L 773.114439 -357.606812 
L 776.098396 -357.606812 
L 779.082353 -361.474222 
L 782.06631 -361.474222 
L 785.050267 -361.474222 
L 788.034225 -361.474222 
L 791.018182 -361.474222 
L 794.002139 -365.723111 
L 796.986096 -365.723111 
L 799.970053 -369.972 
L 802.954011 -369.972 
L 805.937968 -378.576 
L 808.921925 -378.576 
L 811.905882 -387.18 
L 811.905882 -387.18 
L 811.905882 -387.18 
L 808.921925 -387.18 
L 805.937968 -387.18 
L 802.954011 -387.18 
L 799.970053 -387.18 
L 796.986096 -387.18 
L 794.002139 -387.18 
L 791.018182 -387.18 
L 788.034225 -387.18 
L 785.050267 -387.18 
L 782.06631 -387.18 
L 779.082353 -387.18 
L 776.098396 -387.18 
L 773.114439 -387.18 
L 770.130481 -387.18 
L 767.146524 -387.18 
L 764.162567 -387.18 
L 761.17861 -387.18 
L 758.194652 -387.18 
L 755.210695 -387.18 
L 752.226738 -387.18 
L 749.242781 -387.18 
L 746.258824 -387.18 
L 743.274866 -387.18 
L 740.290909 -387.18 
L 737.306952 -387.18 
L 734.322995 -387.18 
L 731.339037 -387.18 
L 728.35508 -387.18 
L 725.371123 -384.646015 
L 722.387166 -384.646015 
L 719.403209 -384.646015 
L 716.419251 -384.646015 
L 713.435294 -384.646015 
L 710.451337 -384.646015 
L 707.46738 -384.646015 
L 704.483422 -384.646015 
L 701.499465 -387.18 
L 698.515508 -384.802004 
L 695.531551 -384.802004 
L 692.547594 -382.366472 
L 689.563636 -378.117584 
L 686.579679 -383.356 
L 683.595722 -379.359734 
L 680.611765 -385.947203 
L 677.627807 -381.698314 
L 674.64385 -381.698314 
L 671.659893 -377.449426 
L 668.675936 -368.626354 
L 665.691979 -368.626354 
L 662.708021 -368.626354 
L 659.724064 -368.626354 
L 656.740107 -361.362465 
L 653.75615 -357.113576 
L 650.772193 -357.113576 
L 647.788235 -348.615798 
L 644.804278 -348.615798 
L 641.820321 -348.615798 
L 638.836364 -364.569468 
L 635.852406 -364.569468 
L 632.868449 -364.569468 
L 629.884492 -356.07169 
L 626.900535 -356.07169 
L 623.916578 -351.822801 
L 620.93262 -347.573912 
L 617.948663 -346.382553 
L 614.964706 -342.133664 
L 611.980749 -346.02952 
L 608.996791 -346.02952 
L 606.012834 -346.02952 
L 603.028877 -347.466194 
L 600.04492 -347.466194 
L 597.060963 -342.565362 
L 594.077005 -338.316474 
L 591.093048 -353.074571 
L 588.109091 -348.825682 
L 585.125134 -357.138992 
L 582.141176 -357.138992 
L 579.157219 -348.641214 
L 576.173262 -338.898373 
L 573.189305 -334.649484 
L 570.205348 -337.842398 
L 567.22139 -337.842398 
L 564.237433 -337.842398 
L 561.253476 -337.842398 
L 558.269519 -337.842398 
L 555.285561 -331.900858 
L 552.301604 -327.651969 
L 549.317647 -326.018306 
L 546.33369 -317.520528 
L 543.349733 -323.293869 
L 540.365775 -301.449876 
L 537.381818 -284.454321 
L 534.397861 -260.465824 
L 531.413904 -256.216935 
L 528.429947 -239.860864 
L 525.445989 -218.61642 
L 522.462032 -209.585571 
L 519.478075 -205.336682 
L 516.494118 -102.504444 
z
" id="m9ed0f1d270" style="stroke:#808080;stroke-opacity:0.2;stroke-width:0.3;"/>
    </defs>
    <g clip-path="url(#pd3d4786871)">
     <use style="fill:#808080;fill-opacity:0.2;stroke:#808080;stroke-opacity:0.2;stroke-width:0.3;" x="0.0" xlink:href="#m9ed0f1d270" y="430.2"/>
    </g>
   </g>
   <g id="line2d_53">
    <path clip-path="url(#pd3d4786871)" d="M 516.494118 387.18 
L 811.905882 43.02 
" style="fill:none;opacity:0.5;stroke:#000000;stroke-dasharray:6.000000,6.000000;stroke-dashoffset:0.0;"/>
   </g>
   <g id="line2d_54">
    <path clip-path="url(#pd3d4786871)" d="M 516.494118 382.931111 
L 516.494118 327.695556 
L 517.855462 327.695556 
L 517.855462 293.704444 
L 519.216807 293.704444 
L 519.216807 276.708889 
L 521.939496 276.708889 
L 521.939496 272.46 
L 523.30084 272.46 
L 523.30084 268.211111 
L 527.384874 268.211111 
L 527.384874 246.966667 
L 528.746218 246.966667 
L 528.746218 242.717778 
L 530.107563 242.717778 
L 530.107563 238.468889 
L 531.468908 238.468889 
L 531.468908 234.22 
L 535.552941 234.22 
L 535.552941 225.722222 
L 536.914286 225.722222 
L 536.914286 212.975556 
L 538.27563 212.975556 
L 538.27563 195.98 
L 540.998319 195.98 
L 540.998319 187.482222 
L 546.443697 187.482222 
L 546.443697 183.233333 
L 547.805042 183.233333 
L 547.805042 178.984444 
L 550.527731 178.984444 
L 550.527731 170.486667 
L 554.611765 170.486667 
L 554.611765 166.237778 
L 575.031933 166.237778 
L 575.031933 161.988889 
L 576.393277 161.988889 
L 576.393277 157.74 
L 581.838655 157.74 
L 581.838655 149.242222 
L 588.645378 149.242222 
L 588.645378 144.993333 
L 595.452101 144.993333 
L 595.452101 140.744444 
L 599.536134 140.744444 
L 599.536134 136.495556 
L 614.510924 136.495556 
L 614.510924 132.246667 
L 617.233613 132.246667 
L 617.233613 127.997778 
L 622.678992 127.997778 
L 622.678992 123.748889 
L 626.763025 123.748889 
L 626.763025 119.5 
L 632.208403 119.5 
L 632.208403 111.002222 
L 649.905882 111.002222 
L 649.905882 102.504444 
L 653.989916 102.504444 
L 653.989916 98.255556 
L 659.435294 98.255556 
L 659.435294 94.006667 
L 668.964706 94.006667 
L 668.964706 89.757778 
L 671.687395 89.757778 
L 671.687395 85.508889 
L 678.494118 85.508889 
L 678.494118 81.26 
L 690.746218 81.26 
L 690.746218 77.011111 
L 700.27563 77.011111 
L 700.27563 72.762222 
L 727.502521 72.762222 
L 727.502521 64.264444 
L 749.284034 64.264444 
L 749.284034 60.015556 
L 753.368067 60.015556 
L 753.368067 55.766667 
L 766.981513 55.766667 
L 766.981513 51.517778 
L 792.847059 51.517778 
L 792.847059 47.268889 
L 798.292437 47.268889 
L 798.292437 43.02 
L 811.905882 43.02 
" style="fill:none;stroke:#97f0aa;stroke-linecap:round;stroke-width:3.0;"/>
   </g>
   <g id="patch_9">
    <path d="M 516.494118 43.02 
L 811.905882 43.02 
" style="fill:none;"/>
   </g>
   <g id="patch_10">
    <path d="M 811.905882 387.18 
L 811.905882 43.02 
" style="fill:none;"/>
   </g>
   <g id="patch_11">
    <path d="M 516.494118 387.18 
L 811.905882 387.18 
" style="fill:none;"/>
   </g>
   <g id="patch_12">
    <path d="M 516.494118 387.18 
L 516.494118 43.02 
" style="fill:none;"/>
   </g>
   <g id="legend_2">
    <g id="line2d_55">
     <path d="M 558.305882 341.0275 
L 590.305882 341.0275 
" style="fill:none;stroke:#97f0aa;stroke-linecap:round;stroke-width:3.0;"/>
    </g>
    <g id="line2d_56"/>
    <g id="text_32">
     <!-- cv Val (AUC = 0.80 $\pm$ 0.10) -->
     <defs>
      <path d="M 28.171875 0 
L 0.4375 71.578125 
L 10.6875 71.578125 
L 29.296875 19.578125 
Q 31.546875 13.328125 33.0625 7.859375 
Q 34.71875 13.71875 36.921875 19.578125 
L 56.25 71.578125 
L 65.921875 71.578125 
L 37.890625 0 
z
" id="ArialMT-56"/>
     </defs>
     <g style="fill:#262626;" transform="translate(603.105882353 346.6275)scale(0.16 -0.16)">
      <use transform="translate(0.0 0.203125)" xlink:href="#ArialMT-63"/>
      <use transform="translate(50.0 0.203125)" xlink:href="#ArialMT-76"/>
      <use transform="translate(100.0 0.203125)" xlink:href="#ArialMT-20"/>
      <use transform="translate(127.783203125 0.203125)" xlink:href="#ArialMT-56"/>
      <use transform="translate(194.482421875 0.203125)" xlink:href="#ArialMT-61"/>
      <use transform="translate(250.09765625 0.203125)" xlink:href="#ArialMT-6c"/>
      <use transform="translate(272.314453125 0.203125)" xlink:href="#ArialMT-20"/>
      <use transform="translate(300.09765625 0.203125)" xlink:href="#ArialMT-28"/>
      <use transform="translate(333.3984375 0.203125)" xlink:href="#ArialMT-41"/>
      <use transform="translate(400.09765625 0.203125)" xlink:href="#ArialMT-55"/>
      <use transform="translate(472.314453125 0.203125)" xlink:href="#ArialMT-43"/>
      <use transform="translate(544.53125 0.203125)" xlink:href="#ArialMT-20"/>
      <use transform="translate(572.314453125 0.203125)" xlink:href="#ArialMT-3d"/>
      <use transform="translate(630.712890625 0.203125)" xlink:href="#ArialMT-20"/>
      <use transform="translate(658.49609375 0.203125)" xlink:href="#ArialMT-30"/>
      <use transform="translate(714.111328125 0.203125)" xlink:href="#ArialMT-2e"/>
      <use transform="translate(741.89453125 0.203125)" xlink:href="#ArialMT-38"/>
      <use transform="translate(797.509765625 0.203125)" xlink:href="#ArialMT-30"/>
      <use transform="translate(853.125 0.203125)" xlink:href="#ArialMT-20"/>
      <use transform="translate(880.908203125 0.203125)" xlink:href="#Cmsy10-a7"/>
      <use transform="translate(958.59375 0.203125)" xlink:href="#ArialMT-20"/>
      <use transform="translate(986.376953125 0.203125)" xlink:href="#ArialMT-30"/>
      <use transform="translate(1041.9921875 0.203125)" xlink:href="#ArialMT-2e"/>
      <use transform="translate(1069.77539062 0.203125)" xlink:href="#ArialMT-31"/>
      <use transform="translate(1125.390625 0.203125)" xlink:href="#ArialMT-30"/>
      <use transform="translate(1181.00585938 0.203125)" xlink:href="#ArialMT-29"/>
     </g>
    </g>
    <g id="patch_13">
     <path d="M 558.305882 369.6 
L 590.305882 369.6 
L 590.305882 358.4 
L 558.305882 358.4 
z
" style="fill:#808080;opacity:0.2;stroke:#808080;stroke-linejoin:miter;stroke-width:0.3;"/>
    </g>
    <g id="text_33">
     <!-- $\pm$ 1 std. dev. -->
     <g style="fill:#262626;" transform="translate(603.105882353 369.6)scale(0.16 -0.16)">
      <use transform="translate(0.0 0.125)" xlink:href="#Cmsy10-a7"/>
      <use transform="translate(77.685546875 0.125)" xlink:href="#ArialMT-20"/>
      <use transform="translate(105.46875 0.125)" xlink:href="#ArialMT-31"/>
      <use transform="translate(161.083984375 0.125)" xlink:href="#ArialMT-20"/>
      <use transform="translate(188.8671875 0.125)" xlink:href="#ArialMT-73"/>
      <use transform="translate(238.8671875 0.125)" xlink:href="#ArialMT-74"/>
      <use transform="translate(266.650390625 0.125)" xlink:href="#ArialMT-64"/>
      <use transform="translate(322.265625 0.125)" xlink:href="#ArialMT-2e"/>
      <use transform="translate(350.048828125 0.125)" xlink:href="#ArialMT-20"/>
      <use transform="translate(377.83203125 0.125)" xlink:href="#ArialMT-64"/>
      <use transform="translate(433.447265625 0.125)" xlink:href="#ArialMT-65"/>
      <use transform="translate(489.0625 0.125)" xlink:href="#ArialMT-76"/>
      <use transform="translate(539.0625 0.125)" xlink:href="#ArialMT-2e"/>
     </g>
    </g>
   </g>
  </g>
  <g id="axes_3">
   <g id="patch_14">
    <path d="M 870.988235 387.18 
L 1166.4 387.18 
L 1166.4 43.02 
L 870.988235 43.02 
z
" style="fill:#eaeaf2;"/>
   </g>
   <g id="matplotlib.axis_5">
    <g id="xtick_13">
     <g id="line2d_57">
      <g>
       <use style="fill:#262626;stroke:#262626;" x="870.988235294" xlink:href="#m4968470c1d" y="387.18"/>
      </g>
     </g>
     <g id="line2d_58">
      <g>
       <use style="fill:#262626;stroke:#262626;" x="870.988235294" xlink:href="#m4968470c1d" y="43.02"/>
      </g>
     </g>
     <g id="text_34">
      <!-- 0.0 -->
      <g style="fill:#262626;" transform="translate(864.038235294 401.3378125)scale(0.1 -0.1)">
       <use xlink:href="#ArialMT-30"/>
       <use x="55.615234375" xlink:href="#ArialMT-2e"/>
       <use x="83.3984375" xlink:href="#ArialMT-30"/>
      </g>
     </g>
    </g>
    <g id="xtick_14">
     <g id="line2d_59">
      <g>
       <use style="fill:#262626;stroke:#262626;" x="930.070588235" xlink:href="#m4968470c1d" y="387.18"/>
      </g>
     </g>
     <g id="line2d_60">
      <g>
       <use style="fill:#262626;stroke:#262626;" x="930.070588235" xlink:href="#m4968470c1d" y="43.02"/>
      </g>
     </g>
     <g id="text_35">
      <!-- 0.2 -->
      <g style="fill:#262626;" transform="translate(923.120588235 401.3378125)scale(0.1 -0.1)">
       <use xlink:href="#ArialMT-30"/>
       <use x="55.615234375" xlink:href="#ArialMT-2e"/>
       <use x="83.3984375" xlink:href="#ArialMT-32"/>
      </g>
     </g>
    </g>
    <g id="xtick_15">
     <g id="line2d_61">
      <g>
       <use style="fill:#262626;stroke:#262626;" x="989.152941176" xlink:href="#m4968470c1d" y="387.18"/>
      </g>
     </g>
     <g id="line2d_62">
      <g>
       <use style="fill:#262626;stroke:#262626;" x="989.152941176" xlink:href="#m4968470c1d" y="43.02"/>
      </g>
     </g>
     <g id="text_36">
      <!-- 0.4 -->
      <g style="fill:#262626;" transform="translate(982.202941176 401.3378125)scale(0.1 -0.1)">
       <use xlink:href="#ArialMT-30"/>
       <use x="55.615234375" xlink:href="#ArialMT-2e"/>
       <use x="83.3984375" xlink:href="#ArialMT-34"/>
      </g>
     </g>
    </g>
    <g id="xtick_16">
     <g id="line2d_63">
      <g>
       <use style="fill:#262626;stroke:#262626;" x="1048.23529412" xlink:href="#m4968470c1d" y="387.18"/>
      </g>
     </g>
     <g id="line2d_64">
      <g>
       <use style="fill:#262626;stroke:#262626;" x="1048.23529412" xlink:href="#m4968470c1d" y="43.02"/>
      </g>
     </g>
     <g id="text_37">
      <!-- 0.6 -->
      <g style="fill:#262626;" transform="translate(1041.28529412 401.3378125)scale(0.1 -0.1)">
       <use xlink:href="#ArialMT-30"/>
       <use x="55.615234375" xlink:href="#ArialMT-2e"/>
       <use x="83.3984375" xlink:href="#ArialMT-36"/>
      </g>
     </g>
    </g>
    <g id="xtick_17">
     <g id="line2d_65">
      <g>
       <use style="fill:#262626;stroke:#262626;" x="1107.31764706" xlink:href="#m4968470c1d" y="387.18"/>
      </g>
     </g>
     <g id="line2d_66">
      <g>
       <use style="fill:#262626;stroke:#262626;" x="1107.31764706" xlink:href="#m4968470c1d" y="43.02"/>
      </g>
     </g>
     <g id="text_38">
      <!-- 0.8 -->
      <g style="fill:#262626;" transform="translate(1100.36764706 401.3378125)scale(0.1 -0.1)">
       <use xlink:href="#ArialMT-30"/>
       <use x="55.615234375" xlink:href="#ArialMT-2e"/>
       <use x="83.3984375" xlink:href="#ArialMT-38"/>
      </g>
     </g>
    </g>
    <g id="xtick_18">
     <g id="line2d_67">
      <g>
       <use style="fill:#262626;stroke:#262626;" x="1166.4" xlink:href="#m4968470c1d" y="387.18"/>
      </g>
     </g>
     <g id="line2d_68">
      <g>
       <use style="fill:#262626;stroke:#262626;" x="1166.4" xlink:href="#m4968470c1d" y="43.02"/>
      </g>
     </g>
     <g id="text_39">
      <!-- 1.0 -->
      <g style="fill:#262626;" transform="translate(1159.45 401.3378125)scale(0.1 -0.1)">
       <use xlink:href="#ArialMT-31"/>
       <use x="55.615234375" xlink:href="#ArialMT-2e"/>
       <use x="83.3984375" xlink:href="#ArialMT-30"/>
      </g>
     </g>
    </g>
    <g id="text_40">
     <!-- False Positive Rate -->
     <g style="fill:#262626;" transform="translate(949.779117647 419.7778125)scale(0.16 -0.16)">
      <use xlink:href="#ArialMT-46"/>
      <use x="61.083984375" xlink:href="#ArialMT-61"/>
      <use x="116.69921875" xlink:href="#ArialMT-6c"/>
      <use x="138.916015625" xlink:href="#ArialMT-73"/>
      <use x="188.916015625" xlink:href="#ArialMT-65"/>
      <use x="244.53125" xlink:href="#ArialMT-20"/>
      <use x="272.314453125" xlink:href="#ArialMT-50"/>
      <use x="339.013671875" xlink:href="#ArialMT-6f"/>
      <use x="394.62890625" xlink:href="#ArialMT-73"/>
      <use x="444.62890625" xlink:href="#ArialMT-69"/>
      <use x="466.845703125" xlink:href="#ArialMT-74"/>
      <use x="494.62890625" xlink:href="#ArialMT-69"/>
      <use x="516.845703125" xlink:href="#ArialMT-76"/>
      <use x="566.845703125" xlink:href="#ArialMT-65"/>
      <use x="622.4609375" xlink:href="#ArialMT-20"/>
      <use x="650.244140625" xlink:href="#ArialMT-52"/>
      <use x="722.4609375" xlink:href="#ArialMT-61"/>
      <use x="778.076171875" xlink:href="#ArialMT-74"/>
      <use x="805.859375" xlink:href="#ArialMT-65"/>
     </g>
    </g>
   </g>
   <g id="matplotlib.axis_6">
    <g id="ytick_13">
     <g id="line2d_69">
      <g>
       <use style="fill:#262626;stroke:#262626;" x="870.988235294" xlink:href="#m4968470c1d" y="387.18"/>
      </g>
     </g>
     <g id="line2d_70">
      <g>
       <use style="fill:#262626;stroke:#262626;" x="1166.4" xlink:href="#m4968470c1d" y="387.18"/>
      </g>
     </g>
     <g id="text_41">
      <!-- 0.0 -->
      <g style="fill:#262626;" transform="translate(850.088235294 389.76515625)scale(0.1 -0.1)">
       <use xlink:href="#ArialMT-30"/>
       <use x="55.615234375" xlink:href="#ArialMT-2e"/>
       <use x="83.3984375" xlink:href="#ArialMT-30"/>
      </g>
     </g>
    </g>
    <g id="ytick_14">
     <g id="line2d_71">
      <g>
       <use style="fill:#262626;stroke:#262626;" x="870.988235294" xlink:href="#m4968470c1d" y="318.348"/>
      </g>
     </g>
     <g id="line2d_72">
      <g>
       <use style="fill:#262626;stroke:#262626;" x="1166.4" xlink:href="#m4968470c1d" y="318.348"/>
      </g>
     </g>
     <g id="text_42">
      <!-- 0.2 -->
      <g style="fill:#262626;" transform="translate(850.088235294 320.93315625)scale(0.1 -0.1)">
       <use xlink:href="#ArialMT-30"/>
       <use x="55.615234375" xlink:href="#ArialMT-2e"/>
       <use x="83.3984375" xlink:href="#ArialMT-32"/>
      </g>
     </g>
    </g>
    <g id="ytick_15">
     <g id="line2d_73">
      <g>
       <use style="fill:#262626;stroke:#262626;" x="870.988235294" xlink:href="#m4968470c1d" y="249.516"/>
      </g>
     </g>
     <g id="line2d_74">
      <g>
       <use style="fill:#262626;stroke:#262626;" x="1166.4" xlink:href="#m4968470c1d" y="249.516"/>
      </g>
     </g>
     <g id="text_43">
      <!-- 0.4 -->
      <g style="fill:#262626;" transform="translate(850.088235294 252.10115625)scale(0.1 -0.1)">
       <use xlink:href="#ArialMT-30"/>
       <use x="55.615234375" xlink:href="#ArialMT-2e"/>
       <use x="83.3984375" xlink:href="#ArialMT-34"/>
      </g>
     </g>
    </g>
    <g id="ytick_16">
     <g id="line2d_75">
      <g>
       <use style="fill:#262626;stroke:#262626;" x="870.988235294" xlink:href="#m4968470c1d" y="180.684"/>
      </g>
     </g>
     <g id="line2d_76">
      <g>
       <use style="fill:#262626;stroke:#262626;" x="1166.4" xlink:href="#m4968470c1d" y="180.684"/>
      </g>
     </g>
     <g id="text_44">
      <!-- 0.6 -->
      <g style="fill:#262626;" transform="translate(850.088235294 183.26915625)scale(0.1 -0.1)">
       <use xlink:href="#ArialMT-30"/>
       <use x="55.615234375" xlink:href="#ArialMT-2e"/>
       <use x="83.3984375" xlink:href="#ArialMT-36"/>
      </g>
     </g>
    </g>
    <g id="ytick_17">
     <g id="line2d_77">
      <g>
       <use style="fill:#262626;stroke:#262626;" x="870.988235294" xlink:href="#m4968470c1d" y="111.852"/>
      </g>
     </g>
     <g id="line2d_78">
      <g>
       <use style="fill:#262626;stroke:#262626;" x="1166.4" xlink:href="#m4968470c1d" y="111.852"/>
      </g>
     </g>
     <g id="text_45">
      <!-- 0.8 -->
      <g style="fill:#262626;" transform="translate(850.088235294 114.43715625)scale(0.1 -0.1)">
       <use xlink:href="#ArialMT-30"/>
       <use x="55.615234375" xlink:href="#ArialMT-2e"/>
       <use x="83.3984375" xlink:href="#ArialMT-38"/>
      </g>
     </g>
    </g>
    <g id="ytick_18">
     <g id="line2d_79">
      <g>
       <use style="fill:#262626;stroke:#262626;" x="870.988235294" xlink:href="#m4968470c1d" y="43.02"/>
      </g>
     </g>
     <g id="line2d_80">
      <g>
       <use style="fill:#262626;stroke:#262626;" x="1166.4" xlink:href="#m4968470c1d" y="43.02"/>
      </g>
     </g>
     <g id="text_46">
      <!-- 1.0 -->
      <g style="fill:#262626;" transform="translate(850.088235294 45.60515625)scale(0.1 -0.1)">
       <use xlink:href="#ArialMT-31"/>
       <use x="55.615234375" xlink:href="#ArialMT-2e"/>
       <use x="83.3984375" xlink:href="#ArialMT-30"/>
      </g>
     </g>
    </g>
    <g id="text_47">
     <!-- True Positive Rate -->
     <g style="fill:#262626;" transform="translate(841.908235294 280.8975)rotate(-90.0)scale(0.16 -0.16)">
      <use xlink:href="#ArialMT-54"/>
      <use x="61.037109375" xlink:href="#ArialMT-72"/>
      <use x="94.337890625" xlink:href="#ArialMT-75"/>
      <use x="149.953125" xlink:href="#ArialMT-65"/>
      <use x="205.568359375" xlink:href="#ArialMT-20"/>
      <use x="233.3515625" xlink:href="#ArialMT-50"/>
      <use x="300.05078125" xlink:href="#ArialMT-6f"/>
      <use x="355.666015625" xlink:href="#ArialMT-73"/>
      <use x="405.666015625" xlink:href="#ArialMT-69"/>
      <use x="427.8828125" xlink:href="#ArialMT-74"/>
      <use x="455.666015625" xlink:href="#ArialMT-69"/>
      <use x="477.8828125" xlink:href="#ArialMT-76"/>
      <use x="527.8828125" xlink:href="#ArialMT-65"/>
      <use x="583.498046875" xlink:href="#ArialMT-20"/>
      <use x="611.28125" xlink:href="#ArialMT-52"/>
      <use x="683.498046875" xlink:href="#ArialMT-61"/>
      <use x="739.11328125" xlink:href="#ArialMT-74"/>
      <use x="766.896484375" xlink:href="#ArialMT-65"/>
     </g>
    </g>
   </g>
   <g id="line2d_81">
    <path clip-path="url(#p23d6610d2e)" d="M 870.988235 387.18 
L 1166.4 43.02 
" style="fill:none;opacity:0.5;stroke:#000000;stroke-dasharray:6.000000,6.000000;stroke-dashoffset:0.0;"/>
   </g>
   <g id="line2d_82">
    <path clip-path="url(#p23d6610d2e)" d="M 870.988235 375.312414 
L 870.988235 315.974483 
L 876.896471 315.974483 
L 876.896471 292.23931 
L 882.804706 292.23931 
L 882.804706 256.636552 
L 888.712941 256.636552 
L 888.712941 244.768966 
L 912.345882 244.768966 
L 912.345882 221.033793 
L 918.254118 221.033793 
L 918.254118 209.166207 
L 935.978824 209.166207 
L 935.978824 185.431034 
L 941.887059 185.431034 
L 941.887059 173.563448 
L 959.611765 173.563448 
L 959.611765 161.695862 
L 971.428235 161.695862 
L 971.428235 149.828276 
L 989.152941 149.828276 
L 989.152941 126.093103 
L 1012.785882 126.093103 
L 1012.785882 114.225517 
L 1030.510588 114.225517 
L 1030.510588 102.357931 
L 1036.418824 102.357931 
L 1036.418824 54.887586 
L 1095.501176 54.887586 
L 1095.501176 43.02 
L 1166.4 43.02 
" style="fill:none;stroke:#ff9f9a;stroke-linecap:round;stroke-width:3.0;"/>
   </g>
   <g id="patch_15">
    <path d="M 870.988235 43.02 
L 1166.4 43.02 
" style="fill:none;"/>
   </g>
   <g id="patch_16">
    <path d="M 1166.4 387.18 
L 1166.4 43.02 
" style="fill:none;"/>
   </g>
   <g id="patch_17">
    <path d="M 870.988235 387.18 
L 1166.4 387.18 
" style="fill:none;"/>
   </g>
   <g id="patch_18">
    <path d="M 870.988235 387.18 
L 870.988235 43.02 
" style="fill:none;"/>
   </g>
   <g id="legend_3">
    <g id="line2d_83">
     <path d="M 977.8575 363.8125 
L 1009.8575 363.8125 
" style="fill:none;stroke:#ff9f9a;stroke-linecap:round;stroke-width:3.0;"/>
    </g>
    <g id="line2d_84"/>
    <g id="text_48">
     <!-- Test (AUC = 0.77) -->
     <defs>
      <path d="M 4.734375 62.203125 
L 4.734375 70.65625 
L 51.078125 70.65625 
L 51.078125 63.8125 
Q 44.234375 56.546875 37.515625 44.484375 
Q 30.8125 32.421875 27.15625 19.671875 
Q 24.515625 10.6875 23.78125 0 
L 14.75 0 
Q 14.890625 8.453125 18.0625 20.40625 
Q 21.234375 32.375 27.171875 43.484375 
Q 33.109375 54.59375 39.796875 62.203125 
z
" id="ArialMT-37"/>
     </defs>
     <g style="fill:#262626;" transform="translate(1022.6575 369.4125)scale(0.16 -0.16)">
      <use xlink:href="#ArialMT-54"/>
      <use x="60.912109375" xlink:href="#ArialMT-65"/>
      <use x="116.52734375" xlink:href="#ArialMT-73"/>
      <use x="166.52734375" xlink:href="#ArialMT-74"/>
      <use x="194.310546875" xlink:href="#ArialMT-20"/>
      <use x="222.09375" xlink:href="#ArialMT-28"/>
      <use x="255.39453125" xlink:href="#ArialMT-41"/>
      <use x="322.09375" xlink:href="#ArialMT-55"/>
      <use x="394.310546875" xlink:href="#ArialMT-43"/>
      <use x="466.52734375" xlink:href="#ArialMT-20"/>
      <use x="494.310546875" xlink:href="#ArialMT-3d"/>
      <use x="552.708984375" xlink:href="#ArialMT-20"/>
      <use x="580.4921875" xlink:href="#ArialMT-30"/>
      <use x="636.107421875" xlink:href="#ArialMT-2e"/>
      <use x="663.890625" xlink:href="#ArialMT-37"/>
      <use x="719.505859375" xlink:href="#ArialMT-37"/>
      <use x="775.12109375" xlink:href="#ArialMT-29"/>
     </g>
    </g>
   </g>
  </g>
 </g>
 <defs>
  <clipPath id="pd3d4786871">
   <rect height="344.16" width="295.411764706" x="516.494117647" y="43.02"/>
  </clipPath>
  <clipPath id="p23d6610d2e">
   <rect height="344.16" width="295.411764706" x="870.988235294" y="43.02"/>
  </clipPath>
  <clipPath id="p6ecd9ba6a1">
   <rect height="344.16" width="295.411764706" x="162.0" y="43.02"/>
  </clipPath>
 </defs>
</svg>
