<?xml version="1.0" encoding="utf-8" standalone="no"?>
<!DOCTYPE svg PUBLIC "-//W3C//DTD SVG 1.1//EN"
  "http://www.w3.org/Graphics/SVG/1.1/DTD/svg11.dtd">
<!-- Created with matplotlib (http://matplotlib.org/) -->
<svg height="718pt" version="1.1" viewBox="0 0 1440 718" width="1440pt" xmlns="http://www.w3.org/2000/svg" xmlns:xlink="http://www.w3.org/1999/xlink">
 <defs>
  <style type="text/css">
*{stroke-linecap:butt;stroke-linejoin:round;stroke-miterlimit:100000;}
  </style>
 </defs>
 <g id="figure_1">
  <g id="patch_1">
   <path d="M 0 718.2 
L 1440 718.2 
L 1440 0 
L 0 0 
z
" style="fill:#ffffff;"/>
  </g>
  <g id="axes_1">
   <g id="patch_2">
    <path d="M 180 646.38 
L 1296 646.38 
L 1296 71.82 
L 180 71.82 
z
" style="fill:#ffffff;"/>
   </g>
   <g id="matplotlib.axis_1">
    <g id="xtick_1">
     <g id="line2d_1">
      <defs>
       <path d="M 0 0 
L 0 0 
" id="me53f07a0cd" style="stroke:#262626;"/>
      </defs>
      <g>
       <use style="fill:#262626;stroke:#262626;" x="235.8" xlink:href="#me53f07a0cd" y="646.38"/>
      </g>
     </g>
     <g id="line2d_2">
      <g>
       <use style="fill:#262626;stroke:#262626;" x="235.8" xlink:href="#me53f07a0cd" y="71.82"/>
      </g>
     </g>
     <g id="text_1">
      <!-- 3.0 -->
      <defs>
       <path d="M 4.15625 35.296875 
Q 4.15625 48 6.765625 55.734375 
Q 9.375 63.484375 14.515625 67.671875 
Q 19.671875 71.875 27.484375 71.875 
Q 33.25 71.875 37.59375 69.546875 
Q 41.9375 67.234375 44.765625 62.859375 
Q 47.609375 58.5 49.21875 52.21875 
Q 50.828125 45.953125 50.828125 35.296875 
Q 50.828125 22.703125 48.234375 14.96875 
Q 45.65625 7.234375 40.5 3 
Q 35.359375 -1.21875 27.484375 -1.21875 
Q 17.140625 -1.21875 11.234375 6.203125 
Q 4.15625 15.140625 4.15625 35.296875 
M 13.1875 35.296875 
Q 13.1875 17.671875 17.3125 11.828125 
Q 21.4375 6 27.484375 6 
Q 33.546875 6 37.671875 11.859375 
Q 41.796875 17.71875 41.796875 35.296875 
Q 41.796875 52.984375 37.671875 58.78125 
Q 33.546875 64.59375 27.390625 64.59375 
Q 21.34375 64.59375 17.71875 59.46875 
Q 13.1875 52.9375 13.1875 35.296875 
" id="ArialMT-30"/>
       <path d="M 9.078125 0 
L 9.078125 10.015625 
L 19.09375 10.015625 
L 19.09375 0 
z
" id="ArialMT-2e"/>
       <path d="M 4.203125 18.890625 
L 12.984375 20.0625 
Q 14.5 12.59375 18.140625 9.296875 
Q 21.78125 6 27 6 
Q 33.203125 6 37.46875 10.296875 
Q 41.75 14.59375 41.75 20.953125 
Q 41.75 27 37.796875 30.921875 
Q 33.84375 34.859375 27.734375 34.859375 
Q 25.25 34.859375 21.53125 33.890625 
L 22.515625 41.609375 
Q 23.390625 41.5 23.921875 41.5 
Q 29.546875 41.5 34.03125 44.421875 
Q 38.53125 47.359375 38.53125 53.46875 
Q 38.53125 58.296875 35.25 61.46875 
Q 31.984375 64.65625 26.8125 64.65625 
Q 21.6875 64.65625 18.265625 61.421875 
Q 14.84375 58.203125 13.875 51.765625 
L 5.078125 53.328125 
Q 6.6875 62.15625 12.390625 67.015625 
Q 18.109375 71.875 26.609375 71.875 
Q 32.46875 71.875 37.390625 69.359375 
Q 42.328125 66.84375 44.9375 62.5 
Q 47.5625 58.15625 47.5625 53.265625 
Q 47.5625 48.640625 45.0625 44.828125 
Q 42.578125 41.015625 37.703125 38.765625 
Q 44.046875 37.3125 47.5625 32.6875 
Q 51.078125 28.078125 51.078125 21.140625 
Q 51.078125 11.765625 44.234375 5.25 
Q 37.40625 -1.265625 26.953125 -1.265625 
Q 17.53125 -1.265625 11.296875 4.34375 
Q 5.078125 9.96875 4.203125 18.890625 
" id="ArialMT-33"/>
      </defs>
      <g style="fill:#262626;" transform="translate(228.85 660.5378125)scale(0.1 -0.1)">
       <use xlink:href="#ArialMT-33"/>
       <use x="55.615234375" xlink:href="#ArialMT-2e"/>
       <use x="83.3984375" xlink:href="#ArialMT-30"/>
      </g>
     </g>
    </g>
    <g id="xtick_2">
     <g id="line2d_3">
      <g>
       <use style="fill:#262626;stroke:#262626;" x="347.4" xlink:href="#me53f07a0cd" y="646.38"/>
      </g>
     </g>
     <g id="line2d_4">
      <g>
       <use style="fill:#262626;stroke:#262626;" x="347.4" xlink:href="#me53f07a0cd" y="71.82"/>
      </g>
     </g>
     <g id="text_2">
      <!-- 4.0 -->
      <defs>
       <path d="M 32.328125 0 
L 32.328125 17.140625 
L 1.265625 17.140625 
L 1.265625 25.203125 
L 33.9375 71.578125 
L 41.109375 71.578125 
L 41.109375 25.203125 
L 50.78125 25.203125 
L 50.78125 17.140625 
L 41.109375 17.140625 
L 41.109375 0 
z
M 32.328125 25.203125 
L 32.328125 57.46875 
L 9.90625 25.203125 
z
" id="ArialMT-34"/>
      </defs>
      <g style="fill:#262626;" transform="translate(340.45 660.5378125)scale(0.1 -0.1)">
       <use xlink:href="#ArialMT-34"/>
       <use x="55.615234375" xlink:href="#ArialMT-2e"/>
       <use x="83.3984375" xlink:href="#ArialMT-30"/>
      </g>
     </g>
    </g>
    <g id="xtick_3">
     <g id="line2d_5">
      <g>
       <use style="fill:#262626;stroke:#262626;" x="459.0" xlink:href="#me53f07a0cd" y="646.38"/>
      </g>
     </g>
     <g id="line2d_6">
      <g>
       <use style="fill:#262626;stroke:#262626;" x="459.0" xlink:href="#me53f07a0cd" y="71.82"/>
      </g>
     </g>
     <g id="text_3">
      <!-- 5.0 -->
      <defs>
       <path d="M 4.15625 18.75 
L 13.375 19.53125 
Q 14.40625 12.796875 18.140625 9.390625 
Q 21.875 6 27.15625 6 
Q 33.5 6 37.890625 10.78125 
Q 42.28125 15.578125 42.28125 23.484375 
Q 42.28125 31 38.0625 35.34375 
Q 33.84375 39.703125 27 39.703125 
Q 22.75 39.703125 19.328125 37.765625 
Q 15.921875 35.84375 13.96875 32.765625 
L 5.71875 33.84375 
L 12.640625 70.609375 
L 48.25 70.609375 
L 48.25 62.203125 
L 19.671875 62.203125 
L 15.828125 42.96875 
Q 22.265625 47.46875 29.34375 47.46875 
Q 38.71875 47.46875 45.15625 40.96875 
Q 51.609375 34.46875 51.609375 24.265625 
Q 51.609375 14.546875 45.953125 7.46875 
Q 39.0625 -1.21875 27.15625 -1.21875 
Q 17.390625 -1.21875 11.203125 4.25 
Q 5.03125 9.71875 4.15625 18.75 
" id="ArialMT-35"/>
      </defs>
      <g style="fill:#262626;" transform="translate(452.05 660.5378125)scale(0.1 -0.1)">
       <use xlink:href="#ArialMT-35"/>
       <use x="55.615234375" xlink:href="#ArialMT-2e"/>
       <use x="83.3984375" xlink:href="#ArialMT-30"/>
      </g>
     </g>
    </g>
    <g id="xtick_4">
     <g id="line2d_7">
      <g>
       <use style="fill:#262626;stroke:#262626;" x="570.6" xlink:href="#me53f07a0cd" y="646.38"/>
      </g>
     </g>
     <g id="line2d_8">
      <g>
       <use style="fill:#262626;stroke:#262626;" x="570.6" xlink:href="#me53f07a0cd" y="71.82"/>
      </g>
     </g>
     <g id="text_4">
      <!-- 6.0 -->
      <defs>
       <path d="M 49.75 54.046875 
L 41.015625 53.375 
Q 39.84375 58.546875 37.703125 60.890625 
Q 34.125 64.65625 28.90625 64.65625 
Q 24.703125 64.65625 21.53125 62.3125 
Q 17.390625 59.28125 14.984375 53.46875 
Q 12.59375 47.65625 12.5 36.921875 
Q 15.671875 41.75 20.265625 44.09375 
Q 24.859375 46.4375 29.890625 46.4375 
Q 38.671875 46.4375 44.84375 39.96875 
Q 51.03125 33.5 51.03125 23.25 
Q 51.03125 16.5 48.125 10.71875 
Q 45.21875 4.9375 40.140625 1.859375 
Q 35.0625 -1.21875 28.609375 -1.21875 
Q 17.625 -1.21875 10.6875 6.859375 
Q 3.765625 14.9375 3.765625 33.5 
Q 3.765625 54.25 11.421875 63.671875 
Q 18.109375 71.875 29.4375 71.875 
Q 37.890625 71.875 43.28125 67.140625 
Q 48.6875 62.40625 49.75 54.046875 
M 13.875 23.1875 
Q 13.875 18.65625 15.796875 14.5 
Q 17.71875 10.359375 21.1875 8.171875 
Q 24.65625 6 28.46875 6 
Q 34.03125 6 38.03125 10.484375 
Q 42.046875 14.984375 42.046875 22.703125 
Q 42.046875 30.125 38.078125 34.390625 
Q 34.125 38.671875 28.125 38.671875 
Q 22.171875 38.671875 18.015625 34.390625 
Q 13.875 30.125 13.875 23.1875 
" id="ArialMT-36"/>
      </defs>
      <g style="fill:#262626;" transform="translate(563.65 660.5378125)scale(0.1 -0.1)">
       <use xlink:href="#ArialMT-36"/>
       <use x="55.615234375" xlink:href="#ArialMT-2e"/>
       <use x="83.3984375" xlink:href="#ArialMT-30"/>
      </g>
     </g>
    </g>
    <g id="xtick_5">
     <g id="line2d_9">
      <g>
       <use style="fill:#262626;stroke:#262626;" x="682.2" xlink:href="#me53f07a0cd" y="646.38"/>
      </g>
     </g>
     <g id="line2d_10">
      <g>
       <use style="fill:#262626;stroke:#262626;" x="682.2" xlink:href="#me53f07a0cd" y="71.82"/>
      </g>
     </g>
     <g id="text_5">
      <!-- 7.0 -->
      <defs>
       <path d="M 4.734375 62.203125 
L 4.734375 70.65625 
L 51.078125 70.65625 
L 51.078125 63.8125 
Q 44.234375 56.546875 37.515625 44.484375 
Q 30.8125 32.421875 27.15625 19.671875 
Q 24.515625 10.6875 23.78125 0 
L 14.75 0 
Q 14.890625 8.453125 18.0625 20.40625 
Q 21.234375 32.375 27.171875 43.484375 
Q 33.109375 54.59375 39.796875 62.203125 
z
" id="ArialMT-37"/>
      </defs>
      <g style="fill:#262626;" transform="translate(675.25 660.5378125)scale(0.1 -0.1)">
       <use xlink:href="#ArialMT-37"/>
       <use x="55.615234375" xlink:href="#ArialMT-2e"/>
       <use x="83.3984375" xlink:href="#ArialMT-30"/>
      </g>
     </g>
    </g>
    <g id="xtick_6">
     <g id="line2d_11">
      <g>
       <use style="fill:#262626;stroke:#262626;" x="793.8" xlink:href="#me53f07a0cd" y="646.38"/>
      </g>
     </g>
     <g id="line2d_12">
      <g>
       <use style="fill:#262626;stroke:#262626;" x="793.8" xlink:href="#me53f07a0cd" y="71.82"/>
      </g>
     </g>
     <g id="text_6">
      <!-- 8.0 -->
      <defs>
       <path d="M 17.671875 38.8125 
Q 12.203125 40.828125 9.5625 44.53125 
Q 6.9375 48.25 6.9375 53.421875 
Q 6.9375 61.234375 12.546875 66.546875 
Q 18.171875 71.875 27.484375 71.875 
Q 36.859375 71.875 42.578125 66.421875 
Q 48.296875 60.984375 48.296875 53.171875 
Q 48.296875 48.1875 45.671875 44.5 
Q 43.0625 40.828125 37.75 38.8125 
Q 44.34375 36.671875 47.78125 31.875 
Q 51.21875 27.09375 51.21875 20.453125 
Q 51.21875 11.28125 44.71875 5.03125 
Q 38.234375 -1.21875 27.640625 -1.21875 
Q 17.046875 -1.21875 10.546875 5.046875 
Q 4.046875 11.328125 4.046875 20.703125 
Q 4.046875 27.6875 7.59375 32.390625 
Q 11.140625 37.109375 17.671875 38.8125 
M 15.921875 53.71875 
Q 15.921875 48.640625 19.1875 45.40625 
Q 22.46875 42.1875 27.6875 42.1875 
Q 32.765625 42.1875 36.015625 45.375 
Q 39.265625 48.578125 39.265625 53.21875 
Q 39.265625 58.0625 35.90625 61.359375 
Q 32.5625 64.65625 27.59375 64.65625 
Q 22.5625 64.65625 19.234375 61.421875 
Q 15.921875 58.203125 15.921875 53.71875 
M 13.09375 20.65625 
Q 13.09375 16.890625 14.875 13.375 
Q 16.65625 9.859375 20.171875 7.921875 
Q 23.6875 6 27.734375 6 
Q 34.03125 6 38.125 10.046875 
Q 42.234375 14.109375 42.234375 20.359375 
Q 42.234375 26.703125 38.015625 30.859375 
Q 33.796875 35.015625 27.4375 35.015625 
Q 21.234375 35.015625 17.15625 30.90625 
Q 13.09375 26.8125 13.09375 20.65625 
" id="ArialMT-38"/>
      </defs>
      <g style="fill:#262626;" transform="translate(786.85 660.5378125)scale(0.1 -0.1)">
       <use xlink:href="#ArialMT-38"/>
       <use x="55.615234375" xlink:href="#ArialMT-2e"/>
       <use x="83.3984375" xlink:href="#ArialMT-30"/>
      </g>
     </g>
    </g>
    <g id="xtick_7">
     <g id="line2d_13">
      <g>
       <use style="fill:#262626;stroke:#262626;" x="905.4" xlink:href="#me53f07a0cd" y="646.38"/>
      </g>
     </g>
     <g id="line2d_14">
      <g>
       <use style="fill:#262626;stroke:#262626;" x="905.4" xlink:href="#me53f07a0cd" y="71.82"/>
      </g>
     </g>
     <g id="text_7">
      <!-- 9.0 -->
      <defs>
       <path d="M 5.46875 16.546875 
L 13.921875 17.328125 
Q 14.984375 11.375 18.015625 8.6875 
Q 21.046875 6 25.78125 6 
Q 29.828125 6 32.875 7.859375 
Q 35.9375 9.71875 37.890625 12.8125 
Q 39.84375 15.921875 41.15625 21.1875 
Q 42.484375 26.46875 42.484375 31.9375 
Q 42.484375 32.515625 42.4375 33.6875 
Q 39.796875 29.5 35.234375 26.875 
Q 30.671875 24.265625 25.34375 24.265625 
Q 16.453125 24.265625 10.296875 30.703125 
Q 4.15625 37.15625 4.15625 47.703125 
Q 4.15625 58.59375 10.578125 65.234375 
Q 17 71.875 26.65625 71.875 
Q 33.640625 71.875 39.421875 68.109375 
Q 45.21875 64.359375 48.21875 57.390625 
Q 51.21875 50.4375 51.21875 37.25 
Q 51.21875 23.53125 48.234375 15.40625 
Q 45.265625 7.28125 39.375 3.03125 
Q 33.5 -1.21875 25.59375 -1.21875 
Q 17.1875 -1.21875 11.859375 3.4375 
Q 6.546875 8.109375 5.46875 16.546875 
M 41.453125 48.140625 
Q 41.453125 55.71875 37.421875 60.15625 
Q 33.40625 64.59375 27.734375 64.59375 
Q 21.875 64.59375 17.53125 59.8125 
Q 13.1875 55.03125 13.1875 47.40625 
Q 13.1875 40.578125 17.3125 36.296875 
Q 21.4375 32.03125 27.484375 32.03125 
Q 33.59375 32.03125 37.515625 36.296875 
Q 41.453125 40.578125 41.453125 48.140625 
" id="ArialMT-39"/>
      </defs>
      <g style="fill:#262626;" transform="translate(898.45 660.5378125)scale(0.1 -0.1)">
       <use xlink:href="#ArialMT-39"/>
       <use x="55.615234375" xlink:href="#ArialMT-2e"/>
       <use x="83.3984375" xlink:href="#ArialMT-30"/>
      </g>
     </g>
    </g>
    <g id="xtick_8">
     <g id="line2d_15">
      <g>
       <use style="fill:#262626;stroke:#262626;" x="1017.0" xlink:href="#me53f07a0cd" y="646.38"/>
      </g>
     </g>
     <g id="line2d_16">
      <g>
       <use style="fill:#262626;stroke:#262626;" x="1017.0" xlink:href="#me53f07a0cd" y="71.82"/>
      </g>
     </g>
     <g id="text_8">
      <!-- 10.0 -->
      <defs>
       <path d="M 37.25 0 
L 28.46875 0 
L 28.46875 56 
Q 25.296875 52.984375 20.140625 49.953125 
Q 14.984375 46.921875 10.890625 45.40625 
L 10.890625 53.90625 
Q 18.265625 57.375 23.78125 62.296875 
Q 29.296875 67.234375 31.59375 71.875 
L 37.25 71.875 
z
" id="ArialMT-31"/>
      </defs>
      <g style="fill:#262626;" transform="translate(1007.26953125 660.5378125)scale(0.1 -0.1)">
       <use xlink:href="#ArialMT-31"/>
       <use x="55.615234375" xlink:href="#ArialMT-30"/>
       <use x="111.23046875" xlink:href="#ArialMT-2e"/>
       <use x="139.013671875" xlink:href="#ArialMT-30"/>
      </g>
     </g>
    </g>
    <g id="xtick_9">
     <g id="line2d_17">
      <g>
       <use style="fill:#262626;stroke:#262626;" x="1128.6" xlink:href="#me53f07a0cd" y="646.38"/>
      </g>
     </g>
     <g id="line2d_18">
      <g>
       <use style="fill:#262626;stroke:#262626;" x="1128.6" xlink:href="#me53f07a0cd" y="71.82"/>
      </g>
     </g>
     <g id="text_9">
      <!-- 11.0 -->
      <g style="fill:#262626;" transform="translate(1118.875 660.5378125)scale(0.1 -0.1)">
       <use xlink:href="#ArialMT-31"/>
       <use x="55.505859375" xlink:href="#ArialMT-31"/>
       <use x="111.12109375" xlink:href="#ArialMT-2e"/>
       <use x="138.904296875" xlink:href="#ArialMT-30"/>
      </g>
     </g>
    </g>
    <g id="xtick_10">
     <g id="line2d_19">
      <g>
       <use style="fill:#262626;stroke:#262626;" x="1240.2" xlink:href="#me53f07a0cd" y="646.38"/>
      </g>
     </g>
     <g id="line2d_20">
      <g>
       <use style="fill:#262626;stroke:#262626;" x="1240.2" xlink:href="#me53f07a0cd" y="71.82"/>
      </g>
     </g>
     <g id="text_10">
      <!-- 12.0 -->
      <defs>
       <path d="M 50.34375 8.453125 
L 50.34375 0 
L 3.03125 0 
Q 2.9375 3.171875 4.046875 6.109375 
Q 5.859375 10.9375 9.828125 15.625 
Q 13.8125 20.3125 21.34375 26.46875 
Q 33.015625 36.03125 37.109375 41.625 
Q 41.21875 47.21875 41.21875 52.203125 
Q 41.21875 57.421875 37.46875 61 
Q 33.734375 64.59375 27.734375 64.59375 
Q 21.390625 64.59375 17.578125 60.78125 
Q 13.765625 56.984375 13.71875 50.25 
L 4.6875 51.171875 
Q 5.609375 61.28125 11.65625 66.578125 
Q 17.71875 71.875 27.9375 71.875 
Q 38.234375 71.875 44.234375 66.15625 
Q 50.25 60.453125 50.25 52 
Q 50.25 47.703125 48.484375 43.546875 
Q 46.734375 39.40625 42.65625 34.8125 
Q 38.578125 30.21875 29.109375 22.21875 
Q 21.1875 15.578125 18.9375 13.203125 
Q 16.703125 10.84375 15.234375 8.453125 
z
" id="ArialMT-32"/>
      </defs>
      <g style="fill:#262626;" transform="translate(1230.46953125 660.5378125)scale(0.1 -0.1)">
       <use xlink:href="#ArialMT-31"/>
       <use x="55.615234375" xlink:href="#ArialMT-32"/>
       <use x="111.23046875" xlink:href="#ArialMT-2e"/>
       <use x="139.013671875" xlink:href="#ArialMT-30"/>
      </g>
     </g>
    </g>
    <g id="text_11">
     <!-- num_clusters -->
     <defs>
      <path d="M 40.4375 19 
L 49.078125 17.875 
Q 47.65625 8.9375 41.8125 3.875 
Q 35.984375 -1.171875 27.484375 -1.171875 
Q 16.84375 -1.171875 10.375 5.78125 
Q 3.90625 12.75 3.90625 25.734375 
Q 3.90625 34.125 6.6875 40.421875 
Q 9.46875 46.734375 15.15625 49.875 
Q 20.84375 53.03125 27.546875 53.03125 
Q 35.984375 53.03125 41.359375 48.75 
Q 46.734375 44.484375 48.25 36.625 
L 39.703125 35.296875 
Q 38.484375 40.53125 35.375 43.15625 
Q 32.28125 45.796875 27.875 45.796875 
Q 21.234375 45.796875 17.078125 41.03125 
Q 12.9375 36.28125 12.9375 25.984375 
Q 12.9375 15.53125 16.9375 10.796875 
Q 20.953125 6.0625 27.390625 6.0625 
Q 32.5625 6.0625 36.03125 9.234375 
Q 39.5 12.40625 40.4375 19 
" id="ArialMT-63"/>
      <path d="M 42.09375 16.703125 
L 51.171875 15.578125 
Q 49.03125 7.625 43.21875 3.21875 
Q 37.40625 -1.171875 28.375 -1.171875 
Q 17 -1.171875 10.328125 5.828125 
Q 3.65625 12.84375 3.65625 25.484375 
Q 3.65625 38.578125 10.390625 45.796875 
Q 17.140625 53.03125 27.875 53.03125 
Q 38.28125 53.03125 44.875 45.953125 
Q 51.46875 38.875 51.46875 26.03125 
Q 51.46875 25.25 51.421875 23.6875 
L 12.75 23.6875 
Q 13.234375 15.140625 17.578125 10.59375 
Q 21.921875 6.0625 28.421875 6.0625 
Q 33.25 6.0625 36.671875 8.59375 
Q 40.09375 11.140625 42.09375 16.703125 
M 13.234375 30.90625 
L 42.1875 30.90625 
Q 41.609375 37.453125 38.875 40.71875 
Q 34.671875 45.796875 27.984375 45.796875 
Q 21.921875 45.796875 17.796875 41.75 
Q 13.671875 37.703125 13.234375 30.90625 
" id="ArialMT-65"/>
      <path d="M 25.78125 7.859375 
L 27.046875 0.09375 
Q 23.34375 -0.6875 20.40625 -0.6875 
Q 15.625 -0.6875 12.984375 0.828125 
Q 10.359375 2.34375 9.28125 4.8125 
Q 8.203125 7.28125 8.203125 15.1875 
L 8.203125 45.015625 
L 1.765625 45.015625 
L 1.765625 51.859375 
L 8.203125 51.859375 
L 8.203125 64.703125 
L 16.9375 69.96875 
L 16.9375 51.859375 
L 25.78125 51.859375 
L 25.78125 45.015625 
L 16.9375 45.015625 
L 16.9375 14.703125 
Q 16.9375 10.9375 17.40625 9.859375 
Q 17.875 8.796875 18.921875 8.15625 
Q 19.96875 7.515625 21.921875 7.515625 
Q 23.390625 7.515625 25.78125 7.859375 
" id="ArialMT-74"/>
      <path d="M 40.578125 0 
L 40.578125 7.625 
Q 34.515625 -1.171875 24.125 -1.171875 
Q 19.53125 -1.171875 15.546875 0.578125 
Q 11.578125 2.34375 9.640625 5 
Q 7.71875 7.671875 6.9375 11.53125 
Q 6.390625 14.109375 6.390625 19.734375 
L 6.390625 51.859375 
L 15.1875 51.859375 
L 15.1875 23.09375 
Q 15.1875 16.21875 15.71875 13.8125 
Q 16.546875 10.359375 19.234375 8.375 
Q 21.921875 6.390625 25.875 6.390625 
Q 29.828125 6.390625 33.296875 8.421875 
Q 36.765625 10.453125 38.203125 13.9375 
Q 39.65625 17.4375 39.65625 24.078125 
L 39.65625 51.859375 
L 48.4375 51.859375 
L 48.4375 0 
z
" id="ArialMT-75"/>
      <path d="M 6.5 0 
L 6.5 51.859375 
L 14.40625 51.859375 
L 14.40625 44 
Q 17.4375 49.515625 20 51.265625 
Q 22.5625 53.03125 25.640625 53.03125 
Q 30.078125 53.03125 34.671875 50.203125 
L 31.640625 42.046875 
Q 28.421875 43.953125 25.203125 43.953125 
Q 22.3125 43.953125 20.015625 42.21875 
Q 17.71875 40.484375 16.75 37.40625 
Q 15.28125 32.71875 15.28125 27.15625 
L 15.28125 0 
z
" id="ArialMT-72"/>
      <path d="M 3.078125 15.484375 
L 11.765625 16.84375 
Q 12.5 11.625 15.84375 8.84375 
Q 19.1875 6.0625 25.203125 6.0625 
Q 31.25 6.0625 34.171875 8.515625 
Q 37.109375 10.984375 37.109375 14.3125 
Q 37.109375 17.28125 34.515625 19 
Q 32.71875 20.171875 25.53125 21.96875 
Q 15.875 24.421875 12.140625 26.203125 
Q 8.40625 27.984375 6.46875 31.125 
Q 4.546875 34.28125 4.546875 38.09375 
Q 4.546875 41.546875 6.125 44.5 
Q 7.71875 47.46875 10.453125 49.421875 
Q 12.5 50.921875 16.03125 51.96875 
Q 19.578125 53.03125 23.640625 53.03125 
Q 29.734375 53.03125 34.34375 51.265625 
Q 38.96875 49.515625 41.15625 46.5 
Q 43.359375 43.5 44.1875 38.484375 
L 35.59375 37.3125 
Q 35.015625 41.3125 32.203125 43.546875 
Q 29.390625 45.796875 24.265625 45.796875 
Q 18.21875 45.796875 15.625 43.796875 
Q 13.03125 41.796875 13.03125 39.109375 
Q 13.03125 37.40625 14.109375 36.03125 
Q 15.1875 34.625 17.484375 33.6875 
Q 18.796875 33.203125 25.25 31.453125 
Q 34.578125 28.953125 38.25 27.359375 
Q 41.9375 25.78125 44.03125 22.75 
Q 46.140625 19.734375 46.140625 15.234375 
Q 46.140625 10.84375 43.578125 6.953125 
Q 41.015625 3.078125 36.171875 0.953125 
Q 31.34375 -1.171875 25.25 -1.171875 
Q 15.140625 -1.171875 9.84375 3.03125 
Q 4.546875 7.234375 3.078125 15.484375 
" id="ArialMT-73"/>
      <path d="M 6.390625 0 
L 6.390625 71.578125 
L 15.1875 71.578125 
L 15.1875 0 
z
" id="ArialMT-6c"/>
      <path d="M 6.59375 0 
L 6.59375 51.859375 
L 14.5 51.859375 
L 14.5 44.484375 
Q 20.21875 53.03125 31 53.03125 
Q 35.6875 53.03125 39.625 51.34375 
Q 43.5625 49.65625 45.515625 46.921875 
Q 47.46875 44.1875 48.25 40.4375 
Q 48.734375 37.984375 48.734375 31.890625 
L 48.734375 0 
L 39.9375 0 
L 39.9375 31.546875 
Q 39.9375 36.921875 38.90625 39.578125 
Q 37.890625 42.234375 35.28125 43.8125 
Q 32.671875 45.40625 29.15625 45.40625 
Q 23.53125 45.40625 19.453125 41.84375 
Q 15.375 38.28125 15.375 28.328125 
L 15.375 0 
z
" id="ArialMT-6e"/>
      <path d="M 6.59375 0 
L 6.59375 51.859375 
L 14.453125 51.859375 
L 14.453125 44.578125 
Q 16.890625 48.390625 20.9375 50.703125 
Q 25 53.03125 30.171875 53.03125 
Q 35.9375 53.03125 39.625 50.640625 
Q 43.3125 48.25 44.828125 43.953125 
Q 50.984375 53.03125 60.84375 53.03125 
Q 68.5625 53.03125 72.703125 48.75 
Q 76.859375 44.484375 76.859375 35.59375 
L 76.859375 0 
L 68.109375 0 
L 68.109375 32.671875 
Q 68.109375 37.9375 67.25 40.25 
Q 66.40625 42.578125 64.15625 43.984375 
Q 61.921875 45.40625 58.890625 45.40625 
Q 53.421875 45.40625 49.796875 41.765625 
Q 46.1875 38.140625 46.1875 30.125 
L 46.1875 0 
L 37.40625 0 
L 37.40625 33.6875 
Q 37.40625 39.546875 35.25 42.46875 
Q 33.109375 45.40625 28.21875 45.40625 
Q 24.515625 45.40625 21.359375 43.453125 
Q 18.21875 41.5 16.796875 37.734375 
Q 15.375 33.984375 15.375 26.90625 
L 15.375 0 
z
" id="ArialMT-6d"/>
      <path d="M -1.515625 -19.875 
L -1.515625 -13.53125 
L 56.734375 -13.53125 
L 56.734375 -19.875 
z
" id="ArialMT-5f"/>
     </defs>
     <g style="fill:#262626;" transform="translate(705.294765625 675.39890625)scale(0.11 -0.11)">
      <use xlink:href="#ArialMT-6e"/>
      <use x="55.615234375" xlink:href="#ArialMT-75"/>
      <use x="111.23046875" xlink:href="#ArialMT-6d"/>
      <use x="194.53125" xlink:href="#ArialMT-5f"/>
      <use x="250.146484375" xlink:href="#ArialMT-63"/>
      <use x="300.146484375" xlink:href="#ArialMT-6c"/>
      <use x="322.36328125" xlink:href="#ArialMT-75"/>
      <use x="377.978515625" xlink:href="#ArialMT-73"/>
      <use x="427.978515625" xlink:href="#ArialMT-74"/>
      <use x="455.76171875" xlink:href="#ArialMT-65"/>
      <use x="511.376953125" xlink:href="#ArialMT-72"/>
      <use x="544.677734375" xlink:href="#ArialMT-73"/>
     </g>
    </g>
   </g>
   <g id="matplotlib.axis_2">
    <g id="ytick_1">
     <g id="line2d_21">
      <path clip-path="url(#p9128944454)" d="M 180 646.38 
L 1296 646.38 
" style="fill:none;stroke:#cccccc;stroke-linecap:round;"/>
     </g>
     <g id="line2d_22">
      <g>
       <use style="fill:#262626;stroke:#262626;" x="180.0" xlink:href="#me53f07a0cd" y="646.38"/>
      </g>
     </g>
     <g id="line2d_23">
      <g>
       <use style="fill:#262626;stroke:#262626;" x="1296.0" xlink:href="#me53f07a0cd" y="646.38"/>
      </g>
     </g>
     <g id="text_12">
      <!-- 0.60 -->
      <g style="fill:#262626;" transform="translate(153.5390625 648.96515625)scale(0.1 -0.1)">
       <use xlink:href="#ArialMT-30"/>
       <use x="55.615234375" xlink:href="#ArialMT-2e"/>
       <use x="83.3984375" xlink:href="#ArialMT-36"/>
       <use x="139.013671875" xlink:href="#ArialMT-30"/>
      </g>
     </g>
    </g>
    <g id="ytick_2">
     <g id="line2d_24">
      <path clip-path="url(#p9128944454)" d="M 180 531.468 
L 1296 531.468 
" style="fill:none;stroke:#cccccc;stroke-linecap:round;"/>
     </g>
     <g id="line2d_25">
      <g>
       <use style="fill:#262626;stroke:#262626;" x="180.0" xlink:href="#me53f07a0cd" y="531.468"/>
      </g>
     </g>
     <g id="line2d_26">
      <g>
       <use style="fill:#262626;stroke:#262626;" x="1296.0" xlink:href="#me53f07a0cd" y="531.468"/>
      </g>
     </g>
     <g id="text_13">
      <!-- 0.65 -->
      <g style="fill:#262626;" transform="translate(153.5390625 534.05315625)scale(0.1 -0.1)">
       <use xlink:href="#ArialMT-30"/>
       <use x="55.615234375" xlink:href="#ArialMT-2e"/>
       <use x="83.3984375" xlink:href="#ArialMT-36"/>
       <use x="139.013671875" xlink:href="#ArialMT-35"/>
      </g>
     </g>
    </g>
    <g id="ytick_3">
     <g id="line2d_27">
      <path clip-path="url(#p9128944454)" d="M 180 416.556 
L 1296 416.556 
" style="fill:none;stroke:#cccccc;stroke-linecap:round;"/>
     </g>
     <g id="line2d_28">
      <g>
       <use style="fill:#262626;stroke:#262626;" x="180.0" xlink:href="#me53f07a0cd" y="416.556"/>
      </g>
     </g>
     <g id="line2d_29">
      <g>
       <use style="fill:#262626;stroke:#262626;" x="1296.0" xlink:href="#me53f07a0cd" y="416.556"/>
      </g>
     </g>
     <g id="text_14">
      <!-- 0.70 -->
      <g style="fill:#262626;" transform="translate(153.5390625 419.14115625)scale(0.1 -0.1)">
       <use xlink:href="#ArialMT-30"/>
       <use x="55.615234375" xlink:href="#ArialMT-2e"/>
       <use x="83.3984375" xlink:href="#ArialMT-37"/>
       <use x="139.013671875" xlink:href="#ArialMT-30"/>
      </g>
     </g>
    </g>
    <g id="ytick_4">
     <g id="line2d_30">
      <path clip-path="url(#p9128944454)" d="M 180 301.644 
L 1296 301.644 
" style="fill:none;stroke:#cccccc;stroke-linecap:round;"/>
     </g>
     <g id="line2d_31">
      <g>
       <use style="fill:#262626;stroke:#262626;" x="180.0" xlink:href="#me53f07a0cd" y="301.644"/>
      </g>
     </g>
     <g id="line2d_32">
      <g>
       <use style="fill:#262626;stroke:#262626;" x="1296.0" xlink:href="#me53f07a0cd" y="301.644"/>
      </g>
     </g>
     <g id="text_15">
      <!-- 0.75 -->
      <g style="fill:#262626;" transform="translate(153.5390625 304.22915625)scale(0.1 -0.1)">
       <use xlink:href="#ArialMT-30"/>
       <use x="55.615234375" xlink:href="#ArialMT-2e"/>
       <use x="83.3984375" xlink:href="#ArialMT-37"/>
       <use x="139.013671875" xlink:href="#ArialMT-35"/>
      </g>
     </g>
    </g>
    <g id="ytick_5">
     <g id="line2d_33">
      <path clip-path="url(#p9128944454)" d="M 180 186.732 
L 1296 186.732 
" style="fill:none;stroke:#cccccc;stroke-linecap:round;"/>
     </g>
     <g id="line2d_34">
      <g>
       <use style="fill:#262626;stroke:#262626;" x="180.0" xlink:href="#me53f07a0cd" y="186.732"/>
      </g>
     </g>
     <g id="line2d_35">
      <g>
       <use style="fill:#262626;stroke:#262626;" x="1296.0" xlink:href="#me53f07a0cd" y="186.732"/>
      </g>
     </g>
     <g id="text_16">
      <!-- 0.80 -->
      <g style="fill:#262626;" transform="translate(153.5390625 189.31715625)scale(0.1 -0.1)">
       <use xlink:href="#ArialMT-30"/>
       <use x="55.615234375" xlink:href="#ArialMT-2e"/>
       <use x="83.3984375" xlink:href="#ArialMT-38"/>
       <use x="139.013671875" xlink:href="#ArialMT-30"/>
      </g>
     </g>
    </g>
    <g id="ytick_6">
     <g id="line2d_36">
      <path clip-path="url(#p9128944454)" d="M 180 71.82 
L 1296 71.82 
" style="fill:none;stroke:#cccccc;stroke-linecap:round;"/>
     </g>
     <g id="line2d_37">
      <g>
       <use style="fill:#262626;stroke:#262626;" x="180.0" xlink:href="#me53f07a0cd" y="71.82"/>
      </g>
     </g>
     <g id="line2d_38">
      <g>
       <use style="fill:#262626;stroke:#262626;" x="1296.0" xlink:href="#me53f07a0cd" y="71.82"/>
      </g>
     </g>
     <g id="text_17">
      <!-- 0.85 -->
      <g style="fill:#262626;" transform="translate(153.5390625 74.40515625)scale(0.1 -0.1)">
       <use xlink:href="#ArialMT-30"/>
       <use x="55.615234375" xlink:href="#ArialMT-2e"/>
       <use x="83.3984375" xlink:href="#ArialMT-38"/>
       <use x="139.013671875" xlink:href="#ArialMT-35"/>
      </g>
     </g>
    </g>
    <g id="text_18">
     <!-- mean(Zspace_test_AUC_ROC) -->
     <defs>
      <path d="M 40.4375 6.390625 
Q 35.546875 2.25 31.03125 0.53125 
Q 26.515625 -1.171875 21.34375 -1.171875 
Q 12.796875 -1.171875 8.203125 3 
Q 3.609375 7.171875 3.609375 13.671875 
Q 3.609375 17.484375 5.34375 20.625 
Q 7.078125 23.78125 9.890625 25.6875 
Q 12.703125 27.59375 16.21875 28.5625 
Q 18.796875 29.25 24.03125 29.890625 
Q 34.671875 31.15625 39.703125 32.90625 
Q 39.75 34.71875 39.75 35.203125 
Q 39.75 40.578125 37.25 42.78125 
Q 33.890625 45.75 27.25 45.75 
Q 21.046875 45.75 18.09375 43.578125 
Q 15.140625 41.40625 13.71875 35.890625 
L 5.125 37.0625 
Q 6.296875 42.578125 8.984375 45.96875 
Q 11.671875 49.359375 16.75 51.1875 
Q 21.828125 53.03125 28.515625 53.03125 
Q 35.15625 53.03125 39.296875 51.46875 
Q 43.453125 49.90625 45.40625 47.53125 
Q 47.359375 45.171875 48.140625 41.546875 
Q 48.578125 39.3125 48.578125 33.453125 
L 48.578125 21.734375 
Q 48.578125 9.46875 49.140625 6.21875 
Q 49.703125 2.984375 51.375 0 
L 42.1875 0 
Q 40.828125 2.734375 40.4375 6.390625 
M 39.703125 26.03125 
Q 34.90625 24.078125 25.34375 22.703125 
Q 19.921875 21.921875 17.671875 20.9375 
Q 15.4375 19.96875 14.203125 18.09375 
Q 12.984375 16.21875 12.984375 13.921875 
Q 12.984375 10.40625 15.640625 8.0625 
Q 18.3125 5.71875 23.4375 5.71875 
Q 28.515625 5.71875 32.46875 7.9375 
Q 36.421875 10.15625 38.28125 14.015625 
Q 39.703125 17 39.703125 22.796875 
z
" id="ArialMT-61"/>
      <path d="M -0.140625 0 
L 27.34375 71.578125 
L 37.546875 71.578125 
L 66.84375 0 
L 56.0625 0 
L 47.703125 21.6875 
L 17.78125 21.6875 
L 9.90625 0 
z
M 20.515625 29.390625 
L 44.78125 29.390625 
L 37.3125 49.21875 
Q 33.890625 58.25 32.234375 64.0625 
Q 30.859375 57.171875 28.375 50.390625 
z
" id="ArialMT-41"/>
      <path d="M 58.796875 25.09375 
L 68.265625 22.703125 
Q 65.28125 11.03125 57.546875 4.90625 
Q 49.8125 -1.21875 38.625 -1.21875 
Q 27.046875 -1.21875 19.796875 3.484375 
Q 12.546875 8.203125 8.765625 17.140625 
Q 4.984375 26.078125 4.984375 36.328125 
Q 4.984375 47.515625 9.25 55.828125 
Q 13.53125 64.15625 21.40625 68.46875 
Q 29.296875 72.796875 38.765625 72.796875 
Q 49.515625 72.796875 56.828125 67.328125 
Q 64.15625 61.859375 67.046875 51.953125 
L 57.71875 49.75 
Q 55.21875 57.5625 50.484375 61.125 
Q 45.75 64.703125 38.578125 64.703125 
Q 30.328125 64.703125 24.78125 60.734375 
Q 19.234375 56.78125 16.984375 50.109375 
Q 14.75 43.453125 14.75 36.375 
Q 14.75 27.25 17.40625 20.4375 
Q 20.0625 13.625 25.671875 10.25 
Q 31.296875 6.890625 37.84375 6.890625 
Q 45.796875 6.890625 51.3125 11.46875 
Q 56.84375 16.0625 58.796875 25.09375 
" id="ArialMT-43"/>
      <path d="M 6.59375 -19.875 
L 6.59375 51.859375 
L 14.59375 51.859375 
L 14.59375 45.125 
Q 17.4375 49.078125 21 51.046875 
Q 24.5625 53.03125 29.640625 53.03125 
Q 36.28125 53.03125 41.359375 49.609375 
Q 46.4375 46.1875 49.015625 39.953125 
Q 51.609375 33.734375 51.609375 26.3125 
Q 51.609375 18.359375 48.75 11.984375 
Q 45.90625 5.609375 40.453125 2.21875 
Q 35.015625 -1.171875 29 -1.171875 
Q 24.609375 -1.171875 21.109375 0.6875 
Q 17.625 2.546875 15.375 5.375 
L 15.375 -19.875 
z
M 14.546875 25.640625 
Q 14.546875 15.625 18.59375 10.84375 
Q 22.65625 6.0625 28.421875 6.0625 
Q 34.28125 6.0625 38.453125 11.015625 
Q 42.625 15.96875 42.625 26.375 
Q 42.625 36.28125 38.546875 41.203125 
Q 34.46875 46.140625 28.8125 46.140625 
Q 23.1875 46.140625 18.859375 40.890625 
Q 14.546875 35.640625 14.546875 25.640625 
" id="ArialMT-70"/>
      <path d="M 54.6875 71.578125 
L 64.15625 71.578125 
L 64.15625 30.21875 
Q 64.15625 19.4375 61.71875 13.078125 
Q 59.28125 6.734375 52.90625 2.75 
Q 46.53125 -1.21875 36.1875 -1.21875 
Q 26.125 -1.21875 19.71875 2.25 
Q 13.328125 5.71875 10.59375 12.28125 
Q 7.859375 18.84375 7.859375 30.21875 
L 7.859375 71.578125 
L 17.328125 71.578125 
L 17.328125 30.28125 
Q 17.328125 20.953125 19.0625 16.53125 
Q 20.796875 12.109375 25.015625 9.71875 
Q 29.25 7.328125 35.359375 7.328125 
Q 45.796875 7.328125 50.234375 12.0625 
Q 54.6875 16.796875 54.6875 30.28125 
z
" id="ArialMT-55"/>
      <path d="M 7.859375 0 
L 7.859375 71.578125 
L 39.59375 71.578125 
Q 49.171875 71.578125 54.140625 69.640625 
Q 59.125 67.71875 62.109375 62.828125 
Q 65.09375 57.953125 65.09375 52.046875 
Q 65.09375 44.4375 60.15625 39.203125 
Q 55.21875 33.984375 44.921875 32.5625 
Q 48.6875 30.765625 50.640625 29 
Q 54.78125 25.203125 58.5 19.484375 
L 70.953125 0 
L 59.03125 0 
L 49.5625 14.890625 
Q 45.40625 21.34375 42.71875 24.75 
Q 40.046875 28.171875 37.921875 29.53125 
Q 35.796875 30.90625 33.59375 31.453125 
Q 31.984375 31.78125 28.328125 31.78125 
L 17.328125 31.78125 
L 17.328125 0 
z
M 17.328125 39.984375 
L 37.703125 39.984375 
Q 44.1875 39.984375 47.84375 41.328125 
Q 51.515625 42.671875 53.421875 45.625 
Q 55.328125 48.578125 55.328125 52.046875 
Q 55.328125 57.125 51.640625 60.390625 
Q 47.953125 63.671875 39.984375 63.671875 
L 17.328125 63.671875 
z
" id="ArialMT-52"/>
      <path d="M 12.359375 -21.046875 
L 6.0625 -21.046875 
Q 20.65625 2.390625 20.65625 25.875 
Q 20.65625 35.0625 18.5625 44.09375 
Q 16.890625 51.421875 13.921875 58.15625 
Q 12.015625 62.546875 6.0625 72.796875 
L 12.359375 72.796875 
Q 21.53125 60.546875 25.921875 48.1875 
Q 29.6875 37.546875 29.6875 25.921875 
Q 29.6875 12.75 24.625 0.4375 
Q 19.578125 -11.859375 12.359375 -21.046875 
" id="ArialMT-29"/>
      <path d="M 23.390625 -21.046875 
Q 16.109375 -11.859375 11.078125 0.4375 
Q 6.0625 12.75 6.0625 25.921875 
Q 6.0625 37.546875 9.8125 48.1875 
Q 14.203125 60.546875 23.390625 72.796875 
L 29.6875 72.796875 
Q 23.78125 62.640625 21.875 58.296875 
Q 18.890625 51.5625 17.1875 44.234375 
Q 15.09375 35.109375 15.09375 25.875 
Q 15.09375 2.390625 29.6875 -21.046875 
z
" id="ArialMT-28"/>
      <path d="M 2 0 
L 2 8.796875 
L 38.671875 54.640625 
Q 42.578125 59.515625 46.09375 63.140625 
L 6.15625 63.140625 
L 6.15625 71.578125 
L 57.421875 71.578125 
L 57.421875 63.140625 
L 17.234375 13.484375 
L 12.890625 8.453125 
L 58.59375 8.453125 
L 58.59375 0 
z
" id="ArialMT-5a"/>
      <path d="M 4.828125 34.859375 
Q 4.828125 52.6875 14.390625 62.765625 
Q 23.96875 72.859375 39.109375 72.859375 
Q 49.03125 72.859375 56.984375 68.109375 
Q 64.9375 63.375 69.109375 54.90625 
Q 73.296875 46.4375 73.296875 35.6875 
Q 73.296875 24.8125 68.890625 16.21875 
Q 64.5 7.625 56.4375 3.203125 
Q 48.390625 -1.21875 39.0625 -1.21875 
Q 28.953125 -1.21875 20.984375 3.65625 
Q 13.03125 8.546875 8.921875 16.984375 
Q 4.828125 25.4375 4.828125 34.859375 
M 14.59375 34.71875 
Q 14.59375 21.78125 21.546875 14.328125 
Q 28.515625 6.890625 39.015625 6.890625 
Q 49.703125 6.890625 56.609375 14.40625 
Q 63.53125 21.921875 63.53125 35.75 
Q 63.53125 44.484375 60.578125 51 
Q 57.625 57.515625 51.921875 61.109375 
Q 46.234375 64.703125 39.15625 64.703125 
Q 29.109375 64.703125 21.84375 57.78125 
Q 14.59375 50.875 14.59375 34.71875 
" id="ArialMT-4f"/>
     </defs>
     <g style="fill:#262626;" transform="translate(146.22390625 436.429140625)rotate(-90.0)scale(0.11 -0.11)">
      <use xlink:href="#ArialMT-6d"/>
      <use x="83.30078125" xlink:href="#ArialMT-65"/>
      <use x="138.916015625" xlink:href="#ArialMT-61"/>
      <use x="194.53125" xlink:href="#ArialMT-6e"/>
      <use x="250.146484375" xlink:href="#ArialMT-28"/>
      <use x="283.447265625" xlink:href="#ArialMT-5a"/>
      <use x="344.53125" xlink:href="#ArialMT-73"/>
      <use x="394.53125" xlink:href="#ArialMT-70"/>
      <use x="450.146484375" xlink:href="#ArialMT-61"/>
      <use x="505.76171875" xlink:href="#ArialMT-63"/>
      <use x="555.76171875" xlink:href="#ArialMT-65"/>
      <use x="611.376953125" xlink:href="#ArialMT-5f"/>
      <use x="666.9921875" xlink:href="#ArialMT-74"/>
      <use x="694.775390625" xlink:href="#ArialMT-65"/>
      <use x="750.390625" xlink:href="#ArialMT-73"/>
      <use x="800.390625" xlink:href="#ArialMT-74"/>
      <use x="828.173828125" xlink:href="#ArialMT-5f"/>
      <use x="883.7890625" xlink:href="#ArialMT-41"/>
      <use x="950.48828125" xlink:href="#ArialMT-55"/>
      <use x="1022.70507812" xlink:href="#ArialMT-43"/>
      <use x="1094.921875" xlink:href="#ArialMT-5f"/>
      <use x="1150.53710938" xlink:href="#ArialMT-52"/>
      <use x="1222.75390625" xlink:href="#ArialMT-4f"/>
      <use x="1300.53710938" xlink:href="#ArialMT-43"/>
      <use x="1372.75390625" xlink:href="#ArialMT-29"/>
     </g>
    </g>
   </g>
   <g id="PathCollection_1">
    <defs>
     <path d="M 0 3.94794 
C 1.047006 3.94794 2.05127 3.53196 2.791615 2.791615 
C 3.53196 2.05127 3.94794 1.047006 3.94794 0 
C 3.94794 -1.047006 3.53196 -2.05127 2.791615 -2.791615 
C 2.05127 -3.53196 1.047006 -3.94794 0 -3.94794 
C -1.047006 -3.94794 -2.05127 -3.53196 -2.791615 -2.791615 
C -3.53196 -2.05127 -3.94794 -1.047006 -3.94794 0 
C -3.94794 1.047006 -3.53196 2.05127 -2.791615 2.791615 
C -2.05127 3.53196 -1.047006 3.94794 0 3.94794 
z
" id="C0_0_35fe0f209e"/>
    </defs>
    <g clip-path="url(#p9128944454)">
     <use style="fill:#4c72b0;stroke:#4c72b0;stroke-width:2.3625;" x="235.8" xlink:href="#C0_0_35fe0f209e" y="232.006020395"/>
    </g>
    <g clip-path="url(#p9128944454)">
     <use style="fill:#4c72b0;stroke:#4c72b0;stroke-width:2.3625;" x="347.4" xlink:href="#C0_0_35fe0f209e" y="266.524457655"/>
    </g>
    <g clip-path="url(#p9128944454)">
     <use style="fill:#4c72b0;stroke:#4c72b0;stroke-width:2.3625;" x="459.0" xlink:href="#C0_0_35fe0f209e" y="299.386953115"/>
    </g>
    <g clip-path="url(#p9128944454)">
     <use style="fill:#4c72b0;stroke:#4c72b0;stroke-width:2.3625;" x="570.6" xlink:href="#C0_0_35fe0f209e" y="154.703727646"/>
    </g>
    <g clip-path="url(#p9128944454)">
     <use style="fill:#4c72b0;stroke:#4c72b0;stroke-width:2.3625;" x="682.2" xlink:href="#C0_0_35fe0f209e" y="240.910950131"/>
    </g>
    <g clip-path="url(#p9128944454)">
     <use style="fill:#4c72b0;stroke:#4c72b0;stroke-width:2.3625;" x="793.8" xlink:href="#C0_0_35fe0f209e" y="215.220629772"/>
    </g>
    <g clip-path="url(#p9128944454)">
     <use style="fill:#4c72b0;stroke:#4c72b0;stroke-width:2.3625;" x="905.4" xlink:href="#C0_0_35fe0f209e" y="240.902018406"/>
    </g>
    <g clip-path="url(#p9128944454)">
     <use style="fill:#4c72b0;stroke:#4c72b0;stroke-width:2.3625;" x="1017.0" xlink:href="#C0_0_35fe0f209e" y="217.625050118"/>
    </g>
    <g clip-path="url(#p9128944454)">
     <use style="fill:#4c72b0;stroke:#4c72b0;stroke-width:2.3625;" x="1128.6" xlink:href="#C0_0_35fe0f209e" y="285.997404303"/>
    </g>
    <g clip-path="url(#p9128944454)">
     <use style="fill:#4c72b0;stroke:#4c72b0;stroke-width:2.3625;" x="1240.2" xlink:href="#C0_0_35fe0f209e" y="169.224032832"/>
    </g>
   </g>
   <g id="PathCollection_2">
    <path clip-path="url(#p9128944454)" d="M 231.85206 409.408988 
L 239.74794 401.513109 
M 231.85206 401.513109 
L 239.74794 409.408988 
" style="fill:#4c72b0;stroke:#4c72b0;stroke-width:2.3625;"/>
    <path clip-path="url(#p9128944454)" d="M 343.45206 366.614174 
L 351.34794 358.718295 
M 343.45206 358.718295 
L 351.34794 366.614174 
" style="fill:#4c72b0;stroke:#4c72b0;stroke-width:2.3625;"/>
    <path clip-path="url(#p9128944454)" d="M 455.05206 357.104215 
L 462.94794 349.208336 
M 455.05206 349.208336 
L 462.94794 357.104215 
" style="fill:#4c72b0;stroke:#4c72b0;stroke-width:2.3625;"/>
    <path clip-path="url(#p9128944454)" d="M 566.65206 404.654008 
L 574.54794 396.758129 
M 566.65206 396.758129 
L 574.54794 404.654008 
" style="fill:#4c72b0;stroke:#4c72b0;stroke-width:2.3625;"/>
    <path clip-path="url(#p9128944454)" d="M 678.25206 330.159333 
L 686.14794 322.263454 
M 678.25206 322.263454 
L 686.14794 330.159333 
" style="fill:#4c72b0;stroke:#4c72b0;stroke-width:2.3625;"/>
    <path clip-path="url(#p9128944454)" d="M 789.85206 330.159333 
L 797.74794 322.263454 
M 789.85206 322.263454 
L 797.74794 330.159333 
" style="fill:#4c72b0;stroke:#4c72b0;stroke-width:2.3625;"/>
    <path clip-path="url(#p9128944454)" d="M 901.45206 276.269567 
L 909.34794 268.373688 
M 901.45206 268.373688 
L 909.34794 276.269567 
" style="fill:#4c72b0;stroke:#4c72b0;stroke-width:2.3625;"/>
    <path clip-path="url(#p9128944454)" d="M 1013.05206 322.234367 
L 1020.94794 314.338488 
M 1013.05206 314.338488 
L 1020.94794 322.234367 
" style="fill:#4c72b0;stroke:#4c72b0;stroke-width:2.3625;"/>
    <path clip-path="url(#p9128944454)" d="M 1124.65206 510.848546 
L 1132.54794 502.952667 
M 1124.65206 502.952667 
L 1132.54794 510.848546 
" style="fill:#4c72b0;stroke:#4c72b0;stroke-width:2.3625;"/>
    <path clip-path="url(#p9128944454)" d="M 1236.25206 380.879112 
L 1244.14794 372.983233 
M 1236.25206 372.983233 
L 1244.14794 380.879112 
" style="fill:#4c72b0;stroke:#4c72b0;stroke-width:2.3625;"/>
   </g>
   <g id="line2d_39">
    <path clip-path="url(#p9128944454)" d="M 235.8 232.00602 
L 347.4 266.524458 
L 459 299.386953 
L 570.6 154.703728 
L 682.2 240.91095 
L 793.8 215.22063 
L 905.4 240.902018 
L 1017 217.62505 
L 1128.6 285.997404 
L 1240.2 169.224033 
" style="fill:none;stroke:#4c72b0;stroke-linecap:round;stroke-width:3.15;"/>
   </g>
   <g id="line2d_40">
    <path clip-path="url(#p9128944454)" style="fill:none;stroke:#4c72b0;stroke-linecap:round;stroke-width:3.15;"/>
   </g>
   <g id="line2d_41">
    <path clip-path="url(#p9128944454)" style="fill:none;stroke:#4c72b0;stroke-linecap:round;stroke-width:3.15;"/>
   </g>
   <g id="line2d_42">
    <path clip-path="url(#p9128944454)" style="fill:none;stroke:#4c72b0;stroke-linecap:round;stroke-width:3.15;"/>
   </g>
   <g id="line2d_43">
    <path clip-path="url(#p9128944454)" style="fill:none;stroke:#4c72b0;stroke-linecap:round;stroke-width:3.15;"/>
   </g>
   <g id="line2d_44">
    <path clip-path="url(#p9128944454)" style="fill:none;stroke:#4c72b0;stroke-linecap:round;stroke-width:3.15;"/>
   </g>
   <g id="line2d_45">
    <path clip-path="url(#p9128944454)" style="fill:none;stroke:#4c72b0;stroke-linecap:round;stroke-width:3.15;"/>
   </g>
   <g id="line2d_46">
    <path clip-path="url(#p9128944454)" style="fill:none;stroke:#4c72b0;stroke-linecap:round;stroke-width:3.15;"/>
   </g>
   <g id="line2d_47">
    <path clip-path="url(#p9128944454)" style="fill:none;stroke:#4c72b0;stroke-linecap:round;stroke-width:3.15;"/>
   </g>
   <g id="line2d_48">
    <path clip-path="url(#p9128944454)" style="fill:none;stroke:#4c72b0;stroke-linecap:round;stroke-width:3.15;"/>
   </g>
   <g id="line2d_49">
    <path clip-path="url(#p9128944454)" style="fill:none;stroke:#4c72b0;stroke-linecap:round;stroke-width:3.15;"/>
   </g>
   <g id="line2d_50">
    <path clip-path="url(#p9128944454)" d="M 235.8 405.461048 
L 347.4 362.666234 
L 459 353.156276 
L 570.6 400.706069 
L 682.2 326.211393 
L 793.8 326.211393 
L 905.4 272.321628 
L 1017 318.286428 
L 1128.6 506.900607 
L 1240.2 376.931172 
" style="fill:none;stroke:#4c72b0;stroke-dasharray:6.000000,6.000000;stroke-dashoffset:0.0;stroke-width:3.15;"/>
   </g>
   <g id="line2d_51">
    <path clip-path="url(#p9128944454)" style="fill:none;stroke:#4c72b0;stroke-linecap:round;stroke-width:3.15;"/>
   </g>
   <g id="line2d_52">
    <path clip-path="url(#p9128944454)" style="fill:none;stroke:#4c72b0;stroke-linecap:round;stroke-width:3.15;"/>
   </g>
   <g id="line2d_53">
    <path clip-path="url(#p9128944454)" style="fill:none;stroke:#4c72b0;stroke-linecap:round;stroke-width:3.15;"/>
   </g>
   <g id="line2d_54">
    <path clip-path="url(#p9128944454)" style="fill:none;stroke:#4c72b0;stroke-linecap:round;stroke-width:3.15;"/>
   </g>
   <g id="line2d_55">
    <path clip-path="url(#p9128944454)" style="fill:none;stroke:#4c72b0;stroke-linecap:round;stroke-width:3.15;"/>
   </g>
   <g id="line2d_56">
    <path clip-path="url(#p9128944454)" style="fill:none;stroke:#4c72b0;stroke-linecap:round;stroke-width:3.15;"/>
   </g>
   <g id="line2d_57">
    <path clip-path="url(#p9128944454)" style="fill:none;stroke:#4c72b0;stroke-linecap:round;stroke-width:3.15;"/>
   </g>
   <g id="line2d_58">
    <path clip-path="url(#p9128944454)" style="fill:none;stroke:#4c72b0;stroke-linecap:round;stroke-width:3.15;"/>
   </g>
   <g id="line2d_59">
    <path clip-path="url(#p9128944454)" style="fill:none;stroke:#4c72b0;stroke-linecap:round;stroke-width:3.15;"/>
   </g>
   <g id="line2d_60">
    <path clip-path="url(#p9128944454)" style="fill:none;stroke:#4c72b0;stroke-linecap:round;stroke-width:3.15;"/>
   </g>
   <g id="PathCollection_3">
    <defs>
     <path d="M 0 3.94794 
C 1.047006 3.94794 2.05127 3.53196 2.791615 2.791615 
C 3.53196 2.05127 3.94794 1.047006 3.94794 0 
C 3.94794 -1.047006 3.53196 -2.05127 2.791615 -2.791615 
C 2.05127 -3.53196 1.047006 -3.94794 0 -3.94794 
C -1.047006 -3.94794 -2.05127 -3.53196 -2.791615 -2.791615 
C -3.53196 -2.05127 -3.94794 -1.047006 -3.94794 0 
C -3.94794 1.047006 -3.53196 2.05127 -2.791615 2.791615 
C -2.05127 3.53196 -1.047006 3.94794 0 3.94794 
z
" id="C1_0_e728a71884"/>
    </defs>
    <g clip-path="url(#p9128944454)">
     <use style="fill:#55a868;stroke:#55a868;stroke-width:2.3625;" x="235.8" xlink:href="#C1_0_e728a71884" y="206.091513742"/>
    </g>
    <g clip-path="url(#p9128944454)">
     <use style="fill:#55a868;stroke:#55a868;stroke-width:2.3625;" x="347.4" xlink:href="#C1_0_e728a71884" y="258.697587116"/>
    </g>
    <g clip-path="url(#p9128944454)">
     <use style="fill:#55a868;stroke:#55a868;stroke-width:2.3625;" x="459.0" xlink:href="#C1_0_e728a71884" y="184.840260664"/>
    </g>
    <g clip-path="url(#p9128944454)">
     <use style="fill:#55a868;stroke:#55a868;stroke-width:2.3625;" x="570.6" xlink:href="#C1_0_e728a71884" y="236.426331053"/>
    </g>
    <g clip-path="url(#p9128944454)">
     <use style="fill:#55a868;stroke:#55a868;stroke-width:2.3625;" x="682.2" xlink:href="#C1_0_e728a71884" y="222.792946151"/>
    </g>
    <g clip-path="url(#p9128944454)">
     <use style="fill:#55a868;stroke:#55a868;stroke-width:2.3625;" x="793.8" xlink:href="#C1_0_e728a71884" y="254.558625793"/>
    </g>
    <g clip-path="url(#p9128944454)">
     <use style="fill:#55a868;stroke:#55a868;stroke-width:2.3625;" x="905.4" xlink:href="#C1_0_e728a71884" y="234.237165278"/>
    </g>
    <g clip-path="url(#p9128944454)">
     <use style="fill:#55a868;stroke:#55a868;stroke-width:2.3625;" x="1017.0" xlink:href="#C1_0_e728a71884" y="237.380239274"/>
    </g>
    <g clip-path="url(#p9128944454)">
     <use style="fill:#55a868;stroke:#55a868;stroke-width:2.3625;" x="1128.6" xlink:href="#C1_0_e728a71884" y="232.028349708"/>
    </g>
    <g clip-path="url(#p9128944454)">
     <use style="fill:#55a868;stroke:#55a868;stroke-width:2.3625;" x="1240.2" xlink:href="#C1_0_e728a71884" y="222.321351076"/>
    </g>
   </g>
   <g id="PathCollection_4">
    <path clip-path="url(#p9128944454)" d="M 231.85206 306.384436 
L 239.74794 298.488557 
M 231.85206 298.488557 
L 239.74794 306.384436 
" style="fill:#55a868;stroke:#55a868;stroke-width:2.3625;"/>
    <path clip-path="url(#p9128944454)" d="M 343.45206 437.938864 
L 351.34794 430.042985 
M 343.45206 430.042985 
L 351.34794 437.938864 
" style="fill:#55a868;stroke:#55a868;stroke-width:2.3625;"/>
    <path clip-path="url(#p9128944454)" d="M 455.05206 406.239002 
L 462.94794 398.343123 
M 455.05206 398.343123 
L 462.94794 406.239002 
" style="fill:#55a868;stroke:#55a868;stroke-width:2.3625;"/>
    <path clip-path="url(#p9128944454)" d="M 566.65206 525.113484 
L 574.54794 517.217605 
M 566.65206 517.217605 
L 574.54794 525.113484 
" style="fill:#55a868;stroke:#55a868;stroke-width:2.3625;"/>
    <path clip-path="url(#p9128944454)" d="M 678.25206 430.013898 
L 686.14794 422.118019 
M 678.25206 422.118019 
L 686.14794 430.013898 
" style="fill:#55a868;stroke:#55a868;stroke-width:2.3625;"/>
    <path clip-path="url(#p9128944454)" d="M 789.85206 342.839277 
L 797.74794 334.943398 
M 789.85206 334.943398 
L 797.74794 342.839277 
" style="fill:#55a868;stroke:#55a868;stroke-width:2.3625;"/>
    <path clip-path="url(#p9128944454)" d="M 901.45206 475.978698 
L 909.34794 468.082819 
M 901.45206 468.082819 
L 909.34794 475.978698 
" style="fill:#55a868;stroke:#55a868;stroke-width:2.3625;"/>
    <path clip-path="url(#p9128944454)" d="M 1013.05206 328.57434 
L 1020.94794 320.67846 
M 1013.05206 320.67846 
L 1020.94794 328.57434 
" style="fill:#55a868;stroke:#55a868;stroke-width:2.3625;"/>
    <path clip-path="url(#p9128944454)" d="M 1124.65206 534.623443 
L 1132.54794 526.727564 
M 1124.65206 526.727564 
L 1132.54794 534.623443 
" style="fill:#55a868;stroke:#55a868;stroke-width:2.3625;"/>
    <path clip-path="url(#p9128944454)" d="M 1236.25206 423.673926 
L 1244.14794 415.778047 
M 1236.25206 415.778047 
L 1244.14794 423.673926 
" style="fill:#55a868;stroke:#55a868;stroke-width:2.3625;"/>
   </g>
   <g id="line2d_61">
    <path clip-path="url(#p9128944454)" d="M 235.8 206.091514 
L 347.4 258.697587 
L 459 184.840261 
L 570.6 236.426331 
L 682.2 222.792946 
L 793.8 254.558626 
L 905.4 234.237165 
L 1017 237.380239 
L 1128.6 232.02835 
L 1240.2 222.321351 
" style="fill:none;stroke:#55a868;stroke-linecap:round;stroke-width:3.15;"/>
   </g>
   <g id="line2d_62">
    <path clip-path="url(#p9128944454)" style="fill:none;stroke:#55a868;stroke-linecap:round;stroke-width:3.15;"/>
   </g>
   <g id="line2d_63">
    <path clip-path="url(#p9128944454)" style="fill:none;stroke:#55a868;stroke-linecap:round;stroke-width:3.15;"/>
   </g>
   <g id="line2d_64">
    <path clip-path="url(#p9128944454)" style="fill:none;stroke:#55a868;stroke-linecap:round;stroke-width:3.15;"/>
   </g>
   <g id="line2d_65">
    <path clip-path="url(#p9128944454)" style="fill:none;stroke:#55a868;stroke-linecap:round;stroke-width:3.15;"/>
   </g>
   <g id="line2d_66">
    <path clip-path="url(#p9128944454)" style="fill:none;stroke:#55a868;stroke-linecap:round;stroke-width:3.15;"/>
   </g>
   <g id="line2d_67">
    <path clip-path="url(#p9128944454)" style="fill:none;stroke:#55a868;stroke-linecap:round;stroke-width:3.15;"/>
   </g>
   <g id="line2d_68">
    <path clip-path="url(#p9128944454)" style="fill:none;stroke:#55a868;stroke-linecap:round;stroke-width:3.15;"/>
   </g>
   <g id="line2d_69">
    <path clip-path="url(#p9128944454)" style="fill:none;stroke:#55a868;stroke-linecap:round;stroke-width:3.15;"/>
   </g>
   <g id="line2d_70">
    <path clip-path="url(#p9128944454)" style="fill:none;stroke:#55a868;stroke-linecap:round;stroke-width:3.15;"/>
   </g>
   <g id="line2d_71">
    <path clip-path="url(#p9128944454)" style="fill:none;stroke:#55a868;stroke-linecap:round;stroke-width:3.15;"/>
   </g>
   <g id="line2d_72">
    <path clip-path="url(#p9128944454)" d="M 235.8 302.436497 
L 347.4 433.990924 
L 459 402.291062 
L 570.6 521.165545 
L 682.2 426.065959 
L 793.8 338.891338 
L 905.4 472.030759 
L 1017 324.6264 
L 1128.6 530.675503 
L 1240.2 419.725986 
" style="fill:none;stroke:#55a868;stroke-dasharray:6.000000,6.000000;stroke-dashoffset:0.0;stroke-width:3.15;"/>
   </g>
   <g id="line2d_73">
    <path clip-path="url(#p9128944454)" style="fill:none;stroke:#55a868;stroke-linecap:round;stroke-width:3.15;"/>
   </g>
   <g id="line2d_74">
    <path clip-path="url(#p9128944454)" style="fill:none;stroke:#55a868;stroke-linecap:round;stroke-width:3.15;"/>
   </g>
   <g id="line2d_75">
    <path clip-path="url(#p9128944454)" style="fill:none;stroke:#55a868;stroke-linecap:round;stroke-width:3.15;"/>
   </g>
   <g id="line2d_76">
    <path clip-path="url(#p9128944454)" style="fill:none;stroke:#55a868;stroke-linecap:round;stroke-width:3.15;"/>
   </g>
   <g id="line2d_77">
    <path clip-path="url(#p9128944454)" style="fill:none;stroke:#55a868;stroke-linecap:round;stroke-width:3.15;"/>
   </g>
   <g id="line2d_78">
    <path clip-path="url(#p9128944454)" style="fill:none;stroke:#55a868;stroke-linecap:round;stroke-width:3.15;"/>
   </g>
   <g id="line2d_79">
    <path clip-path="url(#p9128944454)" style="fill:none;stroke:#55a868;stroke-linecap:round;stroke-width:3.15;"/>
   </g>
   <g id="line2d_80">
    <path clip-path="url(#p9128944454)" style="fill:none;stroke:#55a868;stroke-linecap:round;stroke-width:3.15;"/>
   </g>
   <g id="line2d_81">
    <path clip-path="url(#p9128944454)" style="fill:none;stroke:#55a868;stroke-linecap:round;stroke-width:3.15;"/>
   </g>
   <g id="line2d_82">
    <path clip-path="url(#p9128944454)" style="fill:none;stroke:#55a868;stroke-linecap:round;stroke-width:3.15;"/>
   </g>
   <g id="patch_3">
    <path d="M 180 71.82 
L 1296 71.82 
" style="fill:none;stroke:#cccccc;stroke-linecap:square;stroke-linejoin:miter;"/>
   </g>
   <g id="patch_4">
    <path d="M 1296 646.38 
L 1296 71.82 
" style="fill:none;stroke:#cccccc;stroke-linecap:square;stroke-linejoin:miter;"/>
   </g>
   <g id="patch_5">
    <path d="M 180 646.38 
L 1296 646.38 
" style="fill:none;stroke:#cccccc;stroke-linecap:square;stroke-linejoin:miter;"/>
   </g>
   <g id="patch_6">
    <path d="M 180 646.38 
L 180 71.82 
" style="fill:none;stroke:#cccccc;stroke-linecap:square;stroke-linejoin:miter;"/>
   </g>
   <g id="PathCollection_5">
    <defs>
     <path d="M 0 3.94794 
C 1.047006 3.94794 2.05127 3.53196 2.791615 2.791615 
C 3.53196 2.05127 3.94794 1.047006 3.94794 0 
C 3.94794 -1.047006 3.53196 -2.05127 2.791615 -2.791615 
C 2.05127 -3.53196 1.047006 -3.94794 0 -3.94794 
C -1.047006 -3.94794 -2.05127 -3.53196 -2.791615 -2.791615 
C -3.53196 -2.05127 -3.94794 -1.047006 -3.94794 0 
C -3.94794 1.047006 -3.53196 2.05127 -2.791615 2.791615 
C -2.05127 3.53196 -1.047006 3.94794 0 3.94794 
z
" id="C2_0_62837f8887"/>
    </defs>
    <g clip-path="url(#p9128944454)">
     <use style="fill:#c44e52;stroke:#c44e52;stroke-width:2.3625;" x="235.8" xlink:href="#C2_0_62837f8887" y="235.693036438"/>
    </g>
    <g clip-path="url(#p9128944454)">
     <use style="fill:#c44e52;stroke:#c44e52;stroke-width:2.3625;" x="347.4" xlink:href="#C2_0_62837f8887" y="223.319024748"/>
    </g>
    <g clip-path="url(#p9128944454)">
     <use style="fill:#c44e52;stroke:#c44e52;stroke-width:2.3625;" x="459.0" xlink:href="#C2_0_62837f8887" y="268.47336003"/>
    </g>
    <g clip-path="url(#p9128944454)">
     <use style="fill:#c44e52;stroke:#c44e52;stroke-width:2.3625;" x="570.6" xlink:href="#C2_0_62837f8887" y="220.690418107"/>
    </g>
    <g clip-path="url(#p9128944454)">
     <use style="fill:#c44e52;stroke:#c44e52;stroke-width:2.3625;" x="682.2" xlink:href="#C2_0_62837f8887" y="253.325154583"/>
    </g>
    <g clip-path="url(#p9128944454)">
     <use style="fill:#c44e52;stroke:#c44e52;stroke-width:2.3625;" x="793.8" xlink:href="#C2_0_62837f8887" y="215.415341375"/>
    </g>
    <g clip-path="url(#p9128944454)">
     <use style="fill:#c44e52;stroke:#c44e52;stroke-width:2.3625;" x="905.4" xlink:href="#C2_0_62837f8887" y="254.609536625"/>
    </g>
    <g clip-path="url(#p9128944454)">
     <use style="fill:#c44e52;stroke:#c44e52;stroke-width:2.3625;" x="1017.0" xlink:href="#C2_0_62837f8887" y="218.579851511"/>
    </g>
    <g clip-path="url(#p9128944454)">
     <use style="fill:#c44e52;stroke:#c44e52;stroke-width:2.3625;" x="1128.6" xlink:href="#C2_0_62837f8887" y="245.611716951"/>
    </g>
    <g clip-path="url(#p9128944454)">
     <use style="fill:#c44e52;stroke:#c44e52;stroke-width:2.3625;" x="1240.2" xlink:href="#C2_0_62837f8887" y="280.903641587"/>
    </g>
   </g>
   <g id="PathCollection_6">
    <path clip-path="url(#p9128944454)" d="M 231.85206 401.484022 
L 239.74794 393.588143 
M 231.85206 393.588143 
L 239.74794 401.484022 
" style="fill:#c44e52;stroke:#c44e52;stroke-width:2.3625;"/>
    <path clip-path="url(#p9128944454)" d="M 343.45206 363.444188 
L 351.34794 355.548309 
M 343.45206 355.548309 
L 351.34794 363.444188 
" style="fill:#c44e52;stroke:#c44e52;stroke-width:2.3625;"/>
    <path clip-path="url(#p9128944454)" d="M 455.05206 393.559057 
L 462.94794 385.663178 
M 455.05206 385.663178 
L 462.94794 393.559057 
" style="fill:#c44e52;stroke:#c44e52;stroke-width:2.3625;"/>
    <path clip-path="url(#p9128944454)" d="M 566.65206 330.159333 
L 574.54794 322.263454 
M 566.65206 322.263454 
L 574.54794 330.159333 
" style="fill:#c44e52;stroke:#c44e52;stroke-width:2.3625;"/>
    <path clip-path="url(#p9128944454)" d="M 678.25206 379.294119 
L 686.14794 371.39824 
M 678.25206 371.39824 
L 686.14794 379.294119 
" style="fill:#c44e52;stroke:#c44e52;stroke-width:2.3625;"/>
    <path clip-path="url(#p9128944454)" d="M 789.85206 361.859195 
L 797.74794 353.963316 
M 789.85206 353.963316 
L 797.74794 361.859195 
" style="fill:#c44e52;stroke:#c44e52;stroke-width:2.3625;"/>
    <path clip-path="url(#p9128944454)" d="M 901.45206 399.899029 
L 909.34794 392.00315 
M 901.45206 392.00315 
L 909.34794 399.899029 
" style="fill:#c44e52;stroke:#c44e52;stroke-width:2.3625;"/>
    <path clip-path="url(#p9128944454)" d="M 1013.05206 296.874477 
L 1020.94794 288.978598 
M 1013.05206 288.978598 
L 1020.94794 296.874477 
" style="fill:#c44e52;stroke:#c44e52;stroke-width:2.3625;"/>
    <path clip-path="url(#p9128944454)" d="M 1124.65206 445.863829 
L 1132.54794 437.96795 
M 1124.65206 437.96795 
L 1132.54794 445.863829 
" style="fill:#c44e52;stroke:#c44e52;stroke-width:2.3625;"/>
    <path clip-path="url(#p9128944454)" d="M 1236.25206 382.464105 
L 1244.14794 374.568226 
M 1236.25206 374.568226 
L 1244.14794 382.464105 
" style="fill:#c44e52;stroke:#c44e52;stroke-width:2.3625;"/>
   </g>
   <g id="line2d_83">
    <path clip-path="url(#p9128944454)" d="M 235.8 235.693036 
L 347.4 223.319025 
L 459 268.47336 
L 570.6 220.690418 
L 682.2 253.325155 
L 793.8 215.415341 
L 905.4 254.609537 
L 1017 218.579852 
L 1128.6 245.611717 
L 1240.2 280.903642 
" style="fill:none;stroke:#c44e52;stroke-linecap:round;stroke-width:3.15;"/>
   </g>
   <g id="line2d_84">
    <path clip-path="url(#p9128944454)" style="fill:none;stroke:#c44e52;stroke-linecap:round;stroke-width:3.15;"/>
   </g>
   <g id="line2d_85">
    <path clip-path="url(#p9128944454)" style="fill:none;stroke:#c44e52;stroke-linecap:round;stroke-width:3.15;"/>
   </g>
   <g id="line2d_86">
    <path clip-path="url(#p9128944454)" style="fill:none;stroke:#c44e52;stroke-linecap:round;stroke-width:3.15;"/>
   </g>
   <g id="line2d_87">
    <path clip-path="url(#p9128944454)" style="fill:none;stroke:#c44e52;stroke-linecap:round;stroke-width:3.15;"/>
   </g>
   <g id="line2d_88">
    <path clip-path="url(#p9128944454)" style="fill:none;stroke:#c44e52;stroke-linecap:round;stroke-width:3.15;"/>
   </g>
   <g id="line2d_89">
    <path clip-path="url(#p9128944454)" style="fill:none;stroke:#c44e52;stroke-linecap:round;stroke-width:3.15;"/>
   </g>
   <g id="line2d_90">
    <path clip-path="url(#p9128944454)" style="fill:none;stroke:#c44e52;stroke-linecap:round;stroke-width:3.15;"/>
   </g>
   <g id="line2d_91">
    <path clip-path="url(#p9128944454)" style="fill:none;stroke:#c44e52;stroke-linecap:round;stroke-width:3.15;"/>
   </g>
   <g id="line2d_92">
    <path clip-path="url(#p9128944454)" style="fill:none;stroke:#c44e52;stroke-linecap:round;stroke-width:3.15;"/>
   </g>
   <g id="line2d_93">
    <path clip-path="url(#p9128944454)" style="fill:none;stroke:#c44e52;stroke-linecap:round;stroke-width:3.15;"/>
   </g>
   <g id="line2d_94">
    <path clip-path="url(#p9128944454)" d="M 235.8 397.536083 
L 347.4 359.496248 
L 459 389.611117 
L 570.6 326.211393 
L 682.2 375.346179 
L 793.8 357.911255 
L 905.4 395.95109 
L 1017 292.926538 
L 1128.6 441.91589 
L 1240.2 378.516166 
" style="fill:none;stroke:#c44e52;stroke-dasharray:6.000000,6.000000;stroke-dashoffset:0.0;stroke-width:3.15;"/>
   </g>
   <g id="line2d_95">
    <path clip-path="url(#p9128944454)" style="fill:none;stroke:#c44e52;stroke-linecap:round;stroke-width:3.15;"/>
   </g>
   <g id="line2d_96">
    <path clip-path="url(#p9128944454)" style="fill:none;stroke:#c44e52;stroke-linecap:round;stroke-width:3.15;"/>
   </g>
   <g id="line2d_97">
    <path clip-path="url(#p9128944454)" style="fill:none;stroke:#c44e52;stroke-linecap:round;stroke-width:3.15;"/>
   </g>
   <g id="line2d_98">
    <path clip-path="url(#p9128944454)" style="fill:none;stroke:#c44e52;stroke-linecap:round;stroke-width:3.15;"/>
   </g>
   <g id="line2d_99">
    <path clip-path="url(#p9128944454)" style="fill:none;stroke:#c44e52;stroke-linecap:round;stroke-width:3.15;"/>
   </g>
   <g id="line2d_100">
    <path clip-path="url(#p9128944454)" style="fill:none;stroke:#c44e52;stroke-linecap:round;stroke-width:3.15;"/>
   </g>
   <g id="line2d_101">
    <path clip-path="url(#p9128944454)" style="fill:none;stroke:#c44e52;stroke-linecap:round;stroke-width:3.15;"/>
   </g>
   <g id="line2d_102">
    <path clip-path="url(#p9128944454)" style="fill:none;stroke:#c44e52;stroke-linecap:round;stroke-width:3.15;"/>
   </g>
   <g id="line2d_103">
    <path clip-path="url(#p9128944454)" style="fill:none;stroke:#c44e52;stroke-linecap:round;stroke-width:3.15;"/>
   </g>
   <g id="line2d_104">
    <path clip-path="url(#p9128944454)" style="fill:none;stroke:#c44e52;stroke-linecap:round;stroke-width:3.15;"/>
   </g>
   <g id="text_19">
    <!-- Zspace AUC ROC vs. number of clusters -->
    <defs>
     <path d="M 8.6875 0 
L 8.6875 45.015625 
L 0.921875 45.015625 
L 0.921875 51.859375 
L 8.6875 51.859375 
L 8.6875 57.375 
Q 8.6875 62.59375 9.625 65.140625 
Q 10.890625 68.5625 14.078125 70.671875 
Q 17.28125 72.796875 23.046875 72.796875 
Q 26.765625 72.796875 31.25 71.921875 
L 29.9375 64.265625 
Q 27.203125 64.75 24.75 64.75 
Q 20.75 64.75 19.09375 63.03125 
Q 17.4375 61.328125 17.4375 56.640625 
L 17.4375 51.859375 
L 27.546875 51.859375 
L 27.546875 45.015625 
L 17.4375 45.015625 
L 17.4375 0 
z
" id="ArialMT-66"/>
     <path d="M 14.703125 0 
L 6.546875 0 
L 6.546875 71.578125 
L 15.328125 71.578125 
L 15.328125 46.046875 
Q 20.90625 53.03125 29.546875 53.03125 
Q 34.328125 53.03125 38.59375 51.09375 
Q 42.875 49.171875 45.625 45.671875 
Q 48.390625 42.1875 49.953125 37.25 
Q 51.515625 32.328125 51.515625 26.703125 
Q 51.515625 13.375 44.921875 6.09375 
Q 38.328125 -1.171875 29.109375 -1.171875 
Q 19.921875 -1.171875 14.703125 6.5 
z
M 14.59375 26.3125 
Q 14.59375 17 17.140625 12.84375 
Q 21.296875 6.0625 28.375 6.0625 
Q 34.125 6.0625 38.328125 11.0625 
Q 42.53125 16.0625 42.53125 25.984375 
Q 42.53125 36.140625 38.5 40.96875 
Q 34.46875 45.796875 28.765625 45.796875 
Q 23 45.796875 18.796875 40.796875 
Q 14.59375 35.796875 14.59375 26.3125 
" id="ArialMT-62"/>
     <path d="M 21 0 
L 1.265625 51.859375 
L 10.546875 51.859375 
L 21.6875 20.796875 
Q 23.484375 15.765625 25 10.359375 
Q 26.171875 14.453125 28.265625 20.21875 
L 39.796875 51.859375 
L 48.828125 51.859375 
L 29.203125 0 
z
" id="ArialMT-76"/>
     <path d="M 3.328125 25.921875 
Q 3.328125 40.328125 11.328125 47.265625 
Q 18.015625 53.03125 27.640625 53.03125 
Q 38.328125 53.03125 45.109375 46.015625 
Q 51.90625 39.015625 51.90625 26.65625 
Q 51.90625 16.65625 48.90625 10.90625 
Q 45.90625 5.171875 40.15625 2 
Q 34.421875 -1.171875 27.640625 -1.171875 
Q 16.75 -1.171875 10.03125 5.8125 
Q 3.328125 12.796875 3.328125 25.921875 
M 12.359375 25.921875 
Q 12.359375 15.96875 16.703125 11.015625 
Q 21.046875 6.0625 27.640625 6.0625 
Q 34.1875 6.0625 38.53125 11.03125 
Q 42.875 16.015625 42.875 26.21875 
Q 42.875 35.84375 38.5 40.796875 
Q 34.125 45.75 27.640625 45.75 
Q 21.046875 45.75 16.703125 40.8125 
Q 12.359375 35.890625 12.359375 25.921875 
" id="ArialMT-6f"/>
     <path id="ArialMT-20"/>
    </defs>
    <g style="fill:#262626;" transform="translate(555.740625 66.82)scale(0.2 -0.2)">
     <use xlink:href="#ArialMT-5a"/>
     <use x="61.083984375" xlink:href="#ArialMT-73"/>
     <use x="111.083984375" xlink:href="#ArialMT-70"/>
     <use x="166.69921875" xlink:href="#ArialMT-61"/>
     <use x="222.314453125" xlink:href="#ArialMT-63"/>
     <use x="272.314453125" xlink:href="#ArialMT-65"/>
     <use x="327.9296875" xlink:href="#ArialMT-20"/>
     <use x="355.634765625" xlink:href="#ArialMT-41"/>
     <use x="422.333984375" xlink:href="#ArialMT-55"/>
     <use x="494.55078125" xlink:href="#ArialMT-43"/>
     <use x="566.767578125" xlink:href="#ArialMT-20"/>
     <use x="594.55078125" xlink:href="#ArialMT-52"/>
     <use x="666.767578125" xlink:href="#ArialMT-4f"/>
     <use x="744.55078125" xlink:href="#ArialMT-43"/>
     <use x="816.767578125" xlink:href="#ArialMT-20"/>
     <use x="844.55078125" xlink:href="#ArialMT-76"/>
     <use x="894.55078125" xlink:href="#ArialMT-73"/>
     <use x="944.55078125" xlink:href="#ArialMT-2e"/>
     <use x="972.333984375" xlink:href="#ArialMT-20"/>
     <use x="1000.1171875" xlink:href="#ArialMT-6e"/>
     <use x="1055.73242188" xlink:href="#ArialMT-75"/>
     <use x="1111.34765625" xlink:href="#ArialMT-6d"/>
     <use x="1194.6484375" xlink:href="#ArialMT-62"/>
     <use x="1250.26367188" xlink:href="#ArialMT-65"/>
     <use x="1305.87890625" xlink:href="#ArialMT-72"/>
     <use x="1339.1796875" xlink:href="#ArialMT-20"/>
     <use x="1366.96289062" xlink:href="#ArialMT-6f"/>
     <use x="1422.578125" xlink:href="#ArialMT-66"/>
     <use x="1450.36132812" xlink:href="#ArialMT-20"/>
     <use x="1478.14453125" xlink:href="#ArialMT-63"/>
     <use x="1528.14453125" xlink:href="#ArialMT-6c"/>
     <use x="1550.36132812" xlink:href="#ArialMT-75"/>
     <use x="1605.9765625" xlink:href="#ArialMT-73"/>
     <use x="1655.9765625" xlink:href="#ArialMT-74"/>
     <use x="1683.75976562" xlink:href="#ArialMT-65"/>
     <use x="1739.375" xlink:href="#ArialMT-72"/>
     <use x="1772.67578125" xlink:href="#ArialMT-73"/>
    </g>
   </g>
   <g id="PathCollection_7">
    <defs>
     <path d="M 0 3.94794 
C 1.047006 3.94794 2.05127 3.53196 2.791615 2.791615 
C 3.53196 2.05127 3.94794 1.047006 3.94794 0 
C 3.94794 -1.047006 3.53196 -2.05127 2.791615 -2.791615 
C 2.05127 -3.53196 1.047006 -3.94794 0 -3.94794 
C -1.047006 -3.94794 -2.05127 -3.53196 -2.791615 -2.791615 
C -3.53196 -2.05127 -3.94794 -1.047006 -3.94794 0 
C -3.94794 1.047006 -3.53196 2.05127 -2.791615 2.791615 
C -2.05127 3.53196 -1.047006 3.94794 0 3.94794 
z
" id="C3_0_4571eb11b5"/>
    </defs>
    <g clip-path="url(#p9128944454)">
     <use style="fill:#8172b2;stroke:#8172b2;stroke-width:2.3625;" x="235.8" xlink:href="#C3_0_4571eb11b5" y="154.26071409"/>
    </g>
    <g clip-path="url(#p9128944454)">
     <use style="fill:#8172b2;stroke:#8172b2;stroke-width:2.3625;" x="347.4" xlink:href="#C3_0_4571eb11b5" y="214.385513493"/>
    </g>
    <g clip-path="url(#p9128944454)">
     <use style="fill:#8172b2;stroke:#8172b2;stroke-width:2.3625;" x="459.0" xlink:href="#C3_0_4571eb11b5" y="260.905509514"/>
    </g>
    <g clip-path="url(#p9128944454)">
     <use style="fill:#8172b2;stroke:#8172b2;stroke-width:2.3625;" x="570.6" xlink:href="#C3_0_4571eb11b5" y="256.177947519"/>
    </g>
    <g clip-path="url(#p9128944454)">
     <use style="fill:#8172b2;stroke:#8172b2;stroke-width:2.3625;" x="682.2" xlink:href="#C3_0_4571eb11b5" y="182.785963935"/>
    </g>
    <g clip-path="url(#p9128944454)">
     <use style="fill:#8172b2;stroke:#8172b2;stroke-width:2.3625;" x="793.8" xlink:href="#C3_0_4571eb11b5" y="184.506214152"/>
    </g>
    <g clip-path="url(#p9128944454)">
     <use style="fill:#8172b2;stroke:#8172b2;stroke-width:2.3625;" x="905.4" xlink:href="#C3_0_4571eb11b5" y="227.885815695"/>
    </g>
    <g clip-path="url(#p9128944454)">
     <use style="fill:#8172b2;stroke:#8172b2;stroke-width:2.3625;" x="1017.0" xlink:href="#C3_0_4571eb11b5" y="235.028516105"/>
    </g>
    <g clip-path="url(#p9128944454)">
     <use style="fill:#8172b2;stroke:#8172b2;stroke-width:2.3625;" x="1128.6" xlink:href="#C3_0_4571eb11b5" y="219.164879493"/>
    </g>
    <g clip-path="url(#p9128944454)">
     <use style="fill:#8172b2;stroke:#8172b2;stroke-width:2.3625;" x="1240.2" xlink:href="#C3_0_4571eb11b5" y="219.880310658"/>
    </g>
   </g>
   <g id="PathCollection_8">
    <path clip-path="url(#p9128944454)" d="M 231.85206 247.739691 
L 239.74794 239.843812 
M 231.85206 239.843812 
L 239.74794 247.739691 
" style="fill:#8172b2;stroke:#8172b2;stroke-width:2.3625;"/>
    <path clip-path="url(#p9128944454)" d="M 343.45206 326.989346 
L 351.34794 319.093467 
M 343.45206 319.093467 
L 351.34794 326.989346 
" style="fill:#8172b2;stroke:#8172b2;stroke-width:2.3625;"/>
    <path clip-path="url(#p9128944454)" d="M 455.05206 415.74896 
L 462.94794 407.853081 
M 455.05206 407.853081 
L 462.94794 415.74896 
" style="fill:#8172b2;stroke:#8172b2;stroke-width:2.3625;"/>
    <path clip-path="url(#p9128944454)" d="M 566.65206 328.57434 
L 574.54794 320.67846 
M 566.65206 320.67846 
L 574.54794 328.57434 
" style="fill:#8172b2;stroke:#8172b2;stroke-width:2.3625;"/>
    <path clip-path="url(#p9128944454)" d="M 678.25206 266.759608 
L 686.14794 258.863729 
M 678.25206 258.863729 
L 686.14794 266.759608 
" style="fill:#8172b2;stroke:#8172b2;stroke-width:2.3625;"/>
    <path clip-path="url(#p9128944454)" d="M 789.85206 273.099581 
L 797.74794 265.203702 
M 789.85206 265.203702 
L 797.74794 273.099581 
" style="fill:#8172b2;stroke:#8172b2;stroke-width:2.3625;"/>
    <path clip-path="url(#p9128944454)" d="M 901.45206 333.329319 
L 909.34794 325.43344 
M 901.45206 325.43344 
L 909.34794 333.329319 
" style="fill:#8172b2;stroke:#8172b2;stroke-width:2.3625;"/>
    <path clip-path="url(#p9128944454)" d="M 1013.05206 300.044464 
L 1020.94794 292.148585 
M 1013.05206 292.148585 
L 1020.94794 300.044464 
" style="fill:#8172b2;stroke:#8172b2;stroke-width:2.3625;"/>
    <path clip-path="url(#p9128944454)" d="M 1124.65206 403.069015 
L 1132.54794 395.173136 
M 1124.65206 395.173136 
L 1132.54794 403.069015 
" style="fill:#8172b2;stroke:#8172b2;stroke-width:2.3625;"/>
    <path clip-path="url(#p9128944454)" d="M 1236.25206 311.139415 
L 1244.14794 303.243536 
M 1236.25206 303.243536 
L 1244.14794 311.139415 
" style="fill:#8172b2;stroke:#8172b2;stroke-width:2.3625;"/>
   </g>
   <g id="line2d_105">
    <path clip-path="url(#p9128944454)" d="M 235.8 154.260714 
L 347.4 214.385513 
L 459 260.90551 
L 570.6 256.177948 
L 682.2 182.785964 
L 793.8 184.506214 
L 905.4 227.885816 
L 1017 235.028516 
L 1128.6 219.164879 
L 1240.2 219.880311 
" style="fill:none;stroke:#8172b2;stroke-linecap:round;stroke-width:3.15;"/>
   </g>
   <g id="line2d_106">
    <path clip-path="url(#p9128944454)" style="fill:none;stroke:#8172b2;stroke-linecap:round;stroke-width:3.15;"/>
   </g>
   <g id="line2d_107">
    <path clip-path="url(#p9128944454)" style="fill:none;stroke:#8172b2;stroke-linecap:round;stroke-width:3.15;"/>
   </g>
   <g id="line2d_108">
    <path clip-path="url(#p9128944454)" style="fill:none;stroke:#8172b2;stroke-linecap:round;stroke-width:3.15;"/>
   </g>
   <g id="line2d_109">
    <path clip-path="url(#p9128944454)" style="fill:none;stroke:#8172b2;stroke-linecap:round;stroke-width:3.15;"/>
   </g>
   <g id="line2d_110">
    <path clip-path="url(#p9128944454)" style="fill:none;stroke:#8172b2;stroke-linecap:round;stroke-width:3.15;"/>
   </g>
   <g id="line2d_111">
    <path clip-path="url(#p9128944454)" style="fill:none;stroke:#8172b2;stroke-linecap:round;stroke-width:3.15;"/>
   </g>
   <g id="line2d_112">
    <path clip-path="url(#p9128944454)" style="fill:none;stroke:#8172b2;stroke-linecap:round;stroke-width:3.15;"/>
   </g>
   <g id="line2d_113">
    <path clip-path="url(#p9128944454)" style="fill:none;stroke:#8172b2;stroke-linecap:round;stroke-width:3.15;"/>
   </g>
   <g id="line2d_114">
    <path clip-path="url(#p9128944454)" style="fill:none;stroke:#8172b2;stroke-linecap:round;stroke-width:3.15;"/>
   </g>
   <g id="line2d_115">
    <path clip-path="url(#p9128944454)" style="fill:none;stroke:#8172b2;stroke-linecap:round;stroke-width:3.15;"/>
   </g>
   <g id="line2d_116">
    <path clip-path="url(#p9128944454)" d="M 235.8 243.791752 
L 347.4 323.041407 
L 459 411.801021 
L 570.6 324.6264 
L 682.2 262.811669 
L 793.8 269.151641 
L 905.4 329.381379 
L 1017 296.096524 
L 1128.6 399.121076 
L 1240.2 307.191476 
" style="fill:none;stroke:#8172b2;stroke-dasharray:6.000000,6.000000;stroke-dashoffset:0.0;stroke-width:3.15;"/>
   </g>
   <g id="line2d_117">
    <path clip-path="url(#p9128944454)" style="fill:none;stroke:#8172b2;stroke-linecap:round;stroke-width:3.15;"/>
   </g>
   <g id="line2d_118">
    <path clip-path="url(#p9128944454)" style="fill:none;stroke:#8172b2;stroke-linecap:round;stroke-width:3.15;"/>
   </g>
   <g id="line2d_119">
    <path clip-path="url(#p9128944454)" style="fill:none;stroke:#8172b2;stroke-linecap:round;stroke-width:3.15;"/>
   </g>
   <g id="line2d_120">
    <path clip-path="url(#p9128944454)" style="fill:none;stroke:#8172b2;stroke-linecap:round;stroke-width:3.15;"/>
   </g>
   <g id="line2d_121">
    <path clip-path="url(#p9128944454)" style="fill:none;stroke:#8172b2;stroke-linecap:round;stroke-width:3.15;"/>
   </g>
   <g id="line2d_122">
    <path clip-path="url(#p9128944454)" style="fill:none;stroke:#8172b2;stroke-linecap:round;stroke-width:3.15;"/>
   </g>
   <g id="line2d_123">
    <path clip-path="url(#p9128944454)" style="fill:none;stroke:#8172b2;stroke-linecap:round;stroke-width:3.15;"/>
   </g>
   <g id="line2d_124">
    <path clip-path="url(#p9128944454)" style="fill:none;stroke:#8172b2;stroke-linecap:round;stroke-width:3.15;"/>
   </g>
   <g id="line2d_125">
    <path clip-path="url(#p9128944454)" style="fill:none;stroke:#8172b2;stroke-linecap:round;stroke-width:3.15;"/>
   </g>
   <g id="line2d_126">
    <path clip-path="url(#p9128944454)" style="fill:none;stroke:#8172b2;stroke-linecap:round;stroke-width:3.15;"/>
   </g>
   <g id="legend_1">
    <g id="text_20">
     <!-- Zspacedim -->
     <defs>
      <path d="M 6.640625 61.46875 
L 6.640625 71.578125 
L 15.4375 71.578125 
L 15.4375 61.46875 
z
M 6.640625 0 
L 6.640625 51.859375 
L 15.4375 51.859375 
L 15.4375 0 
z
" id="ArialMT-69"/>
      <path d="M 40.234375 0 
L 40.234375 6.546875 
Q 35.296875 -1.171875 25.734375 -1.171875 
Q 19.53125 -1.171875 14.328125 2.25 
Q 9.125 5.671875 6.265625 11.796875 
Q 3.421875 17.921875 3.421875 25.875 
Q 3.421875 33.640625 6 39.96875 
Q 8.59375 46.296875 13.765625 49.65625 
Q 18.953125 53.03125 25.34375 53.03125 
Q 30.03125 53.03125 33.6875 51.046875 
Q 37.359375 49.078125 39.65625 45.90625 
L 39.65625 71.578125 
L 48.390625 71.578125 
L 48.390625 0 
z
M 12.453125 25.875 
Q 12.453125 15.921875 16.640625 10.984375 
Q 20.84375 6.0625 26.5625 6.0625 
Q 32.328125 6.0625 36.34375 10.765625 
Q 40.375 15.484375 40.375 25.140625 
Q 40.375 35.796875 36.265625 40.765625 
Q 32.171875 45.75 26.171875 45.75 
Q 20.3125 45.75 16.375 40.96875 
Q 12.453125 36.1875 12.453125 25.875 
" id="ArialMT-64"/>
     </defs>
     <g style="fill:#262626;" transform="translate(192.648726563 522.3591875)scale(0.0935 -0.0935)">
      <use xlink:href="#ArialMT-5a"/>
      <use x="61.083984375" xlink:href="#ArialMT-73"/>
      <use x="111.083984375" xlink:href="#ArialMT-70"/>
      <use x="166.69921875" xlink:href="#ArialMT-61"/>
      <use x="222.314453125" xlink:href="#ArialMT-63"/>
      <use x="272.314453125" xlink:href="#ArialMT-65"/>
      <use x="327.9296875" xlink:href="#ArialMT-64"/>
      <use x="383.544921875" xlink:href="#ArialMT-69"/>
      <use x="405.76171875" xlink:href="#ArialMT-6d"/>
     </g>
    </g>
    <g id="PathCollection_9">
     <path d="M 199 537.698252 
C 200.047006 537.698252 201.05127 537.282272 201.791615 536.541927 
C 202.53196 535.801582 202.94794 534.797318 202.94794 533.750312 
C 202.94794 532.703307 202.53196 531.699043 201.791615 530.958698 
C 201.05127 530.218353 200.047006 529.802373 199 529.802373 
C 197.952994 529.802373 196.94873 530.218353 196.208385 530.958698 
C 195.46804 531.699043 195.05206 532.703307 195.05206 533.750312 
C 195.05206 534.797318 195.46804 535.801582 196.208385 536.541927 
C 196.94873 537.282272 197.952994 537.698252 199 537.698252 
z
" style="fill:#4c72b0;stroke:#4c72b0;stroke-width:2.3625;"/>
     <path d="M 199 537.698252 
C 200.047006 537.698252 201.05127 537.282272 201.791615 536.541927 
C 202.53196 535.801582 202.94794 534.797318 202.94794 533.750312 
C 202.94794 532.703307 202.53196 531.699043 201.791615 530.958698 
C 201.05127 530.218353 200.047006 529.802373 199 529.802373 
C 197.952994 529.802373 196.94873 530.218353 196.208385 530.958698 
C 195.46804 531.699043 195.05206 532.703307 195.05206 533.750312 
C 195.05206 534.797318 195.46804 535.801582 196.208385 536.541927 
C 196.94873 537.282272 197.952994 537.698252 199 537.698252 
z
" style="fill:#4c72b0;stroke:#4c72b0;stroke-width:2.3625;"/>
     <path d="M 199 537.698252 
C 200.047006 537.698252 201.05127 537.282272 201.791615 536.541927 
C 202.53196 535.801582 202.94794 534.797318 202.94794 533.750312 
C 202.94794 532.703307 202.53196 531.699043 201.791615 530.958698 
C 201.05127 530.218353 200.047006 529.802373 199 529.802373 
C 197.952994 529.802373 196.94873 530.218353 196.208385 530.958698 
C 195.46804 531.699043 195.05206 532.703307 195.05206 533.750312 
C 195.05206 534.797318 195.46804 535.801582 196.208385 536.541927 
C 196.94873 537.282272 197.952994 537.698252 199 537.698252 
z
" style="fill:#4c72b0;stroke:#4c72b0;stroke-width:2.3625;"/>
    </g>
    <g id="text_21">
     <!-- 34.0 -->
     <g style="fill:#262626;" transform="translate(217.0 536.3753125)scale(0.1 -0.1)">
      <use xlink:href="#ArialMT-33"/>
      <use x="55.615234375" xlink:href="#ArialMT-34"/>
      <use x="111.23046875" xlink:href="#ArialMT-2e"/>
      <use x="139.013671875" xlink:href="#ArialMT-30"/>
     </g>
    </g>
    <g id="PathCollection_10">
     <path d="M 199 551.843565 
C 200.047006 551.843565 201.05127 551.427585 201.791615 550.68724 
C 202.53196 549.946895 202.94794 548.942631 202.94794 547.895625 
C 202.94794 546.848619 202.53196 545.844355 201.791615 545.10401 
C 201.05127 544.363665 200.047006 543.947685 199 543.947685 
C 197.952994 543.947685 196.94873 544.363665 196.208385 545.10401 
C 195.46804 545.844355 195.05206 546.848619 195.05206 547.895625 
C 195.05206 548.942631 195.46804 549.946895 196.208385 550.68724 
C 196.94873 551.427585 197.952994 551.843565 199 551.843565 
z
" style="fill:#55a868;stroke:#55a868;stroke-width:2.3625;"/>
     <path d="M 199 551.843565 
C 200.047006 551.843565 201.05127 551.427585 201.791615 550.68724 
C 202.53196 549.946895 202.94794 548.942631 202.94794 547.895625 
C 202.94794 546.848619 202.53196 545.844355 201.791615 545.10401 
C 201.05127 544.363665 200.047006 543.947685 199 543.947685 
C 197.952994 543.947685 196.94873 544.363665 196.208385 545.10401 
C 195.46804 545.844355 195.05206 546.848619 195.05206 547.895625 
C 195.05206 548.942631 195.46804 549.946895 196.208385 550.68724 
C 196.94873 551.427585 197.952994 551.843565 199 551.843565 
z
" style="fill:#55a868;stroke:#55a868;stroke-width:2.3625;"/>
     <path d="M 199 551.843565 
C 200.047006 551.843565 201.05127 551.427585 201.791615 550.68724 
C 202.53196 549.946895 202.94794 548.942631 202.94794 547.895625 
C 202.94794 546.848619 202.53196 545.844355 201.791615 545.10401 
C 201.05127 544.363665 200.047006 543.947685 199 543.947685 
C 197.952994 543.947685 196.94873 544.363665 196.208385 545.10401 
C 195.46804 545.844355 195.05206 546.848619 195.05206 547.895625 
C 195.05206 548.942631 195.46804 549.946895 196.208385 550.68724 
C 196.94873 551.427585 197.952994 551.843565 199 551.843565 
z
" style="fill:#55a868;stroke:#55a868;stroke-width:2.3625;"/>
    </g>
    <g id="text_22">
     <!-- 52.0 -->
     <g style="fill:#262626;" transform="translate(217.0 550.520625)scale(0.1 -0.1)">
      <use xlink:href="#ArialMT-35"/>
      <use x="55.615234375" xlink:href="#ArialMT-32"/>
      <use x="111.23046875" xlink:href="#ArialMT-2e"/>
      <use x="139.013671875" xlink:href="#ArialMT-30"/>
     </g>
    </g>
    <g id="PathCollection_11">
     <path d="M 199 565.988877 
C 200.047006 565.988877 201.05127 565.572897 201.791615 564.832552 
C 202.53196 564.092207 202.94794 563.087943 202.94794 562.040937 
C 202.94794 560.993932 202.53196 559.989668 201.791615 559.249323 
C 201.05127 558.508978 200.047006 558.092998 199 558.092998 
C 197.952994 558.092998 196.94873 558.508978 196.208385 559.249323 
C 195.46804 559.989668 195.05206 560.993932 195.05206 562.040937 
C 195.05206 563.087943 195.46804 564.092207 196.208385 564.832552 
C 196.94873 565.572897 197.952994 565.988877 199 565.988877 
z
" style="fill:#c44e52;stroke:#c44e52;stroke-width:2.3625;"/>
     <path d="M 199 565.988877 
C 200.047006 565.988877 201.05127 565.572897 201.791615 564.832552 
C 202.53196 564.092207 202.94794 563.087943 202.94794 562.040937 
C 202.94794 560.993932 202.53196 559.989668 201.791615 559.249323 
C 201.05127 558.508978 200.047006 558.092998 199 558.092998 
C 197.952994 558.092998 196.94873 558.508978 196.208385 559.249323 
C 195.46804 559.989668 195.05206 560.993932 195.05206 562.040937 
C 195.05206 563.087943 195.46804 564.092207 196.208385 564.832552 
C 196.94873 565.572897 197.952994 565.988877 199 565.988877 
z
" style="fill:#c44e52;stroke:#c44e52;stroke-width:2.3625;"/>
     <path d="M 199 565.988877 
C 200.047006 565.988877 201.05127 565.572897 201.791615 564.832552 
C 202.53196 564.092207 202.94794 563.087943 202.94794 562.040937 
C 202.94794 560.993932 202.53196 559.989668 201.791615 559.249323 
C 201.05127 558.508978 200.047006 558.092998 199 558.092998 
C 197.952994 558.092998 196.94873 558.508978 196.208385 559.249323 
C 195.46804 559.989668 195.05206 560.993932 195.05206 562.040937 
C 195.05206 563.087943 195.46804 564.092207 196.208385 564.832552 
C 196.94873 565.572897 197.952994 565.988877 199 565.988877 
z
" style="fill:#c44e52;stroke:#c44e52;stroke-width:2.3625;"/>
    </g>
    <g id="text_23">
     <!-- 104.0 -->
     <g style="fill:#262626;" transform="translate(217.0 564.6659375)scale(0.1 -0.1)">
      <use xlink:href="#ArialMT-31"/>
      <use x="55.615234375" xlink:href="#ArialMT-30"/>
      <use x="111.23046875" xlink:href="#ArialMT-34"/>
      <use x="166.845703125" xlink:href="#ArialMT-2e"/>
      <use x="194.62890625" xlink:href="#ArialMT-30"/>
     </g>
    </g>
    <g id="PathCollection_12">
     <path d="M 199 580.13419 
C 200.047006 580.13419 201.05127 579.71821 201.791615 578.977865 
C 202.53196 578.23752 202.94794 577.233256 202.94794 576.18625 
C 202.94794 575.139244 202.53196 574.13498 201.791615 573.394635 
C 201.05127 572.65429 200.047006 572.23831 199 572.23831 
C 197.952994 572.23831 196.94873 572.65429 196.208385 573.394635 
C 195.46804 574.13498 195.05206 575.139244 195.05206 576.18625 
C 195.05206 577.233256 195.46804 578.23752 196.208385 578.977865 
C 196.94873 579.71821 197.952994 580.13419 199 580.13419 
z
" style="fill:#8172b2;stroke:#8172b2;stroke-width:2.3625;"/>
     <path d="M 199 580.13419 
C 200.047006 580.13419 201.05127 579.71821 201.791615 578.977865 
C 202.53196 578.23752 202.94794 577.233256 202.94794 576.18625 
C 202.94794 575.139244 202.53196 574.13498 201.791615 573.394635 
C 201.05127 572.65429 200.047006 572.23831 199 572.23831 
C 197.952994 572.23831 196.94873 572.65429 196.208385 573.394635 
C 195.46804 574.13498 195.05206 575.139244 195.05206 576.18625 
C 195.05206 577.233256 195.46804 578.23752 196.208385 578.977865 
C 196.94873 579.71821 197.952994 580.13419 199 580.13419 
z
" style="fill:#8172b2;stroke:#8172b2;stroke-width:2.3625;"/>
     <path d="M 199 580.13419 
C 200.047006 580.13419 201.05127 579.71821 201.791615 578.977865 
C 202.53196 578.23752 202.94794 577.233256 202.94794 576.18625 
C 202.94794 575.139244 202.53196 574.13498 201.791615 573.394635 
C 201.05127 572.65429 200.047006 572.23831 199 572.23831 
C 197.952994 572.23831 196.94873 572.65429 196.208385 573.394635 
C 195.46804 574.13498 195.05206 575.139244 195.05206 576.18625 
C 195.05206 577.233256 195.46804 578.23752 196.208385 578.977865 
C 196.94873 579.71821 197.952994 580.13419 199 580.13419 
z
" style="fill:#8172b2;stroke:#8172b2;stroke-width:2.3625;"/>
    </g>
    <g id="text_24">
     <!-- 261.0 -->
     <g style="fill:#262626;" transform="translate(217.0 578.81125)scale(0.1 -0.1)">
      <use xlink:href="#ArialMT-32"/>
      <use x="55.615234375" xlink:href="#ArialMT-36"/>
      <use x="111.23046875" xlink:href="#ArialMT-31"/>
      <use x="166.845703125" xlink:href="#ArialMT-2e"/>
      <use x="194.62890625" xlink:href="#ArialMT-30"/>
     </g>
    </g>
    <g id="PathCollection_13">
     <path d="M 195.05206 594.279502 
L 202.94794 586.383623 
M 195.05206 586.383623 
L 202.94794 594.279502 
" style="fill:#4c72b0;stroke:#4c72b0;stroke-width:2.3625;"/>
     <path d="M 195.05206 594.279502 
L 202.94794 586.383623 
M 195.05206 586.383623 
L 202.94794 594.279502 
" style="fill:#4c72b0;stroke:#4c72b0;stroke-width:2.3625;"/>
     <path d="M 195.05206 594.279502 
L 202.94794 586.383623 
M 195.05206 586.383623 
L 202.94794 594.279502 
" style="fill:#4c72b0;stroke:#4c72b0;stroke-width:2.3625;"/>
    </g>
    <g id="text_25">
     <!-- 34.0 -->
     <g style="fill:#262626;" transform="translate(217.0 592.9565625)scale(0.1 -0.1)">
      <use xlink:href="#ArialMT-33"/>
      <use x="55.615234375" xlink:href="#ArialMT-34"/>
      <use x="111.23046875" xlink:href="#ArialMT-2e"/>
      <use x="139.013671875" xlink:href="#ArialMT-30"/>
     </g>
    </g>
    <g id="PathCollection_14">
     <path d="M 195.05206 608.424815 
L 202.94794 600.528935 
M 195.05206 600.528935 
L 202.94794 608.424815 
" style="fill:#55a868;stroke:#55a868;stroke-width:2.3625;"/>
     <path d="M 195.05206 608.424815 
L 202.94794 600.528935 
M 195.05206 600.528935 
L 202.94794 608.424815 
" style="fill:#55a868;stroke:#55a868;stroke-width:2.3625;"/>
     <path d="M 195.05206 608.424815 
L 202.94794 600.528935 
M 195.05206 600.528935 
L 202.94794 608.424815 
" style="fill:#55a868;stroke:#55a868;stroke-width:2.3625;"/>
    </g>
    <g id="text_26">
     <!-- 52.0 -->
     <g style="fill:#262626;" transform="translate(217.0 607.101875)scale(0.1 -0.1)">
      <use xlink:href="#ArialMT-35"/>
      <use x="55.615234375" xlink:href="#ArialMT-32"/>
      <use x="111.23046875" xlink:href="#ArialMT-2e"/>
      <use x="139.013671875" xlink:href="#ArialMT-30"/>
     </g>
    </g>
    <g id="PathCollection_15">
     <path d="M 195.05206 622.570127 
L 202.94794 614.674248 
M 195.05206 614.674248 
L 202.94794 622.570127 
" style="fill:#c44e52;stroke:#c44e52;stroke-width:2.3625;"/>
     <path d="M 195.05206 622.570127 
L 202.94794 614.674248 
M 195.05206 614.674248 
L 202.94794 622.570127 
" style="fill:#c44e52;stroke:#c44e52;stroke-width:2.3625;"/>
     <path d="M 195.05206 622.570127 
L 202.94794 614.674248 
M 195.05206 614.674248 
L 202.94794 622.570127 
" style="fill:#c44e52;stroke:#c44e52;stroke-width:2.3625;"/>
    </g>
    <g id="text_27">
     <!-- 104.0 -->
     <g style="fill:#262626;" transform="translate(217.0 621.2471875)scale(0.1 -0.1)">
      <use xlink:href="#ArialMT-31"/>
      <use x="55.615234375" xlink:href="#ArialMT-30"/>
      <use x="111.23046875" xlink:href="#ArialMT-34"/>
      <use x="166.845703125" xlink:href="#ArialMT-2e"/>
      <use x="194.62890625" xlink:href="#ArialMT-30"/>
     </g>
    </g>
    <g id="PathCollection_16">
     <path d="M 195.05206 636.71544 
L 202.94794 628.81956 
M 195.05206 628.81956 
L 202.94794 636.71544 
" style="fill:#8172b2;stroke:#8172b2;stroke-width:2.3625;"/>
     <path d="M 195.05206 636.71544 
L 202.94794 628.81956 
M 195.05206 628.81956 
L 202.94794 636.71544 
" style="fill:#8172b2;stroke:#8172b2;stroke-width:2.3625;"/>
     <path d="M 195.05206 636.71544 
L 202.94794 628.81956 
M 195.05206 628.81956 
L 202.94794 636.71544 
" style="fill:#8172b2;stroke:#8172b2;stroke-width:2.3625;"/>
    </g>
    <g id="text_28">
     <!-- 261.0 -->
     <g style="fill:#262626;" transform="translate(217.0 635.3925)scale(0.1 -0.1)">
      <use xlink:href="#ArialMT-32"/>
      <use x="55.615234375" xlink:href="#ArialMT-36"/>
      <use x="111.23046875" xlink:href="#ArialMT-31"/>
      <use x="166.845703125" xlink:href="#ArialMT-2e"/>
      <use x="194.62890625" xlink:href="#ArialMT-30"/>
     </g>
    </g>
   </g>
  </g>
 </g>
 <defs>
  <clipPath id="p9128944454">
   <rect height="574.56" width="1116.0" x="180.0" y="71.82"/>
  </clipPath>
 </defs>
</svg>
